<svg width="482" height="55" viewBox="0 0 482 55" fill="none" xmlns="http://www.w3.org/2000/svg">
<rect width="482" height="55" rx="10" fill="#A3765C"/>
<path d="M24.9495 21L23.8095 25.24H22.0295L23.5695 21H24.9495ZM27.9295 21L26.7895 25.24H25.0095L26.5495 21H27.9295ZM32.941 35.24C32.2077 35.24 31.5677 35.1333 31.021 34.92C30.4743 34.6933 30.0143 34.4 29.641 34.04C29.281 33.68 29.021 33.2867 28.861 32.86L30.261 32.28C30.4877 32.7333 30.8277 33.1 31.281 33.38C31.7343 33.66 32.2343 33.8 32.781 33.8C33.4077 33.8 33.9343 33.68 34.361 33.44C34.7877 33.1867 35.001 32.8333 35.001 32.38C35.001 31.9667 34.841 31.6333 34.521 31.38C34.2143 31.1267 33.7543 30.92 33.141 30.76L32.181 30.5C31.2743 30.26 30.5677 29.9 30.061 29.42C29.5543 28.9267 29.301 28.3733 29.301 27.76C29.301 26.8133 29.6077 26.08 30.221 25.56C30.8477 25.0267 31.7743 24.76 33.001 24.76C33.5877 24.76 34.121 24.8467 34.601 25.02C35.081 25.1933 35.4943 25.44 35.841 25.76C36.1877 26.0667 36.441 26.4333 36.601 26.86L35.201 27.48C35.0277 27.0267 34.741 26.7 34.341 26.5C33.941 26.3 33.4543 26.2 32.881 26.2C32.2677 26.2 31.7877 26.3333 31.441 26.6C31.0943 26.8533 30.921 27.2133 30.921 27.68C30.921 27.9467 31.061 28.2 31.341 28.44C31.6343 28.6667 32.061 28.8533 32.621 29L33.621 29.26C34.2743 29.42 34.821 29.66 35.261 29.98C35.701 30.2867 36.0343 30.64 36.261 31.04C36.4877 31.44 36.601 31.8667 36.601 32.32C36.601 32.92 36.441 33.44 36.121 33.88C35.801 34.32 35.3677 34.66 34.821 34.9C34.2743 35.1267 33.6477 35.24 32.941 35.24ZM42.9274 35.24C41.9541 35.24 41.0874 35.02 40.3274 34.58C39.5808 34.1267 38.9941 33.5067 38.5674 32.72C38.1408 31.9333 37.9274 31.0267 37.9274 30C37.9274 28.9733 38.1341 28.0667 38.5474 27.28C38.9741 26.4933 39.5608 25.88 40.3074 25.44C41.0674 24.9867 41.9274 24.76 42.8874 24.76C43.8741 24.76 44.7408 24.9867 45.4874 25.44C46.2474 25.88 46.8341 26.4933 47.2474 27.28C47.6741 28.0667 47.8874 28.9733 47.8874 30C47.8874 31.0267 47.6741 31.9333 47.2474 32.72C46.8341 33.5067 46.2541 34.1267 45.5074 34.58C44.7608 35.02 43.9008 35.24 42.9274 35.24ZM42.9274 33.76C43.5941 33.76 44.1741 33.6 44.6674 33.28C45.1608 32.96 45.5474 32.52 45.8274 31.96C46.1208 31.4 46.2674 30.7467 46.2674 30C46.2674 29.2533 46.1208 28.6 45.8274 28.04C45.5474 27.48 45.1541 27.04 44.6474 26.72C44.1408 26.4 43.5541 26.24 42.8874 26.24C42.2341 26.24 41.6541 26.4 41.1474 26.72C40.6541 27.04 40.2608 27.48 39.9674 28.04C39.6874 28.6 39.5474 29.2533 39.5474 30C39.5474 30.7333 39.6874 31.3867 39.9674 31.96C40.2608 32.52 40.6608 32.96 41.1674 33.28C41.6874 33.6 42.2741 33.76 42.9274 33.76ZM49.859 35V25H51.359L51.439 26.4C51.7457 25.8667 52.139 25.46 52.619 25.18C53.099 24.9 53.659 24.76 54.299 24.76C55.099 24.76 55.779 24.9467 56.339 25.32C56.9123 25.6933 57.3257 26.26 57.579 27.02C57.859 26.2867 58.2657 25.7267 58.799 25.34C59.3457 24.9533 59.9923 24.76 60.739 24.76C61.859 24.76 62.739 25.1333 63.379 25.88C64.0323 26.6267 64.3523 27.76 64.339 29.28V35H62.739V29.88C62.739 28.8933 62.6323 28.14 62.419 27.62C62.219 27.1 61.9457 26.7467 61.599 26.56C61.2523 26.36 60.8523 26.26 60.399 26.26C59.6123 26.26 58.999 26.5733 58.559 27.2C58.119 27.8133 57.899 28.6867 57.899 29.82V35H56.299V29.88C56.299 28.8933 56.1923 28.14 55.979 27.62C55.779 27.1 55.499 26.7467 55.139 26.56C54.7923 26.36 54.3923 26.26 53.939 26.26C53.1657 26.26 52.559 26.5733 52.119 27.2C51.679 27.8133 51.459 28.6867 51.459 29.82V35H49.859ZM71.0007 35.24C70.0274 35.24 69.1674 35.02 68.4207 34.58C67.674 34.1267 67.0874 33.5067 66.6607 32.72C66.2474 31.9333 66.0407 31.0267 66.0407 30C66.0407 28.9733 66.2474 28.0667 66.6607 27.28C67.0874 26.4933 67.6674 25.88 68.4007 25.44C69.1474 24.9867 70.0007 24.76 70.9607 24.76C71.894 24.76 72.7007 24.9933 73.3807 25.46C74.0607 25.9133 74.5874 26.5533 74.9607 27.38C75.334 28.2067 75.5207 29.18 75.5207 30.3H67.2607L67.6607 29.96C67.6607 30.76 67.8007 31.4467 68.0807 32.02C68.374 32.5933 68.7807 33.0333 69.3007 33.34C69.8207 33.6333 70.414 33.78 71.0807 33.78C71.7874 33.78 72.3807 33.6133 72.8607 33.28C73.354 32.9467 73.734 32.5067 74.0007 31.96L75.3807 32.66C75.1274 33.18 74.7874 33.6333 74.3607 34.02C73.9474 34.4067 73.454 34.7067 72.8807 34.92C72.3207 35.1333 71.694 35.24 71.0007 35.24ZM67.7607 29.28L67.3407 28.96H74.2407L73.8207 29.3C73.8207 28.66 73.694 28.1067 73.4407 27.64C73.1874 27.1733 72.8474 26.8133 72.4207 26.56C71.994 26.3067 71.5007 26.18 70.9407 26.18C70.394 26.18 69.874 26.3067 69.3807 26.56C68.9007 26.8133 68.5074 27.1733 68.2007 27.64C67.9074 28.0933 67.7607 28.64 67.7607 29.28ZM81.0487 35.24C80.0753 35.24 79.322 34.9867 78.7887 34.48C78.2553 33.9733 77.9887 33.26 77.9887 32.34V21.88H79.5887V32.18C79.5887 32.6867 79.722 33.08 79.9887 33.36C80.2687 33.6267 80.6553 33.76 81.1487 33.76C81.3087 33.76 81.462 33.74 81.6087 33.7C81.7687 33.6467 81.9753 33.5267 82.2287 33.34L82.8487 34.64C82.502 34.8667 82.1887 35.02 81.9087 35.1C81.6287 35.1933 81.342 35.24 81.0487 35.24ZM76.2487 26.42V25H82.5887V26.42H76.2487ZM84.5973 35V21H86.1973V35H84.5973ZM91.6373 35V29.88H93.2373V35H91.6373ZM91.6373 29.88C91.6373 28.8933 91.5173 28.14 91.2773 27.62C91.0506 27.1 90.7373 26.7467 90.3373 26.56C89.9373 26.36 89.4839 26.26 88.9773 26.26C88.0973 26.26 87.4106 26.5733 86.9173 27.2C86.4373 27.8133 86.1973 28.6867 86.1973 29.82H85.4173C85.4173 28.7667 85.5706 27.86 85.8773 27.1C86.1973 26.34 86.6506 25.76 87.2373 25.36C87.8239 24.96 88.5306 24.76 89.3573 24.76C90.1306 24.76 90.8106 24.92 91.3973 25.24C91.9839 25.5467 92.4373 26.04 92.7573 26.72C93.0906 27.4 93.2506 28.2933 93.2373 29.4V29.88H91.6373ZM95.5996 35V25H97.1996V35H95.5996ZM96.4196 22.68C96.1529 22.68 95.9196 22.58 95.7196 22.38C95.5196 22.18 95.4196 21.9467 95.4196 21.68C95.4196 21.4 95.5196 21.1667 95.7196 20.98C95.9196 20.78 96.1529 20.68 96.4196 20.68C96.6996 20.68 96.9329 20.78 97.1196 20.98C97.3196 21.1667 97.4196 21.4 97.4196 21.68C97.4196 21.9467 97.3196 22.18 97.1196 22.38C96.9329 22.58 96.6996 22.68 96.4196 22.68ZM99.898 35V25H101.398L101.498 26.84V35H99.898ZM106.918 35V29.88H108.518V35H106.918ZM106.918 29.88C106.918 28.8933 106.805 28.14 106.578 27.62C106.351 27.1 106.038 26.7467 105.638 26.56C105.238 26.36 104.785 26.26 104.278 26.26C103.398 26.26 102.711 26.5733 102.218 27.2C101.738 27.8133 101.498 28.6867 101.498 29.82H100.718C100.718 28.7667 100.871 27.86 101.178 27.1C101.485 26.34 101.931 25.76 102.518 25.36C103.105 24.96 103.811 24.76 104.638 24.76C105.425 24.76 106.105 24.92 106.678 25.24C107.265 25.5467 107.718 26.04 108.038 26.72C108.371 27.4 108.531 28.2933 108.518 29.4V29.88H106.918ZM114.8 39.24C114.16 39.24 113.574 39.1733 113.04 39.04C112.52 38.92 112.074 38.78 111.7 38.62C111.34 38.4733 111.08 38.3467 110.92 38.24L111.52 36.94C111.694 37.0333 111.94 37.1467 112.26 37.28C112.58 37.4267 112.954 37.5467 113.38 37.64C113.82 37.7467 114.287 37.8 114.78 37.8C115.42 37.8 115.994 37.6667 116.5 37.4C117.02 37.1467 117.42 36.74 117.7 36.18C117.994 35.6333 118.14 34.9267 118.14 34.06V25H119.74V34.04C119.74 35.1867 119.527 36.1467 119.1 36.92C118.674 37.6933 118.087 38.2733 117.34 38.66C116.594 39.0467 115.747 39.24 114.8 39.24ZM114.74 34.92C113.847 34.92 113.06 34.7067 112.38 34.28C111.7 33.8533 111.167 33.26 110.78 32.5C110.407 31.7267 110.22 30.8467 110.22 29.86C110.22 28.8467 110.407 27.96 110.78 27.2C111.167 26.4267 111.7 25.8267 112.38 25.4C113.06 24.9733 113.847 24.76 114.74 24.76C115.58 24.76 116.314 24.9733 116.94 25.4C117.567 25.8267 118.054 26.4267 118.4 27.2C118.76 27.96 118.94 28.8467 118.94 29.86C118.94 30.86 118.76 31.74 118.4 32.5C118.054 33.26 117.567 33.8533 116.94 34.28C116.314 34.7067 115.58 34.92 114.74 34.92ZM115.12 33.54C115.707 33.54 116.227 33.38 116.68 33.06C117.134 32.74 117.487 32.3067 117.74 31.76C117.994 31.2 118.12 30.5533 118.12 29.82C118.12 29.1133 117.987 28.4867 117.72 27.94C117.467 27.38 117.114 26.9467 116.66 26.64C116.22 26.32 115.7 26.16 115.1 26.16C114.474 26.16 113.914 26.32 113.42 26.64C112.94 26.9467 112.56 27.38 112.28 27.94C112.014 28.4867 111.88 29.1133 111.88 29.82C111.88 30.5533 112.02 31.2 112.3 31.76C112.58 32.3067 112.96 32.74 113.44 33.06C113.934 33.38 114.494 33.54 115.12 33.54ZM127.98 35V23.86C127.98 22.82 128.22 22.04 128.7 21.52C129.193 20.9867 129.94 20.72 130.94 20.72C131.207 20.72 131.507 20.7667 131.84 20.86C132.173 20.9533 132.527 21.0867 132.9 21.26L132.3 22.52C131.993 22.4 131.733 22.3067 131.52 22.24C131.307 22.1733 131.127 22.14 130.98 22.14C130.513 22.14 130.16 22.2933 129.92 22.6C129.693 22.8933 129.58 23.3533 129.58 23.98V35H127.98ZM126.14 26.38V25H132.48V26.38H126.14ZM138.474 35.24C137.501 35.24 136.634 35.02 135.874 34.58C135.128 34.1267 134.541 33.5067 134.114 32.72C133.688 31.9333 133.474 31.0267 133.474 30C133.474 28.9733 133.681 28.0667 134.094 27.28C134.521 26.4933 135.108 25.88 135.854 25.44C136.614 24.9867 137.474 24.76 138.434 24.76C139.421 24.76 140.288 24.9867 141.034 25.44C141.794 25.88 142.381 26.4933 142.794 27.28C143.221 28.0667 143.434 28.9733 143.434 30C143.434 31.0267 143.221 31.9333 142.794 32.72C142.381 33.5067 141.801 34.1267 141.054 34.58C140.308 35.02 139.448 35.24 138.474 35.24ZM138.474 33.76C139.141 33.76 139.721 33.6 140.214 33.28C140.708 32.96 141.094 32.52 141.374 31.96C141.668 31.4 141.814 30.7467 141.814 30C141.814 29.2533 141.668 28.6 141.374 28.04C141.094 27.48 140.701 27.04 140.194 26.72C139.688 26.4 139.101 26.24 138.434 26.24C137.781 26.24 137.201 26.4 136.694 26.72C136.201 27.04 135.808 27.48 135.514 28.04C135.234 28.6 135.094 29.2533 135.094 30C135.094 30.7333 135.234 31.3867 135.514 31.96C135.808 32.52 136.208 32.96 136.714 33.28C137.234 33.6 137.821 33.76 138.474 33.76ZM146.286 29.58C146.286 28.5 146.493 27.6267 146.906 26.96C147.319 26.28 147.846 25.78 148.486 25.46C149.139 25.1267 149.826 24.96 150.546 24.96V26.46C149.959 26.46 149.393 26.56 148.846 26.76C148.313 26.9467 147.873 27.26 147.526 27.7C147.179 28.14 147.006 28.74 147.006 29.5L146.286 29.58ZM145.406 35V25H147.006V35H145.406ZM162.765 35L162.685 33.36V29.72C162.685 28.9333 162.598 28.2867 162.425 27.78C162.252 27.26 161.978 26.8667 161.605 26.6C161.232 26.3333 160.745 26.2 160.145 26.2C159.598 26.2 159.125 26.3133 158.725 26.54C158.338 26.7533 158.018 27.1 157.765 27.58L156.325 27.02C156.578 26.5533 156.885 26.1533 157.245 25.82C157.605 25.4733 158.025 25.2133 158.505 25.04C158.985 24.8533 159.532 24.76 160.145 24.76C161.078 24.76 161.845 24.9467 162.445 25.32C163.058 25.68 163.518 26.22 163.825 26.94C164.132 27.6467 164.278 28.5267 164.265 29.58L164.245 35H162.765ZM159.765 35.24C158.592 35.24 157.672 34.9733 157.005 34.44C156.352 33.8933 156.025 33.14 156.025 32.18C156.025 31.1667 156.358 30.3933 157.025 29.86C157.705 29.3133 158.652 29.04 159.865 29.04H162.725V30.38H160.225C159.292 30.38 158.625 30.5333 158.225 30.84C157.838 31.1467 157.645 31.5867 157.645 32.16C157.645 32.68 157.838 33.0933 158.225 33.4C158.612 33.6933 159.152 33.84 159.845 33.84C160.418 33.84 160.918 33.72 161.345 33.48C161.772 33.2267 162.098 32.8733 162.325 32.42C162.565 31.9533 162.685 31.4067 162.685 30.78H163.365C163.365 32.14 163.058 33.2267 162.445 34.04C161.832 34.84 160.938 35.24 159.765 35.24ZM175.702 35.24C174.715 35.24 173.842 35.02 173.082 34.58C172.322 34.1267 171.728 33.5067 171.302 32.72C170.875 31.9333 170.662 31.0267 170.662 30C170.662 28.9733 170.868 28.0667 171.282 27.28C171.708 26.4933 172.302 25.88 173.062 25.44C173.822 24.9867 174.688 24.76 175.662 24.76C176.622 24.76 177.482 24.98 178.242 25.42C179.002 25.86 179.582 26.48 179.982 27.28L178.522 27.94C178.255 27.4067 177.868 26.9933 177.362 26.7C176.855 26.3933 176.275 26.24 175.622 26.24C174.968 26.24 174.388 26.4 173.882 26.72C173.388 27.04 172.995 27.4867 172.702 28.06C172.422 28.62 172.282 29.2667 172.282 30C172.282 30.7333 172.422 31.3867 172.702 31.96C172.995 32.52 173.395 32.96 173.902 33.28C174.422 33.6 175.008 33.76 175.662 33.76C176.315 33.76 176.895 33.5933 177.402 33.26C177.922 32.9267 178.315 32.46 178.582 31.86L180.042 32.52C179.642 33.3733 179.062 34.04 178.302 34.52C177.542 35 176.675 35.24 175.702 35.24ZM186.232 35.24C185.259 35.24 184.392 35.02 183.632 34.58C182.885 34.1267 182.299 33.5067 181.872 32.72C181.445 31.9333 181.232 31.0267 181.232 30C181.232 28.9733 181.439 28.0667 181.852 27.28C182.279 26.4933 182.865 25.88 183.612 25.44C184.372 24.9867 185.232 24.76 186.192 24.76C187.179 24.76 188.045 24.9867 188.792 25.44C189.552 25.88 190.139 26.4933 190.552 27.28C190.979 28.0667 191.192 28.9733 191.192 30C191.192 31.0267 190.979 31.9333 190.552 32.72C190.139 33.5067 189.559 34.1267 188.812 34.58C188.065 35.02 187.205 35.24 186.232 35.24ZM186.232 33.76C186.899 33.76 187.479 33.6 187.972 33.28C188.465 32.96 188.852 32.52 189.132 31.96C189.425 31.4 189.572 30.7467 189.572 30C189.572 29.2533 189.425 28.6 189.132 28.04C188.852 27.48 188.459 27.04 187.952 26.72C187.445 26.4 186.859 26.24 186.192 26.24C185.539 26.24 184.959 26.4 184.452 26.72C183.959 27.04 183.565 27.48 183.272 28.04C182.992 28.6 182.852 29.2533 182.852 30C182.852 30.7333 182.992 31.3867 183.272 31.96C183.565 32.52 183.965 32.96 184.472 33.28C184.992 33.6 185.579 33.76 186.232 33.76ZM194.164 35V23.86C194.164 22.82 194.404 22.04 194.884 21.52C195.377 20.9867 196.124 20.72 197.124 20.72C197.39 20.72 197.69 20.7667 198.024 20.86C198.357 20.9533 198.71 21.0867 199.084 21.26L198.484 22.52C198.177 22.4 197.917 22.3067 197.704 22.24C197.49 22.1733 197.31 22.14 197.164 22.14C196.697 22.14 196.344 22.2933 196.104 22.6C195.877 22.8933 195.764 23.3533 195.764 23.98V35H194.164ZM192.324 26.38V25H198.664V26.38H192.324ZM201.296 35V23.86C201.296 22.82 201.536 22.04 202.016 21.52C202.51 20.9867 203.256 20.72 204.256 20.72C204.523 20.72 204.823 20.7667 205.156 20.86C205.49 20.9533 205.843 21.0867 206.216 21.26L205.616 22.52C205.31 22.4 205.05 22.3067 204.836 22.24C204.623 22.1733 204.443 22.14 204.296 22.14C203.83 22.14 203.476 22.2933 203.236 22.6C203.01 22.8933 202.896 23.3533 202.896 23.98V35H201.296ZM199.456 26.38V25H205.796V26.38H199.456ZM211.751 35.24C210.777 35.24 209.917 35.02 209.171 34.58C208.424 34.1267 207.837 33.5067 207.411 32.72C206.997 31.9333 206.791 31.0267 206.791 30C206.791 28.9733 206.997 28.0667 207.411 27.28C207.837 26.4933 208.417 25.88 209.151 25.44C209.897 24.9867 210.751 24.76 211.711 24.76C212.644 24.76 213.451 24.9933 214.131 25.46C214.811 25.9133 215.337 26.5533 215.711 27.38C216.084 28.2067 216.271 29.18 216.271 30.3H208.011L208.411 29.96C208.411 30.76 208.551 31.4467 208.831 32.02C209.124 32.5933 209.531 33.0333 210.051 33.34C210.571 33.6333 211.164 33.78 211.831 33.78C212.537 33.78 213.131 33.6133 213.611 33.28C214.104 32.9467 214.484 32.5067 214.751 31.96L216.131 32.66C215.877 33.18 215.537 33.6333 215.111 34.02C214.697 34.4067 214.204 34.7067 213.631 34.92C213.071 35.1333 212.444 35.24 211.751 35.24ZM208.511 29.28L208.091 28.96H214.991L214.571 29.3C214.571 28.66 214.444 28.1067 214.191 27.64C213.937 27.1733 213.597 26.8133 213.171 26.56C212.744 26.3067 212.251 26.18 211.691 26.18C211.144 26.18 210.624 26.3067 210.131 26.56C209.651 26.8133 209.257 27.1733 208.951 27.64C208.657 28.0933 208.511 28.64 208.511 29.28ZM222.419 35.24C221.445 35.24 220.585 35.02 219.839 34.58C219.092 34.1267 218.505 33.5067 218.079 32.72C217.665 31.9333 217.459 31.0267 217.459 30C217.459 28.9733 217.665 28.0667 218.079 27.28C218.505 26.4933 219.085 25.88 219.819 25.44C220.565 24.9867 221.419 24.76 222.379 24.76C223.312 24.76 224.119 24.9933 224.799 25.46C225.479 25.9133 226.005 26.5533 226.379 27.38C226.752 28.2067 226.939 29.18 226.939 30.3H218.679L219.079 29.96C219.079 30.76 219.219 31.4467 219.499 32.02C219.792 32.5933 220.199 33.0333 220.719 33.34C221.239 33.6333 221.832 33.78 222.499 33.78C223.205 33.78 223.799 33.6133 224.279 33.28C224.772 32.9467 225.152 32.5067 225.419 31.96L226.799 32.66C226.545 33.18 226.205 33.6333 225.779 34.02C225.365 34.4067 224.872 34.7067 224.299 34.92C223.739 35.1333 223.112 35.24 222.419 35.24ZM219.179 29.28L218.759 28.96H225.659L225.239 29.3C225.239 28.66 225.112 28.1067 224.859 27.64C224.605 27.1733 224.265 26.8133 223.839 26.56C223.412 26.3067 222.919 26.18 222.359 26.18C221.812 26.18 221.292 26.3067 220.799 26.56C220.319 26.8133 219.925 27.1733 219.619 27.64C219.325 28.0933 219.179 28.64 219.179 29.28ZM228.467 29.78V28.32H234.467V29.78H228.467ZM236.796 35V21H238.396V35H236.796ZM245.361 35.24C244.388 35.24 243.521 35.02 242.761 34.58C242.014 34.1267 241.428 33.5067 241.001 32.72C240.574 31.9333 240.361 31.0267 240.361 30C240.361 28.9733 240.568 28.0667 240.981 27.28C241.408 26.4933 241.994 25.88 242.741 25.44C243.501 24.9867 244.361 24.76 245.321 24.76C246.308 24.76 247.174 24.9867 247.921 25.44C248.681 25.88 249.268 26.4933 249.681 27.28C250.108 28.0667 250.321 28.9733 250.321 30C250.321 31.0267 250.108 31.9333 249.681 32.72C249.268 33.5067 248.688 34.1267 247.941 34.58C247.194 35.02 246.334 35.24 245.361 35.24ZM245.361 33.76C246.028 33.76 246.608 33.6 247.101 33.28C247.594 32.96 247.981 32.52 248.261 31.96C248.554 31.4 248.701 30.7467 248.701 30C248.701 29.2533 248.554 28.6 248.261 28.04C247.981 27.48 247.588 27.04 247.081 26.72C246.574 26.4 245.988 26.24 245.321 26.24C244.668 26.24 244.088 26.4 243.581 26.72C243.088 27.04 242.694 27.48 242.401 28.04C242.121 28.6 241.981 29.2533 241.981 30C241.981 30.7333 242.121 31.3867 242.401 31.96C242.694 32.52 243.094 32.96 243.601 33.28C244.121 33.6 244.708 33.76 245.361 33.76ZM255.099 35L259.179 25H260.859L256.679 35H255.099ZM254.999 35L250.819 25H252.479L256.559 35H254.999ZM262.279 35V25H263.879V35H262.279ZM263.099 22.68C262.833 22.68 262.599 22.58 262.399 22.38C262.199 22.18 262.099 21.9467 262.099 21.68C262.099 21.4 262.199 21.1667 262.399 20.98C262.599 20.78 262.833 20.68 263.099 20.68C263.379 20.68 263.613 20.78 263.799 20.98C263.999 21.1667 264.099 21.4 264.099 21.68C264.099 21.9467 263.999 22.18 263.799 22.38C263.613 22.58 263.379 22.68 263.099 22.68ZM266.578 35V25H268.078L268.178 26.84V35H266.578ZM273.598 35V29.88H275.198V35H273.598ZM273.598 29.88C273.598 28.8933 273.484 28.14 273.258 27.62C273.031 27.1 272.718 26.7467 272.318 26.56C271.918 26.36 271.464 26.26 270.958 26.26C270.078 26.26 269.391 26.5733 268.898 27.2C268.418 27.8133 268.178 28.6867 268.178 29.82H267.398C267.398 28.7667 267.551 27.86 267.858 27.1C268.164 26.34 268.611 25.76 269.198 25.36C269.784 24.96 270.491 24.76 271.318 24.76C272.104 24.76 272.784 24.92 273.358 25.24C273.944 25.5467 274.398 26.04 274.718 26.72C275.051 27.4 275.211 28.2933 275.198 29.4V29.88H273.598ZM281.48 39.24C280.84 39.24 280.253 39.1733 279.72 39.04C279.2 38.92 278.753 38.78 278.38 38.62C278.02 38.4733 277.76 38.3467 277.6 38.24L278.2 36.94C278.373 37.0333 278.62 37.1467 278.94 37.28C279.26 37.4267 279.633 37.5467 280.06 37.64C280.5 37.7467 280.967 37.8 281.46 37.8C282.1 37.8 282.673 37.6667 283.18 37.4C283.7 37.1467 284.1 36.74 284.38 36.18C284.673 35.6333 284.82 34.9267 284.82 34.06V25H286.42V34.04C286.42 35.1867 286.207 36.1467 285.78 36.92C285.353 37.6933 284.767 38.2733 284.02 38.66C283.273 39.0467 282.427 39.24 281.48 39.24ZM281.42 34.92C280.527 34.92 279.74 34.7067 279.06 34.28C278.38 33.8533 277.847 33.26 277.46 32.5C277.087 31.7267 276.9 30.8467 276.9 29.86C276.9 28.8467 277.087 27.96 277.46 27.2C277.847 26.4267 278.38 25.8267 279.06 25.4C279.74 24.9733 280.527 24.76 281.42 24.76C282.26 24.76 282.993 24.9733 283.62 25.4C284.247 25.8267 284.733 26.4267 285.08 27.2C285.44 27.96 285.62 28.8467 285.62 29.86C285.62 30.86 285.44 31.74 285.08 32.5C284.733 33.26 284.247 33.8533 283.62 34.28C282.993 34.7067 282.26 34.92 281.42 34.92ZM281.8 33.54C282.387 33.54 282.907 33.38 283.36 33.06C283.813 32.74 284.167 32.3067 284.42 31.76C284.673 31.2 284.8 30.5533 284.8 29.82C284.8 29.1133 284.667 28.4867 284.4 27.94C284.147 27.38 283.793 26.9467 283.34 26.64C282.9 26.32 282.38 26.16 281.78 26.16C281.153 26.16 280.593 26.32 280.1 26.64C279.62 26.9467 279.24 27.38 278.96 27.94C278.693 28.4867 278.56 29.1133 278.56 29.82C278.56 30.5533 278.7 31.2 278.98 31.76C279.26 32.3067 279.64 32.74 280.12 33.06C280.613 33.38 281.173 33.54 281.8 33.54ZM293.66 35V21H295.26V33.14L295.18 35H293.66ZM298.64 35.24C297.8 35.24 297.06 35.02 296.42 34.58C295.793 34.14 295.306 33.5267 294.96 32.74C294.613 31.94 294.44 31.0267 294.44 30C294.44 28.96 294.613 28.0467 294.96 27.26C295.306 26.4733 295.793 25.86 296.42 25.42C297.06 24.98 297.8 24.76 298.64 24.76C299.533 24.76 300.32 24.98 301 25.42C301.68 25.86 302.206 26.4733 302.58 27.26C302.966 28.0467 303.16 28.96 303.16 30C303.16 31.0267 302.966 31.94 302.58 32.74C302.206 33.5267 301.68 34.14 301 34.58C300.32 35.02 299.533 35.24 298.64 35.24ZM298.28 33.78C298.906 33.78 299.46 33.62 299.94 33.3C300.433 32.98 300.82 32.5333 301.1 31.96C301.393 31.3867 301.54 30.7333 301.54 30C301.54 29.2667 301.4 28.6133 301.12 28.04C300.853 27.4667 300.473 27.02 299.98 26.7C299.486 26.38 298.926 26.22 298.3 26.22C297.713 26.22 297.186 26.38 296.72 26.7C296.266 27.02 295.906 27.4667 295.64 28.04C295.386 28.6133 295.26 29.2667 295.26 30C295.26 30.7333 295.386 31.3867 295.64 31.96C295.906 32.5333 296.266 32.98 296.72 33.3C297.173 33.62 297.693 33.78 298.28 33.78ZM309.549 35.24C308.575 35.24 307.709 35.02 306.949 34.58C306.202 34.1267 305.615 33.5067 305.189 32.72C304.762 31.9333 304.549 31.0267 304.549 30C304.549 28.9733 304.755 28.0667 305.169 27.28C305.595 26.4933 306.182 25.88 306.929 25.44C307.689 24.9867 308.549 24.76 309.509 24.76C310.495 24.76 311.362 24.9867 312.109 25.44C312.869 25.88 313.455 26.4933 313.869 27.28C314.295 28.0667 314.509 28.9733 314.509 30C314.509 31.0267 314.295 31.9333 313.869 32.72C313.455 33.5067 312.875 34.1267 312.129 34.58C311.382 35.02 310.522 35.24 309.549 35.24ZM309.549 33.76C310.215 33.76 310.795 33.6 311.289 33.28C311.782 32.96 312.169 32.52 312.449 31.96C312.742 31.4 312.889 30.7467 312.889 30C312.889 29.2533 312.742 28.6 312.449 28.04C312.169 27.48 311.775 27.04 311.269 26.72C310.762 26.4 310.175 26.24 309.509 26.24C308.855 26.24 308.275 26.4 307.769 26.72C307.275 27.04 306.882 27.48 306.589 28.04C306.309 28.6 306.169 29.2533 306.169 30C306.169 30.7333 306.309 31.3867 306.589 31.96C306.882 32.52 307.282 32.96 307.789 33.28C308.309 33.6 308.895 33.76 309.549 33.76ZM320.9 35.24C319.927 35.24 319.06 35.02 318.3 34.58C317.553 34.1267 316.967 33.5067 316.54 32.72C316.113 31.9333 315.9 31.0267 315.9 30C315.9 28.9733 316.107 28.0667 316.52 27.28C316.947 26.4933 317.533 25.88 318.28 25.44C319.04 24.9867 319.9 24.76 320.86 24.76C321.847 24.76 322.713 24.9867 323.46 25.44C324.22 25.88 324.807 26.4933 325.22 27.28C325.647 28.0667 325.86 28.9733 325.86 30C325.86 31.0267 325.647 31.9333 325.22 32.72C324.807 33.5067 324.227 34.1267 323.48 34.58C322.733 35.02 321.873 35.24 320.9 35.24ZM320.9 33.76C321.567 33.76 322.147 33.6 322.64 33.28C323.133 32.96 323.52 32.52 323.8 31.96C324.093 31.4 324.24 30.7467 324.24 30C324.24 29.2533 324.093 28.6 323.8 28.04C323.52 27.48 323.127 27.04 322.62 26.72C322.113 26.4 321.527 26.24 320.86 26.24C320.207 26.24 319.627 26.4 319.12 26.72C318.627 27.04 318.233 27.48 317.94 28.04C317.66 28.6 317.52 29.2533 317.52 30C317.52 30.7333 317.66 31.3867 317.94 31.96C318.233 32.52 318.633 32.96 319.14 33.28C319.66 33.6 320.247 33.76 320.9 33.76ZM329.392 31.78L328.372 30.68L333.692 25H335.712L329.392 31.78ZM327.832 35V21H329.432V35H327.832ZM334.132 35L330.332 29.26L331.372 28.14L336.112 35H334.132ZM346.369 35L349.749 25H351.369L347.969 35H346.369ZM339.569 35L342.949 25H344.449L341.109 35H339.569ZM339.489 35L336.089 25H337.709L341.049 35H339.489ZM346.369 35L343.029 25H344.549L347.889 35H346.369ZM356.908 35.24C355.935 35.24 355.068 35.02 354.308 34.58C353.561 34.1267 352.975 33.5067 352.548 32.72C352.121 31.9333 351.908 31.0267 351.908 30C351.908 28.9733 352.115 28.0667 352.528 27.28C352.955 26.4933 353.541 25.88 354.288 25.44C355.048 24.9867 355.908 24.76 356.868 24.76C357.855 24.76 358.721 24.9867 359.468 25.44C360.228 25.88 360.815 26.4933 361.228 27.28C361.655 28.0667 361.868 28.9733 361.868 30C361.868 31.0267 361.655 31.9333 361.228 32.72C360.815 33.5067 360.235 34.1267 359.488 34.58C358.741 35.02 357.881 35.24 356.908 35.24ZM356.908 33.76C357.575 33.76 358.155 33.6 358.648 33.28C359.141 32.96 359.528 32.52 359.808 31.96C360.101 31.4 360.248 30.7467 360.248 30C360.248 29.2533 360.101 28.6 359.808 28.04C359.528 27.48 359.135 27.04 358.628 26.72C358.121 26.4 357.535 26.24 356.868 26.24C356.215 26.24 355.635 26.4 355.128 26.72C354.635 27.04 354.241 27.48 353.948 28.04C353.668 28.6 353.528 29.2533 353.528 30C353.528 30.7333 353.668 31.3867 353.948 31.96C354.241 32.52 354.641 32.96 355.148 33.28C355.668 33.6 356.255 33.76 356.908 33.76ZM364.719 29.58C364.719 28.5 364.926 27.6267 365.339 26.96C365.753 26.28 366.279 25.78 366.919 25.46C367.573 25.1267 368.259 24.96 368.979 24.96V26.46C368.393 26.46 367.826 26.56 367.279 26.76C366.746 26.9467 366.306 27.26 365.959 27.7C365.613 28.14 365.439 28.74 365.439 29.5L364.719 29.58ZM363.839 35V25H365.439V35H363.839ZM370.347 35V25H371.847L371.927 26.4C372.234 25.8667 372.627 25.46 373.107 25.18C373.587 24.9 374.147 24.76 374.787 24.76C375.587 24.76 376.267 24.9467 376.827 25.32C377.401 25.6933 377.814 26.26 378.067 27.02C378.347 26.2867 378.754 25.7267 379.287 25.34C379.834 24.9533 380.481 24.76 381.227 24.76C382.347 24.76 383.227 25.1333 383.867 25.88C384.521 26.6267 384.841 27.76 384.827 29.28V35H383.227V29.88C383.227 28.8933 383.121 28.14 382.907 27.62C382.707 27.1 382.434 26.7467 382.087 26.56C381.741 26.36 381.341 26.26 380.887 26.26C380.101 26.26 379.487 26.5733 379.047 27.2C378.607 27.8133 378.387 28.6867 378.387 29.82V35H376.787V29.88C376.787 28.8933 376.681 28.14 376.467 27.62C376.267 27.1 375.987 26.7467 375.627 26.56C375.281 26.36 374.881 26.26 374.427 26.26C373.654 26.26 373.047 26.5733 372.607 27.2C372.167 27.8133 371.947 28.6867 371.947 29.82V35H370.347ZM389.049 25.22L390.189 21H391.989L390.429 25.22H389.049ZM386.069 25.22L387.209 21H389.009L387.449 25.22H386.069Z" fill="#F2E9E4"/>
<path d="M428.462 33.135C429.04 27.1895 431.98 20.7216 436.741 14.9228C438.592 12.6681 440.745 10.776 443.141 9.29911C445.448 7.8767 447.88 6.89784 450.37 6.3897C451.643 6.12988 452.898 6 454.126 6C455.285 6 456.421 6.11603 457.524 6.34803C458.626 6.57969 459.673 6.92323 460.66 7.37562C461.318 7.67732 461.273 8.62931 460.589 8.867C458.115 9.72711 455.86 11.0392 453.95 12.7455C451.151 15.2463 449.25 18.4541 448.453 22.0222C448.07 23.7344 447.923 25.5267 447.781 27.2601C447.625 29.1649 447.464 31.1346 446.985 32.9286C446.032 36.5031 443.748 39.69 440.38 42.1449C438.538 43.4882 436.342 44.6328 433.833 45.5585C433 45.8662 432.064 45.613 431.498 44.9281C429.07 41.9935 428 37.8944 428.462 33.135ZM467.758 29.5116C466.775 32.1487 465.339 34.629 463.487 36.8837C461.191 39.6802 458.598 42.1016 455.779 44.0804C453.064 45.9868 450.261 47.4 447.449 48.281C444.658 49.1552 442.007 49.4588 439.568 49.1832C438.026 49.0091 436.611 48.606 435.337 47.9798C434.718 47.6759 434.751 46.7859 435.389 46.5264C437.594 45.63 439.555 44.5595 441.243 43.3286C444.885 40.6739 447.36 37.2083 448.4 33.3062C448.913 31.3853 449.08 29.349 449.241 27.3797C449.379 25.696 449.522 23.955 449.882 22.3417C450.613 19.0741 452.357 16.1335 454.926 13.8379C457.146 11.8551 459.873 10.4462 462.88 9.71828C463.57 9.55137 464.294 9.75567 464.795 10.2583C466.083 11.5513 467.109 13.0832 467.853 14.8286C468.763 16.9635 469.218 19.3272 469.204 21.8541C469.191 24.3955 468.704 26.9718 467.758 29.5116Z" fill="#664237"/>
<path d="M434.852 48.9658C434.173 48.6318 433.767 47.9547 433.794 47.1988C433.8 47.023 433.829 46.8531 433.879 46.6923C433.628 46.7549 433.371 46.7865 433.11 46.7865C432.156 46.7865 431.26 46.3646 430.651 45.6285C429.337 44.0395 428.388 42.1429 427.832 39.9907C427.283 37.8626 427.126 35.5203 427.368 33.029C427.579 30.8592 428.091 28.6256 428.88 26.3811C428.761 25.0162 428.612 23.6378 428.322 22.3418C427.592 19.0741 425.848 16.1334 423.279 13.838C421.059 11.8549 418.332 10.4461 415.325 9.71808C414.635 9.55144 413.91 9.75581 413.41 10.2582C412.122 11.5513 411.096 13.0832 410.352 14.8286C409.441 16.9636 408.987 19.3271 409 21.854C409.014 24.3955 409.501 26.9718 410.447 29.5115C411.429 32.1486 412.866 34.6289 414.718 36.8837C417.014 39.6801 419.607 42.1015 422.426 44.0805C425.141 45.9866 427.944 47.3998 430.756 48.2809C432.355 48.7819 433.909 49.0954 435.403 49.2203C435.217 49.1398 435.033 49.0548 434.852 48.9658ZM435.064 9.29921C432.757 7.87683 430.324 6.89794 427.835 6.38967C426.561 6.13001 425.307 6 424.079 6C422.919 6 421.784 6.1161 420.68 6.34789C419.579 6.57969 418.531 6.9232 417.544 7.37548C416.886 7.67725 416.932 8.62938 417.615 8.86706C420.09 9.72731 422.345 11.0391 424.255 12.7456C427.053 15.2461 428.955 18.4541 429.752 22.0221C429.863 22.5176 429.954 23.02 430.031 23.5258C431.473 20.35 433.45 17.1995 435.892 14.2255C436.642 13.3114 437.44 12.4545 438.283 11.6583C437.268 10.7835 436.193 9.99536 435.064 9.29921Z" fill="#3F302D"/>
</svg>
