<svg width="1707" height="200" viewBox="0 0 1707 200" fill="none" xmlns="http://www.w3.org/2000/svg">
<g clip-path="url(#clip0_999_3919)">
<path d="M1621.29 34.4861H1622.45C1625.12 47.1247 1626.28 52.8841 1628.99 62.0565L1644.72 124.13H1598.66L1614.39 62.0565C1616.69 52.8841 1618.24 47.1247 1621.29 34.4861ZM1663.1 197.309H1706.48L1652.01 3.80936H1592.9L1538.02 197.322H1579.08L1591.35 154.02H1650.84L1663.1 197.309ZM1443.99 199.975C1467.79 199.975 1490.81 194.242 1505.8 188.11V91.2H1439.01V122.223H1466.27V165.499C1461.27 168.565 1452.8 170.498 1443.63 170.498C1415.24 170.498 1406.4 156.326 1406.4 115.344V90.4001C1406.4 49.8045 1414.82 29.8732 1440.93 29.8732C1458.96 29.8732 1465.14 42.1386 1465.54 55.1772H1506.6C1506.15 21.0742 1481.62 0.00976562 1440.91 0.00976562C1384.09 0.00976562 1363.4 32.9396 1363.4 86.2272V114.584C1363 172.418 1382.6 199.988 1443.98 199.988M1251.76 34.4861H1252.93C1255.6 47.1247 1256.77 52.8841 1259.44 62.0565L1275.2 124.13H1229.14L1244.87 62.0565C1247.16 52.8841 1248.69 47.1247 1251.76 34.4861ZM1293.6 197.322H1336.92L1282.48 3.80936H1223.34L1168.52 197.322H1209.58L1221.84 154.02H1281.3L1293.6 197.309V197.322ZM1086.35 197.322H1127.41V3.80936H1086.35V197.322ZM973.536 199.988C1019.18 199.988 1041.45 178.897 1042.6 139.488H1001.17C1000.4 158.633 994.241 170.498 974.696 170.498C952.458 170.498 944.033 154.807 944.033 114.584V86.2272C944.033 45.6049 952.458 30.2999 974.696 30.2999C995.44 30.2999 998.88 44.0984 999.627 58.6568H1041.06C1040.66 24.9404 1021.49 0.80968 973.549 0.80968C920.195 0.80968 900.651 34.1395 900.651 86.2272V114.584C900.651 167.059 920.182 199.988 973.536 199.988ZM695.699 197.322H732.175V85.0674C732.175 69.3624 731.375 50.2044 730.602 34.4861H731.802C737.535 54.404 740.601 64.7495 745.974 79.6813L788.583 197.322H848.443V3.80936H811.98V111.505C811.98 125.636 812.38 144.434 812.753 162.432H811.607C808.54 149.007 805.821 135.595 797.768 113.771L757.866 3.82269H695.339V197.322H695.699ZM528.384 197.322H640.052V166.259H569.446V112.624H633.506V81.2411H569.433V34.4861H637.359V3.4494H528.344V197.295L528.384 197.322ZM378.36 197.322H485.815V166.259H419.422V3.82269H378.36V197.322ZM250.96 34.4728H252.12C254.786 47.1114 255.986 52.8708 258.652 62.0431L274.384 124.117H228.349L244.081 62.0431C246.374 52.8708 247.92 47.1114 250.973 34.4728M292.795 197.322H336.164L281.663 3.80936H222.576L167.689 197.322H208.751L221.016 154.02H280.517L292.809 197.309L292.795 197.322ZM41.4356 167.805V111.518H66.3929C87.4973 111.518 97.4563 121.09 97.4563 139.835C97.4563 160.499 84.4177 168.205 65.6197 168.205H41.4356V167.805ZM41.4356 81.9877V33.3395H67.1662C85.9375 33.3395 94.0033 41.7386 94.0033 57.4703C94.0033 73.202 84.8443 82.001 67.5528 82.001L41.4356 81.9877ZM0.373294 197.322H72.8989C113.561 197.322 138.492 182.724 138.492 142.528C138.492 116.851 123.56 99.2525 95.9098 96.5328V95.4129C120.44 91.2 135.052 77.7881 135.052 52.1242C135.052 18.7678 115.854 3.83602 74.8187 3.83602H0V197.322H0.373294Z" fill="#C9AD9D"/>
</g>
<defs>
<clipPath id="clip0_999_3919">
<rect width="1706.48" height="200" fill="white"/>
</clipPath>
</defs>
</svg>
