<svg width="1132" height="177" viewBox="0 0 1132 177" fill="none" xmlns="http://www.w3.org/2000/svg">
<g clip-path="url(#clip0_999_4000)">
<path fill-rule="evenodd" clip-rule="evenodd" d="M86.0754 0.889985C134.652 0.889985 158.149 34.351 163.576 51.7591H143.239C137.135 40.6798 120.19 19.1997 86.0754 19.1997C48.8002 19.1997 20.3364 48.8185 20.3364 88.8384C20.3364 128.399 48.8002 158.023 86.0754 158.023C120.874 158.023 138.037 136.542 143.463 125.917H163.122C158.149 142.194 134.652 176.333 86.0754 176.333C37.0513 176.333 0 139.253 0 88.6083C0 38.6469 37.5055 0.895698 86.0754 0.895698V0.889985ZM911.173 51.753C945.967 51.753 971.948 79.5623 971.038 118.445H869.149C870.508 141.281 887.904 159.373 911.622 159.373C935.344 159.373 946.868 145.129 951.611 135.175H969.465C964.937 151.458 947.316 176.103 911.622 176.103C876.828 176.103 851.071 149.195 851.071 113.931C851.071 78.8847 877.057 51.753 911.173 51.753ZM233.839 51.753C260.722 51.753 273.373 68.9314 276.988 76.8456V54.4696H294.836V173.392H276.988V151.01C273.149 159.149 260.722 176.109 233.839 176.109C199.949 176.109 173.29 149.431 173.29 113.937C173.29 78.4367 199.949 51.7591 233.839 51.7591V51.753ZM572.05 51.753C605.262 51.753 620.847 76.168 620.847 106.24V173.386H602.778V106.7C602.778 84.3123 590.805 68.7131 569.11 68.7131C547.647 68.7131 534.773 84.766 534.773 107.602V173.386H516.924V54.4696H534.773V74.3648C537.033 67.8115 547.423 51.7591 572.05 51.7591V51.753ZM703.089 3.83065V94.2599L782.609 3.8245H806.107L738.102 80.4701L806.107 173.392H783.515L724.547 95.6152L703.08 119.812V173.386H683.428V3.8245H703.084L703.089 3.83065ZM1083.1 51.7591C1116.31 51.7591 1131.9 76.1741 1131.9 106.247V173.386H1113.83V106.7C1113.83 84.3123 1101.86 68.7131 1080.16 68.7131C1058.7 68.7131 1045.82 84.766 1045.82 107.602V173.386H1027.98V54.4696H1045.82V74.3648C1048.08 67.8115 1058.47 51.7591 1083.1 51.7591ZM367.588 54.4696L405.318 155.082L443.047 54.4639H462.698L416.612 173.386H394.023L347.924 54.4758H367.582L367.588 54.4696ZM495.237 54.4696V173.392H477.383V54.4696H495.237ZM834.132 0.666016V173.386H816.278V0.666016H834.132ZM1006.29 54.4696V173.392H988.444V54.4696H1006.29ZM334.376 0.666016V173.386H316.529V0.666016H334.376ZM234.517 68.7074C209.663 68.7074 191.591 88.1546 191.591 113.925C191.591 139.472 209.663 159.142 234.517 159.142C259.141 159.142 277.219 139.477 277.219 113.925C277.219 88.3786 259.141 68.7074 234.517 68.7074ZM911.173 68.2595C888.124 68.2595 873.211 85.6619 870.275 102.616H951.835C948.222 84.7603 934.895 68.2595 911.173 68.2595ZM495.461 12.8647V33.6672H477.159V12.8647H495.461ZM1006.51 12.8647V33.6672H988.211V12.8647H1006.51Z" fill="#C9AD9D"/>
</g>
<defs>
<clipPath id="clip0_999_4000">
<rect width="1132" height="177" fill="white"/>
</clipPath>
</defs>
</svg>
