<svg width="1200" height="200" viewBox="0 0 1200 200" fill="none" xmlns="http://www.w3.org/2000/svg">
<path d="M99.2711 7.99902C49.2589 7.99902 8 46.2462 8 100C8 153.751 49.2589 192.002 99.2711 192.002C133.529 192.002 163.787 173.513 179.29 145.007L148.283 127.257C139.281 145.754 121.026 157.003 99.2711 157.003C68.0135 157.003 44.26 133.752 44.26 100C44.26 66.2489 68.0135 42.9975 99.2711 42.9975C121.026 42.9975 139.281 54.2498 148.283 72.7508L179.29 55.0005C163.787 26.5016 133.529 7.99902 99.2711 7.99902ZM223.043 12.4977V187.497H258.054V112.499H345.572V187.503H380.577V12.4977H345.572V77.5005H258.054V12.4977H223.043ZM493.103 12.4977L415.581 187.503H453.843L471.095 147.504H562.61L579.868 187.503H618.123L540.615 12.4977H493.103ZM653.135 12.4977V187.503H685.635V49.7488L779.41 187.503H810.669V12.4977H778.162V128.505L699.398 12.4977H653.135ZM878.174 12.4977V187.503L1008.21 187.51V155.009H910.681V115.009H990.7V82.5014H910.681V44.9992H1003.2V12.4978L878.174 12.4977ZM1064.47 12.4977V187.503V187.51H1192V152.511H1099.48V12.4978L1064.47 12.4977ZM516.856 41.2469L548.616 115.003H485.095L516.856 41.2469Z" fill="#C9AD9D"/>
</svg>
