<svg width="2428" height="236" viewBox="0 0 2428 236" fill="none" xmlns="http://www.w3.org/2000/svg">
<g clip-path="url(#clip0_999_3996)">
<path fill-rule="evenodd" clip-rule="evenodd" d="M0.756348 7.45827H79.8849C135.888 7.95112 181.659 57.3659 181.659 117.753C181.659 178.374 135.888 227.789 79.8849 228.294H0.756348V7.45827ZM35.3337 34.2408V202.238H70.8839C122.011 200.799 147.341 161.098 147.341 118.739C147.341 76.613 121.531 42.2821 79.8979 35.2265L35.3337 34.2408ZM314.845 2.34812C382.042 2.34812 436.826 54.4477 436.826 118C436.826 181.551 382.042 233.417 314.845 233.417C247.895 233.417 193.111 181.538 193.111 118C193.111 54.4606 247.895 2.34812 314.845 2.34812ZM315.338 30.3499C364.026 30.3499 403.714 69.5445 403.714 117.753C403.714 165.702 364.026 204.923 315.338 204.923C266.65 204.923 226.716 165.715 226.716 117.753C226.703 69.5445 266.637 30.3499 315.338 30.3499ZM446.32 7.95105H478.939V202.718H541.271V228.048H446.32V7.95105ZM647.195 1.12894C672.512 1.12894 696.13 8.67743 715.611 21.3359V61.5162C699.295 42.0357 674.951 29.3771 647.442 29.3771C598.753 29.3771 559.066 69.0646 559.066 117.753C559.066 166.208 598.753 205.883 647.442 205.883C674.964 205.883 699.308 193.237 715.611 173.757V214.417C695.309 227.803 671.513 234.913 647.195 234.857C579.999 234.857 525.215 182.265 525.215 117.987C525.215 53.7214 579.999 1.12894 647.195 1.12894ZM760.162 202.005H839.044V228.048H725.831V7.93809H839.044V32.7752H760.162V98.2726H839.044V125.042H760.162V202.005ZM963.217 214.17C959.65 217.589 955.538 220.39 951.051 222.458C946.584 224.9 941.725 226.546 936.693 227.322C935.474 227.581 934.255 227.802 933.036 227.802C931.817 228.061 930.598 228.061 929.391 228.061C925.98 228.061 922.569 227.581 919.158 226.842C915.828 225.853 912.698 224.285 909.911 222.212C906.707 219.672 904.125 216.433 902.362 212.744C900.238 209.17 898.911 205.179 898.472 201.045V199.579C898.225 198.866 898.225 198.36 898.225 197.88C898.225 197.4 898.225 197.141 898.472 196.661V195.196V194.716C898.718 194.482 898.718 194.482 898.718 194.236V193.276V192.537C900.184 185.728 903.348 180.358 908.212 175.974C912.829 171.591 917.939 167.687 923.309 164.522C920.412 161.122 917.731 157.544 915.28 153.809C912.874 150.395 911.595 146.313 911.623 142.136V140.191C911.869 139.711 911.869 139.231 911.869 138.492C912.116 138.492 912.116 138.232 912.116 138.012V137.753C912.285 137.462 912.371 137.129 912.362 136.793C912.362 136.533 912.609 136.313 912.609 136.053C913.828 130.684 916.5 126.56 920.883 123.641C924.939 120.922 929.642 119.324 934.515 119.011H937.679C943.529 119.491 949.132 121.696 953.995 125.6C958.872 129.244 961.297 134.588 961.297 141.656C961.297 148.219 959.105 153.589 955.214 157.492C951.323 161.617 946.693 165.274 941.817 168.685L965.201 196.933C967.393 194.249 969.818 191.564 972.01 188.905C973.956 186.221 976.147 183.276 977.859 180.371L985.888 188.659C984.47 191.357 982.756 193.889 980.778 196.207C979.079 198.386 977.12 200.837 975.175 203.016C974.68 203.498 974.191 203.987 973.709 204.482L972.244 205.922L989.286 226.621H974.189L963.217 214.17ZM933.762 217.335C937.9 216.855 941.791 215.636 945.202 213.431C948.61 211.225 951.865 208.79 954.942 206.142C955.188 206.142 955.435 205.883 955.681 205.662C955.928 205.662 956.174 205.403 956.42 205.182L929.871 173.523C929.625 173.523 929.625 173.782 929.391 174.003C929.145 174.003 928.899 174.262 928.652 174.483C928.172 174.742 927.926 174.989 927.433 175.222C927.187 175.222 926.953 175.482 926.694 175.728C924.502 177.168 922.557 178.646 920.611 180.086C918.666 181.551 916.953 183.51 915.488 185.455C914.995 186.415 914.269 187.401 913.789 188.62C913.234 189.694 912.824 190.836 912.57 192.018L911.843 194.962C911.597 195.922 911.597 196.908 911.597 197.88C911.597 203.003 913.542 207.634 917.446 211.758C921.091 215.662 925.968 217.841 931.804 217.841C931.804 217.841 932.05 217.841 932.05 217.607H933.036C933.282 217.607 933.282 217.348 933.529 217.348L933.762 217.335ZM924.022 140.152V140.891C924.022 141.151 923.776 141.371 923.776 141.63V142.11C923.776 144.795 924.502 147.233 925.967 149.425C927.42 151.864 929.132 154.03 931.078 155.988C931.57 156.727 932.297 157.454 932.79 158.167C933.269 158.906 934.009 159.412 934.489 160.112C934.982 159.879 935.215 159.632 935.708 159.399C936.035 159.081 936.471 158.9 936.927 158.893C939.845 157.194 942.283 155.249 944.722 153.07C947.16 150.865 948.613 148.18 949.106 144.782V144.043V143.304C949.106 143.07 949.352 142.824 949.352 142.564V142.084C949.352 138.686 948.133 135.755 945.707 133.797C943.506 131.723 940.677 130.44 937.666 130.152H935.461C933.023 130.152 930.598 131.138 928.406 132.59C927.176 133.464 926.149 134.59 925.392 135.895C924.636 137.199 924.169 138.651 924.022 140.152ZM1167.01 0.15625C1210.82 0.15625 1249.55 22.5551 1271.21 55.9133L1242.74 70.5173C1234.7 57.7651 1223.56 47.2581 1210.36 39.9776C1197.16 32.6971 1182.33 28.8806 1167.26 28.8843C1118.08 28.6379 1078.14 68.5718 1078.14 117.753C1078.14 166.688 1118.08 206.622 1167.26 206.622C1208.64 206.622 1241.28 185.922 1243.7 142.837H1172.61V116.78H1242C1242 116.287 1277.32 116.78 1279.5 116.78V118C1279.5 186.908 1242 235.856 1167.02 235.856C1091.79 235.856 1044.07 182.758 1044.07 118C1044.07 53.2415 1099.32 0.15625 1167.01 0.15625ZM1261 228.048L1352.05 7.22475H1373.74L1465.51 228.048H1429.71L1404.41 165.702H1320.9L1296.07 228.048H1261ZM1333.56 137.714L1363.01 59.3243L1392.96 137.714H1333.56ZM1785.45 228.048L1876.51 7.22475H1898.17L1989.97 228.048H1954.17L1928.84 165.702H1845.33L1820.51 228.048H1785.45ZM1858.25 137.714L1887.45 59.3243L1917.4 137.714H1858.25ZM2222.71 228.048L2313.77 7.22475H2335.43L2427.23 228.048H2391.43L2366.1 165.702H2282.59L2257.77 228.048H2222.71ZM2295.26 137.714L2324.72 59.3243L2354.69 137.714H2295.26ZM1544.39 33.0347C1566.08 35.473 1574.11 44.7204 1574.11 66.3929C1574.36 88.0524 1559.49 99.5047 1540.51 99.5047H1511.76V32.7882H1544.39V33.0347ZM1546.1 126.274H1547.8C1563.86 126.274 1592.59 129.945 1592.59 165.715C1592.59 194.469 1567.5 202.731 1543.68 202.498L1549.5 202.731H1511.76V126.274H1546.1ZM1503.73 228.048H1560.71C1599.67 228.048 1627.68 202.485 1627.68 165.702C1627.68 137.48 1610.12 115.795 1585.3 107.287C1599.44 98.2725 1607.46 82.203 1607.46 61.7497C1607.46 28.3914 1585.04 7.95106 1551.94 7.21179C1533.93 6.96536 1515.66 7.21179 1497.4 7.21179H1477.44V228.035L1503.73 228.048ZM1711.65 33.0347C1733.34 35.473 1741.36 44.7204 1741.62 66.3929C1741.86 88.0524 1727.01 99.5047 1708.01 99.5047H1679.28V32.7882H1711.65V33.0347ZM1713.6 126.274H1715.32C1731.13 126.274 1760.1 129.945 1760.1 165.715C1760.1 194.469 1734.8 202.731 1711.17 202.498L1716.77 202.731H1679.28V126.274H1713.6ZM1671.25 228.048H1728.23C1766.93 228.048 1795.18 202.485 1795.18 165.702C1795.18 137.48 1777.42 115.795 1752.57 107.287C1766.93 98.2725 1774.73 82.203 1774.73 61.7497C1774.73 28.3914 1752.34 7.95106 1719.46 7.21179C1701.2 6.96536 1682.93 7.21179 1664.69 7.21179H1644.96V228.035L1671.25 228.048ZM2004.56 7.95105H2025.51L2180.1 171.305V7.95105H2210.05V228.048H2187.17L2035.71 66.3799V228.048H2004.56V7.95105Z" fill="#C9AD9D"/>
</g>
<defs>
<clipPath id="clip0_999_3996">
<rect width="2428" height="236" fill="white"/>
</clipPath>
</defs>
</svg>
