<svg width="200" height="200" viewBox="0 0 200 200" fill="none" xmlns="http://www.w3.org/2000/svg">
<path fill-rule="evenodd" clip-rule="evenodd" d="M10.8221 63.4986L7.14697 63.3087L5.6321 63.0057L5.32912 62.4371C5.32912 61.9069 5.70784 61.6797 6.46631 61.6797H44.4698C62.2778 61.6797 74.7807 67.0979 82.0562 77.9718C86.2241 84.2616 88.3076 91.726 88.3076 100.365C88.3076 104.874 87.6259 109.231 86.2231 113.436C84.6325 117.87 82.4349 121.773 79.593 125.26C76.4854 128.934 72.6972 131.777 68.3393 133.86C63.6785 135.982 58.4502 137.081 52.5775 137.081H4.11619C3.32037 137.081 2.94165 136.815 2.94165 136.362C2.94165 135.869 3.51025 135.604 4.57065 135.604L13.8539 135.037C15.2941 134.846 16.3171 134.429 16.81 133.861L17.7573 132.534C18.0986 131.626 18.2885 130.263 18.3259 128.405V68.3109C18.3259 65.9618 16.9998 64.5216 14.4235 63.953L10.8221 63.4986ZM31.2832 64.5216L31.0176 66.0375V132.761C31.0176 133.519 31.169 134.048 31.472 134.239L32.9879 134.466H37.9891L49.583 134.049C52.6895 133.709 55.3416 133.216 57.4261 132.533C59.4986 131.777 61.4413 130.704 63.1846 129.352C64.7006 128.101 66.2538 126.32 67.9596 124.047C70.8005 120.334 72.8466 115.598 74.0969 109.801C74.8543 106.013 75.2341 102.337 75.2341 98.8137C75.2341 95.7072 74.7796 92.3724 73.8323 88.773C72.5063 83.582 70.4975 79.0353 67.6556 75.1703C62.1616 67.6686 53.144 63.9551 40.6785 63.9551H32.9869C32.1164 63.8773 31.5478 64.0672 31.2832 64.5216ZM95.7709 136.512C95.6952 136.057 96.0739 135.868 96.9081 135.868L99.5602 135.791C101 135.602 101.872 135.11 102.212 134.352L102.705 131.624V109.61C102.705 108.777 102.401 108.132 101.834 107.753L99.8631 107.563L97.2111 108.284L95.7709 108.207C95.581 107.752 96.1496 107.335 97.4757 106.957C100.621 106.123 103.388 105.062 105.736 103.736C107.175 102.903 108.198 102.447 108.652 102.258L109.79 102.145C110.168 102.22 110.359 102.979 110.359 104.342V132.076C110.359 133.401 110.661 134.35 111.231 134.917C111.912 135.6 113.504 135.94 115.966 135.94C116.838 135.94 117.291 136.131 117.369 136.546C117.369 136.889 117.104 137.002 116.648 137.002H96.4526C95.9981 137.005 95.7709 136.814 95.7709 136.512ZM185.19 109.231C183.333 111.164 182.083 113.436 181.4 116.164V132.268C181.4 133.708 181.893 134.731 182.916 135.375L185.229 135.79L187.653 136.056C188.223 136.132 188.45 136.246 188.45 136.548L188.337 136.814L187.692 137.005H167.421C166.815 137.005 166.475 136.814 166.475 136.512L167.042 136.057L170.453 135.791C171.778 135.564 172.613 135.11 173.068 134.428L173.637 132.723V109.989L173.256 108.322L172.614 107.943C172.423 107.755 172.121 107.641 171.666 107.565C171.098 107.528 170.416 107.641 169.696 107.943L167.766 108.475L166.665 108.209C166.476 107.943 166.552 107.755 166.816 107.641L168.445 106.959C172.158 105.86 175.151 104.724 177.237 103.55L179.812 102.147L180.949 102.222L181.404 103.17V111.505C184.246 106.883 186.519 104.042 188.073 103.094C189.019 102.526 189.929 102.071 190.612 101.882L191.937 101.769C192.77 101.692 193.719 101.958 194.778 102.64C196.219 103.473 196.977 104.724 197.051 106.314C197.128 107.641 196.747 108.666 195.914 109.459C195.157 110.104 194.398 110.295 193.718 110.104C193.073 109.991 192.58 109.725 192.24 109.346L191.179 108.021C190.345 106.807 189.55 106.428 188.603 106.771C187.5 107.071 186.365 107.906 185.19 109.231ZM106.001 78.0859C104.599 78.0859 103.463 78.5788 102.516 79.5261C101.493 80.4734 101 81.6853 101.075 83.0881C101 84.4141 101.492 85.5513 102.516 86.4986C103.463 87.4459 104.6 87.9378 106.001 87.9378C107.326 87.9378 108.502 87.4449 109.448 86.4986C110.395 85.5513 110.926 84.4152 110.926 83.0881C110.926 81.6853 110.395 80.4734 109.448 79.5261C108.502 78.5788 107.326 78.0859 106.001 78.0859ZM126.083 108.321C127.446 106.503 129.153 104.987 131.198 103.775C133.018 102.714 134.836 102.032 136.73 101.69L143.74 101.275C146.277 101.388 148.628 101.881 150.75 102.827C155.866 105.1 159.085 109.269 160.297 115.331C161.547 121.469 160.488 126.661 157.152 130.867C154.311 134.428 150.559 136.701 145.824 137.686C140.861 138.784 136.239 138.443 132.07 136.739C126.65 134.541 123.356 130.184 122.294 123.818C121.346 117.795 122.597 112.679 126.083 108.321ZM148.285 106.617C145.974 104.042 143.057 102.905 139.532 103.207C136.123 103.549 133.509 105.442 131.803 109.041C130.251 112.3 129.681 116.28 130.251 120.977C130.666 125.638 132.145 129.351 134.531 132.193C137.07 135.186 139.95 136.436 143.17 135.869C146.542 135.224 149.006 133.405 150.635 130.375C152.226 127.268 152.793 123.252 152.415 118.137C151.961 113.021 150.636 109.231 148.285 106.617ZM95.5053 108.285V108.663L94.6711 108.132V108.321L94.7468 108.663H94.6327V107.942H94.6711L95.4285 108.512V107.942H95.58L95.5053 108.285Z" fill="#C9AD9D"/>
<path fill-rule="evenodd" clip-rule="evenodd" d="M96.9072 108.019H96.4527V108.285H96.8314V108.321H96.4527V108.587H96.9072V108.665H96.3396V107.942H96.9072V108.019ZM98.9917 107.942H99.0301L98.6513 108.664H98.5372L98.2342 108.094L97.8929 108.664H97.8545C97.6646 108.321 97.5141 108.094 97.4758 107.942H97.6656L97.8929 108.512L98.2342 107.942H98.3473L98.6129 108.512L98.9159 107.942H98.9917ZM100.052 108.321L100.128 108.665H99.939V108.399L99.5603 107.942H99.7491L100.052 108.321L100.355 107.942H100.508L100.052 108.321ZM101.114 108.095C101.188 108.02 101.379 107.943 101.568 107.943C101.759 107.943 101.872 108.02 102.023 108.095C102.06 108.133 102.137 108.208 102.137 108.322L102.023 108.588C101.872 108.665 101.758 108.665 101.568 108.665C101.379 108.665 101.189 108.665 101.114 108.588L100.923 108.322C100.924 108.208 101 108.133 101.114 108.095ZM101.872 108.095L101.568 108.02L101.266 108.095C101.189 108.133 101.115 108.208 101.115 108.322C101.115 108.399 101.189 108.474 101.266 108.513L101.568 108.665C101.681 108.665 101.834 108.588 101.872 108.513C101.947 108.475 102.023 108.4 102.023 108.322C102.023 108.208 101.947 108.133 101.872 108.095ZM103.008 108.019L102.97 108.285H103.083C103.272 108.285 103.387 108.208 103.387 108.133C103.387 108.095 103.348 108.02 103.158 108.02L103.008 108.019ZM103.197 107.942C103.388 107.942 103.537 108.019 103.537 108.133L103.387 108.285L103.196 108.321L103.651 108.664H103.461L103.006 108.321H102.97L103.008 108.664H102.817V107.942H103.197ZM105.092 107.942L104.6 108.285L105.092 108.665H104.904L104.486 108.321V108.285L104.409 108.321L104.486 108.665H104.296V107.942H104.486L104.409 108.285H104.486L104.979 107.942H105.092Z" fill="#C9AD9D"/>
</svg>
