<svg width="1577" height="200" viewBox="0 0 1577 200" fill="none" xmlns="http://www.w3.org/2000/svg">
<g clip-path="url(#clip0_999_3938)">
<path fill-rule="evenodd" clip-rule="evenodd" d="M1576.44 106.387C1576.44 86.2895 1576.79 66.0259 1575.16 46.086C1574.71 33.8228 1569.49 22.2192 1560.61 13.7509C1551.73 5.28274 1539.89 0.620453 1527.62 0.758834C1509.27 -0.166021 1470.21 0.416638 1468.88 0.758834V198.955C1470.21 199.196 1509.27 199.76 1527.62 198.955C1539.86 199.056 1551.66 194.403 1560.54 185.976C1569.43 177.55 1574.69 166.006 1575.23 153.776C1576.66 138.044 1576.48 122.183 1576.44 106.387ZM1544.28 142.141C1544.22 149.37 1541.46 156.315 1536.54 161.617C1531.63 166.919 1524.91 170.198 1517.71 170.812C1512.16 171.173 1506.47 170.812 1500.56 170.812V28.1438C1508.88 28.282 1517.19 28.9524 1525.42 30.1507C1531.14 31.3777 1536.2 34.6411 1539.68 39.3315C1543.17 44.022 1544.82 49.8189 1544.34 55.6398C1544.82 84.4212 1544.9 113.323 1544.34 142.141H1544.28Z" fill="#C9AD9D"/>
<path fill-rule="evenodd" clip-rule="evenodd" d="M1411.53 28.4123C1402.52 6.7429 1383.41 0.0099512 1360.75 0.352148C1331.27 0.675847 1310 18.581 1309.01 47.0204C1307.81 81.8134 1307.88 116.68 1309.01 151.529C1309.82 178.563 1326.14 195.423 1353.63 198.798C1388.34 203.062 1414.07 187.099 1416.71 151.631C1417.96 134.687 1417.86 74.0909 1416.85 60.7452C1416.72 49.7612 1414.92 38.8603 1411.53 28.4123ZM1385.63 150.031C1385.65 153.033 1385.03 156.006 1383.82 158.753C1382.61 161.499 1380.83 163.958 1378.6 165.968C1376.36 167.977 1373.73 169.491 1370.87 170.411C1368.02 171.33 1364.99 171.634 1362.01 171.302C1359.02 171.402 1356.04 170.883 1353.27 169.778C1350.49 168.673 1347.97 167.006 1345.86 164.881C1343.76 162.756 1342.12 160.219 1341.04 157.43C1339.96 154.641 1339.47 151.659 1339.6 148.671C1339.2 132.412 1339.6 116.135 1339.6 99.8481C1339.6 83.7649 1339.32 67.6909 1339.6 51.6076C1339.42 48.0738 1340.08 44.548 1341.54 41.3208C1342.99 38.0936 1345.18 35.2572 1347.95 33.0454C1350.71 30.8336 1353.96 29.3095 1357.42 28.5989C1360.89 27.8883 1364.47 28.0113 1367.88 28.9579C1372.87 29.5669 1377.46 32.008 1380.75 35.8073C1384.04 39.6066 1385.8 44.4929 1385.69 49.5175C1386.09 83.0342 1386.17 116.588 1385.63 150.031Z" fill="#C9AD9D"/>
<path fill-rule="evenodd" clip-rule="evenodd" d="M825.801 16.0835C819.885 10.1261 812.678 5.60946 804.738 2.88311C796.797 0.156753 788.336 -0.706231 780.008 0.360933C767.585 0.63006 755.727 5.60125 746.826 14.2713C737.926 22.9413 732.646 34.6646 732.051 47.0754C730.904 82.3309 731.432 117.642 732.051 152.934C732.152 159.317 733.566 165.61 736.204 171.422C738.842 177.234 742.649 182.441 747.386 186.719C752.865 191.398 759.218 194.945 766.076 197.153C772.934 199.361 780.163 200.187 787.343 199.584C793.743 199.993 800.16 199.11 806.213 196.99C812.265 194.869 817.83 191.553 822.575 187.239C827.321 182.925 831.151 177.702 833.837 171.878C836.524 166.055 838.012 159.751 838.213 153.341C839.295 135.769 839.841 72.065 839.397 57.8684C840.103 42.7496 835.268 27.8925 825.801 16.0835ZM807.876 148.532C808.087 152.052 807.447 155.57 806.011 158.79C804.575 162.01 802.384 164.837 799.624 167.032C796.864 169.226 793.616 170.724 790.155 171.398C786.694 172.072 783.122 171.903 779.74 170.904C774.709 170.075 770.158 167.427 766.952 163.463C763.746 159.498 762.109 154.494 762.352 149.401C761.972 116.44 761.908 83.4407 762.352 50.4419C762.242 47.412 762.778 44.3934 763.922 41.5858C765.066 38.7782 766.794 36.2455 768.99 34.1551C771.186 32.0648 773.801 30.4646 776.662 29.4601C779.523 28.4557 782.564 28.07 785.585 28.3286C788.552 28.1824 791.516 28.6637 794.284 29.741C797.052 30.8184 799.561 32.4675 801.648 34.5806C803.735 36.6938 805.353 39.2235 806.396 42.0044C807.439 44.7853 807.883 47.755 807.7 50.7193C808.098 67.2002 807.802 83.6812 807.802 100.162C808.042 116.319 808.283 132.421 807.885 148.523L807.876 148.532Z" fill="#C9AD9D"/>
<path fill-rule="evenodd" clip-rule="evenodd" d="M891.285 0.546184C891.525 62.234 891.424 137.221 891.442 198.863C891.442 200.232 891.165 199.344 892.108 199.362C901.514 199.584 913.029 199.501 923.065 199.501L922.88 119.566H967.378L967.498 88.9346H922.954V28.2179H983.258V0.324219L891.285 0.546184Z" fill="#C9AD9D"/>
<path fill-rule="evenodd" clip-rule="evenodd" d="M1256.27 91.1447H1200.77V116.569H1226.9C1227.82 124.606 1227.64 161.526 1227.64 169.526C1223.07 172.78 1217.81 174.95 1212.28 175.873C1206.74 176.796 1201.07 176.447 1195.68 174.853C1179.48 169.767 1179.6 155.496 1178.84 139.274C1177.98 119.639 1177.56 108.079 1177.28 88.4071C1177.07 76.1435 1177.07 63.8892 1177.74 51.6626C1177.59 46.4979 1179.36 41.4603 1182.69 37.5171C1186.03 33.5739 1190.71 31.0032 1195.83 30.2985C1198.74 29.674 1201.75 29.6645 1204.66 30.2707C1207.57 30.8768 1210.32 32.0852 1212.74 33.8183C1215.16 35.5514 1217.19 37.7709 1218.7 40.3343C1220.21 42.8976 1221.16 45.7482 1221.51 48.7031C1222.81 55.2973 1223.2 62.0487 1224 68.9019H1256.27C1255.72 61.6418 1254.42 54.8349 1253.49 48.2222C1250.92 29.5123 1243.44 13.2256 1224.69 5.77129C1214.82 1.13676 1203.84 -0.637932 1193.01 0.648629C1182.18 1.93519 1171.93 6.23148 1163.42 13.0499C1158.93 16.6387 1155.35 21.2404 1152.97 26.4788C1148.62 36.6176 1146.23 47.4875 1145.91 58.5158C1145.04 82.4326 1145.09 106.414 1145.69 130.331C1145.98 141.409 1147.42 152.427 1149.97 163.209C1152.02 172.97 1157.23 181.783 1164.8 188.281C1172.37 194.778 1181.87 198.599 1191.83 199.149C1239.3 205.041 1256.14 179.431 1256.14 179.431L1256.27 91.1447Z" fill="#C9AD9D"/>
<path fill-rule="evenodd" clip-rule="evenodd" d="M324.257 0.203468C313.565 56.2775 302.003 117.78 291.108 173.854C289.48 182.252 287.972 190.677 286.363 199.464H316.737C319.512 185.036 322.287 170.645 325.061 156.393H367.839C370.715 170.682 373.564 184.916 376.459 199.26H408.618C394.929 132.671 381.398 66.4694 367.839 0C355.093 0 324.257 0.203468 324.257 0.203468ZM330.047 127.547L345.548 41.5353H346.593L362.576 127.547H330.047Z" fill="#C9AD9D"/>
<path fill-rule="evenodd" clip-rule="evenodd" d="M143.815 199.261H234.457V170.979H175.077V119.779H218.631V89.1198C205.932 89.1198 187.277 89.2585 174.411 89.2585C174.411 89.2585 174.633 32.3151 174.837 28.477H234.392V0.379883H143.75L143.815 199.261Z" fill="#C9AD9D"/>
<path fill-rule="evenodd" clip-rule="evenodd" d="M0 199.242H31.1141V119.788H75.7135L75.6303 89.1749H31.3176L31.4009 28.5783H92.0383V0.564453H0V199.242Z" fill="#C9AD9D"/>
<path fill-rule="evenodd" clip-rule="evenodd" d="M539.475 109.022C547.138 105.846 553.755 100.584 558.574 93.8325C563.393 87.0814 566.22 79.1131 566.732 70.8346C568.257 61.0842 568.257 51.1562 566.732 41.4057C564.522 16.0832 546.023 0.323669 519.071 0.323669C500.277 0.323669 461.727 0.0832067 460.376 0.323669V199.528H491.315V118.825C495.939 118.825 509.545 118.603 509.545 118.603C517.166 142.724 528.256 175.686 536.201 199.621C536.201 199.621 558.51 199.722 569.405 199.722C559.962 170.922 548.243 135.408 539.577 109.04L539.475 109.022ZM535.849 65.2023C535.572 79.2693 524.094 85.9838 509.212 86.8901C503.607 87.2323 497.956 86.8901 492.045 86.8901V25.3318C500.35 24.8745 508.678 25.2525 516.907 26.4601C528.505 28.7352 535.6 33.0913 535.822 46.0763C535.905 50.0346 535.905 62.0115 535.822 65.2115L535.849 65.2023Z" fill="#C9AD9D"/>
</g>
<defs>
<clipPath id="clip0_999_3938">
<rect width="1576.47" height="200" fill="white"/>
</clipPath>
</defs>
</svg>
