<svg width="2500" height="278" viewBox="0 0 2500 278" fill="none" xmlns="http://www.w3.org/2000/svg">
<g clip-path="url(#clip0_999_4002)">
<path d="M2056.42 178.262L2098.54 54.9273L2139.26 178.262H2056.42ZM1620.02 130.482V16.8259H1639.74C1672.35 16.8259 1694.22 38.0226 1694.22 76.3692C1694.22 97.5133 1677.68 130.482 1643.37 130.482H1620.02ZM1406.87 178.262L1448.97 54.9273L1489.71 178.262H1406.87ZM2499.98 11.4041H2375.2V16.8259H2395.82V212.036L2268.91 11.4041H2214.37V16.8259H2234.94V263.679H2200.45L2112.09 0L2020.83 263.679H1988.34V16.8259H2007.16V11.4041H1957.92L1887.84 217.292L1814.36 11.4041H1764.29V16.8259H1784.9V263.679H1747.05C1734.05 263.679 1723.36 252.082 1723.36 233.829V195.517C1723.36 163.889 1712.28 138.645 1677.05 133.285C1706.36 129.291 1727.87 103.128 1727.87 74.9327C1727.87 39.0736 1701.29 11.4129 1648.42 11.4129H1569.78V16.8347H1590.34V263.697L1550.91 263.688L1462.52 0L1371.28 263.679H1354.31V269.11H1401.37V263.679H1377.69L1405 183.692H1491.5L1517.92 263.679H1485.53V269.11H1651.86L1651.87 263.688H1620.01V135.912H1643.36C1675.41 135.912 1692.22 148.946 1692.22 180.968V203.418C1692.22 256.357 1726.31 269.11 1744.53 269.11H1812.78V263.679H1790.33V35.2985L1876.75 271.86L1958.65 27.5819V263.67H1938.04V269.101H2050.92V263.67H2027.25L2054.57 183.684H2141.06L2167.48 263.67H2135.1V269.101H2261.08V263.67H2240.37V25.3922L2401.26 278V16.8259H2449.67V263.679H2429.04V269.11H2499.99V263.679H2479.36V16.8259H2499.99L2499.98 11.4041ZM1124.98 270.231C1056.49 270.231 1053.15 180.749 1053.15 140.441C1053.15 100.439 1057.69 10.6509 1124.98 10.6509C1192.13 10.6509 1197.2 100.448 1197.2 140.441C1197.2 180.425 1193.35 270.231 1124.98 270.231ZM1124.98 5.22033C1057.59 5.22033 1013.32 80.2406 1013.32 140.441C1013.32 206.133 1061.23 275.293 1124.98 275.293C1188.74 275.293 1236.65 210.346 1236.65 140.441C1236.65 80.2319 1188.76 5.22033 1124.98 5.22033ZM932.764 16.8172L953.392 16.8259V263.679H932.764V269.11H1003.71V263.679H983.076V16.8259H1003.71V11.4041H932.764V16.8172ZM583.055 130.473V16.8259H602.78C635.39 16.8259 657.252 38.0226 657.252 76.3692C657.252 97.5133 640.724 130.473 606.398 130.473H583.055ZM710.095 265.869C697.088 265.869 686.393 253.913 686.393 235.651V195.517C686.393 163.766 675.313 138.645 640.076 133.285C669.401 129.291 690.912 103.119 690.912 74.9327C690.912 39.0736 665.091 11.4129 611.46 11.4129H532.805V16.8347H553.371V263.697H532.805V269.118H614.902L614.911 263.697H583.055V135.912H606.398C638.455 135.912 655.264 149.463 655.264 180.968V205.966C655.264 258.073 689.345 271.659 707.563 271.659C719.239 271.659 724.433 268.059 728.427 264.38L725.195 259.922C723.194 261.859 720.83 263.381 718.238 264.402C715.647 265.422 712.879 265.921 710.095 265.869ZM411.59 270.231C343.104 270.231 339.74 180.749 339.74 140.441C339.74 100.439 344.304 10.6509 411.59 10.6509C478.745 10.6509 483.807 100.448 483.807 140.441C483.807 180.425 479.962 270.231 411.59 270.231ZM411.59 5.22033C344.199 5.22033 299.931 80.2406 299.931 140.441C299.931 206.133 347.834 275.293 411.59 275.293C475.346 275.293 523.258 210.346 523.258 140.441C523.258 80.2319 475.364 5.22033 411.59 5.22033ZM219.007 16.8172L239.634 16.8259V263.679H219.007V269.11H289.946V263.679H269.318V16.8259H289.946V11.4041H219.007V16.8172ZM139.353 167.226H163.607V216.092C163.607 241.484 144.311 270.231 110.221 270.231C45.694 270.231 39.8255 188.781 39.8255 140.441C39.8255 96.4272 44.2575 10.6509 115.109 10.6509C142.436 10.6509 171.814 34.9657 177.604 85.2157H182.246V6.30644H177.63C176.193 14.7588 170.474 19.0857 160.532 19.0857C151.265 19.0857 139.406 5.22033 114.925 5.22033C39.1861 5.22033 0.00732422 85.6712 0.00732422 140.441C0.00732422 198.127 43.548 275.293 110.212 275.293C147.21 275.293 149.417 253.195 173.198 253.195C181.624 253.195 186.792 261.025 187.545 269.11H193.291V167.226H213.918V161.795H139.353V167.226ZM853.916 167.226H878.161V216.092C878.161 241.484 858.874 270.231 824.775 270.231C760.248 270.231 754.38 188.781 754.38 140.441C754.38 96.4272 758.812 10.6509 829.663 10.6509C857 10.6509 886.377 34.9657 892.158 85.2157H896.809V6.30644H892.184C890.756 14.7588 885.028 19.0857 875.087 19.0857C865.82 19.0857 853.96 5.22033 829.479 5.22033C753.749 5.22033 714.57 85.6712 714.57 140.441C714.57 198.118 758.111 275.293 824.775 275.293C861.773 275.293 863.972 253.195 887.761 253.195C896.178 253.195 901.346 261.025 902.099 269.11H907.854L907.845 167.226H928.481V161.795H853.916V167.226Z" fill="#C9AD9D"/>
</g>
<defs>
<clipPath id="clip0_999_4002">
<rect width="2500" height="278" fill="white"/>
</clipPath>
</defs>
</svg>
