<svg width="1040" height="163" viewBox="0 0 1040 163" fill="none" xmlns="http://www.w3.org/2000/svg">
<g clip-path="url(#clip0_999_3990)">
<path fill-rule="evenodd" clip-rule="evenodd" d="M1002.97 5.93149H1039.57C1035.52 9.07666 1033.08 12.9287 1033.08 18.2009V144.209C1033.08 149.474 1035.62 153.229 1039.57 156.368H1002.97C1006.92 153.229 1009.36 149.377 1009.36 144.209V18.1944C1009.36 12.9222 1007.03 9.07018 1002.97 5.93149ZM154.817 60.0608C148.838 47.1883 142.249 34.5169 131.199 25.2954C119.442 15.3605 104.533 9.38149 89.125 9.38149C48.173 9.38149 29.8208 46.3777 29.8208 82.7709C29.8208 117.951 47.3624 153.527 86.8942 153.527C103.009 153.527 118.729 146.537 128.657 133.859V105.474C128.657 97.7704 126.121 92.8095 120.142 88.2506H162.009C157.547 93.3153 154.817 98.4837 154.817 105.474V133.859C135.654 151.705 111.835 162.645 85.3768 162.645C38.6467 162.645 0.424805 128.282 0.424805 80.4363C0.424805 32.8956 38.1344 0.354492 84.2614 0.354492C112.95 0.354492 136.16 10.8989 154.817 32.0851V60.0608ZM257.401 5.93149H296.836C291.46 9.88079 289.638 14.3424 289.638 20.931V112.88C289.638 138.113 319.235 150.486 340.933 150.486C362.223 150.486 389.998 138.022 389.998 113.386V20.931C389.998 14.7445 388.474 10.4904 384.323 5.93149H405.814C401.456 10.3931 399.835 14.8482 399.835 20.931V113.386C399.835 146.634 360.608 159.403 333.436 159.403C305.461 159.403 264.606 147.043 264.606 112.88V20.931C264.599 14.6472 262.064 9.98455 257.401 5.93149ZM652.337 60.5666C647.071 47.2856 640.885 35.6323 630.036 26.0022C618.382 15.6588 604.187 9.17394 588.48 9.17394C547.937 9.17394 527.153 44.6527 527.153 81.4545C527.153 118.451 548.748 153.424 588.785 153.424C618.59 153.424 639.88 132.439 652.344 107.193V134.566C633.803 152.918 609.874 162.243 583.721 162.243C535.259 162.243 498.97 130.921 498.97 80.9486C498.97 32.3963 533.839 0.464774 581.386 0.464774C607.741 0.464774 633.278 9.58896 652.337 27.7337V60.5666ZM906.577 60.5666C901.311 47.2856 895.112 35.6323 884.275 26.0022C872.622 15.6588 858.427 9.17394 842.72 9.17394C802.164 9.17394 781.483 44.6527 781.483 81.4545C781.483 118.451 802.974 153.424 843.025 153.424C872.83 153.424 894.21 132.439 906.583 107.193V134.566C888.03 152.918 864.205 162.243 837.96 162.243C789.499 162.243 753.216 130.921 753.216 80.9486C753.216 32.3963 788.085 0.464774 835.619 0.464774C861.974 0.464774 887.524 9.58896 906.583 27.7337L906.577 60.5666Z" fill="#C9AD9D"/>
</g>
<defs>
<clipPath id="clip0_999_3990">
<rect width="1040" height="163" fill="white"/>
</clipPath>
</defs>
</svg>
