<svg width="1114" height="200" viewBox="0 0 1114 200" fill="none" xmlns="http://www.w3.org/2000/svg">
<g clip-path="url(#clip0_999_3934)">
<path fill-rule="evenodd" clip-rule="evenodd" d="M1007.48 188.92C1005.16 191.71 1003.3 193.566 1001.67 194.262C1000.28 195.191 998.418 195.423 996.33 195.423C992.148 195.423 988.662 194.03 986.104 191.24C983.534 188.45 982.386 183.803 982.386 177.295V158.923C982.386 152.182 983.534 147.536 986.104 144.745C988.662 141.955 992.148 140.563 996.33 140.563C999.584 140.563 1002.14 141.491 1004.46 143.121C1006.56 144.745 1008.18 147.536 1009.34 151.486C1010.5 155.668 1011.67 158.227 1013.06 159.619C1015.61 162.409 1020.26 165.199 1026.78 168.216C1033.29 171.006 1040.49 172.398 1048.39 172.398C1060.7 172.398 1070.71 169.608 1078.61 163.801C1083.49 160.315 1086.05 156.132 1086.05 151.022C1086.05 147.536 1084.65 144.513 1082.33 141.491C1080 138.469 1076.05 135.91 1070.71 134.042C1066.99 132.65 1059.08 130.788 1046.77 128.462C1031.66 125.671 1020.5 122.417 1012.83 118.467C1005.16 114.516 998.888 109.174 994.474 101.969C990.151 94.9896 987.895 86.928 987.966 78.7185C987.966 65.7011 993.308 54.3079 1004.23 44.3129C1015.38 34.5439 1029.57 29.6654 1046.99 29.6654C1054.2 29.6654 1060.7 30.3614 1066.75 31.9916C1072.57 33.3838 1078.14 35.942 1083.02 38.9643C1086.5 35.478 1090.22 33.8538 1093.71 33.8538C1097.66 33.8538 1100.91 35.2459 1103.48 38.0421C1106.04 40.8324 1107.43 45.479 1107.43 51.9876V72.6798C1107.43 79.1885 1106.04 83.8349 1103.48 86.8632C1100.91 89.4215 1097.66 91.0457 1093.71 91.0457C1090.22 91.0457 1087.43 89.8855 1084.88 87.7913C1083.02 86.3991 1081.39 83.3769 1080.47 78.7244C1079.54 74.304 1078.37 71.0496 1076.75 68.9614C1074.19 65.7071 1070.24 62.6847 1065.13 60.3585C1060.01 58.0322 1053.96 57.1041 1047.23 57.1041C1037.23 57.1041 1029.56 59.1984 1023.76 63.8508C1017.93 68.4973 1015.15 73.1438 1015.15 78.2603C1015.15 81.7467 1016.31 85.001 1018.64 88.0233C1020.96 91.2777 1024.45 93.8359 1029.11 95.4601C1032.13 96.6203 1040.49 98.7145 1054.67 101.505C1068.62 104.301 1079.54 107.323 1086.98 110.572C1094.41 113.82 1100.69 118.937 1105.81 126.141C1110.69 133.114 1113.25 141.491 1113.25 151.254C1113.25 164.735 1108.6 175.658 1099.06 183.803C1086.28 194.494 1070.25 199.837 1050.48 199.837C1043.05 199.837 1035.61 198.909 1028.41 197.047C1021.15 195.14 1014.13 192.413 1007.48 188.92ZM620.479 85.0011V167.99H631.632C639.08 167.99 644.422 169.15 647.444 171.708C650.697 174.51 652.321 177.765 652.321 181.947C652.321 185.897 650.697 189.384 647.444 191.942C644.422 194.5 639.08 195.661 631.632 195.661H591.421C583.985 195.661 578.643 194.5 575.621 191.942C572.367 189.384 570.976 185.897 570.976 181.715C570.976 177.765 572.367 174.51 575.389 171.708C578.643 169.15 583.521 167.99 589.797 167.99V58.9663C584.455 58.5023 580.505 57.1041 577.715 54.5459C574.925 51.9876 573.533 48.7333 573.533 45.0149C573.533 40.8325 575.157 37.5781 578.411 35.0199C581.433 32.2296 586.775 31.0694 593.99 31.0694H627.683L669.53 114.992L710.658 31.0694H744.595C752.03 31.0694 757.152 32.4616 760.406 35.0199C763.428 37.5781 765.052 40.8325 765.052 45.0149C765.052 48.7333 763.66 51.9876 760.87 54.5459C758.08 57.1041 754.13 58.5023 748.788 58.9663V167.99C755.296 167.99 759.942 169.15 763.196 171.94C766.218 174.51 767.841 177.765 767.841 181.947C767.841 185.897 766.218 189.384 762.964 191.942C759.942 194.5 754.6 195.661 747.153 195.661H706.941C699.505 195.661 694.395 194.5 691.141 191.942C688.12 189.384 686.496 185.897 686.496 181.715C686.496 177.765 688.12 174.51 691.141 171.708C694.395 169.15 699.505 167.99 706.941 167.99H718.106V85.0011L682.778 166.365H656.277L620.479 85.0011ZM431.977 98.7205H453.362C461.267 98.7205 468.239 97.3223 474.514 95.0021C482.884 91.7477 488.458 91.5157 491.486 87.7973C494.275 84.3109 495.899 83.8409 495.899 80.3605C495.899 75.012 493.109 70.1334 487.53 65.713C481.95 61.2985 474.044 58.9723 463.361 58.9723H431.983V98.7205H431.977ZM431.977 123.363V167.996H441.744C448.484 167.996 453.13 169.156 455.919 171.714C458.709 174.272 460.107 177.771 460.107 181.953C460.107 185.903 458.715 189.39 455.919 191.948C453.124 194.506 448.484 195.666 441.744 195.666H400.134C393.627 195.666 388.981 194.506 386.191 191.948C383.401 189.39 382.009 185.903 382.009 181.721C382.009 177.771 383.401 174.272 386.191 171.714C388.981 169.156 393.627 167.996 400.134 167.996H404.554V58.9663H400.134C393.627 58.9663 388.981 57.8062 386.191 55.01C383.401 52.4517 382.009 49.1974 382.009 45.0149C382.009 40.8325 383.401 37.3401 386.191 34.7878C388.981 32.2355 393.627 31.0694 400.134 31.0694H462.195C485.9 31.0694 523.322 40.1364 523.322 70.1215C523.322 99.1786 518.444 97.5543 499.611 107.787C514.25 117.318 520.764 130.562 521.924 167.99C528.896 167.99 539.817 168.454 542.143 170.084C546.093 172.874 547.955 176.825 547.955 181.947C547.955 185.897 546.563 189.384 544.005 191.942C541.215 194.5 536.569 195.893 529.824 195.661L488.684 194.036C487.292 140.111 484.966 122.203 458.935 123.363H431.977ZM252.076 128.242V168.228H319.948V153.586C319.948 146.845 321.34 142.199 323.666 139.409C326.224 136.606 329.478 135.214 333.428 135.214C337.145 135.214 340.405 136.606 342.963 139.409C345.521 142.199 346.681 146.845 346.681 153.586V195.661H221.393C214.886 195.661 210.24 194.5 207.682 191.942C204.892 189.384 203.494 186.13 203.494 181.947C203.494 177.997 204.886 174.742 207.682 172.172C210.472 169.614 214.886 168.222 221.393 168.222H225.349V61.0605H221.393C214.886 61.0605 210.24 59.9004 207.682 57.3421C204.892 54.7839 203.494 51.5295 203.494 47.3471C203.494 43.1587 204.886 39.9103 207.682 37.3461C210.24 34.7878 214.886 33.6277 221.393 33.6277H340.863V75.47C340.863 81.9787 339.471 86.6312 337.145 89.4215C334.82 92.2117 331.566 93.6039 327.616 93.6039C323.434 93.6039 320.412 92.2117 317.854 89.4215C315.297 86.6312 314.137 81.9847 314.137 75.47V61.0605H252.076V100.815H275.549L305.303 100.351L306.695 127.081L275.549 128.242H252.076ZM857.325 128.242V168.228H925.429V153.586C925.429 146.845 926.589 142.199 928.915 139.409C931.473 136.606 934.727 135.214 938.677 135.214C942.627 135.214 945.648 136.606 948.218 139.409C950.776 142.199 951.936 146.845 951.936 153.586V195.661H826.654C820.135 195.661 815.721 194.5 812.931 191.942C810.141 189.384 808.749 186.13 808.749 181.947C808.749 177.997 810.141 174.742 812.931 172.172C815.721 169.614 820.367 168.222 826.654 168.222H830.836V61.0605H826.654C820.135 61.0605 815.721 59.9004 812.931 57.3421C810.141 54.7839 808.749 51.5295 808.749 47.3471C808.749 43.1587 810.141 39.9103 812.931 37.3461C815.721 34.7878 820.135 33.6277 826.654 33.6277H946.124V75.47C946.124 81.9787 944.964 86.6312 942.395 89.4215C940.069 92.2117 936.815 93.6039 932.865 93.6039C928.915 93.6039 925.661 92.2117 923.104 89.4215C920.778 86.6312 919.386 81.9847 919.386 75.47V61.0605H857.325V100.815H880.804L910.558 100.351L912.182 127.081L880.804 128.242H857.325ZM115.635 126.379H51.95V167.294H56.5958C63.7994 167.294 68.9152 168.686 71.937 171.476C74.9589 174.034 76.5828 177.533 76.5828 181.715C76.5828 185.897 74.9589 189.152 71.937 191.71C68.9152 194.5 63.7994 195.661 56.5958 195.661H20.1076C13.136 195.661 8.02621 194.5 4.76642 191.71C1.74458 189.152 0.34668 185.665 0.34668 181.483C0.34668 176.372 2.67255 172.41 7.31834 169.388C9.6442 167.996 14.754 167.294 22.1896 167.294V56.6401C17.0798 56.176 13.13 54.5459 10.3342 51.9936C7.77637 49.4353 6.38442 46.181 6.38442 42.2306C6.38442 38.0481 8.01431 34.5558 11.0362 32.0035C14.058 29.4512 19.1797 28.0531 26.3833 28.0531L56.5958 28.2851C63.7994 28.2851 68.9152 29.4452 71.937 32.0035C74.9589 34.7938 76.5828 38.0481 76.5828 42.2306C76.5828 46.651 74.9589 50.1374 71.937 52.6897C68.9152 55.242 63.7994 56.6401 56.5958 56.6401H51.95V98.0243H115.635V56.6401H110.989C103.785 56.6401 98.6696 55.2479 95.6478 52.6897C92.6259 50.1314 91.002 46.645 91.002 42.2306C91.002 38.0481 92.6259 34.5558 95.6478 32.0035C98.6696 29.4512 103.785 28.0531 110.989 28.0531L141.207 28.2851C148.411 28.2851 153.527 29.4452 156.549 32.0035C159.57 34.7938 161.194 38.0481 161.194 42.2306C161.194 46.181 159.802 49.4353 157.245 51.9936C154.455 54.5518 150.505 56.182 145.389 56.6401V167.294C153.063 167.294 157.941 168.222 160.029 169.388C164.912 172.41 167.232 176.372 167.232 181.715C167.232 185.897 165.608 189.152 162.586 191.71C159.565 194.5 154.449 195.661 147.477 195.661H110.983C103.779 195.661 98.6637 194.5 95.6418 191.71C92.62 189.152 90.996 185.665 90.996 181.483C90.996 177.301 92.62 174.034 95.6418 171.476C98.6637 168.686 103.779 167.294 110.983 167.294H115.629L115.635 126.379ZM861.745 0.388217L897.073 6.43283C901.255 7.12892 904.045 8.75905 905.437 11.0793C906.596 12.9356 906.84 15.0298 906.132 17.356C905.436 19.3991 904.036 21.1282 902.183 22.2345C900.559 23.1626 898.001 23.4006 894.283 22.6986L858.955 16.654C854.773 15.9579 851.983 14.5597 850.591 12.2395C849.431 10.1453 849.199 8.05702 849.895 5.96282C850.591 3.87456 851.751 2.0124 853.845 1.07834C855.469 0.156174 858.027 -0.0817879 861.745 0.388217Z" fill="#C9AD9D"/>
</g>
<defs>
<clipPath id="clip0_999_3934">
<rect width="1113.59" height="200" fill="white"/>
</clipPath>
</defs>
</svg>
