<svg width="858" height="320" viewBox="0 0 858 320" fill="none" xmlns="http://www.w3.org/2000/svg">
<path d="M15.665 267.224H22.3679V287.333H48.0635V267.224H54.5436V314.146H48.0635V292.696H22.3679V314.146H15.665V267.224Z" fill="#C9AD9D"/>
<path d="M158.443 297.164C158.443 309.007 151.292 315.263 139.003 315.263C126.49 315.263 118.894 309.677 118.894 297.164V267.224H125.596V297.164C125.596 305.432 130.512 310.124 139.003 310.124C147.27 310.124 151.962 305.432 151.962 297.164V267.224H158.443V297.164Z" fill="#C9AD9D"/>
<path d="M239.55 315.486C224.804 316.38 215.866 303.868 215.866 291.578C215.866 277.949 223.686 266.106 239.327 266.106C250.053 266.106 258.543 270.575 260.33 281.747H253.851C252.51 274.597 246.477 271.246 239.327 271.246C227.261 271.246 222.346 281.3 222.346 291.355C222.346 301.186 228.602 310.571 240.444 310.347C246.477 310.124 251.393 309.007 253.851 304.985C255.638 302.527 255.191 298.058 254.968 294.707H239.327V289.344H260.777C260.777 289.344 260.777 301.633 260.777 306.996C255.191 313.922 248.488 315.04 239.55 315.486Z" fill="#C9AD9D"/>
<path d="M340.992 310.124C352.834 310.124 357.973 300.069 357.973 290.685C357.973 281.3 352.834 271.246 340.992 271.246C328.926 271.246 324.01 281.3 324.01 290.685C324.01 300.069 328.926 310.124 340.992 310.124ZM340.992 266.106C356.632 266.106 364.453 277.949 364.453 290.685C364.453 303.421 356.632 315.263 340.992 315.263C325.351 315.263 317.53 303.421 317.53 290.685C317.53 277.949 325.351 266.106 340.992 266.106Z" fill="#C9AD9D"/>
<path d="M496.058 287.333H509.018C516.392 287.333 519.52 284.875 519.52 279.96C519.52 273.48 514.827 272.363 509.018 272.363H496.058V287.333ZM496.058 309.007H512.369C517.955 309.007 521.53 305.655 521.53 300.516C521.53 294.483 516.392 292.696 510.805 292.696H496.058V309.007ZM489.579 267.224H507.23C511.699 267.224 517.285 267.224 520.19 268.788C523.541 270.799 525.999 274.15 525.999 278.619C525.999 283.758 523.318 287.557 518.849 289.344C524.882 290.461 528.234 294.93 528.234 300.739C528.234 307.666 522.871 314.146 513.263 314.146H489.579V267.224Z" fill="#C9AD9D"/>
<path d="M610.235 310.124C622.301 310.124 627.217 300.069 627.217 290.685C627.217 281.3 622.301 271.246 610.235 271.246C598.393 271.246 593.254 281.3 593.254 290.685C593.254 300.069 598.393 310.124 610.235 310.124ZM610.235 266.106C625.876 266.106 633.92 277.949 633.92 290.685C633.92 303.421 625.876 315.263 610.235 315.263C594.595 315.263 586.774 303.421 586.774 290.685C586.774 277.949 594.595 266.106 610.235 266.106Z" fill="#C9AD9D"/>
<path d="M723.966 281.077C723.296 274.15 718.603 271.246 711.9 271.246C706.314 271.246 700.951 273.256 700.951 279.289C700.951 285.099 708.772 285.993 716.592 287.78C724.413 289.344 732.233 292.025 732.233 301.41C732.233 311.241 721.955 315.263 713.017 315.263C702.069 315.263 692.908 310.124 692.908 298.729H698.941C698.941 306.549 705.867 310.124 713.241 310.124C719.274 310.124 725.753 308.336 725.753 301.41C725.753 294.93 717.933 294.036 710.113 292.249C702.292 290.685 694.249 288.45 694.249 279.736C694.249 270.352 703.186 266.106 712.123 266.106C722.178 266.106 729.775 270.575 730.222 281.077H723.966Z" fill="#C9AD9D"/>
<path d="M829.876 281.077C828.982 274.15 824.29 271.246 817.587 271.246C812.224 271.246 806.638 273.256 806.638 279.289C806.638 285.099 814.459 285.993 822.502 287.78C830.323 289.344 838.143 292.025 838.143 301.41C838.143 311.241 827.865 315.263 818.927 315.263C807.979 315.263 798.595 310.124 798.595 298.729H804.851C804.851 306.549 811.778 310.124 819.151 310.124C824.96 310.124 831.664 308.336 831.664 301.41C831.664 294.93 823.62 294.036 815.8 292.249C807.979 290.685 800.158 288.45 800.158 279.736C800.158 270.352 808.872 266.106 818.034 266.106C827.865 266.106 835.686 270.575 835.909 281.077H829.876Z" fill="#C9AD9D"/>
<path d="M73.3119 19.2073V103.667H103.923C103.923 103.667 106.604 103.444 108.169 102.997C126.043 101.433 137.439 79.9827 138.556 64.3419C140.344 47.5841 130.065 19.8776 104.37 19.2073C96.7728 18.9839 73.3119 19.2073 73.3119 19.2073ZM73.3119 113.498V214.716H101.018C101.018 214.716 116.659 215.833 130.736 204.438C144.589 193.266 151.739 176.732 150.175 157.739C149.058 140.758 136.098 116.627 107.051 113.498C91.6342 113.498 73.3119 113.498 73.3119 113.498ZM138.556 9.37598C161.57 10.7166 176.541 23.0058 177.881 24.5698C189.724 35.5184 193.298 52.0528 190.394 67.917C186.596 94.5062 153.527 105.678 153.527 105.678C181.233 109.03 202.013 129.81 205.141 152.153C207.822 174.05 199.779 193.49 181.68 207.119C163.358 220.749 136.545 225.218 122.021 225.218C122.021 225.218 9.85513 225.218 3.59919 225.218C3.59919 221.643 3.59919 218.962 3.59919 215.833C18.7928 216.057 20.5806 216.057 20.5806 210.024C20.3571 187.233 20.5806 28.1448 20.5806 23.8995C20.5806 18.9838 18.1224 18.7604 3.59919 18.7604C3.37572 14.962 3.82267 9.37598 3.82267 9.37598H138.556Z" fill="#C9AD9D"/>
<path d="M321.329 20.9944C306.582 30.8258 296.304 53.3931 291.388 72.162C283.567 100.539 285.132 134.055 292.952 168.464C300.996 202.874 323.117 214.939 336.3 217.844C360.878 223.43 376.965 209.13 385.679 195.947C402.661 170.252 406.906 117.297 401.543 86.9089C396.628 58.7556 389.031 39.093 374.284 25.9101C357.75 11.3866 334.065 12.5038 321.329 20.9944ZM453.829 154.611C443.55 185.222 422.994 204.438 399.309 216.95C368.251 233.708 323.787 236.389 292.729 217.844C273.513 206.449 224.58 176.061 231.06 104.337C232.401 88.9198 240.221 50.2649 283.345 21.2179C312.838 2.00216 355.292 -3.58381 394.841 14.7382C456.51 42.8914 469.469 112.381 453.829 154.611Z" fill="#C9AD9D"/>
<path d="M635.037 19.43C635.261 35.5177 635.037 68.81 635.037 68.81L627.217 69.0335C622.525 48.2537 612.47 30.3785 595.266 22.1113C578.731 14.0675 553.706 10.0456 537.394 24.3457C527.787 32.8364 526.446 41.5504 529.797 51.3817C535.607 65.9053 551.695 70.3741 564.207 75.96C574.486 79.982 596.382 87.132 596.382 87.132C620.737 95.6227 647.773 112.157 655.147 139.64C658.498 151.482 658.498 164.889 655.817 176.954C649.784 203.767 632.58 210.247 622.748 216.95C617.832 220.301 571.804 237.953 516.392 219.855C504.996 216.056 491.813 211.587 491.813 211.587V151.482C491.813 151.482 497.846 151.706 500.303 151.706C504.102 161.314 507.454 172.932 515.498 184.551C534.266 211.811 560.856 220.078 590.126 213.822C601.745 211.141 614.481 203.097 617.832 191.031C622.078 177.401 620.737 154.834 579.624 139.64C549.907 126.01 512.593 120.424 494.941 87.3554C488.014 68.81 490.026 36.6348 512.816 20.994C535.831 5.35334 558.174 1.77836 585.21 5.35335C612.023 9.15182 619.173 12.7268 635.037 19.43Z" fill="#C9AD9D"/>
<path d="M830.77 19.43C830.993 35.5177 830.77 68.81 830.77 68.81L822.949 69.0335C818.257 48.2537 808.202 30.3785 790.998 22.1113C774.463 14.0675 749.438 10.0456 733.127 24.3457C723.519 32.8364 722.178 41.5504 725.53 51.3817C731.34 65.9053 747.427 70.3741 759.94 75.96C770.218 79.982 792.115 87.132 792.115 87.132C816.469 95.6227 843.506 112.157 850.879 139.64C854.231 151.482 854.231 164.889 851.55 176.954C845.516 203.767 828.312 210.247 818.481 216.95C813.565 220.301 767.537 237.953 712.123 219.855C700.728 216.056 687.545 211.587 687.545 211.587V151.482C687.545 151.482 693.578 151.706 696.036 151.706C699.834 161.314 703.186 172.932 711.23 184.551C729.999 211.811 756.588 220.078 785.859 213.822C797.477 211.141 810.213 203.097 813.565 191.031C817.81 177.401 816.469 154.834 775.357 139.64C745.639 126.01 708.325 120.424 690.674 87.3554C683.747 68.81 685.758 36.6348 708.772 20.994C731.563 5.35334 753.906 1.77836 780.719 5.35335C807.755 9.15182 814.906 12.7268 830.77 19.43Z" fill="#C9AD9D"/>
</svg>
