<svg width="162" height="158" viewBox="0 0 162 158" fill="none" xmlns="http://www.w3.org/2000/svg">
<g clip-path="url(#clip0_999_3949)">
<path fill-rule="evenodd" clip-rule="evenodd" d="M130.256 21.2179L88.5847 119.571L77.0883 94.3445L98.3235 36.5461C99.9203 32.0762 105.508 30 114.929 30L118.28 21.2179H68.7856L65.5919 30C72.6174 30 75.4915 32.0751 74.373 36.5461L63.8363 65.9241L43.0806 21.2179C39.2488 16.4284 41.1642 14.0326 48.669 14.0326V3.65578H0.769043V14.0337C9.71092 14.0337 15.2983 16.4294 17.6941 21.2189L52.8203 95.9424L36.3747 139.85C36.0541 145.757 26.7947 148.633 8.91198 148.633L5.55956 157.414H142.231L161.231 117.019H151.331C142.072 137.934 131.375 148.633 119.4 148.633H56.6511L65.9115 123.884L73.8947 139.85H91.7774L142.23 21.22C144.626 14.0347 150.853 10.204 160.592 10.204V0.94043H119.399V10.2019C131.853 10.2019 135.366 14.0337 130.256 21.2179Z" fill="#C9AD9D"/>
</g>
<defs>
<clipPath id="clip0_999_3949">
<rect width="162" height="158" fill="white"/>
</clipPath>
</defs>
</svg>
