<svg width="603" height="398" viewBox="0 0 603 398" fill="none" xmlns="http://www.w3.org/2000/svg">
<g clip-path="url(#clip0_1056_3577)">
<mask id="mask0_1056_3577" style="mask-type:luminance" maskUnits="userSpaceOnUse" x="-96" y="-248" width="751" height="1001">
<path d="M-95.3711 -247.65H654.629V752.35H-95.3711V-247.65Z" fill="white"/>
</mask>
<g mask="url(#mask0_1056_3577)">
<path fill-rule="evenodd" clip-rule="evenodd" d="M70.6004 336.726H78.4979V395.051H70.6004V336.726ZM230.299 345.418L239.003 371.162H220.987L230.124 345.418H230.299ZM226.305 336.726L204.204 395.051H212.369L218.402 378.186H241.839L247.698 395.051H256.137L235.18 336.726H226.305ZM158.66 336.726V360.868H189.108V336.726H196.829V395.051H189.108V367.792H158.66V395.051H150.673V336.726H158.66ZM103.003 347.997C99.3679 352.079 97.5879 357.849 97.5879 365.305C97.5879 381.548 103.892 389.719 116.763 389.719C125.814 389.719 131.408 384.397 133.539 373.569H141.175C139.753 382.886 135.58 389.547 128.744 393.358C124.925 395.582 120.488 396.646 115.61 396.646C108.325 396.646 102.29 394.245 97.5879 389.547C92.0829 384.038 89.4216 376.044 89.4216 365.57C89.4216 356.52 91.8141 349.145 96.6991 343.648C101.584 337.872 108.243 335.124 116.498 335.124C123.593 335.124 129.367 337.167 133.804 341.159C137.619 344.529 139.839 348.888 140.638 354.207H132.919C131.322 346.04 125.814 342.048 116.498 342.048C110.993 342.048 106.549 343.999 103.003 347.997ZM49.7341 346.04L33.3129 395.051H25.5016L9.25912 346.04H8.90412L9.25912 395.051H1.53662V336.726H12.8079L29.3154 385.993H29.6741L46.1854 336.726H57.4591V395.051H49.7341L49.9166 346.04H49.7341ZM578.115 342.048C569.065 342.048 564.624 345.418 564.624 352.255C564.624 356.075 567.017 358.475 571.637 359.537L588.33 363.35C597.027 365.57 601.464 370.724 601.464 378.884C601.464 385.277 598.982 389.808 593.832 392.913C589.834 395.484 584.774 396.646 578.735 396.646C571.193 396.646 565.239 394.693 561.074 391.05C557.074 387.502 555.215 382.612 555.215 376.229H562.582C562.582 381.108 564.359 384.662 567.729 387.054C570.569 388.927 574.123 389.808 578.557 389.808C588.77 389.808 593.832 386.613 593.832 379.955C593.832 376.935 592.939 374.719 591.257 373.383C589.655 372.05 586.372 370.724 581.489 369.748L569.505 366.904C561.25 364.952 557.074 360.421 557.074 353.143C557.074 348.264 558.762 344.089 561.87 340.891C565.508 336.987 570.569 335.124 577.232 335.124C591.612 335.124 599.154 341.342 600.045 353.767H592.585C592.495 349.772 590.719 346.66 587.614 344.529C585.039 342.939 581.847 342.048 578.115 342.048ZM507.54 343.383H527.072C534.17 343.383 537.727 346.661 537.727 353.143C537.727 359.974 533.729 363.35 525.922 363.35H507.54V343.383ZM499.729 336.726V395.051H507.54V370.019H526.634C533.554 370.019 537.1 373.383 537.1 380.398C537.1 387.502 537.544 392.379 538.347 395.051H548.113V393.715C546.162 392.648 545.265 390.697 545.265 387.948L544.65 377.379C544.553 373.74 543.762 370.897 542.339 369.3C541.54 368.232 539.947 367.168 537.727 366.28C543.048 363.178 545.713 358.475 545.713 352.43C545.713 341.868 539.324 336.726 526.634 336.726H499.729ZM460.942 342.048C467.155 342.048 472.03 344.448 475.765 348.97C479.4 353.318 481.177 358.917 481.177 365.833C481.177 372.855 479.4 378.625 475.765 382.885C472.03 387.502 467.155 389.719 460.942 389.719C454.545 389.719 449.663 387.502 446.11 382.885C442.474 378.625 440.698 372.855 440.698 365.833C440.698 358.917 442.474 353.318 446.11 348.97C449.842 344.448 454.723 342.048 460.942 342.048ZM438.567 345.772C434.57 351.367 432.524 358.022 432.524 365.833C432.524 373.74 434.57 380.398 438.567 385.993C443.62 393.093 450.992 396.646 460.942 396.646C470.88 396.646 478.244 393.093 483.133 385.993C487.305 380.398 489.34 373.74 489.34 365.833C489.34 358.022 487.305 351.367 483.133 345.772C478.244 338.677 470.88 335.124 460.942 335.124C450.992 335.124 443.62 338.677 438.567 345.772ZM393.293 336.726V364.952L421.429 336.726H432.35L408.117 360.42L432.977 395.051H422.934L402.35 365.747L393.293 374.633V395.051H385.302V336.726H393.293ZM325.379 336.726V388.032H355.03V395.051H317.747V336.726H325.379ZM306.739 343.648H272.114V361.578H303.989V368.5H272.114V388.032H307.18V395.051H264.305V336.726H306.739V343.648Z" fill="#C9AD9D"/>
<path d="M301.5 267.189C258.099 267.189 220.077 243.787 199.339 208.954H222.907L223.408 148.535L249.593 208.954H275.265L301.497 148.535V208.954H329.638L330.647 167.668L339.708 160.117L379.485 208.954H403.654C382.917 243.787 344.899 267.189 301.5 267.189ZM196.722 92.3942V204.343C187.772 187.645 182.678 168.595 182.678 148.367C182.678 128.14 187.772 109.08 196.722 92.3942ZM301.5 29.5505C345.038 29.5505 383.157 53.1017 403.848 88.118H374.955L331.149 128.902V88.118H293.897L263.185 163.137L233.984 88.118H199.143C219.84 53.1017 257.963 29.5505 301.5 29.5505ZM420.315 148.367C420.315 167.237 415.874 185.083 408.017 200.949L361.86 141.487L407.562 94.908C415.698 110.993 420.315 129.143 420.315 148.367ZM301.5 1.35422C220.303 1.35422 154.48 67.1805 154.48 148.367C154.48 229.56 220.303 295.387 301.5 295.387C382.687 295.387 448.513 229.56 448.513 148.367C448.513 67.1805 382.687 1.35422 301.5 1.35422Z" fill="#C9AD9D"/>
</g>
</g>
<defs>
<clipPath id="clip0_1056_3577">
<rect width="603" height="398" fill="white"/>
</clipPath>
</defs>
</svg>
