<svg width="556" height="200" viewBox="0 0 556 200" fill="none" xmlns="http://www.w3.org/2000/svg">
<path fill-rule="evenodd" clip-rule="evenodd" d="M71.1825 8.86873C35.0218 51.335 0.350487 103.997 0.00282263 143.36C-0.132583 158.17 4.59565 171.1 15.9368 180.893C32.2587 194.997 50.2421 199.971 68.1377 200C94.2894 200.036 120.258 189.486 140.591 181.35C174.834 167.656 553.36 3.27682 553.36 3.27682C557.012 1.44701 556.328 -0.832923 551.757 0.30522C549.912 0.766332 139.672 111.942 139.672 111.942C131.902 114.14 123.872 115.289 115.797 115.36C84.2693 115.547 56.2146 98.0464 56.4415 61.1684C56.5294 46.7385 60.9465 29.337 71.1825 8.86873Z" fill="#C9AD9D"/>
</svg>
