<svg width="1288" height="200" viewBox="0 0 1288 200" fill="none" xmlns="http://www.w3.org/2000/svg">
<g clip-path="url(#clip0_999_3953)">
<path fill-rule="evenodd" clip-rule="evenodd" d="M23.5391 199.904H5.44924C3.93992 199.904 0.166626 199.904 0.166626 197.64C0.166626 196.138 0.921289 195.375 3.18526 194.621C19.7731 189.338 23.5391 180.295 23.5391 167.487V32.5206C23.5391 20.4522 19.7658 11.4026 3.18526 5.37204C0.921289 5.37204 0.166626 3.86257 0.166626 3.10784C0.166626 0.0962134 3.93992 0.843638 5.44924 0.843638H154.718C188.641 0.843638 216.541 27.9849 216.541 61.9114C216.541 95.8453 188.641 122.979 154.718 122.979H79.3251V168.974C80.0871 181.035 83.8531 189.323 99.6863 194.606C101.95 195.368 102.698 196.123 102.698 197.625C102.698 199.889 98.9316 199.889 97.4223 199.889H23.5391V199.904ZM1136.3 126.768H1171.73L1136.3 66.4472L1132.52 60.4093L1100.87 126.768H1136.3ZM1136.3 0.10357H1160.43L1261.44 178.053C1264.46 182.56 1268.23 187.095 1272.76 189.345C1276.53 192.364 1281.05 193.126 1284.81 194.628C1286.33 195.39 1287.83 196.145 1287.83 197.647C1287.83 199.911 1284.07 199.911 1282.55 199.911H1192.84C1191.34 199.911 1186.8 199.911 1186.8 197.647C1186.8 196.145 1188.32 195.383 1189.84 194.628C1194.36 193.126 1197.36 190.862 1198.86 186.341C1200.38 181.057 1198.86 178.053 1195.1 171.253C1189.98 160.372 1184.7 149.566 1179.27 138.836H1094.83L1094.08 140.338C1093.32 143.357 1087.3 153.909 1082.76 165.223C1076.74 177.284 1074.48 180.295 1075.98 186.333C1076.74 190.854 1080.5 193.119 1085.02 194.621C1086.54 195.383 1087.3 196.138 1087.3 197.64C1087.3 199.904 1083.52 199.904 1082.02 199.904H1040.55C1039.05 199.904 1035.26 199.904 1035.26 197.64C1035.26 196.138 1036.03 195.375 1038.28 194.621C1042.06 193.119 1046.57 192.357 1050.34 189.338C1054.86 187.088 1058.64 182.552 1061.65 178.046L1066.93 166.725L1124.23 46.846L1115.93 32.5206C1108.4 20.4522 1100.85 12.9121 1092.56 8.39101C1088.79 6.12679 1085.02 6.1268 1081.25 4.61732C1078.99 3.86258 1078.24 3.10783 1078.99 1.59835C1078.99 0.0888766 1080.49 0.843605 1081.25 0.0888672H1136.3V0.10357ZM910.878 199.142H913.897C1052.62 199.142 1051.12 0.850961 913.897 0.850961H800.06C797.796 0.850961 794.038 0.0962095 794.038 3.11516C794.038 3.8699 795.54 5.37936 797.042 5.37936C813.63 10.6552 817.403 19.7047 818.15 31.0185V168.996C817.403 181.057 813.63 189.345 797.042 194.628C795.54 195.39 794.038 196.145 794.038 197.647C794.038 199.911 797.804 199.911 800.06 199.911H873.189V199.149L910.878 199.142ZM910.878 15.1763C932.001 15.1763 949.343 32.5207 949.343 53.624V145.614C949.343 166.725 932.001 184.069 910.878 184.069H873.182V15.1763H910.878ZM623.646 126.768H659.078L623.646 66.4472L619.88 60.4093L588.221 126.768H623.646ZM623.646 0.10357H648.528L749.55 178.053C751.814 182.56 755.587 187.095 760.107 189.345C763.873 192.364 768.409 193.126 772.929 194.628C774.431 195.39 775.933 196.145 775.933 197.647C775.933 199.911 771.413 199.911 769.911 199.911H680.209C678.692 199.911 674.926 199.911 674.926 197.647C674.926 196.145 675.674 195.383 677.93 194.628C681.711 193.126 685.47 190.862 686.232 186.341C687.734 181.057 686.232 178.053 683.213 171.253C677.93 159.947 671.908 149.388 666.64 138.836H582.177L581.429 140.338C580.675 143.357 575.392 153.909 570.117 165.223C564.841 177.284 561.83 180.295 563.34 186.333C564.849 190.854 567.86 193.119 572.388 194.621C573.89 195.383 575.399 196.138 575.399 197.64C575.399 199.904 571.633 199.904 569.377 199.904H528.655C527.145 199.904 522.617 199.904 522.617 197.64C522.617 196.138 524.127 195.375 525.636 194.621C530.164 193.119 533.93 192.357 538.458 189.338C542.224 187.088 546.752 182.552 549.008 178.046L554.284 166.725L612.341 46.846L604.047 32.5206C596.508 20.4522 588.214 12.9121 580.675 8.39101C576.147 6.12679 573.135 6.1268 568.607 4.61732C567.098 3.86258 565.589 3.10783 566.351 1.59835C567.098 0.0888766 568.607 0.843605 569.369 0.0888672H623.646V0.10357ZM374.858 132.051C392.201 138.074 413.309 139.576 429.89 134.315L495.486 190.862L500.762 195.383C501.523 196.145 501.523 196.885 501.523 197.647C501.523 199.911 497.75 199.911 496.241 199.911H426.886L374.865 156.935L332.641 123.001V169.758C333.403 181.065 337.924 189.352 353.75 194.635C355.259 195.397 356.014 196.152 356.014 197.654C356.014 199.919 352.24 199.919 350.731 199.919H259.505C257.249 199.919 253.475 199.919 253.475 197.654C253.475 196.152 254.985 195.39 256.487 194.635C274.584 188.612 276.848 179.563 277.595 165.237V34.7775C276.84 21.2069 274.576 11.4026 256.487 5.37204C254.977 5.37204 253.475 3.86257 253.475 3.10784C253.475 0.0962134 257.249 0.843638 259.505 0.843638H406.517C414.546 0.809711 422.501 2.36607 429.925 5.42291C437.35 8.47975 444.095 12.9766 449.772 18.6539C455.45 24.3312 459.947 31.0767 463.004 38.5012C466.062 45.9256 467.619 53.8821 467.586 61.9114C467.62 69.9411 466.063 77.898 463.006 85.3229C459.949 92.7477 455.452 99.4936 449.774 105.171C444.097 110.849 437.351 115.346 429.927 118.402C422.502 121.458 414.546 123.014 406.517 122.979H359.025C361.289 127.5 366.564 129.017 371.085 131.281C372.594 131.289 373.349 132.051 374.858 132.051ZM374.858 108.676H380.888C400.487 108.676 417.075 87.5579 417.075 60.4093C417.075 34.0228 400.487 12.9121 380.888 12.9121H332.634V108.676H374.858ZM122.297 12.9195H79.3251V108.683H129.089C149.442 108.683 165.276 87.5652 165.276 60.4166C165.276 34.0301 149.442 12.9195 129.089 12.9195H122.297Z" fill="#C9AD9D"/>
</g>
<defs>
<clipPath id="clip0_999_3953">
<rect width="1288" height="200" fill="white"/>
</clipPath>
</defs>
</svg>
