<svg width="517" height="399" viewBox="0 0 517 399" fill="none" xmlns="http://www.w3.org/2000/svg">
<g clip-path="url(#clip0_1004_3042)">
<path d="M48.7937 3.22658C45.5647 3.94356 42.3357 15.4153 35.5189 22.2266C30.8548 26.5285 25.1143 26.5285 21.8853 31.9058C20.4502 33.6983 21.1678 37.6417 19.7326 40.8681C17.2212 48.0379 7.89295 48.7549 7.89295 55.9247C7.89295 63.8115 15.7861 65.6039 22.2441 71.6983C27.6258 76.3587 28.3433 79.5851 34.0838 81.3775C39.4655 83.17 47.3586 77.4341 54.5342 79.5851C60.6334 81.3775 66.3739 82.8115 67.809 88.5473C69.2441 94.2832 67.809 102.887 60.6334 101.453C58.122 101.453 47.3586 97.5096 34.8013 98.9436C19.0151 100.736 1.07616 105.396 -0.000180695 122.962C-0.717738 132.642 11.122 143.755 22.2441 141.962C30.1372 140.528 26.1907 130.849 30.8548 126.189C36.954 120.453 68.8853 146.264 99.3815 146.264C111.939 146.264 121.626 143.038 130.954 133.359C131.672 132.642 133.107 130.849 134.183 130.849C135.618 130.849 137.412 132.283 138.13 132.642C162.527 152 180.824 190.717 269.801 191.076C282.359 191.076 296.71 196.811 308.549 207.208C318.954 216.887 325.053 231.944 330.794 247C340.122 269.944 355.908 291.811 380.305 315.83C381.74 317.264 401.473 332.679 403.267 333.396C403.267 333.396 405.42 337.34 404.702 339.132C403.985 354.189 402.191 396.491 434.481 398.283C442.374 399 440.58 392.906 440.58 389.321C440.58 382.151 439.145 374.264 443.091 367.094C448.473 356.698 431.969 352.038 431.969 329.453C432.687 312.604 417.977 315.113 410.801 302.925C406.855 295.755 402.908 291.094 402.908 282.132C404.343 230.868 391.786 196.811 385.687 188.925C381.023 182.472 376.359 180.321 381.023 177.095C407.931 159.528 414.03 143.396 414.03 143.396C428.382 110.057 440.939 79.5851 458.878 66.6794C462.107 64.17 471.435 57.0002 477.175 54.4907C493.679 46.6039 502.29 42.3021 506.954 37.6417C514.13 30.4719 520.946 14.6983 513.412 5.73601C504.084 -6.09418 489.015 3.22658 481.84 7.52847C432.328 36.9247 425.152 87.4719 407.931 116.868C393.939 140.17 372.412 157.736 352.679 159.17C337.611 160.604 321.824 157.378 306.038 150.208C267.29 133.359 246.122 111.849 240.74 107.906C230.694 100.019 150.328 21.5096 84.3128 17.9247C84.3128 17.9247 76.4197 1.79262 74.267 1.79262C69.6029 1.07564 64.2212 11.4719 60.9922 12.9058C57.4044 14.6983 52.0227 2.5096 48.7937 3.22658Z" fill="#C9AD9D"/>
</g>
<defs>
<clipPath id="clip0_1004_3042">
<rect width="517" height="399" fill="white"/>
</clipPath>
</defs>
</svg>
