<svg width="241" height="154" viewBox="0 0 241 154" fill="none" xmlns="http://www.w3.org/2000/svg">
<g clip-path="url(#clip0_608_75644)">
<path d="M236 2H5C2.23858 2 0 4.23858 0 7V148C0 150.761 2.23858 153 5 153H236C238.761 153 241 150.761 241 148V7C241 4.23858 238.761 2 236 2Z" fill="#F2E9E4"/>
<path d="M9.89404 111.479V167.244" stroke="#FBFAF8" stroke-width="0.5" stroke-miterlimit="10"/>
<path d="M9.89404 -14.173V41.591" stroke="#FBFAF8" stroke-width="0.5" stroke-miterlimit="10"/>
<path d="M13.003 55.764V58.039H11.967V55.764H13.003ZM11.071 55.862V58.424H10V54.49H14.9V58.333H13.829V55.862H11.071ZM10 61.4335H10.707L10.882 61.3425H12.184C12.394 61.3425 12.555 61.2771 12.667 61.1465C12.7837 61.0205 12.842 60.8175 12.842 60.5375C12.842 60.3555 12.8117 60.1711 12.751 59.9845C12.695 59.7978 12.6157 59.6391 12.513 59.5085L13.416 59.0605C13.556 59.2751 13.6633 59.5318 13.738 59.8305C13.8173 60.1338 13.857 60.4348 13.857 60.7335C13.857 61.3495 13.7147 61.8255 13.43 62.1615C13.15 62.5021 12.709 62.6725 12.107 62.6725H10V61.4335ZM9.937 60.3135C9.937 60.0101 9.98833 59.7535 10.091 59.5435C10.1937 59.3335 10.3337 59.1725 10.511 59.0605C10.6883 58.9531 10.8867 58.8995 11.106 58.8995C11.3393 58.8995 11.54 58.9578 11.708 59.0745C11.8807 59.1958 12.0113 59.3801 12.1 59.6275C12.1933 59.8748 12.24 60.1945 12.24 60.5865V61.4825H11.547V60.7685C11.547 60.5538 11.512 60.4021 11.442 60.3135C11.372 60.2295 11.2787 60.1875 11.162 60.1875C11.0453 60.1875 10.952 60.2318 10.882 60.3205C10.812 60.4091 10.777 60.5305 10.777 60.6845C10.777 60.8291 10.812 60.9598 10.882 61.0765C10.9567 61.1978 11.0687 61.2865 11.218 61.3425L10.728 61.5245C10.4667 61.4545 10.2683 61.3168 10.133 61.1115C10.0023 60.9108 9.937 60.6448 9.937 60.3135ZM10 63.512H13.794V64.779H12.688L13.003 64.59C13.2877 64.702 13.5 64.884 13.64 65.136C13.7847 65.388 13.857 65.6936 13.857 66.053H12.66C12.6693 65.9923 12.674 65.9386 12.674 65.892C12.6787 65.85 12.681 65.8033 12.681 65.752C12.681 65.4813 12.6063 65.262 12.457 65.094C12.3123 64.926 12.0743 64.842 11.743 64.842H10V63.512ZM10 66.6018H15.194V67.9318H10V66.6018ZM8.579 69.4471C8.579 69.2465 8.61167 69.0435 8.677 68.8381C8.73767 68.6375 8.81933 68.4741 8.922 68.3481L9.853 68.8101C9.783 68.8895 9.72933 68.9805 9.692 69.0831C9.65 69.1905 9.629 69.2955 9.629 69.3981C9.629 69.5428 9.66167 69.6571 9.727 69.7411C9.79233 69.8251 9.895 69.8975 10.035 69.9581L10.476 70.1331L10.609 70.2381L13.794 71.5261V72.7931L9.846 71.1551C9.51933 71.0245 9.265 70.8728 9.083 70.7001C8.89633 70.5321 8.76567 70.3431 8.691 70.1331C8.61633 69.9278 8.579 69.6991 8.579 69.4471ZM9.839 69.9651L13.794 68.2921V69.6571L10.728 70.8891L9.839 69.9651ZM10 74.6491L14.9 76.8121V78.1771L10 80.3471V78.9051L14.221 77.2111V77.7571L10 76.0631V74.6491ZM10.952 75.8321L11.974 76.1891V78.5831L10.952 78.9401V75.8321ZM9.937 82.5818C9.937 82.1618 10.021 81.7862 10.189 81.4548C10.357 81.1282 10.588 80.8715 10.882 80.6848C11.1807 80.4982 11.5213 80.4048 11.904 80.4048C12.2867 80.4048 12.625 80.4982 12.919 80.6848C13.213 80.8715 13.4417 81.1282 13.605 81.4548C13.773 81.7862 13.857 82.1618 13.857 82.5818C13.857 83.0112 13.766 83.3822 13.584 83.6948C13.402 84.0075 13.1453 84.2292 12.814 84.3598L12.289 83.3308C12.4663 83.2422 12.5947 83.1325 12.674 83.0018C12.758 82.8712 12.8 82.7288 12.8 82.5748C12.8 82.4208 12.765 82.2808 12.695 82.1548C12.625 82.0288 12.5223 81.9285 12.387 81.8538C12.2563 81.7838 12.0953 81.7488 11.904 81.7488C11.708 81.7488 11.5423 81.7838 11.407 81.8538C11.2717 81.9285 11.169 82.0288 11.099 82.1548C11.029 82.2808 10.994 82.4208 10.994 82.5748C10.994 82.7288 11.0337 82.8712 11.113 83.0018C11.197 83.1325 11.3277 83.2422 11.505 83.3308L10.98 84.3598C10.6487 84.2292 10.392 84.0075 10.21 83.6948C10.028 83.3822 9.937 83.0112 9.937 82.5818ZM9.937 86.7586C9.937 86.3386 10.021 85.9629 10.189 85.6316C10.357 85.3049 10.588 85.0482 10.882 84.8616C11.1807 84.6749 11.5213 84.5816 11.904 84.5816C12.2867 84.5816 12.625 84.6749 12.919 84.8616C13.213 85.0482 13.4417 85.3049 13.605 85.6316C13.773 85.9629 13.857 86.3386 13.857 86.7586C13.857 87.1879 13.766 87.5589 13.584 87.8716C13.402 88.1842 13.1453 88.4059 12.814 88.5366L12.289 87.5076C12.4663 87.4189 12.5947 87.3092 12.674 87.1786C12.758 87.0479 12.8 86.9056 12.8 86.7516C12.8 86.5976 12.765 86.4576 12.695 86.3316C12.625 86.2056 12.5223 86.1052 12.387 86.0306C12.2563 85.9606 12.0953 85.9256 11.904 85.9256C11.708 85.9256 11.5423 85.9606 11.407 86.0306C11.2717 86.1052 11.169 86.2056 11.099 86.3316C11.029 86.4576 10.994 86.5976 10.994 86.7516C10.994 86.9056 11.0337 87.0479 11.113 87.1786C11.197 87.3092 11.3277 87.4189 11.505 87.5076L10.98 88.5366C10.6487 88.4059 10.392 88.1842 10.21 87.8716C10.028 87.5589 9.937 87.1879 9.937 86.7586ZM9.937 90.9843C9.937 90.5363 10.021 90.1443 10.189 89.8083C10.3617 89.477 10.595 89.218 10.889 89.0313C11.1877 88.8493 11.526 88.7583 11.904 88.7583C12.282 88.7583 12.618 88.847 12.912 89.0243C13.2107 89.2063 13.4417 89.456 13.605 89.7733C13.773 90.0907 13.857 90.4477 13.857 90.8443C13.857 91.2177 13.78 91.5583 13.626 91.8663C13.4767 92.1743 13.255 92.4193 12.961 92.6013C12.667 92.7833 12.31 92.8743 11.89 92.8743C11.8433 92.8743 11.7897 92.872 11.729 92.8673C11.6683 92.8627 11.6123 92.858 11.561 92.8533V89.8503H12.261V92.1463L12.065 91.6423C12.2377 91.647 12.387 91.6143 12.513 91.5443C12.639 91.479 12.737 91.3857 12.807 91.2643C12.877 91.1477 12.912 91.01 12.912 90.8513C12.912 90.6927 12.877 90.5527 12.807 90.4313C12.737 90.3147 12.6367 90.2237 12.506 90.1583C12.38 90.093 12.2307 90.0603 12.058 90.0603H11.855C11.6683 90.0603 11.5073 90.0977 11.372 90.1723C11.2367 90.2517 11.1317 90.3637 11.057 90.5083C10.987 90.653 10.952 90.8257 10.952 91.0263C10.952 91.213 10.9777 91.3717 11.029 91.5023C11.085 91.6377 11.169 91.7707 11.281 91.9013L10.553 92.6013C10.3523 92.4193 10.1983 92.1953 10.091 91.9293C9.98833 91.6633 9.937 91.3483 9.937 90.9843ZM9.937 94.8665C9.937 94.5445 9.97433 94.2295 10.049 93.9215C10.1237 93.6182 10.217 93.3732 10.329 93.1865L11.239 93.5855C11.1317 93.7629 11.0453 93.9705 10.98 94.2085C10.9193 94.4465 10.889 94.6799 10.889 94.9085C10.889 95.1325 10.9123 95.2865 10.959 95.3705C11.0057 95.4592 11.0687 95.5035 11.148 95.5035C11.2227 95.5035 11.2763 95.4615 11.309 95.3775C11.3463 95.2982 11.3743 95.1909 11.393 95.0555C11.4117 94.9249 11.4327 94.7802 11.456 94.6215C11.4793 94.4629 11.5097 94.3019 11.547 94.1385C11.589 93.9799 11.6497 93.8329 11.729 93.6975C11.813 93.5669 11.925 93.4619 12.065 93.3825C12.205 93.3032 12.3823 93.2635 12.597 93.2635C12.8397 93.2635 13.0543 93.3335 13.241 93.4735C13.4323 93.6182 13.5817 93.8282 13.689 94.1035C13.801 94.3789 13.857 94.7149 13.857 95.1115C13.857 95.3775 13.829 95.6459 13.773 95.9165C13.7217 96.1919 13.6423 96.4229 13.535 96.6095L12.632 96.2105C12.7393 96.0239 12.8117 95.8372 12.849 95.6505C12.891 95.4639 12.912 95.2865 12.912 95.1185C12.912 94.8945 12.8863 94.7359 12.835 94.6425C12.7837 94.5539 12.7207 94.5095 12.646 94.5095C12.5713 94.5095 12.513 94.5492 12.471 94.6285C12.4337 94.7079 12.4033 94.8129 12.38 94.9435C12.3613 95.0789 12.3403 95.2259 12.317 95.3845C12.2983 95.5432 12.268 95.7019 12.226 95.8605C12.184 96.0239 12.121 96.1709 12.037 96.3015C11.9577 96.4369 11.848 96.5442 11.708 96.6235C11.5727 96.7029 11.3977 96.7425 11.183 96.7425C10.9497 96.7425 10.7397 96.6702 10.553 96.5255C10.3663 96.3855 10.217 96.1755 10.105 95.8955C9.993 95.6202 9.937 95.2772 9.937 94.8665ZM9.937 98.6947C9.937 98.3727 9.97433 98.0577 10.049 97.7497C10.1237 97.4463 10.217 97.2013 10.329 97.0147L11.239 97.4137C11.1317 97.591 11.0453 97.7987 10.98 98.0367C10.9193 98.2747 10.889 98.508 10.889 98.7367C10.889 98.9607 10.9123 99.1147 10.959 99.1987C11.0057 99.2873 11.0687 99.3317 11.148 99.3317C11.2227 99.3317 11.2763 99.2897 11.309 99.2057C11.3463 99.1263 11.3743 99.019 11.393 98.8837C11.4117 98.753 11.4327 98.6083 11.456 98.4497C11.4793 98.291 11.5097 98.13 11.547 97.9667C11.589 97.808 11.6497 97.661 11.729 97.5257C11.813 97.395 11.925 97.29 12.065 97.2107C12.205 97.1313 12.3823 97.0917 12.597 97.0917C12.8397 97.0917 13.0543 97.1617 13.241 97.3017C13.4323 97.4463 13.5817 97.6563 13.689 97.9317C13.801 98.207 13.857 98.543 13.857 98.9397C13.857 99.2057 13.829 99.474 13.773 99.7447C13.7217 100.02 13.6423 100.251 13.535 100.438L12.632 100.039C12.7393 99.852 12.8117 99.6653 12.849 99.4787C12.891 99.292 12.912 99.1147 12.912 98.9467C12.912 98.7227 12.8863 98.564 12.835 98.4707C12.7837 98.382 12.7207 98.3377 12.646 98.3377C12.5713 98.3377 12.513 98.3773 12.471 98.4567C12.4337 98.536 12.4033 98.641 12.38 98.7717C12.3613 98.907 12.3403 99.054 12.317 99.2127C12.2983 99.3713 12.268 99.53 12.226 99.6887C12.184 99.852 12.121 99.999 12.037 100.13C11.9577 100.265 11.848 100.372 11.708 100.452C11.5727 100.531 11.3977 100.571 11.183 100.571C10.9497 100.571 10.7397 100.498 10.553 100.354C10.3663 100.214 10.217 100.004 10.105 99.7237C9.993 99.4483 9.937 99.1053 9.937 98.6947Z" fill="#C9AD9D"/>
<path d="M229.997 99.236V96.961H231.033V99.236H229.997ZM231.929 99.138V96.576H233V100.51H228.1V96.667H229.171V99.138H231.929ZM233 93.5665H232.293L232.118 93.6575H230.816C230.606 93.6575 230.445 93.7229 230.333 93.8535C230.216 93.9795 230.158 94.1825 230.158 94.4625C230.158 94.6445 230.188 94.8289 230.249 95.0155C230.305 95.2022 230.384 95.3609 230.487 95.4915L229.584 95.9395C229.444 95.7249 229.337 95.4682 229.262 95.1695C229.183 94.8662 229.143 94.5652 229.143 94.2665C229.143 93.6505 229.285 93.1745 229.57 92.8385C229.85 92.4979 230.291 92.3275 230.893 92.3275H233V93.5665ZM233.063 94.6865C233.063 94.9899 233.012 95.2465 232.909 95.4565C232.806 95.6665 232.666 95.8275 232.489 95.9395C232.312 96.0469 232.113 96.1005 231.894 96.1005C231.661 96.1005 231.46 96.0422 231.292 95.9255C231.119 95.8042 230.989 95.6199 230.9 95.3725C230.807 95.1252 230.76 94.8055 230.76 94.4135V93.5175H231.453V94.2315C231.453 94.4462 231.488 94.5979 231.558 94.6865C231.628 94.7705 231.721 94.8125 231.838 94.8125C231.955 94.8125 232.048 94.7682 232.118 94.6795C232.188 94.5909 232.223 94.4695 232.223 94.3155C232.223 94.1709 232.188 94.0402 232.118 93.9235C232.043 93.8022 231.931 93.7135 231.782 93.6575L232.272 93.4755C232.533 93.5455 232.732 93.6832 232.867 93.8885C232.998 94.0892 233.063 94.3552 233.063 94.6865ZM233 91.488H229.206V90.221H230.312L229.997 90.41C229.712 90.298 229.5 90.116 229.36 89.864C229.215 89.612 229.143 89.3064 229.143 88.947H230.34C230.331 89.0077 230.326 89.0614 230.326 89.108C230.321 89.15 230.319 89.1967 230.319 89.248C230.319 89.5187 230.394 89.738 230.543 89.906C230.688 90.074 230.926 90.158 231.257 90.158H233V91.488ZM233 88.3982H227.806V87.0682H233V88.3982ZM234.421 85.5529C234.421 85.7535 234.388 85.9565 234.323 86.1619C234.262 86.3625 234.181 86.5259 234.078 86.6519L233.147 86.1899C233.217 86.1105 233.271 86.0195 233.308 85.9169C233.35 85.8095 233.371 85.7045 233.371 85.6019C233.371 85.4572 233.338 85.3429 233.273 85.2589C233.208 85.1749 233.105 85.1025 232.965 85.0419L232.524 84.8669L232.391 84.7619L229.206 83.4739V82.2069L233.154 83.8449C233.481 83.9755 233.735 84.1272 233.917 84.2999C234.104 84.4679 234.234 84.6569 234.309 84.8669C234.384 85.0722 234.421 85.3009 234.421 85.5529ZM233.161 85.0349L229.206 86.7079V85.3429L232.272 84.1109L233.161 85.0349ZM233 80.3509L228.1 78.1879V76.8229L233 74.6529V76.0949L228.779 77.7889V77.2429L233 78.9369V80.3509ZM232.048 79.1679L231.026 78.8109V76.4169L232.048 76.0599V79.1679ZM233.063 72.4182C233.063 72.8382 232.979 73.2138 232.811 73.5452C232.643 73.8718 232.412 74.1285 232.118 74.3152C231.819 74.5018 231.479 74.5952 231.096 74.5952C230.713 74.5952 230.375 74.5018 230.081 74.3152C229.787 74.1285 229.558 73.8718 229.395 73.5452C229.227 73.2138 229.143 72.8382 229.143 72.4182C229.143 71.9888 229.234 71.6178 229.416 71.3052C229.598 70.9925 229.855 70.7708 230.186 70.6402L230.711 71.6692C230.534 71.7578 230.405 71.8675 230.326 71.9982C230.242 72.1288 230.2 72.2712 230.2 72.4252C230.2 72.5792 230.235 72.7192 230.305 72.8452C230.375 72.9712 230.478 73.0715 230.613 73.1462C230.744 73.2162 230.905 73.2512 231.096 73.2512C231.292 73.2512 231.458 73.2162 231.593 73.1462C231.728 73.0715 231.831 72.9712 231.901 72.8452C231.971 72.7192 232.006 72.5792 232.006 72.4252C232.006 72.2712 231.966 72.1288 231.887 71.9982C231.803 71.8675 231.672 71.7578 231.495 71.6692L232.02 70.6402C232.351 70.7708 232.608 70.9925 232.79 71.3052C232.972 71.6178 233.063 71.9888 233.063 72.4182ZM233.063 68.2414C233.063 68.6614 232.979 69.0371 232.811 69.3684C232.643 69.6951 232.412 69.9518 232.118 70.1384C231.819 70.3251 231.479 70.4184 231.096 70.4184C230.713 70.4184 230.375 70.3251 230.081 70.1384C229.787 69.9518 229.558 69.6951 229.395 69.3684C229.227 69.0371 229.143 68.6614 229.143 68.2414C229.143 67.8121 229.234 67.4411 229.416 67.1284C229.598 66.8158 229.855 66.5941 230.186 66.4634L230.711 67.4924C230.534 67.5811 230.405 67.6908 230.326 67.8214C230.242 67.9521 230.2 68.0944 230.2 68.2484C230.2 68.4024 230.235 68.5424 230.305 68.6684C230.375 68.7944 230.478 68.8948 230.613 68.9694C230.744 69.0394 230.905 69.0744 231.096 69.0744C231.292 69.0744 231.458 69.0394 231.593 68.9694C231.728 68.8948 231.831 68.7944 231.901 68.6684C231.971 68.5424 232.006 68.4024 232.006 68.2484C232.006 68.0944 231.966 67.9521 231.887 67.8214C231.803 67.6908 231.672 67.5811 231.495 67.4924L232.02 66.4634C232.351 66.5941 232.608 66.8158 232.79 67.1284C232.972 67.4411 233.063 67.8121 233.063 68.2414ZM233.063 64.0157C233.063 64.4637 232.979 64.8557 232.811 65.1917C232.638 65.523 232.405 65.782 232.111 65.9687C231.812 66.1507 231.474 66.2417 231.096 66.2417C230.718 66.2417 230.382 66.153 230.088 65.9757C229.789 65.7937 229.558 65.544 229.395 65.2267C229.227 64.9093 229.143 64.5523 229.143 64.1557C229.143 63.7823 229.22 63.4417 229.374 63.1337C229.523 62.8257 229.745 62.5807 230.039 62.3987C230.333 62.2167 230.69 62.1257 231.11 62.1257C231.157 62.1257 231.21 62.128 231.271 62.1327C231.332 62.1373 231.388 62.142 231.439 62.1467V65.1497H230.739V62.8537L230.935 63.3577C230.762 63.353 230.613 63.3857 230.487 63.4557C230.361 63.521 230.263 63.6143 230.193 63.7357C230.123 63.8523 230.088 63.99 230.088 64.1487C230.088 64.3073 230.123 64.4473 230.193 64.5687C230.263 64.6853 230.363 64.7763 230.494 64.8417C230.62 64.907 230.769 64.9397 230.942 64.9397H231.145C231.332 64.9397 231.493 64.9023 231.628 64.8277C231.763 64.7483 231.868 64.6363 231.943 64.4917C232.013 64.347 232.048 64.1743 232.048 63.9737C232.048 63.787 232.022 63.6283 231.971 63.4977C231.915 63.3623 231.831 63.2293 231.719 63.0987L232.447 62.3987C232.648 62.5807 232.802 62.8047 232.909 63.0707C233.012 63.3367 233.063 63.6517 233.063 64.0157ZM233.063 60.1335C233.063 60.4555 233.026 60.7705 232.951 61.0785C232.876 61.3818 232.783 61.6268 232.671 61.8135L231.761 61.4145C231.868 61.2371 231.955 61.0295 232.02 60.7915C232.081 60.5535 232.111 60.3201 232.111 60.0915C232.111 59.8675 232.088 59.7135 232.041 59.6295C231.994 59.5408 231.931 59.4965 231.852 59.4965C231.777 59.4965 231.724 59.5385 231.691 59.6225C231.654 59.7018 231.626 59.8091 231.607 59.9445C231.588 60.0751 231.567 60.2198 231.544 60.3785C231.521 60.5371 231.49 60.6981 231.453 60.8615C231.411 61.0201 231.35 61.1671 231.271 61.3025C231.187 61.4331 231.075 61.5381 230.935 61.6175C230.795 61.6968 230.618 61.7365 230.403 61.7365C230.16 61.7365 229.946 61.6665 229.759 61.5265C229.568 61.3818 229.418 61.1718 229.311 60.8965C229.199 60.6211 229.143 60.2851 229.143 59.8885C229.143 59.6225 229.171 59.3541 229.227 59.0835C229.278 58.8081 229.358 58.5771 229.465 58.3905L230.368 58.7895C230.261 58.9761 230.188 59.1628 230.151 59.3495C230.109 59.5361 230.088 59.7135 230.088 59.8815C230.088 60.1055 230.114 60.2641 230.165 60.3575C230.216 60.4461 230.279 60.4905 230.354 60.4905C230.429 60.4905 230.487 60.4508 230.529 60.3715C230.566 60.2921 230.597 60.1871 230.62 60.0565C230.639 59.9211 230.66 59.7741 230.683 59.6155C230.702 59.4568 230.732 59.2981 230.774 59.1395C230.816 58.9761 230.879 58.8291 230.963 58.6985C231.042 58.5631 231.152 58.4558 231.292 58.3765C231.427 58.2971 231.602 58.2575 231.817 58.2575C232.05 58.2575 232.26 58.3298 232.447 58.4745C232.634 58.6145 232.783 58.8245 232.895 59.1045C233.007 59.3798 233.063 59.7228 233.063 60.1335ZM233.063 56.3053C233.063 56.6273 233.026 56.9423 232.951 57.2503C232.876 57.5537 232.783 57.7987 232.671 57.9853L231.761 57.5863C231.868 57.409 231.955 57.2013 232.02 56.9633C232.081 56.7253 232.111 56.492 232.111 56.2633C232.111 56.0393 232.088 55.8853 232.041 55.8013C231.994 55.7127 231.931 55.6683 231.852 55.6683C231.777 55.6683 231.724 55.7103 231.691 55.7943C231.654 55.8737 231.626 55.981 231.607 56.1163C231.588 56.247 231.567 56.3917 231.544 56.5503C231.521 56.709 231.49 56.87 231.453 57.0333C231.411 57.192 231.35 57.339 231.271 57.4743C231.187 57.605 231.075 57.71 230.935 57.7893C230.795 57.8687 230.618 57.9083 230.403 57.9083C230.16 57.9083 229.946 57.8383 229.759 57.6983C229.568 57.5537 229.418 57.3437 229.311 57.0683C229.199 56.793 229.143 56.457 229.143 56.0603C229.143 55.7943 229.171 55.526 229.227 55.2553C229.278 54.98 229.358 54.749 229.465 54.5623L230.368 54.9613C230.261 55.148 230.188 55.3347 230.151 55.5213C230.109 55.708 230.088 55.8853 230.088 56.0533C230.088 56.2773 230.114 56.436 230.165 56.5293C230.216 56.618 230.279 56.6623 230.354 56.6623C230.429 56.6623 230.487 56.6227 230.529 56.5433C230.566 56.464 230.597 56.359 230.62 56.2283C230.639 56.093 230.66 55.946 230.683 55.7873C230.702 55.6287 230.732 55.47 230.774 55.3113C230.816 55.148 230.879 55.001 230.963 54.8703C231.042 54.735 231.152 54.6277 231.292 54.5483C231.427 54.469 231.602 54.4293 231.817 54.4293C232.05 54.4293 232.26 54.5017 232.447 54.6463C232.634 54.7863 232.783 54.9963 232.895 55.2763C233.007 55.5517 233.063 55.8947 233.063 56.3053Z" fill="#C9AD9D"/>
<path d="M230.926 167.244V111.479" stroke="#FBFAF8" stroke-width="0.5" stroke-miterlimit="10"/>
<path d="M230.926 41.591V-14.173" stroke="#FBFAF8" stroke-width="0.5" stroke-miterlimit="10"/>
<path d="M133.25 51.1767C132.988 51.2446 132.639 51.3124 132.484 51.3124C132.339 51.3124 131.767 51.3803 131.224 51.4578C129.11 51.7583 127.889 51.8359 124.728 51.894C122.246 51.9328 121.432 51.9716 121.403 52.0588C121.364 52.1557 121.936 52.1848 123.914 52.2042C126.774 52.2333 126.648 52.2042 126.434 52.9506C126.347 53.2705 125.901 55.1704 125.581 56.5953C125.465 57.1284 125.261 57.9911 124.776 60.0849C124.67 60.5114 124.515 61.2093 124.427 61.6358C124.34 62.0623 124.224 62.5857 124.166 62.799C123.846 64.1561 123.768 64.4856 123.691 64.7861C123.652 64.9703 123.565 65.3677 123.506 65.6585C123.448 65.9493 123.342 66.4049 123.264 66.6763C123.148 67.1222 123.06 67.5099 122.837 68.615C122.799 68.8282 122.711 69.1966 122.644 69.4389C122.479 70.0302 122.285 70.8348 122.149 71.4745C122.081 71.7653 121.907 72.5699 121.742 73.2678C121.587 73.956 121.432 74.7024 121.383 74.9156C121.344 75.1289 121.267 75.4585 121.209 75.6426C121.092 76.011 120.608 78.1241 120.355 79.3746C120.268 79.8011 120.132 80.3439 120.055 80.5862C119.977 80.8286 119.919 81.1097 119.919 81.2066C119.919 81.3132 119.861 81.6137 119.783 81.8851C119.522 82.8157 119.367 83.5039 119.114 84.8028C119.037 85.1712 118.93 85.6365 118.872 85.8206C118.765 86.1599 118.62 86.7803 118.475 87.517C118.349 88.1373 118.174 88.8352 118.019 89.3199C117.941 89.5719 117.883 89.853 117.883 89.95C117.883 90.0469 117.815 90.4056 117.738 90.7545C117.65 91.1035 117.524 91.6754 117.437 92.0243C117.301 92.6059 117.234 92.9064 116.923 94.1569C116.865 94.3992 116.749 94.9226 116.662 95.3201C116.526 95.9695 116.439 96.3476 116.138 97.6949C116.031 98.1699 115.876 98.7903 115.692 99.4494C115.614 99.7208 115.556 100.05 115.556 100.196C115.556 100.332 115.508 100.564 115.45 100.719C115.353 100.962 115.236 101.446 114.984 102.735C114.945 102.949 114.849 103.288 114.781 103.482C114.577 104.044 114.761 104.151 115.265 103.792C115.488 103.637 115.74 103.462 115.828 103.414C115.915 103.356 116.235 103.133 116.545 102.9C116.846 102.677 117.117 102.493 117.146 102.493C117.166 102.493 117.466 102.309 117.806 102.086C118.523 101.601 118.368 101.698 120.065 100.671C120.801 100.225 121.752 99.6627 122.168 99.43C122.925 99.0132 122.944 99.0132 123.177 99.178C123.303 99.2653 123.409 99.4107 123.409 99.4979C123.409 99.5851 123.477 99.7111 123.555 99.779C123.632 99.8469 123.7 99.9438 123.7 99.9923C123.7 100.302 125.542 102.338 125.959 102.483C126.017 102.503 126.24 102.648 126.454 102.803C126.657 102.949 126.89 103.075 126.948 103.075C127.016 103.075 127.123 103.143 127.191 103.22C127.258 103.298 127.414 103.366 127.53 103.366C127.656 103.366 127.879 103.424 128.034 103.501C128.79 103.879 129.702 103.996 131.893 103.986C134.084 103.976 134.191 103.967 136.207 103.453C138.864 102.794 142.461 100.554 144.729 98.1602C146.659 96.1149 147.686 94.6609 148.937 92.1697C149.393 91.2586 149.79 90.3959 149.887 90.0954C149.926 89.9597 150.052 89.601 150.168 89.3102C150.479 88.496 150.624 87.9532 151.012 86.1599C151.351 84.5217 151.361 84.4926 151.361 82.0887C151.371 79.5684 151.342 79.3261 150.847 77.2905C150.605 76.3212 150.508 76.0498 149.994 74.9641C149.344 73.578 148.588 72.4923 147.667 71.5908C145.932 69.8945 144.429 69.1481 141.831 68.6635C139.843 68.2951 137.419 68.5084 135.771 69.2063C135.616 69.2644 135.286 69.4001 135.044 69.4971C134.801 69.594 134.54 69.7297 134.452 69.7976C134.375 69.8654 134.268 69.9236 134.229 69.9236C134.191 69.9236 133.9 70.1175 133.59 70.3598C133.279 70.6021 132.998 70.796 132.959 70.796C132.717 70.796 130.623 73.0254 130.148 73.7912C130.099 73.8785 129.993 73.9851 129.934 74.0239C129.867 74.0626 129.808 74.1886 129.808 74.2856C129.808 74.3825 129.75 74.5085 129.692 74.5473C129.566 74.6248 129.401 74.8575 129.227 75.2064C129.168 75.3131 129.042 75.5263 128.936 75.6911C128.829 75.8462 128.703 76.0788 128.645 76.2049C128.412 76.738 128.257 76.0982 128.461 75.4488C128.587 75.0417 128.819 74.0917 128.926 73.5586C128.965 73.3453 129.052 72.977 129.12 72.7346C129.304 72.0658 129.488 71.3097 129.663 70.4567C129.75 70.0302 129.876 69.4583 129.954 69.1966C130.031 68.9252 130.157 68.4017 130.245 68.0334C130.332 67.6553 130.458 67.1319 130.526 66.8702C130.846 65.6488 130.904 65.3871 130.972 64.9315C131.02 64.6601 131.078 64.3693 131.117 64.2821C131.175 64.1367 131.311 63.5745 131.553 62.5082C131.641 62.0914 131.786 61.5389 131.99 60.7634C132.058 60.492 132.164 60.017 132.232 59.6971C132.29 59.3773 132.407 58.8538 132.484 58.5339C132.562 58.2141 132.649 57.8457 132.678 57.71C132.707 57.5743 132.785 57.2447 132.862 56.983C132.94 56.7116 133.095 56.1009 133.202 55.6259C133.308 55.1413 133.434 54.5984 133.483 54.4143C133.531 54.2301 133.648 53.7261 133.735 53.2995C133.822 52.873 133.968 52.3399 134.045 52.117C134.123 51.894 134.171 51.5644 134.152 51.39C134.113 51.0119 133.958 50.9731 133.25 51.1767ZM139.581 69.5262C141.016 69.9914 142.422 71.397 142.936 72.88C143.207 73.6555 143.256 73.8591 143.595 75.2549C143.76 75.9141 143.808 79.5878 143.673 80.8286C143.605 81.4102 143.527 82.1953 143.479 82.5734C143.372 83.5912 143.188 84.735 143.033 85.3457C142.955 85.6365 142.897 86.0242 142.897 86.189C142.897 86.4992 142.412 88.6026 142.209 89.1648C142.15 89.3199 142.063 89.6107 142.024 89.7949C141.986 89.9791 141.898 90.2602 141.84 90.4249C141.792 90.58 141.656 90.9969 141.549 91.3458C141.443 91.6948 141.258 92.2182 141.152 92.509C141.035 92.7998 140.909 93.1585 140.861 93.2942C140.822 93.4299 140.745 93.6237 140.686 93.7304C140.638 93.8273 140.512 94.1084 140.425 94.3507C140.182 94.9711 139.717 95.9211 139.184 96.871C138.573 97.9664 138.592 97.9276 137.768 99.052C136.139 101.262 134.734 102.357 132.426 103.22C131.534 103.559 128.684 103.559 127.918 103.22C127.326 102.958 126.745 102.668 126.463 102.493C126.308 102.387 126.085 102.26 125.979 102.212C125.688 102.086 124.321 100.642 124.243 100.38C124.204 100.264 124.127 100.167 124.078 100.167C124.03 100.167 123.991 100.099 123.991 100.021C123.991 99.9341 123.923 99.8469 123.846 99.8178C123.768 99.779 123.7 99.6918 123.7 99.6045C123.7 99.527 123.632 99.3719 123.545 99.2846C123.351 99.0714 123.342 97.7919 123.516 96.8225C123.574 96.5027 123.652 95.9114 123.7 95.5139C123.788 94.7482 123.914 93.9339 124.146 92.6544C124.214 92.2279 124.321 91.5978 124.379 91.2489C124.612 89.6689 124.757 88.9128 125.019 87.9919C125.096 87.7205 125.155 87.4103 125.155 87.3037C125.155 87.1971 125.213 86.9257 125.29 86.6833C125.368 86.4507 125.523 85.8594 125.63 85.3844C125.746 84.8998 125.921 84.2018 126.037 83.8335C126.144 83.4555 126.27 83.0193 126.318 82.8642C126.357 82.6994 126.444 82.4377 126.502 82.2826C126.56 82.1178 126.754 81.5362 126.948 80.974C127.404 79.5781 127.511 79.3067 128.073 78.0951C128.228 77.7558 128.354 77.4359 128.364 77.3681C128.364 77.3002 128.538 76.9319 128.752 76.5635C128.955 76.1855 129.168 75.7977 129.227 75.6911C129.285 75.5845 129.411 75.3615 129.517 75.2064C129.624 75.0417 129.74 74.8478 129.779 74.7702C129.808 74.6927 129.896 74.5861 129.973 74.5473C130.041 74.5085 130.099 74.4213 130.099 74.3631C130.099 74.2468 130.671 73.4907 130.846 73.3841C130.914 73.3453 130.972 73.2484 130.972 73.1902C130.972 73.0448 132.184 71.8041 132.872 71.2322C133.493 70.7184 134.258 70.2144 134.414 70.2144C134.481 70.2144 134.588 70.1465 134.656 70.069C134.724 69.9914 134.86 69.9236 134.957 69.9236C135.053 69.9236 135.15 69.8848 135.18 69.8363C135.218 69.7879 135.49 69.6716 135.8 69.5843C136.101 69.4874 136.401 69.4001 136.45 69.3905C136.508 69.3711 137.099 69.3517 137.768 69.3517C138.728 69.342 139.116 69.3808 139.581 69.5262Z" fill="#624737"/>
<path d="M108.885 56.2484C107.392 56.6749 106.393 57.6442 105.967 59.0692C105.463 60.7752 106.345 62.8883 107.906 63.6929C108.352 63.9255 109.418 64.2163 109.806 64.2163C110.204 64.2163 111.26 63.9255 111.716 63.6832C111.891 63.5959 112.269 63.3148 112.55 63.0531C113.587 62.1032 114.014 60.5716 113.645 59.0789C113.452 58.3131 113.238 57.935 112.627 57.3244C111.6 56.3066 110.145 55.8897 108.885 56.2484Z" fill="#624737"/>
<path d="M175.085 68.5903C174.843 68.6387 174.319 68.7163 173.922 68.7647C173.137 68.852 172.138 69.0555 171.595 69.23C171.411 69.2882 170.819 69.4723 170.286 69.6371C169.753 69.8019 169.191 69.9958 169.026 70.0636C168.871 70.1412 168.541 70.2866 168.299 70.3932C165.594 71.5952 163.277 73.1461 161.192 75.1526C160.436 75.8893 158.923 77.6826 158.409 78.4581C158.186 78.807 157.876 79.2626 157.741 79.4758C157.498 79.8345 156.247 82.3257 156.083 82.7716C155.986 83.043 155.443 84.8072 155.297 85.3403C155.006 86.3969 154.9 87.4438 154.851 89.489C154.813 91.4083 154.832 91.7961 155.016 92.8332C155.132 93.4827 155.268 94.0837 155.317 94.1806C155.365 94.2678 155.404 94.4326 155.404 94.5393C155.404 94.6459 155.462 94.8785 155.54 95.053C155.617 95.2275 155.753 95.5668 155.84 95.8091C156.839 98.4457 158.885 100.879 161.27 102.275C161.929 102.653 163.325 103.292 163.674 103.36C163.897 103.409 164.217 103.496 164.372 103.544C165.429 103.903 166.234 104 168.25 104C170.306 103.99 170.829 103.932 172.332 103.506C172.603 103.428 172.885 103.37 172.962 103.37C173.078 103.37 174.155 102.963 174.746 102.691C174.853 102.643 175.047 102.556 175.182 102.497C175.318 102.449 175.493 102.362 175.57 102.313C175.648 102.265 175.909 102.129 176.152 102.013C176.394 101.896 176.724 101.722 176.879 101.615C177.044 101.518 177.238 101.402 177.315 101.363C177.393 101.334 177.713 101.111 178.013 100.879C178.314 100.646 178.595 100.462 178.624 100.462C178.692 100.462 179.264 100.035 179.788 99.5895C180.631 98.8819 182.745 96.6621 182.745 96.4973C182.745 96.2841 182.58 96.4101 182.017 97.0401C181.058 98.1258 179.516 99.5895 179.351 99.5895C179.293 99.5895 179.254 99.6283 179.254 99.6767C179.254 99.7155 179.07 99.8803 178.847 100.035C178.614 100.19 178.324 100.413 178.188 100.53C178.052 100.656 177.887 100.753 177.819 100.753C177.742 100.753 177.519 100.879 177.325 101.024C177.131 101.179 176.908 101.334 176.831 101.363C176.753 101.402 176.608 101.47 176.52 101.528C176.423 101.577 176.268 101.674 176.181 101.722C176.084 101.78 175.939 101.848 175.861 101.877C175.783 101.906 175.541 102.003 175.328 102.081C175.114 102.158 174.862 102.265 174.756 102.323C174.562 102.42 174.087 102.565 172.807 102.895C172.167 103.069 171.721 103.108 170.286 103.108C168.299 103.118 167.872 103.04 166.457 102.371C165.788 102.052 165.487 101.838 164.886 101.218C164.469 100.801 164.13 100.413 164.13 100.355C164.13 100.307 164.023 100.103 163.897 99.8997C163.558 99.3568 163.083 98.1549 162.869 97.3116C162.452 95.5861 162.443 90.5941 162.86 88.733C162.908 88.4906 163.024 87.9478 163.112 87.5213C163.199 87.0948 163.286 86.6489 163.306 86.5423C163.354 86.329 163.606 86.2127 164.062 86.2127C164.459 86.2127 164.372 86.0479 163.936 85.9801C163.567 85.9219 163.548 85.9025 163.548 85.5826C163.548 85.3985 163.606 85.1077 163.684 84.9332C163.761 84.7587 163.897 84.3322 163.984 83.9832C164.072 83.6343 164.188 83.2175 164.236 83.0624C164.295 82.8976 164.372 82.6359 164.421 82.4808C164.527 82.1124 164.702 81.589 164.857 81.2206C164.925 81.0559 165.041 80.7554 165.128 80.5421C165.468 79.6503 165.894 78.5938 165.981 78.4581C166.03 78.3805 166.117 78.206 166.175 78.0703C167.271 75.5016 169.481 72.1962 170.994 70.8682C172.07 69.9085 173.486 69.0555 173.97 69.0555C174.096 69.0555 174.416 69.0071 174.698 68.9392C175.686 68.7163 177.063 69.2009 177.596 69.9861C177.722 70.1606 177.936 70.5774 178.072 70.9167C178.314 71.4692 178.333 71.663 178.362 73.0298C178.401 74.8231 178.139 76.4128 177.645 77.4209C177.567 77.576 177.509 77.7601 177.509 77.8474C177.509 77.9249 177.451 78.1091 177.383 78.2448C177.306 78.3902 177.092 78.8167 176.908 79.1947C175.716 81.5793 173.612 83.7215 171.45 84.7393C171.081 84.9235 170.693 85.1077 170.606 85.1561C170.044 85.4469 168.88 85.7765 167.862 85.9219C166.166 86.1642 165.807 86.203 165.225 86.2127C164.576 86.2127 164.401 86.3581 164.934 86.455C165.448 86.552 169.811 86.455 170.965 86.3193C172.768 86.1158 175.764 85.5051 176.52 85.1852C176.695 85.1077 176.918 85.0495 177.005 85.0495C177.102 85.0495 177.257 84.9913 177.364 84.9235C177.47 84.8556 177.8 84.7199 178.091 84.623C179.439 84.1771 181.436 83.0624 182.648 82.0737C184.315 80.7263 185.207 79.4371 185.808 77.5372C186.07 76.7133 186.06 74.4838 185.799 73.7083C185.372 72.4482 184.713 71.3722 183.986 70.7616C183.491 70.3447 182.454 69.6953 181.969 69.5014C181.727 69.4045 181.407 69.2688 181.242 69.2009C180.786 69.0071 179.962 68.7841 179.099 68.6193C178.227 68.4545 175.803 68.4352 175.085 68.5903Z" fill="#624737"/>
<path d="M110.951 68.6374C110.854 68.6762 110.263 68.7537 108.527 68.967C105.968 69.2675 104.766 69.3547 102.031 69.4226C99.3071 69.4904 99.1423 69.5001 100.286 69.5583C100.984 69.597 102.08 69.6261 102.739 69.6358C103.699 69.6455 103.941 69.6746 103.98 69.7909C104.058 69.9751 103.912 70.7602 103.525 72.2821C103.476 72.5147 103.369 72.98 103.302 73.329C103.117 74.2692 102.759 75.7426 102.604 76.237C102.526 76.4793 102.468 76.7895 102.468 76.9349C102.468 77.0803 102.419 77.3129 102.371 77.4486C102.264 77.7394 102.022 78.7572 101.896 79.4358C101.808 79.9204 101.644 80.599 101.44 81.3356C101.363 81.6071 101.304 81.9076 101.304 82.0045C101.304 82.1014 101.246 82.4019 101.169 82.6733C100.936 83.4876 100.742 84.2824 100.577 85.1548C100.48 85.6104 100.345 86.2211 100.277 86.5119C100.209 86.8027 100.015 87.6363 99.8501 88.3536C99.6852 89.0709 99.4913 89.8851 99.4138 90.1566C99.3362 90.428 99.2683 90.7866 99.2683 90.9514C99.2683 91.1162 99.2199 91.3682 99.1617 91.5233C99.1035 91.6687 98.9872 92.0758 98.9096 92.4248C98.8417 92.7738 98.7351 93.21 98.6866 93.3941C98.6381 93.5783 98.5509 93.9757 98.483 94.2665C98.4248 94.5573 98.3182 95.0129 98.2503 95.2843C97.8916 96.5929 97.688 98.2214 97.7462 99.3167C97.8722 101.74 98.7448 103 100.917 103.873C101.159 103.97 101.663 104.008 102.662 103.999C104.164 103.989 104.601 103.892 105.861 103.301C106.394 103.058 107.849 102.021 108.062 101.73C108.12 101.653 108.333 101.411 108.527 101.197C109.061 100.616 110.03 99.3071 110.03 99.1617C110.03 99.0938 110.098 99.0163 110.176 98.9775C110.34 98.9193 110.369 98.6673 110.224 98.5801C110.166 98.551 110.079 98.6188 110.03 98.7448C109.885 99.0744 109.652 99.404 109.012 100.189C108.217 101.168 107.567 101.779 106.879 102.186C106.365 102.486 106.22 102.525 105.599 102.535C104.95 102.545 104.882 102.525 104.601 102.264C104.126 101.808 103.971 101.12 104.116 100.141C104.184 99.7142 104.281 99.2489 104.329 99.1132C104.378 98.9775 104.455 98.677 104.504 98.4347C104.649 97.6107 105.231 95.2456 105.531 94.2278C105.609 93.9757 105.667 93.6655 105.667 93.5589C105.667 93.4523 105.725 93.1421 105.803 92.8707C105.881 92.5993 105.997 92.1534 106.055 91.8917C106.327 90.6703 106.54 89.7882 106.656 89.4683C106.714 89.3035 106.782 88.9837 106.821 88.7413C106.86 88.499 106.937 88.15 107.005 87.9659C107.063 87.7817 107.248 87.0159 107.412 86.2695C107.587 85.5232 107.781 84.7186 107.849 84.4763C107.926 84.2339 108.033 83.8171 108.091 83.5554C108.149 83.284 108.304 82.6152 108.44 82.0529C108.566 81.4907 108.741 80.7347 108.828 80.3663C108.905 79.998 109.002 79.649 109.031 79.5908C109.07 79.5327 109.128 79.3194 109.167 79.0965C109.196 78.8832 109.332 78.2919 109.468 77.7879C109.604 77.2838 109.788 76.5181 109.875 76.0916C109.972 75.6651 110.108 75.1125 110.185 74.8702C110.263 74.6182 110.321 74.3371 110.321 74.2498C110.321 74.1529 110.379 73.8524 110.457 73.581C110.728 72.6117 110.883 72.0107 111.038 71.2449C111.135 70.8184 111.261 70.2756 111.339 70.0332C111.417 69.7909 111.504 69.3644 111.543 69.0833L111.61 68.5792L111.329 68.5889C111.174 68.5889 111.009 68.6083 110.951 68.6374Z" fill="#624737"/>
<path d="M55.0496 52.2764C54.8557 52.4606 55.1659 52.4993 57.1534 52.4993C58.9955 52.4993 59.3349 52.5187 59.4415 52.6447C59.5094 52.732 59.6063 53.2263 59.6451 53.7401C59.6936 54.2538 59.7712 54.8354 59.8293 55.0196C59.8778 55.2038 59.9263 55.5527 59.9263 55.7951C59.9263 56.0374 59.9748 56.4058 60.0329 56.619C60.0911 56.8323 60.1687 57.3363 60.2171 57.7337C60.2559 58.1312 60.3917 59.052 60.508 59.7693C60.6243 60.4866 60.7504 61.359 60.7892 61.708C60.9152 62.6676 61.08 63.889 61.2351 64.9068C61.3127 65.4108 61.4484 66.3026 61.526 66.8939C61.6133 67.4755 61.7199 68.1347 61.7684 68.3479C61.8169 68.5612 61.8847 69.0168 61.9138 69.3657C61.9429 69.7147 62.0302 70.3641 62.1077 70.8197C62.2338 71.6049 62.3792 72.6808 62.544 73.97C62.6313 74.7067 62.8155 75.8796 62.9415 76.4418C62.99 76.6842 63.0773 77.3142 63.1257 77.8571C63.1742 78.3902 63.2615 78.9524 63.3196 79.0978C63.3681 79.2432 63.4166 79.5437 63.4166 79.7666C63.4166 79.9896 63.4651 80.3482 63.5232 80.5615C63.5717 80.7748 63.659 81.3176 63.7074 81.7732C63.7559 82.2288 63.8432 82.8976 63.9014 83.2756C64.1825 85.0689 64.3861 86.426 64.58 87.8315C64.6188 88.1514 64.7061 88.7427 64.7642 89.1401C64.8224 89.5375 64.9387 90.3421 65.0163 90.9333C65.0939 91.5149 65.1811 92.1547 65.2102 92.3389C65.2393 92.5231 65.3169 93.095 65.3944 93.599C65.472 94.1031 65.5786 94.7816 65.6271 95.1015C65.6853 95.4214 65.8016 96.2065 65.8889 96.8463C65.9761 97.486 66.0828 98.213 66.141 98.4554C66.1991 98.6977 66.2767 99.3375 66.3252 99.8609C66.3737 100.384 66.4512 101.034 66.5094 101.305C66.5579 101.567 66.6548 102.178 66.7227 102.662C66.7905 103.137 66.8778 103.641 66.9263 103.767L67.0135 104L67.2268 103.796C67.3432 103.69 67.5274 103.428 67.634 103.224C67.7407 103.021 68.08 102.459 68.3806 101.964C68.6908 101.48 68.9429 101.053 68.9429 101.024C68.9429 100.995 69.0689 100.782 69.2338 100.549C69.3889 100.307 69.5246 100.094 69.5246 100.064C69.5246 100.006 70.1548 99.0273 70.5038 98.5232C70.6008 98.3778 70.6881 98.213 70.6881 98.1646C70.6881 98.1064 70.882 97.7768 71.1243 97.4182C71.3667 97.0692 71.5606 96.759 71.5606 96.7203C71.5606 96.6815 71.7545 96.3519 71.9969 95.9933C72.2393 95.6249 72.4332 95.3147 72.4332 95.2953C72.4332 95.276 72.5495 95.0918 72.6853 94.8882C72.821 94.6847 72.9761 94.4326 73.0246 94.326C73.0731 94.2194 73.1991 93.9964 73.3058 93.8413C73.4124 93.6766 73.5288 93.4827 73.5676 93.4051C73.6063 93.3276 73.7518 93.0853 73.8972 92.872C74.0329 92.6588 74.1881 92.3873 74.2171 92.2613C74.2559 92.145 74.3238 92.0481 74.3723 92.0481C74.411 92.0481 74.4692 91.9705 74.508 91.8736C74.5371 91.7864 74.6534 91.5731 74.7601 91.418C74.8667 91.2532 74.9831 91.0497 75.0122 90.9527C75.0509 90.8655 75.1091 90.7879 75.1479 90.7879C75.1964 90.7879 75.2739 90.6716 75.3321 90.5165C75.3903 90.3711 75.526 90.1191 75.6327 89.964C75.9623 89.4503 76.1077 89.1886 76.1756 89.0141C76.2047 88.9268 76.2725 88.8493 76.321 88.8493C76.3695 88.8493 76.5149 88.6166 76.6507 88.3355C76.9512 87.7249 77.1063 87.4631 77.213 87.3856C77.3002 87.3177 77.4941 86.9979 77.659 86.6683C77.7074 86.5617 77.8626 86.3096 77.9983 86.1061C78.134 85.9025 78.2504 85.6796 78.2504 85.602C78.2504 85.5245 78.2989 85.4566 78.3473 85.4566C78.4055 85.4566 78.4831 85.3597 78.5315 85.2337C78.58 85.1174 78.7254 84.8653 78.8515 84.6812C78.9775 84.497 79.1133 84.274 79.152 84.1965C79.1908 84.1189 79.3072 83.9154 79.4138 83.7603C79.5205 83.5955 79.6465 83.3823 79.7047 83.2756C79.7628 83.169 79.8889 82.9461 79.9955 82.791C80.1022 82.6262 80.2185 82.4226 80.2476 82.3354C80.2767 82.2481 80.364 82.1512 80.4415 82.1221C80.5191 82.093 80.5772 81.9864 80.5772 81.8895C80.5772 81.7829 80.6451 81.6472 80.7227 81.5793C80.8002 81.5114 80.8681 81.3854 80.8681 81.2885C80.8681 81.1916 80.936 81.0946 81.0135 81.0559C81.0911 81.0268 81.159 80.9395 81.159 80.862C81.159 80.7844 81.188 80.7069 81.2365 80.6875C81.3626 80.6294 81.7407 80.0381 81.7407 79.883C81.7407 79.8054 81.7795 79.7376 81.8376 79.7376C81.8861 79.7376 82.0412 79.5049 82.177 79.2238C82.4872 78.6034 82.5842 78.429 82.9332 77.9831C83.0786 77.7892 83.195 77.5953 83.195 77.5566C83.195 77.5178 83.321 77.2949 83.4858 77.0525C83.6507 76.8199 83.7767 76.5582 83.7767 76.4806C83.7767 76.4128 83.8252 76.3449 83.8736 76.3449C83.9318 76.3449 84.0191 76.248 84.0675 76.122C84.1257 76.0056 84.2518 75.773 84.3584 75.6179C84.4651 75.4531 84.5911 75.2302 84.6396 75.1139C84.688 75.0072 84.785 74.8812 84.8335 74.8424C84.8916 74.8134 84.9401 74.7067 84.9401 74.6001C84.9401 74.5032 85.008 74.4062 85.0856 74.3675C85.1631 74.3384 85.231 74.2318 85.231 74.1348C85.231 74.0282 85.2988 73.8925 85.3764 73.8246C85.454 73.7568 85.5218 73.6502 85.5218 73.5823C85.5218 73.5145 85.5897 73.4369 85.6673 73.3981C85.7448 73.3691 85.8127 73.2818 85.8127 73.214C85.8127 73.1364 85.8806 73.0201 85.9581 72.9522C86.0357 72.8844 86.1036 72.7681 86.1036 72.6905C86.1036 72.613 86.2296 72.3803 86.375 72.1865C86.5302 71.9926 86.6853 71.7697 86.7144 71.6921C86.7531 71.6146 86.8598 71.4304 86.9567 71.285C87.0925 71.0717 87.6354 70.209 88.0911 69.4723C88.1493 69.3851 88.3044 69.1428 88.4401 68.9295C88.5759 68.7163 88.7116 68.4933 88.731 68.4449C88.7795 68.3285 89.8653 66.6613 90.6506 65.5078C90.9512 65.0619 91.3002 64.5191 91.4263 64.2961C91.5523 64.0732 91.8529 63.637 92.0855 63.3365C92.3085 63.036 92.5024 62.7646 92.5024 62.7355C92.5024 62.5998 95.0523 59.1102 95.7407 58.3056C95.9055 58.1118 96.2545 57.695 96.526 57.3848C97.3598 56.3961 98.9595 54.8548 99.7448 54.2635C101.112 53.2651 103.032 52.4993 104.205 52.4993C104.505 52.4993 104.622 52.4606 104.602 52.3733C104.563 52.2861 102.789 52.2473 96.2254 52.2279C91.6493 52.2182 87.8002 52.2279 87.6742 52.257C87.3252 52.3443 87.5288 52.4993 87.9844 52.4993C88.6049 52.4993 89.4872 52.8386 90.0883 53.3136C90.6506 53.7498 91.1742 54.6319 91.3681 55.4558C91.7365 57.0455 91.3778 60.3315 90.6313 62.1927C90.5828 62.3284 90.5052 62.561 90.4567 62.7258C90.3501 63.1135 89.8169 64.6645 89.7102 64.8777C89.6617 64.9746 89.5551 65.217 89.4678 65.4205C89.1673 66.1088 89.0315 66.4093 88.7213 67.0878C88.3529 67.8923 87.6354 69.3173 87.267 69.9958C87.1216 70.2575 86.8404 70.7809 86.6368 71.159C86.4429 71.5273 86.2393 71.8763 86.1908 71.9248C86.1423 71.9829 86.1036 72.0798 86.1036 72.138C86.1036 72.2543 85.8612 72.6518 85.2213 73.6114C85.0662 73.8343 84.9401 74.1058 84.9401 74.2027C84.9401 74.2996 84.8723 74.4062 84.7947 74.445C84.7171 74.4741 84.6493 74.542 84.6493 74.6001C84.6493 74.6486 84.5232 74.8812 84.3584 75.1042C84.2033 75.3174 84.0675 75.5597 84.0675 75.6179C84.0675 75.6858 83.9997 75.7633 83.9221 75.8021C83.8446 75.8312 83.7767 75.9475 83.7767 76.0541C83.7767 76.1607 83.7088 76.2771 83.6313 76.3061C83.5537 76.3449 83.4858 76.4225 83.4858 76.5C83.4858 76.5775 83.3598 76.8199 83.195 77.0428C83.0302 77.2561 82.9041 77.4984 82.9041 77.5663C82.9041 77.6341 82.8459 77.7311 82.7781 77.7698C82.7102 77.8086 82.5745 78.0219 82.4678 78.2351C82.3612 78.4484 82.1576 78.7779 82.0121 78.9718C81.857 79.1657 81.7407 79.3789 81.7407 79.4468C81.7407 79.5146 81.6243 79.7279 81.4789 79.9217C81.1396 80.3579 80.9941 80.6003 80.8778 80.8717C80.8196 80.9783 80.7324 81.1043 80.6839 81.1431C80.6257 81.1722 80.5772 81.2885 80.5772 81.3951C80.5772 81.4921 80.5288 81.5793 80.4803 81.5793C80.4221 81.5793 80.3349 81.6762 80.2864 81.7926C80.17 82.064 79.9858 82.3451 79.8307 82.5292C79.7628 82.5971 79.7047 82.7134 79.7047 82.7813C79.7047 82.8588 79.6368 82.9654 79.5592 83.0333C79.4817 83.1011 79.4138 83.2369 79.4138 83.3338C79.4138 83.4404 79.3653 83.518 79.3169 83.518C79.2587 83.518 79.1714 83.6149 79.123 83.7312C79.0648 83.8572 78.9387 84.0802 78.8321 84.245C78.7254 84.4001 78.5994 84.623 78.5412 84.7296C78.4831 84.8363 78.357 85.0495 78.2504 85.2143C78.1437 85.3694 78.0274 85.5729 77.9886 85.6505C77.9498 85.728 77.8044 85.9704 77.6493 86.1739C77.5038 86.3775 77.3778 86.6101 77.3778 86.6877C77.3778 86.7555 77.339 86.8137 77.2905 86.8137C77.1936 86.8137 77.1451 86.9009 76.6991 87.7539C76.5634 88.006 76.3986 88.258 76.3404 88.2968C76.2725 88.3355 76.2144 88.4616 76.2144 88.5585C76.2144 88.6651 76.1659 88.7524 76.1174 88.7524C76.0592 88.7524 75.972 88.8493 75.9235 88.9656C75.8653 89.0916 75.7393 89.3146 75.6327 89.4794C75.526 89.6344 75.4 89.8574 75.3418 89.964C75.2836 90.0706 75.1576 90.2839 75.0509 90.4487C74.9443 90.6038 74.8182 90.8267 74.7601 90.9333C74.5953 91.2823 74.1299 91.8833 74.0329 91.893C73.9844 91.9027 73.9263 91.767 73.9166 91.6119C73.8972 91.4471 73.8293 90.9043 73.7421 90.4002C73.6645 89.8962 73.5385 88.9753 73.4512 88.3646C73.364 87.7539 73.2573 87.0269 73.1991 86.7555C73.1507 86.4841 73.0634 85.854 73.0149 85.35C72.9277 84.4291 72.8404 83.7312 72.5786 82.064C72.5011 81.5599 72.4138 80.988 72.3944 80.8038C72.2878 79.912 72.123 78.8458 71.9969 78.206C71.9194 77.8183 71.8515 77.2755 71.8515 76.9944C71.8515 76.7133 71.7836 76.2771 71.7061 76.0153C71.6285 75.7536 71.5606 75.3077 71.5606 75.0363C71.5606 74.7552 71.5122 74.2899 71.454 74.0088C71.3958 73.718 71.3182 73.2043 71.2698 72.8553C71.0856 71.3625 70.9498 70.4417 70.8238 69.8116C70.7462 69.4433 70.6881 68.9489 70.6881 68.6969C70.6784 68.4545 70.6396 68.0571 70.5814 67.8148C70.5329 67.5725 70.4263 66.8552 70.3487 66.2154C70.2712 65.5756 70.1451 64.6354 70.0579 64.1313C69.9706 63.6273 69.864 62.8615 69.8155 62.435C69.767 62.0085 69.6797 61.4851 69.6313 61.2718C69.5731 61.0585 69.5246 60.7096 69.5246 60.4963C69.5246 60.2831 69.4664 59.7596 69.3889 59.3331C69.3113 58.9066 69.1756 58.0342 69.0883 57.3945C69.0108 56.7547 68.8944 55.9114 68.8363 55.5237C68.6714 54.3992 68.5357 53.2554 68.526 52.8871L68.5066 52.5478L71.2989 52.4993C73.0537 52.4703 74.0814 52.4121 74.0814 52.3539C74.0814 52.2473 55.1562 52.1601 55.0496 52.2764Z" fill="#624737"/>
</g>
<defs>
<clipPath id="clip0_608_75644">
<rect width="240.945" height="153.071" fill="white"/>
</clipPath>
</defs>
</svg>
