<!-- <svg width="24" height="24" viewBox="0 0 24 24" fill="none" xmlns="http://www.w3.org/2000/svg">
<path d="M12 21C9.7 21 7.69583 20.2375 5.9875 18.7125C4.27917 17.1875 3.3 15.2833 3.05 13H5.1C5.33333 14.7333 6.10417 16.1667 7.4125 17.3C8.72083 18.4333 10.25 19 12 19C13.95 19 15.6042 18.3208 16.9625 16.9625C18.3208 15.6042 19 13.95 19 12C19 10.05 18.3208 8.39583 16.9625 7.0375C15.6042 5.67917 13.95 5 12 5C10.85 5 9.775 5.26667 8.775 5.8C7.775 6.33333 6.93333 7.06667 6.25 8H9V10H3V4H5V6.35C5.85 5.28333 6.8875 4.45833 8.1125 3.875C9.3375 3.29167 10.6333 3 12 3C13.25 3 14.4208 3.2375 15.5125 3.7125C16.6042 4.1875 17.5542 4.82917 18.3625 5.6375C19.1708 6.44583 19.8125 7.39583 20.2875 8.4875C20.7625 9.57917 21 10.75 21 12C21 13.25 20.7625 14.4208 20.2875 15.5125C19.8125 16.6042 19.1708 17.5542 18.3625 18.3625C17.5542 19.1708 16.6042 19.8125 15.5125 20.2875C14.4208 20.7625 13.25 21 12 21ZM14.8 16.2L11 12.4V7H13V11.6L16.2 14.8L14.8 16.2Z" fill="black"/>
</svg> -->


<svg width="18" height="18" viewBox="0 0 18 18" fill="none" xmlns="http://www.w3.org/2000/svg">
<path d="M9 18C6.7 18 4.69583 17.2375 2.9875 15.7125C1.27917 14.1875 0.3 12.2833 0.05 10H2.1C2.33333 11.7333 3.10417 13.1667 4.4125 14.3C5.72083 15.4333 7.25 16 9 16C10.95 16 12.6042 15.3208 13.9625 13.9625C15.3208 12.6042 16 10.95 16 9C16 7.05 15.3208 5.39583 13.9625 4.0375C12.6042 2.67917 10.95 2 9 2C7.85 2 6.775 2.26667 5.775 2.8C4.775 3.33333 3.93333 4.06667 3.25 5H6V7H0V1H2V3.35C2.85 2.28333 3.8875 1.45833 5.1125 0.875C6.3375 0.291667 7.63333 0 9 0C10.25 0 11.4208 0.2375 12.5125 0.7125C13.6042 1.1875 14.5542 1.82917 15.3625 2.6375C16.1708 3.44583 16.8125 4.39583 17.2875 5.4875C17.7625 6.57917 18 7.75 18 9C18 10.25 17.7625 11.4208 17.2875 12.5125C16.8125 13.6042 16.1708 14.5542 15.3625 15.3625C14.5542 16.1708 13.6042 16.8125 12.5125 17.2875C11.4208 17.7625 10.25 18 9 18ZM11.8 13.2L8 9.4V4H10V8.6L13.2 11.8L11.8 13.2Z" fill="black"/>
</svg>


