<svg width="34" height="31" viewBox="0 0 34 31" fill="none" xmlns="http://www.w3.org/2000/svg">
<path d="M16.9997 22.832C20.2643 22.832 22.9108 20.1855 22.9108 16.9209C22.9108 13.6563 20.2643 11.0098 16.9997 11.0098C13.7351 11.0098 11.0886 13.6563 11.0886 16.9209C11.0886 20.1855 13.7351 22.832 16.9997 22.832Z" fill="#FFB6C1"/>
<path d="M30.5111 10.1333V23.6444C30.5111 24.0012 30.4393 24.339 30.338 24.662C30.0065 25.7007 29.1916 26.5156 28.153 26.847C27.83 26.9504 27.4922 27.0201 27.1354 27.0201H10.6666L14.0444 30.3979H27.1333C28.0664 30.3979 28.9552 30.2079 29.7638 29.868C30.5723 29.526 31.3006 29.032 31.9108 28.4198C32.2169 28.1137 32.4934 27.7801 32.7362 27.4191C33.2217 26.7013 33.5722 25.8822 33.7516 25.004C33.8424 24.5649 33.8889 24.1089 33.8889 23.6423V12.6667L32.6222 8.65556L30.338 9.11578C30.4393 9.43878 30.5111 9.77656 30.5111 10.1333Z" fill="#FFB6C1"/>
<path d="M3.48886 10.1333C3.48886 9.77656 3.56064 9.43878 3.66197 9.11578C3.99342 8.07711 4.80831 7.26222 5.84697 6.93078C6.17208 6.82733 6.50986 6.75556 6.86664 6.75556H27.1333C27.4901 6.75556 27.8279 6.82733 28.1509 6.92867L28.1889 4.43333L24.6 3.37778L21.2222 0H12.7778L9.39997 3.37778H6.86664C3.13631 3.37778 0.111084 6.403 0.111084 10.1333V16.8889L3.48886 20.2667V10.1333Z" fill="#FFB6C1"/>
<path d="M27.1333 3.37778H24.6L28.153 6.93078C28.4126 7.01311 28.6575 7.12711 28.8855 7.26644C29.3415 7.54511 29.7236 7.92722 30.0023 8.38322C30.1416 8.61122 30.2556 8.85611 30.338 9.11578L33.8889 12.6667V10.1333C33.8889 6.403 30.8636 3.37778 27.1333 3.37778Z" fill="#FFB6C1"/>
<path d="M6.86664 30.4H15.2879L11.9101 27.0222H6.86664C5.00464 27.0222 3.48886 25.5064 3.48886 23.6444V18.601L0.111084 15.2232V23.6444C0.111084 27.3748 3.13631 30.4 6.86664 30.4Z" fill="#FFB6C1"/>
</svg>