<svg width="50" height="50" viewBox="0 0 50 50" fill="none" xmlns="http://www.w3.org/2000/svg">
<path d="M8.68421 39.9289C11.3123 38.2421 13.9202 36.9491 16.5079 36.05C19.0956 35.1509 21.9263 34.7013 25 34.7013C28.0737 34.7013 30.911 35.1509 33.5118 36.05C36.1132 36.9491 38.7279 38.2421 41.3559 39.9289C43.2691 37.7127 44.6903 35.373 45.6197 32.9099C46.5491 30.4472 47.0138 27.8105 47.0138 25C47.0138 18.7921 44.8969 13.5711 40.6632 9.33684C36.429 5.10307 31.2079 2.98619 25 2.98619C18.7921 2.98619 13.5711 5.10307 9.33684 9.33684C5.10307 13.5711 2.98618 18.7921 2.98618 25C2.98618 27.8105 3.45768 30.4472 4.40066 32.9099C5.34364 35.373 6.77149 37.7127 8.68421 39.9289ZM24.9875 26.4928C22.6208 26.4928 20.6303 25.6816 19.0158 24.0592C17.4013 22.4364 16.5941 20.4417 16.5941 18.075C16.5941 15.7079 17.4053 13.7171 19.0276 12.1026C20.6504 10.4882 22.6454 9.68092 25.0125 9.68092C27.3792 9.68092 29.3697 10.4923 30.9842 12.1151C32.5987 13.7375 33.4059 15.7322 33.4059 18.0993C33.4059 20.4664 32.5947 22.457 30.9724 24.0711C29.3496 25.6855 27.3546 26.4928 24.9875 26.4928ZM24.9737 50C21.5123 50 18.2579 49.3471 15.2105 48.0414C12.1636 46.7357 9.51294 44.9467 7.25855 42.6743C5.00373 40.4024 3.23026 37.7533 1.93816 34.727C0.646053 31.7011 0 28.4478 0 24.9671C0 21.5035 0.652851 18.2544 1.95855 15.2197C3.26425 12.1851 5.05329 9.54276 7.32566 7.29276C9.59759 5.04232 12.2467 3.26426 15.273 1.95855C18.2989 0.652852 21.5522 0 25.0329 0C28.4965 0 31.7456 0.652852 34.7803 1.95855C37.8149 3.26426 40.4572 5.04232 42.7072 7.29276C44.9577 9.54276 46.7357 12.1886 48.0414 15.2303C49.3471 18.2719 50 21.5226 50 24.9822C50 28.4594 49.3471 31.7094 48.0414 34.7322C46.7357 37.755 44.9577 40.4024 42.7072 42.6743C40.4572 44.9467 37.8086 46.7357 34.7612 48.0414C31.7143 49.3471 28.4518 50 24.9737 50Z" fill="#221812"/>
</svg>
