<svg width="528" height="526" viewBox="0 0 528 526" fill="none" xmlns="http://www.w3.org/2000/svg">
<path d="M255.656 381.242H218.821V370.634C214.108 369.741 209.422 368.487 204.877 366.905L199.577 376.085L167.676 357.668L172.989 348.466C169.356 345.328 165.929 341.901 162.79 338.267L153.588 343.58L135.171 311.679L144.351 306.379C142.769 301.834 141.515 297.149 140.622 292.435H130.014V255.6H140.622C141.516 250.885 142.769 246.2 144.351 241.655L135.171 236.355L153.588 204.454L162.79 209.767C165.928 206.135 169.355 202.708 172.989 199.569L167.676 190.367L199.577 171.949L204.877 181.13C209.418 179.548 214.103 178.294 218.821 177.4V166.793H255.656V177.4C260.375 178.295 265.06 179.548 269.601 181.13L274.901 171.949L306.802 190.367L301.489 199.569C305.122 202.707 308.549 206.133 311.688 209.767L320.89 204.454L339.307 236.355L330.127 241.655C331.709 246.199 332.963 250.885 333.856 255.6H344.464V292.435H333.856C332.963 297.149 331.709 301.835 330.127 306.379L339.307 311.68L320.89 343.58L311.688 338.267C308.548 341.902 305.12 345.33 301.489 348.466L306.802 357.668L274.901 376.086L269.601 366.905C265.056 368.487 260.37 369.741 255.656 370.634V381.242ZM220.134 379.929H254.344V369.542L254.882 369.443C259.887 368.524 264.865 367.193 269.678 365.487L270.192 365.304L275.382 374.292L305.009 357.187L299.807 348.178L300.222 347.824C304.093 344.517 307.735 340.876 311.046 337L311.401 336.585L320.409 341.787L337.514 312.16L328.525 306.971L328.708 306.456C330.415 301.644 331.747 296.666 332.666 291.66L332.765 291.122H343.151V256.912H332.765L332.666 256.375C331.746 251.368 330.415 246.39 328.708 241.578L328.525 241.064L337.514 235.874L320.409 206.247L311.401 211.449L311.046 211.034C307.736 207.16 304.095 203.519 300.222 200.211L299.807 199.857L305.009 190.847L275.382 173.742L270.192 182.731L269.678 182.548C264.87 180.843 259.892 179.511 254.882 178.59L254.344 178.492V168.106H220.134V178.492L219.596 178.59C214.586 179.511 209.607 180.842 204.8 182.548L204.285 182.731L199.096 173.742L169.47 190.847L174.67 199.857L174.255 200.211C170.382 203.52 166.74 207.162 163.432 211.034L163.078 211.449L154.069 206.247L136.964 235.874L145.952 241.064L145.77 241.578C144.063 246.391 142.732 251.368 141.812 256.375L141.713 256.912H131.327L131.327 291.122H141.713L141.812 291.66C142.732 296.665 144.063 301.643 145.77 306.456L145.952 306.971L136.964 312.16L154.069 341.787L163.078 336.585L163.432 337.001C166.742 340.875 170.383 344.516 174.255 347.824L174.67 348.178L169.47 357.188L199.096 374.293L204.285 365.304L204.8 365.487C209.613 367.193 214.59 368.525 219.596 369.444L220.134 369.542V379.929ZM237.203 344.569C218.354 344.569 200.731 337.283 187.352 323.905C173.421 309.974 166.095 291.437 166.725 271.709C167.908 234.647 197.867 204.687 234.93 203.504C254.662 202.862 273.194 210.199 287.125 224.13C301.057 238.061 308.383 256.598 307.753 276.326C306.569 313.388 276.611 343.348 239.548 344.531C238.766 344.556 237.982 344.569 237.203 344.569ZM237.274 204.779C236.507 204.779 235.742 204.791 234.972 204.815C198.599 205.976 169.198 235.378 168.037 271.752C167.419 291.112 174.608 309.304 188.28 322.976C201.952 336.649 220.143 343.837 239.506 343.22C275.879 342.058 305.28 312.656 306.441 276.283C307.059 256.922 299.87 238.729 286.197 225.057C273.069 211.93 255.77 204.779 237.274 204.779Z" fill="white"/>
<path d="M237.239 352.379C194.03 352.379 158.876 317.225 158.876 274.017C158.876 255.137 165.685 236.899 178.048 222.661C190.288 208.566 207.142 199.285 225.504 196.527C225.86 196.477 226.197 196.72 226.251 197.079C226.304 197.437 226.058 197.772 225.699 197.825C188.352 203.433 160.189 236.189 160.189 274.016C160.189 316.501 194.753 351.066 237.238 351.066C272.343 351.066 303.013 327.366 311.821 293.432C311.912 293.081 312.27 292.867 312.621 292.962C312.972 293.053 313.182 293.411 313.091 293.762C304.133 328.275 272.941 352.379 237.239 352.379Z" fill="white"/>
<path d="M514.718 386.933H494.503L467.19 376.625L434.682 386.933H408.084L382.497 380.125L349.823 386.933H324.895V28.8184H514.718V386.933Z" fill="#E6D0BE"/>
<path d="M500.607 405.125H335.42C320.658 405.125 308.648 393.115 308.648 378.353V26.7712C308.648 12.0097 320.658 0 335.42 0H500.607C515.369 0 527.379 12.0097 527.379 26.7712V378.353C527.379 393.115 515.369 405.125 500.607 405.125ZM335.42 1.31235C321.382 1.31235 309.961 12.733 309.961 26.7709V378.353C309.961 392.391 321.382 403.812 335.42 403.812H500.607C514.646 403.812 526.066 392.391 526.066 378.353V26.7712C526.066 12.7333 514.645 1.31265 500.607 1.31265H335.42V1.31235Z" fill="#273434"/>
<path d="M441.366 15.4054H394.662C394.299 15.4054 394.005 15.1119 394.005 14.7491C394.005 14.3863 394.299 14.0928 394.662 14.0928H441.366C441.729 14.0928 442.022 14.3863 442.022 14.7491C442.022 15.1116 441.729 15.4054 441.366 15.4054Z" fill="#273434"/>
<path d="M482.811 311.646C483.146 313.343 493.143 386.934 493.143 386.934H417.026L411.548 370.313L408.084 386.934H338.463L344.463 311.646H482.811Z" fill="white"/>
<path d="M297.941 203.837C297.941 203.835 297.941 203.834 297.94 203.834C262.257 182.342 237.352 166.409 229.47 161.793C228.645 161.309 227.192 160.449 225.071 159.885C217.213 157.795 212.78 163.115 203.515 164.687C193.002 166.471 186.072 161.524 184.691 163.871C183.73 165.503 185.818 168.105 191.665 171.429C191.665 171.43 191.665 171.431 191.664 171.43C186.932 169.415 180.395 166.963 179.289 169.581C178.174 172.672 185.515 176.456 190.069 178.528C184.557 176.02 180.876 176.335 180.623 177.949C180.225 180.488 184.046 183.428 191.459 186.46V186.461C185.756 185.797 184.274 186.486 184.398 187.967C184.625 190.67 190.765 193.048 196.517 194.318C202.991 195.747 208.508 194.61 211.97 193.81C211.97 193.81 211.972 193.81 211.972 193.811C235.403 211.454 251.276 221.834 269.082 237.466C280.429 247.43 306.379 225.067 297.941 203.837Z" fill="#E2A18D"/>
<path d="M212.349 165.228C203.678 159.218 201.824 155.212 202.82 153.868C204.495 151.608 213.999 153.709 227.779 160.897C223.589 162.489 216.54 163.636 212.349 165.228Z" fill="#BC8271"/>
<path d="M298.388 204.476C298.273 204.476 298.156 204.446 298.05 204.382C293.185 201.451 288.18 198.417 283.175 195.367C282.865 195.178 282.767 194.774 282.956 194.465C283.144 194.156 283.548 194.058 283.858 194.247C288.861 197.296 293.864 200.328 298.727 203.258C299.038 203.445 299.138 203.848 298.95 204.158C298.828 204.364 298.611 204.476 298.388 204.476Z" fill="#273434"/>
<path d="M205.232 181.576C205.048 181.576 204.865 181.499 204.735 181.349C204.498 181.075 204.528 180.66 204.802 180.423C206.079 179.321 209.578 176.777 214.511 176.889C218.001 176.975 220.654 178.329 222.266 179.45C222.563 179.657 222.637 180.067 222.429 180.364C222.223 180.662 221.815 180.736 221.516 180.528C220.052 179.51 217.643 178.279 214.479 178.202C210.004 178.102 206.821 180.414 205.661 181.416C205.536 181.523 205.384 181.576 205.232 181.576Z" fill="#273434"/>
<path d="M209.587 164.075C209.319 164.075 209.068 163.91 208.971 163.644C208.846 163.303 209.022 162.927 209.362 162.803C210.539 162.374 211.647 161.914 212.718 161.47C215.041 160.508 217.236 159.597 219.592 159.233C219.947 159.176 220.286 159.423 220.341 159.781C220.397 160.139 220.151 160.474 219.793 160.53C217.593 160.87 215.469 161.751 213.221 162.683C212.137 163.132 211.016 163.596 209.812 164.035C209.738 164.063 209.662 164.075 209.587 164.075Z" fill="#273434"/>
<path d="M198.568 173.013C198.162 173.013 197.756 173.001 197.352 172.978C195.44 172.869 193.544 172.503 191.716 171.89C191.372 171.774 191.187 171.402 191.302 171.058C191.418 170.715 191.79 170.531 192.134 170.645C193.85 171.221 195.632 171.566 197.427 171.668C198.663 171.737 199.917 171.695 201.152 171.535C201.511 171.495 201.841 171.743 201.887 172.103C201.933 172.462 201.679 172.791 201.319 172.838C200.407 172.954 199.486 173.013 198.568 173.013Z" fill="#273434"/>
<path d="M196.274 179.76C195.867 179.76 195.46 179.749 195.054 179.726C193.142 179.617 191.246 179.25 189.418 178.637C189.074 178.521 188.889 178.149 189.004 177.806C189.12 177.462 189.49 177.278 189.836 177.392C191.553 177.968 193.334 178.313 195.129 178.416C196.369 178.486 197.622 178.441 198.854 178.282C199.211 178.244 199.542 178.489 199.589 178.85C199.635 179.209 199.381 179.538 199.022 179.585C198.113 179.702 197.193 179.76 196.274 179.76Z" fill="#273434"/>
<path d="M198.265 188.2C197.858 188.2 197.451 188.189 197.046 188.166C195.13 188.057 193.234 187.69 191.409 187.077C191.065 186.961 190.88 186.589 190.996 186.246C191.112 185.903 191.485 185.719 191.827 185.832C193.541 186.408 195.322 186.752 197.12 186.856C198.36 186.926 199.613 186.881 200.845 186.722C201.201 186.679 201.533 186.93 201.58 187.29C201.626 187.649 201.372 187.978 201.013 188.025C200.104 188.142 199.184 188.2 198.265 188.2Z" fill="#273434"/>
<path d="M352.273 196.172C334.668 210.87 286.458 256.4 267.567 235.949C251.94 219.033 300.847 176.764 317.382 161.035C329.012 172.747 340.643 184.459 352.273 196.172Z" fill="#E2A18D"/>
<path d="M468.297 148.238C486.254 162.504 540.596 200.505 524.391 223.144C510.987 241.87 459.697 202.528 440.947 189.517C450.064 175.757 459.18 161.998 468.297 148.238Z" fill="#E2A18D"/>
<path d="M492.014 158.753C492.014 158.753 440.467 114.696 382.424 128.775C339.116 139.279 332.097 148.492 290.91 181.941L325.455 225.79L331.867 218.572C332.56 221.98 336.005 311.645 336.005 311.645H492.014L470.514 209.125L478.254 206.913L492.014 158.753Z" fill="#FFB6C1"/>
<path d="M501.149 187.732C501.148 187.732 501.147 187.731 501.146 187.732C465.896 209.926 440.46 224.997 432.791 229.958C431.988 230.477 430.566 231.388 429.108 233.028C423.705 239.105 426.461 245.458 423.696 254.439C420.558 264.631 413.021 268.593 414.495 270.882C415.521 272.475 418.784 271.781 424.384 268.056C424.384 268.056 424.385 268.057 424.385 268.057C420.456 271.376 415.323 276.11 417.164 278.276C419.423 280.663 426.106 275.81 430.005 272.676C425.285 276.469 423.91 279.898 425.238 280.85C427.327 282.348 431.671 280.259 437.714 275.004L437.715 275.004C434.556 279.799 434.504 281.432 435.882 281.988C438.399 283.002 443.286 278.588 447.008 274.023C451.198 268.885 452.665 263.446 453.508 259.995C453.509 259.994 453.509 259.993 453.51 259.993C479.811 247.008 496.223 237.504 518.196 228.639C532.198 222.988 523.906 189.75 501.149 187.732Z" fill="#E2A18D"/>
<path d="M428.153 246.793C418.883 251.832 414.472 251.686 413.72 250.191C412.455 247.678 418.609 240.136 431.229 231.064C430.765 235.523 428.617 242.334 428.153 246.793Z" fill="#E2A18D"/>
<path d="M468.139 208.988C467.92 208.988 467.706 208.878 467.582 208.678C467.39 208.371 467.484 207.966 467.792 207.775C470.993 205.783 481.323 199.232 489.623 193.967C494.754 190.713 499.21 187.888 500.987 186.769C501.294 186.578 501.699 186.668 501.892 186.975C502.085 187.281 501.993 187.687 501.686 187.88C499.909 188.998 495.455 191.823 490.326 195.076C482.024 200.341 471.691 206.894 468.485 208.888C468.377 208.956 468.258 208.988 468.139 208.988Z" fill="#273434"/>
<path d="M425.296 249.101C425.27 249.101 425.245 249.1 425.218 249.096C424.859 249.054 424.601 248.728 424.644 248.368C424.79 247.124 424.878 245.928 424.964 244.772C425.149 242.264 425.325 239.895 426.06 237.627C426.171 237.282 426.542 237.094 426.886 237.205C427.23 237.316 427.419 237.686 427.308 238.031C426.622 240.149 426.453 242.441 426.273 244.868C426.186 246.039 426.097 247.249 425.947 248.522C425.908 248.855 425.624 249.101 425.296 249.101Z" fill="#273434"/>
<path d="M424.355 268.407C424.186 268.407 424.017 268.342 423.888 268.212C423.633 267.954 423.636 267.539 423.893 267.284C425.18 266.009 426.29 264.574 427.189 263.017C427.809 261.944 428.333 260.806 428.747 259.631C428.868 259.288 429.244 259.11 429.584 259.23C429.926 259.35 430.106 259.725 429.985 260.067C429.544 261.318 428.985 262.531 428.326 263.673C427.368 265.332 426.188 266.861 424.817 268.217C424.689 268.343 424.522 268.407 424.355 268.407Z" fill="#273434"/>
<path d="M429.347 273.496C429.178 273.496 429.009 273.431 428.881 273.301C428.626 273.043 428.628 272.628 428.886 272.373C430.172 271.098 431.282 269.663 432.181 268.105C432.802 267.029 433.327 265.891 433.739 264.72C433.86 264.377 434.237 264.199 434.576 264.318C434.919 264.439 435.098 264.814 434.977 265.155C434.538 266.403 433.98 267.616 433.318 268.762C432.36 270.421 431.18 271.95 429.809 273.306C429.681 273.432 429.514 273.496 429.347 273.496Z" fill="#273434"/>
<path d="M437.78 275.514C437.611 275.514 437.442 275.45 437.313 275.319C437.058 275.062 437.061 274.646 437.318 274.391C438.605 273.119 439.714 271.684 440.614 270.125C441.233 269.052 441.757 267.913 442.172 266.739C442.293 266.397 442.669 266.219 443.008 266.337C443.351 266.458 443.53 266.833 443.41 267.174C442.969 268.425 442.411 269.639 441.75 270.781C440.792 272.441 439.611 273.97 438.241 275.325C438.113 275.451 437.947 275.514 437.78 275.514Z" fill="#273434"/>
<path d="M158.814 187.76H279.186L260.411 83.8027H182.235L158.814 187.76Z" fill="#EFBC73"/>
<path d="M209.455 179.479C209.158 179.479 208.889 179.277 208.817 178.975C203.74 157.679 187.192 88.0911 187.443 86.729C187.509 86.3721 187.848 86.1337 188.208 86.2022C188.538 86.2632 188.765 86.5617 188.744 86.8891C188.906 89.404 204.2 153.951 210.094 178.67C210.179 179.023 209.961 179.377 209.608 179.461C209.556 179.474 209.506 179.479 209.455 179.479Z" fill="#F7F1EB"/>
<path d="M164.286 184.039C164.058 184.039 163.836 183.92 163.715 183.707C163.536 183.392 163.647 182.992 163.962 182.812L183.874 171.511V89.2735C183.874 88.9107 184.168 88.6172 184.53 88.6172C184.893 88.6172 185.187 88.9107 185.187 89.2735V171.892C185.187 172.129 185.06 172.347 184.854 172.463L164.61 183.954C164.507 184.012 164.396 184.039 164.286 184.039Z" fill="#F7F1EB"/>
<path d="M201.765 90.3686C202.52 90.3686 203.133 89.7563 203.133 89.0005V69.2123C203.133 64.5862 206.897 60.8226 211.523 60.8226H228.119C232.745 60.8226 236.509 64.5862 236.509 69.2123V89.0005C236.509 89.756 237.121 90.3686 237.877 90.3686C238.632 90.3686 239.244 89.7563 239.244 89.0005V69.2123C239.244 63.0776 234.254 58.0869 228.119 58.0869H211.522C205.388 58.0869 200.397 63.0776 200.397 69.2123V89.0005C200.397 89.7563 201.01 90.3686 201.765 90.3686Z" fill="#E0AA63"/>
<path d="M354.522 127.239C361.428 130.298 376.112 115.196 376.112 115.196L381.719 92.8099C379.602 82.3962 369.444 75.6702 359.03 77.7868C348.616 79.9037 341.89 90.0614 344.007 100.475C344.007 100.475 347.487 124.123 354.522 127.239Z" fill="#E2A18D"/>
<path d="M380.445 145.041L379.932 145.145C373.126 146.528 366.487 142.132 365.104 135.326L357.488 97.862C357.451 97.678 357.57 97.4986 357.754 97.4613L382.247 92.4825C382.431 92.445 382.611 92.5641 382.648 92.7477L390.263 130.212C391.647 137.018 387.251 143.657 380.445 145.041Z" fill="#E2A18D"/>
<path d="M347.182 104.993C347.182 104.993 343.02 111.609 343.598 113.015C344.289 114.693 350.397 114.561 350.397 114.561C350.397 114.561 347.044 105.035 347.182 104.993Z" fill="#E2A18D"/>
<path d="M364.034 100.727C364.034 100.727 360.532 99.6708 356.727 100.444C355.918 100.609 358.762 106.777 359.456 106.254C362.507 103.954 364.034 100.727 364.034 100.727Z" fill="white"/>
<path d="M357.131 100.374C356.192 100.535 355.229 100.796 354.288 101.214C349.692 103.255 347.391 108.118 347.391 108.118C347.391 108.118 352.541 109.671 357.138 107.63C358.216 107.152 359.162 106.515 359.987 105.826C359.995 103.718 358.992 101.65 357.131 100.374Z" fill="#373E44"/>
<path d="M355.184 117.587C354.774 117.587 354.36 117.512 353.963 117.357C353.625 117.227 353.458 116.846 353.589 116.508C353.72 116.17 354.101 116.001 354.439 116.135C355.191 116.427 356.046 116.253 356.617 115.693C357.167 115.153 357.364 114.328 357.122 113.589C357.008 113.245 357.194 112.874 357.539 112.761C357.886 112.642 358.254 112.834 358.368 113.178C358.767 114.387 358.44 115.742 357.536 116.63C356.9 117.254 356.05 117.587 355.184 117.587Z" fill="#273434"/>
<path d="M363.2 126.273C362.981 126.273 362.766 126.163 362.642 125.963C362.451 125.655 362.545 125.251 362.853 125.059C368.665 121.451 375.665 115.099 375.736 115.036C376.004 114.793 376.418 114.812 376.663 115.079C376.907 115.347 376.887 115.763 376.619 116.006C376.549 116.071 369.46 122.502 363.546 126.174C363.438 126.241 363.318 126.273 363.2 126.273Z" fill="#273434"/>
<path d="M378.056 75.1288C373.36 66.3293 366.099 63.1162 362.702 62.6119C352.698 61.127 346.645 69.6172 338.484 73.2444C330.095 76.9728 320.033 77.0362 314.303 75.6295C316.473 84.0358 320.815 88.2277 322.981 89.9823C333.614 98.5949 352.151 97.3522 368.042 85.6431C369.155 90.3163 370.267 94.9891 371.38 99.662C370.899 95.3993 373.031 93.238 375.219 92.8192C377.782 92.3287 380.559 94.9888 381.06 97.4921C382.006 102.226 379.461 106.146 379.057 106.671C381.71 110.179 384.235 112.336 387.128 114.839C395.01 107.782 398.04 96.0416 393.91 87.1448C388.728 75.9792 378.732 75.2033 378.056 75.1288Z" fill="#84524D"/>
<path d="M167.639 455.691C158.11 466.414 147.36 485.118 136.571 507.195C133.762 512.944 130.954 518.929 128.158 525.059H35.2759C55.0689 420.751 89.3395 367.232 89.3395 367.232L122.173 362.743L153.365 358.478L167.639 455.691Z" fill="#FFB6C1"/>
<path d="M230.792 525.059H145.615C142.426 518.561 139.38 512.57 136.572 507.195C126.904 488.675 120.06 477.387 120.06 477.387L122.173 362.743L122.186 361.995L164.056 353.069C201.116 394.153 220.587 462.221 230.792 525.059Z" fill="#FFB6C1"/>
<path d="M140.46 496.042C140.368 496.042 140.275 496.023 140.186 495.982C139.857 495.831 139.713 495.44 139.865 495.112L165.77 438.856C165.922 438.527 166.312 438.382 166.641 438.534C166.97 438.686 167.114 439.076 166.963 439.405L141.057 495.66C140.946 495.901 140.708 496.042 140.46 496.042Z" fill="#273434"/>
<path d="M147.784 289.201C147.784 289.201 199.454 326.316 242.664 284.863L251.842 266.237C251.842 266.237 262.439 295.126 254.952 323.28C247.465 351.435 216.682 357.125 174.46 348.515L147.784 289.201Z" fill="#84524D"/>
<path d="M65.854 401.018C92.2879 384.402 147.61 352.672 186.702 351.22C186.702 351.22 191.172 316.812 152.33 285.751C152.33 285.751 107.458 257.168 48.2118 282.816C48.2118 282.816 7.08986 351.402 26.7823 390.287C34.0649 404.666 52.2078 409.596 65.854 401.018Z" fill="#E0D3C8"/>
<path d="M49.3793 282.157C49.3793 301.404 50.3124 317.771 51.9382 345.574C53.8054 377.51 54.6591 393.047 42.8193 397.775C-22.6631 423.923 -5.22989 310.963 49.3793 282.157Z" fill="#84524D"/>
<path d="M36.6689 348.504C36.6689 348.504 75.9892 332.495 97.4306 325.48C119.949 318.112 154.268 310.513 155.269 315.327C155.839 318.07 151.373 320.074 139.079 324.637C139.932 325.028 142.177 326.63 142.289 329.26C142.454 333.153 139.389 334.37 139.158 334.587C139.458 334.697 142.654 335.961 143.206 338.548C143.828 341.462 142.542 343.704 140.634 345.056C141.369 345.35 143.972 346.709 144.429 349.211C144.899 351.785 143.522 354.813 140.915 355.623C136.133 357.11 121.837 361.256 115.126 364.122C101.919 369.761 57.7062 396.081 36.4639 399.186C40.0149 380.947 36.6689 348.504 36.6689 348.504Z" fill="#84524D"/>
<path d="M134.885 355.32C134.572 355.32 134.295 355.097 134.239 354.778L133.502 350.61C133.439 350.253 133.677 349.912 134.034 349.85C134.394 349.784 134.731 350.024 134.795 350.382L135.532 354.55C135.595 354.907 135.357 355.247 135 355.31C134.961 355.317 134.923 355.32 134.885 355.32Z" fill="#273434"/>
<path d="M132.922 345.299C132.601 345.299 132.32 345.063 132.273 344.736L131.589 339.999C131.538 339.641 131.786 339.308 132.145 339.256C132.508 339.202 132.837 339.453 132.889 339.812L133.573 344.549C133.625 344.907 133.376 345.24 133.017 345.292C132.985 345.297 132.953 345.299 132.922 345.299Z" fill="#273434"/>
<path d="M131.583 334.633C131.271 334.633 130.994 334.41 130.938 334.092C130.799 333.313 130.68 332.609 130.56 331.904C130.441 331.203 130.322 330.503 130.184 329.727C130.121 329.37 130.358 329.029 130.715 328.966C131.076 328.901 131.413 329.141 131.476 329.497C131.615 330.276 131.735 330.98 131.854 331.684C131.973 332.385 132.092 333.086 132.23 333.862C132.294 334.218 132.056 334.56 131.699 334.623C131.66 334.63 131.621 334.633 131.583 334.633Z" fill="#273434"/>
<path d="M129.638 325.974C129.345 325.974 129.078 325.777 129.002 325.479L127.967 321.406C127.878 321.055 128.09 320.698 128.441 320.609C128.793 320.514 129.149 320.732 129.239 321.083L130.275 325.156C130.364 325.507 130.152 325.864 129.8 325.953C129.746 325.967 129.692 325.974 129.638 325.974Z" fill="#273434"/>
<path d="M235.151 315.071H195.992L221.817 254.655H260.976L235.151 315.071Z" fill="#D87355"/>
<path d="M230.677 261.945C230.677 263.406 229.492 264.591 228.03 264.591C226.568 264.591 225.383 263.406 225.383 261.945C225.383 260.483 226.568 259.298 228.03 259.298C229.492 259.298 230.677 260.483 230.677 261.945Z" fill="#EFBC73"/>
<path d="M260.021 275.303C260.021 279.268 259.686 282.483 252.819 282.483C245.951 282.483 235.151 279.268 235.151 275.303C235.151 271.338 245.951 268.124 252.819 268.124C259.686 268.124 260.021 271.338 260.021 275.303Z" fill="#84524D"/>
<path d="M231.504 285.854C231.504 281.889 242.304 278.675 249.172 278.675C256.039 278.675 256.374 281.889 256.374 285.854H231.504Z" fill="#84524D"/>
<path d="M256.374 285.854C256.374 289.82 256.039 293.034 249.172 293.034C242.304 293.034 231.504 289.82 231.504 285.854H256.374Z" fill="#84524D"/>
<path d="M227.857 296.405C227.857 292.44 238.657 289.226 245.525 289.226C252.392 289.226 252.727 292.44 252.727 296.405H227.857Z" fill="#84524D"/>
<path d="M252.727 296.405C252.727 300.37 252.392 303.585 245.525 303.585C238.657 303.585 227.857 300.37 227.857 296.405H252.727Z" fill="#84524D"/>
<path d="M229.312 305.482C229.312 302.33 237.896 299.775 243.355 299.775C248.814 299.775 249.08 302.33 249.08 305.482H229.312Z" fill="#84524D"/>
<path d="M249.08 305.482C249.08 308.634 248.814 311.189 243.356 311.189C237.897 311.189 229.312 308.634 229.312 305.482H249.08Z" fill="#84524D"/>
<path d="M114.42 257.54C127.315 252.199 133.438 237.416 128.097 224.521C122.755 211.626 107.972 205.503 95.0774 210.844C82.1827 216.186 76.0594 230.969 81.4007 243.864C86.742 256.758 101.525 262.881 114.42 257.54Z" fill="#273434"/>
<path d="M122.193 246.784C118.996 245.018 113.517 240.299 111.75 243.497L91.0179 276.651C89.2511 279.849 99.8565 278.736 103.054 280.503C106.252 282.269 110.276 281.109 112.043 277.911L124.784 255.774C126.551 252.576 125.391 248.551 122.193 246.784Z" fill="#84524D"/>
<path d="M101.924 284.594C111.797 284.594 119.801 282.185 119.801 279.212C119.801 276.24 111.797 273.83 101.924 273.83C92.0507 273.83 84.0469 276.24 84.0469 279.212C84.0469 282.185 92.0507 284.594 101.924 284.594Z" fill="#84524D"/>
<path d="M138.927 255.906C136.059 261.274 119.245 258.966 119.245 258.966L104.582 247.532C100.762 239.869 103.877 230.56 111.539 226.74C119.202 222.919 128.511 226.034 132.331 233.697C132.331 233.697 141.849 250.439 138.927 255.906Z" fill="#84524D"/>
<path d="M132.555 238.14C132.555 238.14 138.48 240.277 138.809 241.457C139.203 242.865 135.258 245.81 135.258 245.81C135.258 245.81 132.664 238.098 132.555 238.14Z" fill="#84524D"/>
<path d="M119.738 243.788C119.738 243.788 121.438 241.381 124.238 239.985C124.834 239.688 126.087 245.015 125.387 245.027C122.309 245.08 119.738 243.788 119.738 243.788Z" fill="white"/>
<mask id="mask0_625_227417" style="mask-type:luminance" maskUnits="userSpaceOnUse" x="126" y="236" width="6" height="16">
<path d="M128.433 251.313C128.433 251.313 125.878 247.811 126.204 243.773C126.531 239.734 129.614 236.688 129.614 236.688C129.614 236.688 132.169 240.19 131.842 244.228C131.516 248.267 128.433 251.313 128.433 251.313Z" fill="white"/>
</mask>
<g mask="url(#mask0_625_227417)">
<path d="M134.336 243.192C135.273 240.42 133.784 237.413 131.012 236.477C128.239 235.54 125.233 237.029 124.296 239.801C123.36 242.574 124.848 245.58 127.621 246.517C130.393 247.453 133.4 245.965 134.336 243.192Z" fill="#273434"/>
</g>
<path d="M132.053 250.809C131.948 250.809 131.843 250.803 131.737 250.791C130.674 250.67 129.754 249.939 129.391 248.928C129.269 248.588 129.446 248.211 129.787 248.089C130.127 247.966 130.504 248.143 130.627 248.485C130.822 249.029 131.316 249.422 131.886 249.487C132.474 249.558 133.056 249.264 133.363 248.748C133.548 248.437 133.95 248.334 134.263 248.52C134.574 248.705 134.676 249.109 134.491 249.42C133.975 250.286 133.042 250.809 132.053 250.809Z" fill="#273434"/>
<path d="M93.5338 250.351C93.5338 250.351 115.32 251.312 129.096 229.526C142.872 207.74 105.068 209.022 89.3691 216.39C79.3141 221.11 93.5338 250.351 93.5338 250.351Z" fill="#273434"/>
<path d="M98.9406 268.163C98.2367 268.163 97.7759 268.092 97.7223 268.083C97.3646 268.024 97.122 267.687 97.1806 267.33C97.239 266.972 97.5747 266.729 97.934 266.787C97.9664 266.793 101.334 267.301 103.914 265.226C105.75 263.75 106.781 261.319 106.976 258.001C107.266 253.064 103.774 250.323 101.225 248.322C99.6333 247.073 98.4835 246.17 98.7204 245.014C98.9401 243.94 100.331 243.173 103.68 242.277C115.479 239.12 122.35 225.215 122.419 225.074C122.577 224.748 122.969 224.612 123.296 224.77C123.622 224.929 123.758 225.321 123.6 225.647C123.312 226.24 116.405 240.231 104.019 243.544C100.428 244.506 100.04 245.113 100.006 245.277C99.9321 245.638 101.148 246.592 102.035 247.289C104.656 249.347 108.617 252.456 108.286 258.078C108.068 261.789 106.87 264.542 104.724 266.259C102.699 267.881 100.34 268.163 98.9406 268.163Z" fill="white"/>
<path d="M64.4047 161.343C64.4047 161.343 42.816 208.991 93.0976 230.955C93.0976 230.955 70.6394 191.732 108.297 159.701L64.4047 161.343Z" fill="#273434"/>
<path d="M71.2627 111.908L108.092 140.863L96.075 65.916L71.2627 111.908Z" fill="white"/>
<path d="M114.327 114.569C131.487 97.4084 131.487 69.5858 114.327 52.4253C97.1661 35.2649 69.3435 35.2649 52.1831 52.4253C35.0226 69.5858 35.0226 97.4084 52.1831 114.569C69.3435 131.729 97.1661 131.729 114.327 114.569Z" fill="white"/>
<path d="M107.445 75.4248C105.63 69.5896 100.187 65.3525 93.7549 65.3525H93.7546C89.5934 65.3525 85.8573 67.1367 83.2391 69.9685C80.6207 67.1364 76.8848 65.3525 72.7236 65.3525C66.291 65.3525 60.8479 69.5896 59.0331 75.4248C58.6143 76.7714 58.3887 78.2031 58.3887 79.6875C58.3887 87.6045 67.7505 101.044 83.2394 106.895C98.7287 101.044 108.09 87.6045 108.09 79.6875C108.09 78.2031 107.864 76.7714 107.445 75.4248Z" fill="#C84630"/>
</svg>
