<svg width="172" height="72" viewBox="0 0 172 72" fill="none" xmlns="http://www.w3.org/2000/svg">
<path fill-rule="evenodd" clip-rule="evenodd" d="M166.5 60.5C159.5 66.6667 144.5 75.3 140.5 60.5C139.5 56 139.3 47.2 146.5 48C155.5 49 170.5 44.5 171.5 33.5C172.3 24.7 162.833 23.5 158 24C152.5 24 139.4 28 131 44C129 51.8333 129.3 68.2 146.5 71C150.833 70.8333 160.9 68.5 166.5 60.5ZM142 47C142.167 41.8333 144.9 30.3 154.5 25.5C164.1 20.7 161.167 32.5 158.5 39C156.333 42.6667 150 49.4 142 47Z" fill="black"/>
<path d="M104 1L95.5 34.5C91.1 46.1 89.3333 59 89 64L78 70L92 6.5C92.3333 5.33333 92.1 3 88.5 3C84.9 3 85.3333 2.33333 86 2C92 2 100.5 1.33333 104 1Z" fill="black"/>
<path d="M26 2H0.500005C0.100005 2 0.333338 2.66667 0.500005 3H6.5L16.5 70C24.3333 57.8333 41.6 30.6 48 19C54.4 7.4 62.6667 2.83333 66 2H44C43.6 2 43.5 2.66667 43.5 3C51.1 2.6 48.6667 13.1667 46.5 18.5L25 54L19 3H25.5C26.3 3 26.1667 2.33333 26 2Z" fill="black"/>
<circle cx="72" cy="10" r="6" fill="black"/>
<path d="M56 25C61.7399 25 72.9709 24.817 73.9338 24.1007C73.9772 23.993 74 23.9573 74 24C74 24.0347 73.9775 24.0682 73.9338 24.1007C72.9609 26.5152 61.6281 65.1281 64.5 68C66.9 70.4 70.1667 65.6667 71.5 63C71 66.3333 67.6 72.5 58 70.5C56.1667 69.8333 53.4 65 57 51C60.6 37 62.8333 28.5 63.5 26H56C55.8333 25.8333 55.6 25.4 56 25Z" fill="black"/>
<path d="M119 26C105.4 20.8 98 28.5 96 33C93.8333 38.1667 90.9 45.7 96.5 34.5C102.1 23.3 109.833 25.1667 113 27.5C119 39 113 57 106 66C100.4 73.2 91.6667 68.3333 88 65C93.3333 70.6667 107.1 77.7 119.5 60.5C131.9 43.3 124.333 30.3333 119 26Z" fill="black"/>
</svg>
