<svg width="543" height="541" viewBox="0 0 543 541" fill="none" xmlns="http://www.w3.org/2000/svg">
<path d="M526.727 35.8936H289.244V483.92H526.727V35.8936Z" fill="#FBFAF8"/>
<path d="M516.797 506.517H294.686C280.566 506.517 269.08 495.03 269.08 480.91V25.6065C269.08 11.4869 280.566 0 294.686 0H516.797C530.917 0 542.404 11.4869 542.404 25.6065V480.91C542.404 495.03 530.917 506.517 516.797 506.517ZM294.686 1.32057C281.294 1.32057 270.4 12.2151 270.4 25.6068V480.91C270.4 494.302 281.295 505.197 294.686 505.197H516.797C530.189 505.197 541.083 494.302 541.083 480.91V25.6065C541.083 12.2148 530.189 1.32027 516.797 1.32027H294.686V1.32057Z" fill="#363E44"/>
<path d="M434.957 18.9505H376.526C376.161 18.9505 375.866 18.6552 375.866 18.2902C375.866 17.9251 376.161 17.6299 376.526 17.6299H434.957C435.322 17.6299 435.617 17.9251 435.617 18.2902C435.617 18.6552 435.322 18.9505 434.957 18.9505Z" fill="#363E44"/>
<path d="M403.358 431.181L404.335 444.103H404.329L413.699 474.522H390.36L392.407 444.103H392.233L381.86 474.81L350.742 474.378V461.403L362.844 454.915L374.977 432.289L403.358 431.181Z" fill="#624737"/>
<path d="M403.358 431.18L396.978 346.79L430.257 271.103L371.91 260.723C371.148 276.778 360.598 320.095 360.673 342.033C360.746 363.271 368.973 395.44 374.977 432.289L403.358 431.18Z" fill="#FADFD5"/>
<path d="M493.471 413.743L499.675 425.121L499.67 425.123L520.717 449L499.442 458.596L488.802 430.025L488.643 430.096L491.813 462.353L463.268 474.753L457.934 462.925L466.298 452.036L468.056 426.422L493.471 413.743Z" fill="#624737"/>
<path d="M493.471 413.743L452.96 339.438L452.178 256.761L394.723 271.288C400.629 286.236 408.822 330.061 417.909 350.028C426.707 369.358 447.433 395.3 468.056 426.422L493.471 413.743Z" fill="#FADFD5"/>
<path d="M422.953 360.388C422.725 360.388 422.502 360.269 422.38 360.056C420.327 356.481 418.669 353.29 417.308 350.301C412.016 338.674 407.035 319.027 402.64 301.693C401.533 297.324 400.486 293.198 399.467 289.319C399.374 288.967 399.585 288.606 399.938 288.514C400.291 288.421 400.652 288.631 400.744 288.984C401.765 292.868 402.811 296.997 403.92 301.369C408.302 318.649 413.267 338.235 418.51 349.755C419.853 352.705 421.494 355.86 423.525 359.399C423.707 359.716 423.597 360.12 423.281 360.301C423.178 360.359 423.065 360.388 422.953 360.388Z" fill="#363E44"/>
<path d="M357.194 336.308L457.764 337.111C457.764 337.111 486.533 275.462 476 237.604C468.512 210.693 449.492 192.948 449.492 192.948L474.794 127.02L454.221 116.743L395.06 106.142L393.568 131.895C389.516 133.892 386.727 138.062 386.727 142.885C386.727 147.201 388.961 150.993 392.334 153.174L390.462 185.474C390.462 185.474 367.342 205.255 359.504 231.859C348.895 267.869 357.194 336.308 357.194 336.308Z" fill="#2D0D3A"/>
<path d="M436.039 166.382C431.982 166.382 428.241 164.531 425.775 161.304C425.554 161.013 425.61 160.6 425.899 160.378C426.189 160.158 426.603 160.213 426.825 160.501C429.038 163.399 432.397 165.062 436.039 165.062C441.541 165.062 446.319 161.152 447.4 155.767C447.472 155.41 447.818 155.177 448.177 155.25C448.535 155.321 448.766 155.669 448.694 156.027C447.491 162.027 442.168 166.382 436.039 166.382Z" fill="#B77250"/>
<path d="M443.139 215.686C446.152 213.736 449.603 214.199 449.56 213.545C449.527 213.055 447.464 212.83 445.627 213.166C442.596 213.72 439.03 217.974 437.059 216.624C435.127 215.3 437.378 210.748 441.134 207.964C444.3 205.618 448.301 206.436 448.251 205.624C448.216 205.052 446.516 204.661 442.805 204.347C439.708 204.084 433.393 205.174 433.184 201.892C433.008 199.131 439.474 197.416 445.727 196.937C449.87 196.619 454.1 196.783 456.544 196.777C455.796 195.716 454.576 194.133 452.817 192.463C449.681 189.486 448.167 188.827 448.628 186.926C449.104 184.967 452.513 185.525 456.088 187.139C460.354 189.064 462.635 192.135 464.253 193.602C470.887 188.31 485.249 177.389 491.883 172.097C491.179 171.861 464.93 164.519 461.356 162.038C457.999 151.017 470.14 125.611 474.556 128.716C483.24 132.949 532.034 156.02 532.789 166.946C533.615 178.892 489.116 214.079 475.067 221.925C473.531 223.6 470.976 225.872 467.334 226.817C463.183 227.894 461.596 226.216 457.039 226.671C449.346 227.439 446.3 233.183 444.254 231.361C442.85 230.111 444.481 226.688 446.78 223.952C449.14 221.143 451.849 220.32 451.633 219.759C451.395 219.144 448.751 220.336 445.328 221.517C443.737 222.065 440.297 226.261 438.127 224.836C436.396 223.699 438.881 218.442 443.139 215.686Z" fill="#FADFD5"/>
<path d="M394.561 199.645C392.379 196.796 388.972 196.072 389.233 195.471C389.428 195.02 391.448 195.501 393.065 196.435C395.733 197.975 397.662 203.18 399.973 202.571C402.237 201.974 401.647 196.929 399.045 193.046C396.851 189.771 392.808 189.198 393.128 188.449C393.353 187.922 395.086 188.125 398.687 189.076C401.692 189.87 407.273 193.019 408.573 189.998C409.667 187.457 404.153 183.669 398.425 181.116C394.63 179.424 390.591 178.157 388.291 177.331C389.352 176.583 391.033 175.501 393.25 174.52C397.205 172.77 398.852 172.658 399.057 170.712C399.267 168.708 395.869 168.087 391.959 168.405C387.295 168.785 384.114 170.912 382.098 171.749C377.628 164.535 367.771 149.423 363.302 142.21C364.044 142.224 382.566 144.963 386.767 143.827C386.31 141.012 387.939 134.278 393.568 131.894C394.626 124.614 395.117 107.99 394.968 107.733C385.366 108.802 330.889 113.574 326.506 123.611C321.714 134.584 351.798 182.679 362.394 194.791C363.278 196.885 364.921 199.882 368.033 201.997C371.581 204.406 373.639 203.359 377.779 205.32C384.766 208.628 385.705 215.061 388.244 214.034C389.986 213.328 389.601 209.556 388.355 206.206C387.076 202.767 384.801 201.082 385.193 200.626C385.624 200.127 387.713 202.138 390.541 204.4C391.855 205.451 393.685 210.559 396.208 209.946C398.218 209.458 397.644 203.672 394.561 199.645Z" fill="#FADFD5"/>
<path d="M482.875 112.126C455.147 111.521 424.209 107.79 395.615 93.7244C395.615 93.7244 409.365 44.7791 443.237 52.9876C471.479 59.8318 483.836 90.0478 482.875 112.126Z" fill="#624737"/>
<path d="M454.771 62.4481C454.771 62.4481 443.552 53.4583 439.471 46.5225C435.391 39.5863 424.94 32.5241 416.54 39.8711C408.141 47.2181 427.129 57.1427 427.129 57.1427L454.771 62.4481Z" fill="#624737"/>
<path d="M445.821 58.4121C445.821 58.4121 449.812 27.1594 463.645 40.3745C477.478 53.5895 453.222 64.7817 445.821 58.4121Z" fill="#624737"/>
<path d="M457.192 62.7524C452.574 62.7524 448.1 61.292 446.146 58.19C446.028 58.0022 446.012 57.7677 446.104 57.5659C446.423 56.8613 454.012 40.3026 462.103 39.9595C464.954 39.8292 467.489 41.7056 469.618 45.511C473.137 51.8012 472.101 57.223 466.777 60.3855C464.162 61.9388 460.637 62.7524 457.192 62.7524ZM447.462 57.7782C450.488 61.9319 460.21 62.7506 466.102 59.2509C470.791 56.4648 471.631 51.8144 468.465 46.156C466.6 42.8219 464.487 41.1875 462.159 41.2791C455.452 41.563 448.574 55.4395 447.462 57.7782Z" fill="#624737"/>
<path d="M444.549 119.572L444.093 93.3389L426.673 96.1055L420.691 115.928L444.549 119.572Z" fill="#FADFD5"/>
<path d="M415.011 118.445C414.804 121.321 422.575 124.224 432.369 124.93C442.163 125.635 450.27 123.876 450.477 121C450.685 118.124 442.913 115.222 433.119 114.516C423.326 113.811 415.219 115.57 415.011 118.445Z" fill="#FADFD5"/>
<path d="M425.247 56.2217C425.247 56.2217 410.21 91.0582 423.547 99.8976C431.616 105.245 444.755 99.8742 449.17 96.3737C453.586 92.8731 455.869 84.3918 455.869 84.3918C455.869 84.3918 451.558 85.4599 450.263 82.4391C448.968 79.4182 457.746 69.8817 447.497 64.7422C437.248 59.6025 433.8 63.2237 425.247 56.2217Z" fill="#FADFD5"/>
<path d="M431.238 103.242C429.73 103.242 428.245 103.088 426.847 102.742C426.493 102.655 426.277 102.297 426.365 101.943C426.453 101.588 426.81 101.375 427.164 101.46C432.293 102.729 438.699 101.219 442.775 99.1578C443.1 98.9916 443.498 99.1237 443.662 99.4492C443.827 99.7747 443.696 100.172 443.371 100.336C440.177 101.951 435.612 103.242 431.238 103.242Z" fill="#363E44"/>
<path d="M449.319 85.1295C446.98 87.3115 445.098 92.6139 447.281 94.9526C449.463 97.2916 454.883 95.7815 457.222 93.5994C459.561 91.4173 459.688 87.7523 457.506 85.4133C455.323 83.074 451.658 82.9471 449.319 85.1295Z" fill="#FADFD5"/>
<path d="M442.793 75.292C442.751 75.3561 442.766 75.4333 442.722 75.4974C442.721 75.5001 442.718 75.5016 442.716 75.5043C442.422 76.5476 442.114 77.649 442.016 78.7279C441.972 79.2058 442.125 79.5661 442.135 80.0209C442.142 80.3548 442.148 80.6743 442.168 81.0025C445.58 79.8748 447.903 77.3944 447.903 77.3944C447.903 77.3944 445.712 75.9134 442.793 75.292Z" fill="#FBFAF8"/>
<path d="M439.253 75.0911C435.062 75.5442 431.894 78.583 431.377 79.1059C431.392 79.1631 431.409 79.2197 431.425 79.276C432.132 79.7287 435.822 81.9399 439.945 81.494C440.718 81.4104 441.452 81.2335 442.146 81.0056C442.314 80.7633 442.472 80.5115 442.608 80.2393C443.405 78.6303 443.412 76.8393 442.788 75.296C441.693 75.0684 440.494 74.957 439.253 75.0911Z" fill="#363E44"/>
<path d="M421.398 72.7767C420.809 73.914 420.574 74.8827 420.751 76.097C423.562 77.2873 426.238 77.278 426.238 77.278C426.238 77.278 425.584 73.3208 422.949 70.3535C422.258 70.9955 421.816 71.9693 421.398 72.7767Z" fill="#FBFAF8"/>
<path d="M420.691 76.0705C422.4 74.7418 423.298 72.5603 422.943 70.3582C422.645 70.0273 422.329 69.7051 421.977 69.405C418.469 66.4093 413.534 66.4297 413.534 66.4297C413.534 66.4297 414.287 71.3068 417.795 74.3028C418.702 75.0769 419.704 75.6468 420.691 76.0705Z" fill="#363E44"/>
<path d="M454.406 92.9992C454.231 92.9992 454.057 92.9303 453.927 92.7935C453.676 92.5291 453.687 92.1114 453.951 91.8598C454.064 91.7529 454.17 91.6328 454.267 91.5047C454.636 91.0088 454.821 90.4266 454.786 89.8664C454.754 89.3474 454.534 88.9108 454.167 88.6374C453.985 88.5015 453.775 88.4116 453.544 88.3706C453.185 88.3068 452.946 87.9643 453.01 87.6052C453.074 87.2468 453.413 87.0036 453.775 87.0707C454.21 87.148 454.608 87.319 454.957 87.5789C455.64 88.0882 456.048 88.8716 456.104 89.7852C456.158 90.6569 455.881 91.5481 455.325 92.2946C455.183 92.4836 455.028 92.6596 454.861 92.818C454.733 92.9393 454.569 92.9992 454.406 92.9992Z" fill="#363E44"/>
<path d="M425.422 83.8433C425.162 83.8433 424.916 83.6885 424.811 83.4333C424.495 82.6617 424.459 81.9607 424.705 81.3516C424.979 80.6694 425.506 80.3535 426.016 80.0478C426.347 79.8498 426.689 79.6447 427.039 79.3108C427.481 78.8877 427.834 78.3487 428.086 77.7085C428.219 77.3701 428.602 77.2042 428.943 77.3365C429.282 77.4707 429.448 77.8543 429.315 78.1936C428.992 79.0123 428.533 79.7094 427.951 80.2652C427.495 80.7018 427.051 80.9674 426.695 81.1806C426.252 81.4462 426.034 81.5848 425.93 81.8442C425.817 82.1247 425.852 82.4901 426.034 82.9333C426.172 83.2704 426.01 83.6561 425.673 83.7948C425.591 83.8277 425.506 83.8433 425.422 83.8433Z" fill="#363E44"/>
<path d="M428.197 90.559C427.334 90.559 426.522 90.1638 425.781 89.381C425.53 89.1166 425.541 88.6988 425.806 88.4479C426.071 88.197 426.489 88.2074 426.739 88.4731C427.248 89.0088 427.774 89.2771 428.286 89.2358C429.284 89.1783 430.078 88.1332 430.086 88.123C430.305 87.8322 430.718 87.7718 431.009 87.9883C431.301 88.2057 431.363 88.6162 431.147 88.909C431.101 88.9722 429.988 90.4545 428.372 90.5539C428.313 90.5578 428.255 90.559 428.197 90.559Z" fill="#363E44"/>
<path d="M305.438 247.89H212.731V340.597H305.438V247.89Z" fill="#D5BFB3"/>
<path d="M311.376 335.32H218.669C218.304 335.32 218.008 335.025 218.008 334.66V241.952C218.008 241.587 218.304 241.292 218.669 241.292H311.376C311.741 241.292 312.036 241.587 312.036 241.952V334.66C312.036 335.025 311.741 335.32 311.376 335.32ZM219.329 333.999H310.716V242.613H219.329V333.999Z" fill="#624737"/>
<path d="M236.927 318.929L281.198 318.884C281.198 318.884 281.198 288.766 268.487 286.821C267.366 279.605 270.509 257.684 270.509 257.684H268.289L266.575 261.186C264.504 263.029 261.96 264.259 259.229 264.737L247.875 267.281C247.875 267.281 251.281 284.812 251.162 286.812C242.649 286.896 236.927 318.929 236.927 318.929Z" fill="#FBFAF8"/>
<path d="M305.438 135.703H212.731V228.41H305.438V135.703Z" fill="#D5BFB3"/>
<path d="M311.376 223.132H218.669C218.304 223.132 218.008 222.837 218.008 222.472V129.765C218.008 129.4 218.304 129.104 218.669 129.104H311.376C311.741 129.104 312.036 129.4 312.036 129.765V222.472C312.036 222.837 311.741 223.132 311.376 223.132ZM219.329 221.812H310.716V130.425H219.329V221.812Z" fill="#624737"/>
<path d="M250.543 148.974C250.543 148.974 259.084 150.772 261.107 157.599C263.383 149.423 271.671 148.974 271.671 148.974L268.749 163.808H253.915L250.543 148.974Z" fill="#FBFAF8"/>
<path d="M268.749 163.808C268.749 163.808 282.459 190.554 282.01 206.063C281.56 221.571 269.873 206.962 265.602 206.962C261.332 206.962 260.657 209.883 253.465 210.108C246.273 210.333 240.654 207.636 236.608 208.984C232.563 210.333 254.196 163.808 253.915 163.808C261.557 163.808 268.749 163.808 268.749 163.808Z" fill="#FBFAF8"/>
<path d="M305.438 23.0234H212.731V115.731H305.438V23.0234Z" fill="#D5BFB3"/>
<path d="M311.376 110.453H218.669C218.304 110.453 218.008 110.157 218.008 109.792V17.0851C218.008 16.7201 218.304 16.4248 218.669 16.4248H311.376C311.741 16.4248 312.036 16.7201 312.036 17.0851V109.792C312.036 110.157 311.741 110.453 311.376 110.453ZM219.329 109.132H310.716V17.7454H219.329V109.132Z" fill="#624737"/>
<path d="M243.636 97.6236C251.845 100.455 258.981 98.931 262.288 99.1359C270.645 99.653 280.529 100.045 290.109 99.8967C285.005 93.2816 277.988 88.3087 277.792 72.3905C277.689 64.0745 275.908 54.9886 271.979 49.4146C271.324 48.4878 270.614 47.8437 270.231 47.3931C269.463 46.4875 259.976 44.7627 258.698 44.6717C257.812 44.6088 254.651 48.4259 253.122 50.6657C248.174 57.9142 245.559 78.2253 244.805 82.4245C244.155 86.0487 243.563 87.5499 241.739 92.2752C241.004 94.177 239.353 94.8983 238.393 95.7134C239.308 96.1662 241.857 97.0101 243.636 97.6236Z" fill="#FBFAF8"/>
<path d="M261.523 97.6454C261.494 97.6454 261.465 97.6436 261.436 97.6397C261.074 97.5921 260.82 97.26 260.868 96.8988C261.97 88.57 262.606 77.4014 262.93 60.6855C262.937 60.325 263.231 60.0381 263.59 60.0381C263.594 60.0381 263.599 60.0381 263.603 60.0381C263.968 60.0453 264.258 60.3462 264.251 60.7112C263.925 77.478 263.286 88.6924 262.176 97.0716C262.133 97.4037 261.849 97.6454 261.523 97.6454Z" fill="#F7F1EB"/>
<path d="M284.272 97.5104C284.204 97.5104 284.134 97.5002 284.065 97.4769C280.74 96.3803 278.397 93.2235 278.235 89.6223C277.664 69.1543 276.457 57.374 271.448 49.8093L271.291 49.6197C270.418 48.5642 269.594 47.5682 268.407 47.3927C268.045 47.3397 267.796 47.0041 267.85 46.6435C267.903 46.283 268.236 46.0278 268.599 46.0865C270.287 46.3354 271.361 47.6332 272.309 48.7777L272.487 48.9924C272.502 49.0104 272.516 49.0298 272.529 49.049C277.731 56.8802 278.976 68.8405 279.555 89.5738C279.692 92.6198 281.671 95.296 284.479 96.2231C284.825 96.3372 285.013 96.7106 284.899 97.0567C284.807 97.3343 284.549 97.5104 284.272 97.5104Z" fill="#F7F1EB"/>
<path d="M251.716 65.084C251.671 65.084 251.625 65.0795 251.578 65.0699C251.221 64.9939 250.994 64.6432 251.07 64.2866C253.254 54.0412 256.026 47.7845 258.678 47.1218C259.031 47.0323 259.39 47.2482 259.478 47.6015C259.567 47.9555 259.352 48.3139 258.998 48.4022C257.746 48.7158 254.938 52.4721 252.362 64.5611C252.295 64.872 252.021 65.084 251.716 65.084Z" fill="#F7F1EB"/>
<path d="M245.805 98.4511C245.559 98.4511 245.323 98.3131 245.209 98.0771C245.051 97.7483 245.189 97.3542 245.518 97.1958C250.422 94.8352 250.964 86.5456 251.488 78.5293C251.512 78.1664 251.807 77.8993 252.19 77.9136C252.553 77.9376 252.829 78.2514 252.805 78.6159C252.257 87.0106 251.69 95.6911 246.09 98.3861C245.998 98.4304 245.901 98.4511 245.805 98.4511Z" fill="#F7F1EB"/>
<path d="M274.363 30.6418L258.802 28.5088L258.523 33.3123C257.766 33.6848 257.246 34.4625 257.246 35.362C257.246 36.1669 257.663 36.8742 258.292 37.2812L257.722 45.2531C260.882 47.4834 264.181 47.9017 268.502 46.7399L268.963 44.6997L274.363 30.6418Z" fill="#FBFAF8"/>
<path d="M265.574 47.5446C260.432 47.5446 257.891 46.1384 257.372 45.8123C257.063 45.6188 256.969 45.2113 257.164 44.9025C257.357 44.5938 257.765 44.5016 258.074 44.6944C258.411 44.9058 261.557 46.7364 268.44 46.0833C268.807 46.0407 269.125 46.3153 269.159 46.6777C269.194 47.0406 268.928 47.3631 268.565 47.3973C267.484 47.5 266.487 47.5446 265.574 47.5446Z" fill="#F7F1EB"/>
<path d="M190.498 45.3313H47.2135C46.8485 45.3313 46.5532 45.0361 46.5532 44.671C46.5532 44.306 46.8485 44.0107 47.2135 44.0107H190.498C190.863 44.0107 191.158 44.306 191.158 44.671C191.158 45.0361 190.863 45.3313 190.498 45.3313Z" fill="#624737"/>
<path d="M190.498 73.9095H47.2135C46.8485 73.9095 46.5532 73.6142 46.5532 73.2492C46.5532 72.8841 46.8485 72.5889 47.2135 72.5889H190.498C190.863 72.5889 191.158 72.8841 191.158 73.2492C191.158 73.6142 190.863 73.9095 190.498 73.9095Z" fill="#624737"/>
<path d="M190.498 59.6204H47.2135C46.8485 59.6204 46.5532 59.3251 46.5532 58.9601C46.5532 58.5951 46.8485 58.2998 47.2135 58.2998H190.498C190.863 58.2998 191.158 58.5951 191.158 58.9601C191.158 59.3251 190.863 59.6204 190.498 59.6204Z" fill="#624737"/>
<path d="M158.132 88.6555H47.213C46.848 88.6555 46.5527 88.3603 46.5527 87.9952C46.5527 87.6302 46.848 87.335 47.213 87.335H158.132C158.497 87.335 158.792 87.6302 158.792 87.9952C158.792 88.36 158.497 88.6555 158.132 88.6555Z" fill="#624737"/>
<path d="M190.498 157.707H47.2135C46.8485 157.707 46.5532 157.412 46.5532 157.047C46.5532 156.681 46.8485 156.386 47.2135 156.386H190.498C190.863 156.386 191.158 156.681 191.158 157.047C191.158 157.412 190.863 157.707 190.498 157.707Z" fill="#624737"/>
<path d="M190.498 186.285H47.2135C46.8485 186.285 46.5532 185.99 46.5532 185.625C46.5532 185.26 46.8485 184.964 47.2135 184.964H190.498C190.863 184.964 191.158 185.26 191.158 185.625C191.158 185.99 190.863 186.285 190.498 186.285Z" fill="#624737"/>
<path d="M190.498 171.996H47.2135C46.8485 171.996 46.5532 171.701 46.5532 171.336C46.5532 170.971 46.8485 170.675 47.2135 170.675H190.498C190.863 170.675 191.158 170.971 191.158 171.336C191.158 171.701 190.863 171.996 190.498 171.996Z" fill="#624737"/>
<path d="M158.132 201.03H47.213C46.848 201.03 46.5527 200.734 46.5527 200.369C46.5527 200.004 46.848 199.709 47.213 199.709H158.132C158.497 199.709 158.792 200.004 158.792 200.369C158.792 200.734 158.497 201.03 158.132 201.03Z" fill="#624737"/>
<path d="M190.498 258.172H47.2135C46.8485 258.172 46.5532 257.877 46.5532 257.512C46.5532 257.147 46.8485 256.852 47.2135 256.852H190.498C190.863 256.852 191.158 257.147 191.158 257.512C191.158 257.877 190.863 258.172 190.498 258.172Z" fill="#624737"/>
<path d="M190.498 286.75H47.2135C46.8485 286.75 46.5532 286.455 46.5532 286.09C46.5532 285.725 46.8485 285.43 47.2135 285.43H190.498C190.863 285.43 191.158 285.725 191.158 286.09C191.158 286.455 190.863 286.75 190.498 286.75Z" fill="#624737"/>
<path d="M190.498 272.461H47.2135C46.8485 272.461 46.5532 272.166 46.5532 271.801C46.5532 271.436 46.8485 271.141 47.2135 271.141H190.498C190.863 271.141 191.158 271.436 191.158 271.801C191.158 272.166 190.863 272.461 190.498 272.461Z" fill="#624737"/>
<path d="M158.132 301.495H47.213C46.848 301.495 46.5527 301.2 46.5527 300.835C46.5527 300.47 46.848 300.175 47.213 300.175H158.132C158.497 300.175 158.792 300.47 158.792 300.835C158.792 301.2 158.497 301.495 158.132 301.495Z" fill="#624737"/>
<path d="M133.135 362.787C155.753 368.022 247.347 393.28 255.69 362.884C261.859 340.403 236.27 331.361 161.886 314.76C156.73 330.653 138.29 346.893 133.135 362.787Z" fill="#FADFD5"/>
<path d="M263.724 256.43C261.552 255.581 258.805 257.06 258.231 257.504C258.051 255.368 257.076 253.264 254.485 252.398C252.185 251.63 249.5 253.61 249.275 253.796C249.211 253.512 249.87 250.593 246.719 248.911C244.589 247.775 242.084 248.734 241.378 249.226C243.498 237.39 243.994 232.929 241.562 232.103C237.293 230.652 227.415 260.034 222.14 281.108C211.057 325.388 206.856 351.141 206.743 351.579C204.698 359.41 242.752 356.086 255.377 362.895C255.56 361.878 260.594 350.638 261.415 286.529C261.501 279.839 265.455 267.753 266.507 263.283C267.08 260.847 266.547 257.534 263.724 256.43Z" fill="#FADFD5"/>
<path d="M245.85 287.657C245.521 287.657 245.235 287.411 245.195 287.076C244.64 282.487 242.539 279.352 240.851 276.833C239.122 274.251 237.628 272.02 239.284 269.678C240.277 268.273 240.772 266.054 240.717 263.262C240.703 262.596 240.254 262.204 239.839 262.059C239.417 261.911 238.811 261.939 238.377 262.462L229.366 273.336C229.135 273.617 228.718 273.657 228.437 273.423C228.156 273.191 228.117 272.774 228.35 272.493L237.361 261.62C238.073 260.76 239.216 260.444 240.274 260.812C241.323 261.178 242.015 262.13 242.037 263.236C242.099 266.356 241.536 268.78 240.362 270.44C239.279 271.972 240.113 273.357 241.949 276.098C243.715 278.734 245.912 282.014 246.506 286.917C246.55 287.279 246.291 287.608 245.93 287.653C245.903 287.656 245.877 287.657 245.85 287.657Z" fill="#363E44"/>
<path d="M262.054 270.989C262.004 270.989 261.954 270.984 261.903 270.971C258.669 270.22 256.349 267.488 255.984 264.324L255.736 264.962C254.83 267.292 252.394 268.641 249.938 268.172C248.556 267.908 247.367 267.115 246.592 265.94C245.817 264.766 245.554 263.362 245.855 261.987L246.179 260.495C245.106 261.345 243.646 261.673 242.254 261.24C240.178 260.595 238.92 258.497 239.329 256.361L240.301 251.282C240.37 250.924 240.711 250.691 241.074 250.758C241.432 250.826 241.667 251.172 241.599 251.531L240.626 256.61C240.344 258.085 241.212 259.534 242.647 259.979C244.167 260.452 245.816 259.608 246.319 258.095L247.444 254.711C247.555 254.379 247.903 254.189 248.245 254.283C248.584 254.376 248.79 254.717 248.716 255.06L247.145 262.268C246.921 263.292 247.116 264.338 247.694 265.213C248.271 266.088 249.156 266.679 250.186 266.875C252.014 267.228 253.83 266.22 254.505 264.484L256.51 259.318C256.632 259.005 256.971 258.83 257.298 258.921C257.624 259.008 257.831 259.328 257.777 259.661L257.333 262.445C256.806 265.748 258.945 268.928 262.202 269.686C262.557 269.769 262.778 270.123 262.695 270.478C262.625 270.783 262.353 270.989 262.054 270.989Z" fill="#363E44"/>
<path d="M147.437 368.268C147.437 368.268 174.935 313.32 173.598 317.291C145.462 286.881 76.5644 301.766 26.8285 310.794C26.4419 310.864 26.0607 310.937 25.6846 311.012C5.24115 315.094 -5.78518 337.485 3.10428 356.342L17.3458 386.551L3.88315 466.029H175.435L147.437 368.268Z" fill="#FBFAF8"/>
<path d="M6.91699 541L31.2943 425.517L46.7396 466.029H151.885L177.018 541H6.91699Z" fill="#8B865C"/>
<path d="M38.2676 313.021C65.0737 307.268 94.4141 297.881 119.554 278.897C119.554 278.897 97.0845 233.942 65.7295 248.222C39.5872 260.129 33.2209 291.766 38.2676 313.021Z" fill="#624737"/>
<path d="M56.2954 259.556C56.2954 259.556 65.5122 248.738 68.1812 241.244C70.8501 233.75 79.6806 224.946 89.2043 230.514C98.728 236.081 82.1424 249.255 82.1424 249.255L56.2954 259.556Z" fill="#624737"/>
<path d="M64.232 253.971C64.232 253.971 54.5346 224.373 43.5676 239.78C32.6002 255.187 58.2334 261.533 64.232 253.971Z" fill="#624737"/>
<path d="M49.9162 260.701C47.9 260.701 45.9446 260.408 44.2539 259.798C38.4904 257.718 36.473 252.644 38.7186 245.876C40.0772 241.783 42.1853 239.497 44.9855 239.081C52.8922 237.903 63.3642 252.572 63.8059 253.197C63.9341 253.378 63.9625 253.611 63.882 253.818C62.1664 258.209 55.7917 260.701 49.9162 260.701ZM45.9425 240.333C45.6841 240.333 45.4293 240.351 45.1783 240.388C42.9121 240.725 41.1603 242.711 39.9718 246.293C37.9544 252.372 39.6346 256.727 44.7025 258.556C51.07 260.855 60.3476 258.253 62.512 253.662C61.0465 251.667 52.4289 240.333 45.9425 240.333Z" fill="#624737"/>
<path d="M67.5234 313.055L72.8833 287.678L89.2728 293.629L91.3629 313.991L67.5234 313.055Z" fill="#FADFD5"/>
<path d="M96.4043 317.499C96.0662 320.329 87.979 321.69 78.3409 320.539C68.7028 319.388 61.1639 316.16 61.5016 313.33C61.8397 310.5 69.9269 309.139 79.565 310.291C89.2034 311.442 96.7424 314.669 96.4043 317.499Z" fill="#FADFD5"/>
<path d="M83.7978 248.011C83.7978 248.011 104.888 279.029 93.5865 290.096C86.7491 296.791 72.993 294.025 68.0542 291.449C63.1154 288.874 59.3184 281.065 59.3184 281.065C59.3184 281.065 63.7026 281.299 64.3967 278.125C65.0908 274.951 54.7925 267.328 63.7846 260.429C72.7771 253.529 76.799 256.402 83.7978 248.011Z" fill="#FADFD5"/>
<path d="M81.9221 295.22C79.1998 295.22 76.5589 294.834 74.4208 294.223C74.0702 294.122 73.8669 293.757 73.9669 293.407C74.0669 293.056 74.4304 292.855 74.7832 292.953C79.1243 294.195 85.6236 294.467 90.3633 292.28C90.6953 292.126 91.0867 292.271 91.2394 292.603C91.3922 292.933 91.2478 293.326 90.9163 293.479C88.2291 294.719 85.0226 295.22 81.9221 295.22Z" fill="#363E44"/>
<path d="M65.8144 280.56C68.4918 282.243 71.3066 287.04 69.6237 289.717C67.9411 292.395 62.398 291.938 59.7206 290.256C57.0432 288.573 56.2371 285.039 57.9197 282.361C59.6026 279.684 63.1373 278.878 65.8144 280.56Z" fill="#FADFD5"/>
<path d="M70.317 269.794C70.3706 269.849 70.3704 269.926 70.4243 269.981C70.4264 269.983 70.429 269.984 70.4314 269.986C70.9115 270.944 71.4157 271.956 71.7125 272.985C71.844 273.441 71.7625 273.819 71.8377 274.263C71.8931 274.588 71.9469 274.899 71.9883 275.222C68.4658 274.763 65.748 272.787 65.748 272.787C65.748 272.787 67.5992 270.942 70.317 269.794Z" fill="#FBFAF8"/>
<path d="M73.7168 268.94C77.8695 268.599 81.5111 270.959 82.1109 271.37C82.1067 271.428 82.1014 271.486 82.0954 271.544C81.4944 272.115 78.3232 274.949 74.2378 275.285C73.4718 275.348 72.7259 275.313 72.0099 275.221C71.8012 275.017 71.6006 274.802 71.4191 274.563C70.345 273.149 70.0042 271.412 70.3231 269.797C71.343 269.373 72.4866 269.041 73.7168 268.94Z" fill="#363E44"/>
<path d="M90.6192 263.366C91.4032 264.36 91.8113 265.257 91.8664 266.469C89.3585 268.148 86.7587 268.638 86.7587 268.638C86.7587 268.638 86.6563 264.674 88.6617 261.302C89.4529 261.797 90.0628 262.66 90.6192 263.366Z" fill="#FBFAF8"/>
<path d="M91.919 266.432C90.013 265.46 88.734 263.51 88.6685 261.305C88.896 260.929 89.1434 260.557 89.4282 260.2C92.2759 256.638 97.0707 255.738 97.0707 255.738C97.0707 255.738 97.2486 260.614 94.4008 264.176C93.6651 265.096 92.7988 265.836 91.919 266.432Z" fill="#363E44"/>
<path d="M62.2188 289.168C62.0975 289.168 61.9744 289.134 61.8648 289.065C61.6714 288.941 61.4857 288.799 61.3135 288.641C59.8789 287.328 59.645 285.239 60.7919 283.984C61.0833 283.666 61.4381 283.426 61.846 283.269C62.187 283.139 62.5688 283.308 62.6991 283.649C62.8299 283.989 62.6599 284.371 62.3194 284.502C62.1041 284.584 61.9178 284.71 61.7663 284.876C61.1105 285.593 61.3072 286.846 62.2053 287.668C62.3215 287.773 62.4452 287.869 62.5742 287.951C62.8818 288.147 62.9719 288.555 62.7767 288.862C62.65 289.06 62.4368 289.168 62.2188 289.168Z" fill="#363E44"/>
<path d="M88.6527 274.879C88.6096 274.879 88.5656 274.875 88.5219 274.866C88.1646 274.794 87.9331 274.446 88.0047 274.088C88.0975 273.626 88.064 273.266 87.9041 273.018C87.7559 272.787 87.5193 272.693 87.0414 272.518C86.6551 272.377 86.1742 272.202 85.6492 271.863C84.9794 271.431 84.4029 270.838 83.9367 270.102C83.7414 269.794 83.8328 269.387 84.1412 269.192C84.4499 268.996 84.8569 269.088 85.0521 269.396C85.4151 269.969 85.8567 270.426 86.3649 270.753C86.7659 271.012 87.136 271.148 87.4944 271.279C88.0469 271.481 88.6189 271.689 89.0141 272.303C89.3663 272.85 89.4621 273.538 89.2992 274.349C89.236 274.662 88.9608 274.879 88.6527 274.879Z" fill="#363E44"/>
<path d="M86.8015 281.954C85.3707 281.954 84.2083 280.898 84.1562 280.849C83.8879 280.602 83.8711 280.184 84.1181 279.916C84.3658 279.648 84.7829 279.632 85.0497 279.877C85.071 279.897 86.0304 280.745 86.9988 280.621C87.5121 280.553 87.955 280.217 88.353 279.595C88.5497 279.288 88.9573 279.198 89.2654 279.394C89.5723 279.591 89.6619 279.999 89.466 280.306C88.8521 281.266 88.0772 281.813 87.1629 281.931C87.0408 281.947 86.9201 281.954 86.8015 281.954Z" fill="#363E44"/>
<path d="M6.07462 352.569L41.4821 420.549C49.3571 437.623 66.1376 449.924 84.9401 449.924H95.9835L95.4633 397.766L50.0704 329.533C43.7472 318.804 30.4612 314.409 18.9866 319.25C6.04049 324.712 0.189837 339.809 6.07462 352.569Z" fill="#FADFD5"/>
<path d="M74.1324 436.903L88.8393 327.558C88.8393 327.558 88.9759 323.366 88.1623 319.172C85.887 307.442 81.2911 286.377 84.8761 285.109C89.7431 283.388 97.3263 310.576 97.3263 310.576C97.3263 310.576 103.843 302.335 109.353 308.939C109.353 308.939 118.166 305.292 120.675 313.204C120.675 313.204 124.351 311.445 128.156 317.404C131.962 323.364 128.832 327.155 128.832 327.155L125.704 327.684C125.704 327.684 129.178 342.658 128.557 344.548C127.935 346.438 142.423 444.361 105.105 449.133C67.7859 453.906 74.1324 436.903 74.1324 436.903Z" fill="#FADFD5"/>
<path d="M86.0283 307.653C85.7052 307.653 85.4228 307.416 85.3752 307.086C85.2114 305.947 85.0386 304.781 84.8647 303.61C83.0251 291.21 82.405 285.282 84.6565 284.486C86.6599 283.773 88.836 286.161 91.4903 291.993C91.6412 292.325 91.4948 292.717 91.1627 292.868C90.8318 293.021 90.4398 292.872 90.2883 292.54C87.1432 285.63 85.5211 285.584 85.0961 285.731C83.6246 286.252 85.2186 296.996 86.1709 303.416C86.3448 304.59 86.5185 305.757 86.6829 306.898C86.7344 307.26 86.4844 307.594 86.1233 307.646C86.0909 307.651 86.0595 307.653 86.0283 307.653Z" fill="#363E44"/>
<path d="M77.4955 412.561C77.4665 412.561 77.4369 412.559 77.4066 412.555C77.0455 412.506 76.7921 412.174 76.8404 411.812L81.0449 380.555C81.0931 380.194 81.4162 379.942 81.7876 379.989C82.1487 380.038 82.402 380.37 82.3538 380.732L78.1492 411.989C78.1046 412.32 77.8211 412.561 77.4955 412.561Z" fill="#363E44"/>
</svg>
