<svg width="385" height="94" viewBox="0 0 385 94" fill="none" xmlns="http://www.w3.org/2000/svg">
<rect width="385" height="94" rx="10" fill="#2A0539"/>
<path d="M130.398 14.94L129.118 19.9H125.958L128.098 14.94H130.398ZM134.738 14.94L133.478 19.9H130.298L132.438 14.94H134.738ZM140.71 29.24C139.643 29.24 138.69 29.02 137.85 28.58C137.023 28.1267 136.376 27.5067 135.91 26.72C135.443 25.92 135.21 25.0133 135.21 24C135.21 22.9733 135.443 22.0667 135.91 21.28C136.376 20.4933 137.016 19.88 137.83 19.44C138.656 18.9867 139.603 18.76 140.67 18.76C141.696 18.76 142.636 19.02 143.49 19.54C144.343 20.06 144.956 20.8133 145.33 21.8L142.37 22.8C142.223 22.48 141.976 22.22 141.63 22.02C141.296 21.8067 140.923 21.7 140.51 21.7C140.096 21.7 139.73 21.8 139.41 22C139.103 22.1867 138.856 22.4533 138.67 22.8C138.496 23.1467 138.41 23.5467 138.41 24C138.41 24.4533 138.496 24.8533 138.67 25.2C138.856 25.5333 139.11 25.8 139.43 26C139.763 26.2 140.136 26.3 140.55 26.3C140.963 26.3 141.336 26.1933 141.67 25.98C142.003 25.7667 142.25 25.4867 142.41 25.14L145.37 26.14C144.983 27.14 144.363 27.9067 143.51 28.44C142.67 28.9733 141.736 29.24 140.71 29.24ZM148.429 33.24C148.003 33.24 147.549 33.16 147.069 33C146.603 32.84 146.209 32.6667 145.889 32.48L147.049 29.94C147.236 30.0733 147.416 30.1733 147.589 30.24C147.776 30.3067 147.943 30.34 148.089 30.34C148.343 30.34 148.569 30.2733 148.769 30.14C148.969 30.02 149.129 29.82 149.249 29.54L150.429 26.76L153.369 19H156.829L152.409 29.6C152.116 30.32 151.809 30.9533 151.489 31.5C151.169 32.0467 150.769 32.4733 150.289 32.78C149.823 33.0867 149.203 33.24 148.429 33.24ZM149.609 29L144.929 19H148.389L151.529 26.76L152.589 29H149.609ZM157.632 29V15H160.752V27.14L160.592 29H157.632ZM163.592 29.24C162.765 29.24 162.072 29.0333 161.512 28.62C160.952 28.1933 160.532 27.5867 160.252 26.8C159.972 26.0133 159.832 25.08 159.832 24C159.832 22.9067 159.972 21.9733 160.252 21.2C160.532 20.4133 160.952 19.8133 161.512 19.4C162.072 18.9733 162.765 18.76 163.592 18.76C164.525 18.76 165.332 18.9733 166.012 19.4C166.692 19.8133 167.212 20.4133 167.572 21.2C167.932 21.9733 168.112 22.9067 168.112 24C168.112 25.08 167.932 26.0133 167.572 26.8C167.212 27.5867 166.692 28.1933 166.012 28.62C165.332 29.0333 164.525 29.24 163.592 29.24ZM162.792 26.36C163.192 26.36 163.545 26.26 163.852 26.06C164.159 25.86 164.405 25.5867 164.592 25.24C164.779 24.88 164.872 24.4667 164.872 24C164.872 23.5333 164.785 23.1267 164.612 22.78C164.439 22.42 164.192 22.14 163.872 21.94C163.565 21.74 163.212 21.64 162.812 21.64C162.412 21.64 162.052 21.74 161.732 21.94C161.425 22.14 161.185 22.42 161.012 22.78C160.839 23.14 160.752 23.5467 160.752 24C160.752 24.4667 160.839 24.88 161.012 25.24C161.185 25.5867 161.425 25.86 161.732 26.06C162.039 26.26 162.392 26.36 162.792 26.36ZM174.174 29.24C173.134 29.24 172.214 29.02 171.414 28.58C170.614 28.1267 169.988 27.5067 169.534 26.72C169.081 25.9333 168.854 25.0267 168.854 24C168.854 22.96 169.081 22.0467 169.534 21.26C170.001 20.4733 170.634 19.86 171.434 19.42C172.234 18.98 173.161 18.76 174.214 18.76C175.161 18.76 176.014 18.9867 176.774 19.44C177.534 19.8933 178.134 20.5667 178.574 21.46C179.028 22.3533 179.254 23.4667 179.254 24.8H171.734L172.074 24.42C172.074 24.8733 172.168 25.2733 172.354 25.62C172.541 25.9667 172.801 26.2333 173.134 26.42C173.468 26.5933 173.841 26.68 174.254 26.68C174.748 26.68 175.161 26.5733 175.494 26.36C175.841 26.1333 176.081 25.8533 176.214 25.52L178.974 26.46C178.708 27.0867 178.328 27.6067 177.834 28.02C177.354 28.4333 176.801 28.74 176.174 28.94C175.548 29.14 174.881 29.24 174.174 29.24ZM172.154 23.12L171.834 22.72H176.314L176.034 23.12C176.034 22.6267 175.934 22.2333 175.734 21.94C175.534 21.6467 175.288 21.44 174.994 21.32C174.701 21.1867 174.408 21.12 174.114 21.12C173.821 21.12 173.521 21.1867 173.214 21.32C172.921 21.44 172.668 21.6467 172.454 21.94C172.254 22.2333 172.154 22.6267 172.154 23.12ZM182.616 23.82C182.616 22.74 182.829 21.84 183.256 21.12C183.696 20.4 184.242 19.86 184.896 19.5C185.562 19.14 186.256 18.96 186.976 18.96V22C186.362 22 185.782 22.0667 185.236 22.2C184.702 22.3333 184.269 22.54 183.936 22.82C183.602 23.0867 183.436 23.4333 183.436 23.86L182.616 23.82ZM180.316 29V19H183.436V29H180.316ZM188.134 33V19H191.074L191.254 20.84V33H188.134ZM194.094 29.24C193.268 29.24 192.574 29.0333 192.014 28.62C191.454 28.1933 191.034 27.5867 190.754 26.8C190.474 26.0133 190.334 25.08 190.334 24C190.334 22.9067 190.474 21.9733 190.754 21.2C191.034 20.4133 191.454 19.8133 192.014 19.4C192.574 18.9733 193.268 18.76 194.094 18.76C195.028 18.76 195.834 18.9733 196.514 19.4C197.194 19.8133 197.714 20.4133 198.074 21.2C198.434 21.9733 198.614 22.9067 198.614 24C198.614 25.08 198.434 26.0133 198.074 26.8C197.714 27.5867 197.194 28.1933 196.514 28.62C195.834 29.0333 195.028 29.24 194.094 29.24ZM193.294 26.36C193.694 26.36 194.048 26.26 194.354 26.06C194.661 25.86 194.908 25.5867 195.094 25.24C195.281 24.88 195.374 24.4667 195.374 24C195.374 23.5333 195.288 23.1267 195.114 22.78C194.941 22.42 194.694 22.14 194.374 21.94C194.068 21.74 193.714 21.64 193.314 21.64C192.914 21.64 192.554 21.74 192.234 21.94C191.928 22.14 191.688 22.42 191.514 22.78C191.341 23.14 191.254 23.5467 191.254 24C191.254 24.4667 191.341 24.88 191.514 25.24C191.688 25.5867 191.928 25.86 192.234 26.06C192.541 26.26 192.894 26.36 193.294 26.36ZM206.374 29L206.194 27.16V19H209.314V29H206.374ZM199.754 24.12V19H202.874V24.12H199.754ZM202.874 24.12C202.874 24.64 202.934 25.06 203.054 25.38C203.174 25.7 203.347 25.9333 203.574 26.08C203.8 26.2267 204.067 26.3067 204.374 26.32C204.974 26.32 205.427 26.1533 205.734 25.82C206.04 25.4733 206.194 24.96 206.194 24.28H207.134C207.134 25.3333 206.974 26.2333 206.654 26.98C206.334 27.7133 205.894 28.2733 205.334 28.66C204.787 29.0467 204.147 29.24 203.414 29.24C202.614 29.24 201.94 29.08 201.394 28.76C200.847 28.4267 200.434 27.9267 200.154 27.26C199.887 26.5933 199.754 25.74 199.754 24.7V24.12H202.874ZM211.109 29V19H214.049L214.229 20.84V29H211.109ZM217.549 29V23.88H220.669V29H217.549ZM217.549 23.88C217.549 23.3467 217.489 22.9267 217.369 22.62C217.249 22.3 217.075 22.0667 216.849 21.92C216.635 21.7733 216.369 21.6933 216.049 21.68C215.449 21.6667 214.995 21.8333 214.689 22.18C214.382 22.5133 214.229 23.0267 214.229 23.72H213.289C213.289 22.6667 213.449 21.7733 213.769 21.04C214.089 20.2933 214.522 19.7267 215.069 19.34C215.629 18.9533 216.275 18.76 217.009 18.76C217.809 18.76 218.482 18.9267 219.029 19.26C219.575 19.58 219.982 20.0733 220.249 20.74C220.529 21.4067 220.669 22.26 220.669 23.3V23.88H217.549ZM225.283 26.78L223.443 24.62L228.463 19H232.123L225.283 26.78ZM222.323 29V15H225.443V29H222.323ZM228.763 29L225.663 24.58L227.703 22.44L232.383 29H228.763ZM237.741 29V19H240.681L240.861 20.84V29H237.741ZM244.181 29V23.88H247.301V29H244.181ZM244.181 23.88C244.181 23.3467 244.121 22.9267 244.001 22.62C243.881 22.3 243.708 22.0667 243.481 21.92C243.268 21.7733 243.001 21.6933 242.681 21.68C242.081 21.6667 241.628 21.8333 241.321 22.18C241.015 22.5133 240.861 23.0267 240.861 23.72H239.921C239.921 22.6667 240.081 21.7733 240.401 21.04C240.721 20.2933 241.155 19.7267 241.701 19.34C242.261 18.9533 242.908 18.76 243.641 18.76C244.441 18.76 245.115 18.9267 245.661 19.26C246.208 19.58 246.615 20.0733 246.881 20.74C247.161 21.4067 247.301 22.26 247.301 23.3V23.88H244.181ZM253.756 29.24C252.716 29.24 251.796 29.02 250.996 28.58C250.196 28.1267 249.57 27.5067 249.116 26.72C248.663 25.9333 248.436 25.0267 248.436 24C248.436 22.96 248.663 22.0467 249.116 21.26C249.583 20.4733 250.216 19.86 251.016 19.42C251.816 18.98 252.743 18.76 253.796 18.76C254.743 18.76 255.596 18.9867 256.356 19.44C257.116 19.8933 257.716 20.5667 258.156 21.46C258.61 22.3533 258.836 23.4667 258.836 24.8H251.316L251.656 24.42C251.656 24.8733 251.75 25.2733 251.936 25.62C252.123 25.9667 252.383 26.2333 252.716 26.42C253.05 26.5933 253.423 26.68 253.836 26.68C254.33 26.68 254.743 26.5733 255.076 26.36C255.423 26.1333 255.663 25.8533 255.796 25.52L258.556 26.46C258.29 27.0867 257.91 27.6067 257.416 28.02C256.936 28.4333 256.383 28.74 255.756 28.94C255.13 29.14 254.463 29.24 253.756 29.24ZM251.736 23.12L251.416 22.72H255.896L255.616 23.12C255.616 22.6267 255.516 22.2333 255.316 21.94C255.116 21.6467 254.87 21.44 254.576 21.32C254.283 21.1867 253.99 21.12 253.696 21.12C253.403 21.12 253.103 21.1867 252.796 21.32C252.503 21.44 252.25 21.6467 252.036 21.94C251.836 22.2333 251.736 22.6267 251.736 23.12ZM264.738 29.24C263.684 29.24 262.758 29.02 261.958 28.58C261.158 28.1267 260.524 27.5067 260.058 26.72C259.604 25.9333 259.378 25.0267 259.378 24C259.378 22.9733 259.598 22.0667 260.038 21.28C260.491 20.4933 261.118 19.88 261.918 19.44C262.731 18.9867 263.651 18.76 264.678 18.76C265.731 18.76 266.658 18.9867 267.458 19.44C268.271 19.88 268.898 20.4933 269.338 21.28C269.791 22.0667 270.018 22.9733 270.018 24C270.018 25.0267 269.791 25.9333 269.338 26.72C268.898 27.5067 268.278 28.1267 267.478 28.58C266.678 29.02 265.764 29.24 264.738 29.24ZM264.738 26.36C265.138 26.36 265.491 26.26 265.798 26.06C266.118 25.86 266.364 25.5867 266.538 25.24C266.724 24.88 266.818 24.4667 266.818 24C266.818 23.5333 266.724 23.1267 266.538 22.78C266.364 22.42 266.118 22.14 265.798 21.94C265.478 21.74 265.111 21.64 264.698 21.64C264.284 21.64 263.918 21.74 263.598 21.94C263.278 22.14 263.024 22.42 262.838 22.78C262.664 23.1267 262.578 23.5333 262.578 24C262.578 24.4667 262.664 24.88 262.838 25.24C263.024 25.5867 263.278 25.86 263.598 26.06C263.931 26.26 264.311 26.36 264.738 26.36ZM271.288 29V19H274.228L274.408 20.84V29H271.288ZM277.728 29V23.88H280.848V29H277.728ZM277.728 23.88C277.728 23.3467 277.668 22.9267 277.548 22.62C277.428 22.3 277.255 22.0667 277.028 21.92C276.815 21.7733 276.548 21.6933 276.228 21.68C275.628 21.6667 275.175 21.8333 274.868 22.18C274.562 22.5133 274.408 23.0267 274.408 23.72H273.468C273.468 22.6667 273.628 21.7733 273.948 21.04C274.268 20.2933 274.702 19.7267 275.248 19.34C275.808 18.9533 276.455 18.76 277.188 18.76C277.988 18.76 278.662 18.9267 279.208 19.26C279.755 19.58 280.162 20.0733 280.428 20.74C280.708 21.4067 280.848 22.26 280.848 23.3V23.88H277.728ZM291.781 29.24C290.727 29.24 289.801 29.02 289.001 28.58C288.201 28.1267 287.567 27.5067 287.101 26.72C286.647 25.9333 286.421 25.0267 286.421 24C286.421 22.9733 286.641 22.0667 287.081 21.28C287.534 20.4933 288.161 19.88 288.961 19.44C289.774 18.9867 290.694 18.76 291.721 18.76C292.774 18.76 293.701 18.9867 294.501 19.44C295.314 19.88 295.941 20.4933 296.381 21.28C296.834 22.0667 297.061 22.9733 297.061 24C297.061 25.0267 296.834 25.9333 296.381 26.72C295.941 27.5067 295.321 28.1267 294.521 28.58C293.721 29.02 292.807 29.24 291.781 29.24ZM291.781 26.36C292.181 26.36 292.534 26.26 292.841 26.06C293.161 25.86 293.407 25.5867 293.581 25.24C293.767 24.88 293.861 24.4667 293.861 24C293.861 23.5333 293.767 23.1267 293.581 22.78C293.407 22.42 293.161 22.14 292.841 21.94C292.521 21.74 292.154 21.64 291.741 21.64C291.327 21.64 290.961 21.74 290.641 21.94C290.321 22.14 290.067 22.42 289.881 22.78C289.707 23.1267 289.621 23.5333 289.621 24C289.621 24.4667 289.707 24.88 289.881 25.24C290.067 25.5867 290.321 25.86 290.641 26.06C290.974 26.26 291.354 26.36 291.781 26.36ZM304.811 29L304.631 27.16V19H307.751V29H304.811ZM298.191 24.12V19H301.311V24.12H298.191ZM301.311 24.12C301.311 24.64 301.371 25.06 301.491 25.38C301.611 25.7 301.785 25.9333 302.011 26.08C302.238 26.2267 302.505 26.3067 302.811 26.32C303.411 26.32 303.865 26.1533 304.171 25.82C304.478 25.4733 304.631 24.96 304.631 24.28H305.571C305.571 25.3333 305.411 26.2333 305.091 26.98C304.771 27.7133 304.331 28.2733 303.771 28.66C303.225 29.0467 302.585 29.24 301.851 29.24C301.051 29.24 300.378 29.08 299.831 28.76C299.285 28.4267 298.871 27.9267 298.591 27.26C298.325 26.5933 298.191 25.74 298.191 24.7V24.12H301.311ZM313.846 29.24C312.659 29.24 311.773 28.96 311.186 28.4C310.613 27.8267 310.326 27.0133 310.326 25.96V15.88H313.446V25.18C313.446 25.58 313.519 25.8733 313.666 26.06C313.813 26.2467 314.039 26.34 314.346 26.34C314.466 26.34 314.606 26.3133 314.766 26.26C314.926 26.1933 315.073 26.1133 315.206 26.02L316.286 28.3C315.966 28.5667 315.579 28.7933 315.126 28.98C314.686 29.1533 314.259 29.24 313.846 29.24ZM308.766 21.62V19H315.726V21.62H308.766ZM318.577 29V18.08C318.577 16.9867 318.864 16.1267 319.437 15.5C320.011 14.8733 320.891 14.56 322.077 14.56C322.517 14.56 322.977 14.64 323.457 14.8C323.937 14.9467 324.351 15.12 324.697 15.32L323.537 17.52C323.377 17.4133 323.217 17.34 323.057 17.3C322.897 17.2467 322.751 17.22 322.617 17.22C322.297 17.22 322.064 17.3333 321.917 17.56C321.771 17.7733 321.697 18.1333 321.697 18.64V29H318.577ZM316.997 21.46V19H323.957V21.46H316.997ZM325.593 29V19H328.713V29H325.593ZM327.153 17.72C326.687 17.72 326.273 17.5467 325.913 17.2C325.567 16.84 325.393 16.4267 325.393 15.96C325.393 15.4667 325.567 15.0533 325.913 14.72C326.273 14.3733 326.687 14.2 327.153 14.2C327.633 14.2 328.047 14.3733 328.393 14.72C328.74 15.0533 328.913 15.4667 328.913 15.96C328.913 16.4267 328.74 16.84 328.393 17.2C328.047 17.5467 327.633 17.72 327.153 17.72ZM334.991 29.24C333.804 29.24 332.917 28.96 332.331 28.4C331.757 27.8267 331.471 27.0133 331.471 25.96V15.88H334.591V25.18C334.591 25.58 334.664 25.8733 334.811 26.06C334.957 26.2467 335.184 26.34 335.491 26.34C335.611 26.34 335.751 26.3133 335.911 26.26C336.071 26.1933 336.217 26.1133 336.351 26.02L337.431 28.3C337.111 28.5667 336.724 28.7933 336.271 28.98C335.831 29.1533 335.404 29.24 334.991 29.24ZM329.911 21.62V19H336.871V21.62H329.911ZM342.482 29.24C341.829 29.24 341.215 29.1467 340.642 28.96C340.082 28.76 339.595 28.4867 339.182 28.14C338.769 27.78 338.462 27.3467 338.262 26.84L340.822 25.76C340.995 26.1067 341.235 26.3667 341.542 26.54C341.849 26.7 342.162 26.78 342.482 26.78C342.815 26.78 343.075 26.7267 343.262 26.62C343.449 26.5 343.542 26.34 343.542 26.14C343.542 25.9267 343.442 25.76 343.242 25.64C343.055 25.52 342.782 25.4133 342.422 25.32L341.562 25.1C340.629 24.86 339.909 24.4667 339.402 23.92C338.909 23.36 338.662 22.7133 338.662 21.98C338.662 20.9533 339.015 20.16 339.722 19.6C340.429 19.04 341.409 18.76 342.662 18.76C343.369 18.76 343.989 18.8533 344.522 19.04C345.069 19.2267 345.522 19.4933 345.882 19.84C346.255 20.1733 346.522 20.5667 346.682 21.02L344.202 22.04C344.109 21.7733 343.915 21.5733 343.622 21.44C343.342 21.2933 343.029 21.22 342.682 21.22C342.389 21.22 342.162 21.2867 342.002 21.42C341.842 21.54 341.762 21.7067 341.762 21.92C341.762 22.08 341.855 22.22 342.042 22.34C342.242 22.4467 342.529 22.5467 342.902 22.64L343.962 22.9C344.589 23.06 345.115 23.3067 345.542 23.64C345.969 23.96 346.289 24.34 346.502 24.78C346.715 25.2067 346.822 25.6667 346.822 26.16C346.822 26.7867 346.635 27.3333 346.262 27.8C345.902 28.2533 345.395 28.6067 344.742 28.86C344.089 29.1133 343.335 29.24 342.482 29.24ZM351.562 19.96L352.842 15H356.002L353.882 19.96H351.562ZM347.222 19.96L348.502 15H351.662L349.542 19.96H347.222Z" fill="#FF4F6A" fill-opacity="0.7"/>
<path d="M138.398 14.94L137.118 19.9H133.958L136.098 14.94H138.398ZM142.738 14.94L141.478 19.9H138.298L140.438 14.94H142.738ZM148.71 29.24C147.643 29.24 146.69 29.02 145.85 28.58C145.023 28.1267 144.376 27.5067 143.91 26.72C143.443 25.92 143.21 25.0133 143.21 24C143.21 22.9733 143.443 22.0667 143.91 21.28C144.376 20.4933 145.016 19.88 145.83 19.44C146.656 18.9867 147.603 18.76 148.67 18.76C149.696 18.76 150.636 19.02 151.49 19.54C152.343 20.06 152.956 20.8133 153.33 21.8L150.37 22.8C150.223 22.48 149.976 22.22 149.63 22.02C149.296 21.8067 148.923 21.7 148.51 21.7C148.096 21.7 147.73 21.8 147.41 22C147.103 22.1867 146.856 22.4533 146.67 22.8C146.496 23.1467 146.41 23.5467 146.41 24C146.41 24.4533 146.496 24.8533 146.67 25.2C146.856 25.5333 147.11 25.8 147.43 26C147.763 26.2 148.136 26.3 148.55 26.3C148.963 26.3 149.336 26.1933 149.67 25.98C150.003 25.7667 150.25 25.4867 150.41 25.14L153.37 26.14C152.983 27.14 152.363 27.9067 151.51 28.44C150.67 28.9733 149.736 29.24 148.71 29.24ZM156.429 33.24C156.003 33.24 155.549 33.16 155.069 33C154.603 32.84 154.209 32.6667 153.889 32.48L155.049 29.94C155.236 30.0733 155.416 30.1733 155.589 30.24C155.776 30.3067 155.943 30.34 156.089 30.34C156.343 30.34 156.569 30.2733 156.769 30.14C156.969 30.02 157.129 29.82 157.249 29.54L158.429 26.76L161.369 19H164.829L160.409 29.6C160.116 30.32 159.809 30.9533 159.489 31.5C159.169 32.0467 158.769 32.4733 158.289 32.78C157.823 33.0867 157.203 33.24 156.429 33.24ZM157.609 29L152.929 19H156.389L159.529 26.76L160.589 29H157.609ZM165.632 29V15H168.752V27.14L168.592 29H165.632ZM171.592 29.24C170.765 29.24 170.072 29.0333 169.512 28.62C168.952 28.1933 168.532 27.5867 168.252 26.8C167.972 26.0133 167.832 25.08 167.832 24C167.832 22.9067 167.972 21.9733 168.252 21.2C168.532 20.4133 168.952 19.8133 169.512 19.4C170.072 18.9733 170.765 18.76 171.592 18.76C172.525 18.76 173.332 18.9733 174.012 19.4C174.692 19.8133 175.212 20.4133 175.572 21.2C175.932 21.9733 176.112 22.9067 176.112 24C176.112 25.08 175.932 26.0133 175.572 26.8C175.212 27.5867 174.692 28.1933 174.012 28.62C173.332 29.0333 172.525 29.24 171.592 29.24ZM170.792 26.36C171.192 26.36 171.545 26.26 171.852 26.06C172.159 25.86 172.405 25.5867 172.592 25.24C172.779 24.88 172.872 24.4667 172.872 24C172.872 23.5333 172.785 23.1267 172.612 22.78C172.439 22.42 172.192 22.14 171.872 21.94C171.565 21.74 171.212 21.64 170.812 21.64C170.412 21.64 170.052 21.74 169.732 21.94C169.425 22.14 169.185 22.42 169.012 22.78C168.839 23.14 168.752 23.5467 168.752 24C168.752 24.4667 168.839 24.88 169.012 25.24C169.185 25.5867 169.425 25.86 169.732 26.06C170.039 26.26 170.392 26.36 170.792 26.36ZM182.174 29.24C181.134 29.24 180.214 29.02 179.414 28.58C178.614 28.1267 177.988 27.5067 177.534 26.72C177.081 25.9333 176.854 25.0267 176.854 24C176.854 22.96 177.081 22.0467 177.534 21.26C178.001 20.4733 178.634 19.86 179.434 19.42C180.234 18.98 181.161 18.76 182.214 18.76C183.161 18.76 184.014 18.9867 184.774 19.44C185.534 19.8933 186.134 20.5667 186.574 21.46C187.028 22.3533 187.254 23.4667 187.254 24.8H179.734L180.074 24.42C180.074 24.8733 180.168 25.2733 180.354 25.62C180.541 25.9667 180.801 26.2333 181.134 26.42C181.468 26.5933 181.841 26.68 182.254 26.68C182.748 26.68 183.161 26.5733 183.494 26.36C183.841 26.1333 184.081 25.8533 184.214 25.52L186.974 26.46C186.708 27.0867 186.328 27.6067 185.834 28.02C185.354 28.4333 184.801 28.74 184.174 28.94C183.548 29.14 182.881 29.24 182.174 29.24ZM180.154 23.12L179.834 22.72H184.314L184.034 23.12C184.034 22.6267 183.934 22.2333 183.734 21.94C183.534 21.6467 183.288 21.44 182.994 21.32C182.701 21.1867 182.408 21.12 182.114 21.12C181.821 21.12 181.521 21.1867 181.214 21.32C180.921 21.44 180.668 21.6467 180.454 21.94C180.254 22.2333 180.154 22.6267 180.154 23.12ZM190.616 23.82C190.616 22.74 190.829 21.84 191.256 21.12C191.696 20.4 192.242 19.86 192.896 19.5C193.562 19.14 194.256 18.96 194.976 18.96V22C194.362 22 193.782 22.0667 193.236 22.2C192.702 22.3333 192.269 22.54 191.936 22.82C191.602 23.0867 191.436 23.4333 191.436 23.86L190.616 23.82ZM188.316 29V19H191.436V29H188.316ZM196.134 33V19H199.074L199.254 20.84V33H196.134ZM202.094 29.24C201.268 29.24 200.574 29.0333 200.014 28.62C199.454 28.1933 199.034 27.5867 198.754 26.8C198.474 26.0133 198.334 25.08 198.334 24C198.334 22.9067 198.474 21.9733 198.754 21.2C199.034 20.4133 199.454 19.8133 200.014 19.4C200.574 18.9733 201.268 18.76 202.094 18.76C203.028 18.76 203.834 18.9733 204.514 19.4C205.194 19.8133 205.714 20.4133 206.074 21.2C206.434 21.9733 206.614 22.9067 206.614 24C206.614 25.08 206.434 26.0133 206.074 26.8C205.714 27.5867 205.194 28.1933 204.514 28.62C203.834 29.0333 203.028 29.24 202.094 29.24ZM201.294 26.36C201.694 26.36 202.048 26.26 202.354 26.06C202.661 25.86 202.908 25.5867 203.094 25.24C203.281 24.88 203.374 24.4667 203.374 24C203.374 23.5333 203.288 23.1267 203.114 22.78C202.941 22.42 202.694 22.14 202.374 21.94C202.068 21.74 201.714 21.64 201.314 21.64C200.914 21.64 200.554 21.74 200.234 21.94C199.928 22.14 199.688 22.42 199.514 22.78C199.341 23.14 199.254 23.5467 199.254 24C199.254 24.4667 199.341 24.88 199.514 25.24C199.688 25.5867 199.928 25.86 200.234 26.06C200.541 26.26 200.894 26.36 201.294 26.36ZM214.374 29L214.194 27.16V19H217.314V29H214.374ZM207.754 24.12V19H210.874V24.12H207.754ZM210.874 24.12C210.874 24.64 210.934 25.06 211.054 25.38C211.174 25.7 211.347 25.9333 211.574 26.08C211.8 26.2267 212.067 26.3067 212.374 26.32C212.974 26.32 213.427 26.1533 213.734 25.82C214.04 25.4733 214.194 24.96 214.194 24.28H215.134C215.134 25.3333 214.974 26.2333 214.654 26.98C214.334 27.7133 213.894 28.2733 213.334 28.66C212.787 29.0467 212.147 29.24 211.414 29.24C210.614 29.24 209.94 29.08 209.394 28.76C208.847 28.4267 208.434 27.9267 208.154 27.26C207.887 26.5933 207.754 25.74 207.754 24.7V24.12H210.874ZM219.109 29V19H222.049L222.229 20.84V29H219.109ZM225.549 29V23.88H228.669V29H225.549ZM225.549 23.88C225.549 23.3467 225.489 22.9267 225.369 22.62C225.249 22.3 225.075 22.0667 224.849 21.92C224.635 21.7733 224.369 21.6933 224.049 21.68C223.449 21.6667 222.995 21.8333 222.689 22.18C222.382 22.5133 222.229 23.0267 222.229 23.72H221.289C221.289 22.6667 221.449 21.7733 221.769 21.04C222.089 20.2933 222.522 19.7267 223.069 19.34C223.629 18.9533 224.275 18.76 225.009 18.76C225.809 18.76 226.482 18.9267 227.029 19.26C227.575 19.58 227.982 20.0733 228.249 20.74C228.529 21.4067 228.669 22.26 228.669 23.3V23.88H225.549ZM233.283 26.78L231.443 24.62L236.463 19H240.123L233.283 26.78ZM230.323 29V15H233.443V29H230.323ZM236.763 29L233.663 24.58L235.703 22.44L240.383 29H236.763ZM245.741 29V19H248.681L248.861 20.84V29H245.741ZM252.181 29V23.88H255.301V29H252.181ZM252.181 23.88C252.181 23.3467 252.121 22.9267 252.001 22.62C251.881 22.3 251.708 22.0667 251.481 21.92C251.268 21.7733 251.001 21.6933 250.681 21.68C250.081 21.6667 249.628 21.8333 249.321 22.18C249.015 22.5133 248.861 23.0267 248.861 23.72H247.921C247.921 22.6667 248.081 21.7733 248.401 21.04C248.721 20.2933 249.155 19.7267 249.701 19.34C250.261 18.9533 250.908 18.76 251.641 18.76C252.441 18.76 253.115 18.9267 253.661 19.26C254.208 19.58 254.615 20.0733 254.881 20.74C255.161 21.4067 255.301 22.26 255.301 23.3V23.88H252.181ZM261.756 29.24C260.716 29.24 259.796 29.02 258.996 28.58C258.196 28.1267 257.57 27.5067 257.116 26.72C256.663 25.9333 256.436 25.0267 256.436 24C256.436 22.96 256.663 22.0467 257.116 21.26C257.583 20.4733 258.216 19.86 259.016 19.42C259.816 18.98 260.743 18.76 261.796 18.76C262.743 18.76 263.596 18.9867 264.356 19.44C265.116 19.8933 265.716 20.5667 266.156 21.46C266.61 22.3533 266.836 23.4667 266.836 24.8H259.316L259.656 24.42C259.656 24.8733 259.75 25.2733 259.936 25.62C260.123 25.9667 260.383 26.2333 260.716 26.42C261.05 26.5933 261.423 26.68 261.836 26.68C262.33 26.68 262.743 26.5733 263.076 26.36C263.423 26.1333 263.663 25.8533 263.796 25.52L266.556 26.46C266.29 27.0867 265.91 27.6067 265.416 28.02C264.936 28.4333 264.383 28.74 263.756 28.94C263.13 29.14 262.463 29.24 261.756 29.24ZM259.736 23.12L259.416 22.72H263.896L263.616 23.12C263.616 22.6267 263.516 22.2333 263.316 21.94C263.116 21.6467 262.87 21.44 262.576 21.32C262.283 21.1867 261.99 21.12 261.696 21.12C261.403 21.12 261.103 21.1867 260.796 21.32C260.503 21.44 260.25 21.6467 260.036 21.94C259.836 22.2333 259.736 22.6267 259.736 23.12ZM272.738 29.24C271.684 29.24 270.758 29.02 269.958 28.58C269.158 28.1267 268.524 27.5067 268.058 26.72C267.604 25.9333 267.378 25.0267 267.378 24C267.378 22.9733 267.598 22.0667 268.038 21.28C268.491 20.4933 269.118 19.88 269.918 19.44C270.731 18.9867 271.651 18.76 272.678 18.76C273.731 18.76 274.658 18.9867 275.458 19.44C276.271 19.88 276.898 20.4933 277.338 21.28C277.791 22.0667 278.018 22.9733 278.018 24C278.018 25.0267 277.791 25.9333 277.338 26.72C276.898 27.5067 276.278 28.1267 275.478 28.58C274.678 29.02 273.764 29.24 272.738 29.24ZM272.738 26.36C273.138 26.36 273.491 26.26 273.798 26.06C274.118 25.86 274.364 25.5867 274.538 25.24C274.724 24.88 274.818 24.4667 274.818 24C274.818 23.5333 274.724 23.1267 274.538 22.78C274.364 22.42 274.118 22.14 273.798 21.94C273.478 21.74 273.111 21.64 272.698 21.64C272.284 21.64 271.918 21.74 271.598 21.94C271.278 22.14 271.024 22.42 270.838 22.78C270.664 23.1267 270.578 23.5333 270.578 24C270.578 24.4667 270.664 24.88 270.838 25.24C271.024 25.5867 271.278 25.86 271.598 26.06C271.931 26.26 272.311 26.36 272.738 26.36ZM279.288 29V19H282.228L282.408 20.84V29H279.288ZM285.728 29V23.88H288.848V29H285.728ZM285.728 23.88C285.728 23.3467 285.668 22.9267 285.548 22.62C285.428 22.3 285.255 22.0667 285.028 21.92C284.815 21.7733 284.548 21.6933 284.228 21.68C283.628 21.6667 283.175 21.8333 282.868 22.18C282.562 22.5133 282.408 23.0267 282.408 23.72H281.468C281.468 22.6667 281.628 21.7733 281.948 21.04C282.268 20.2933 282.702 19.7267 283.248 19.34C283.808 18.9533 284.455 18.76 285.188 18.76C285.988 18.76 286.662 18.9267 287.208 19.26C287.755 19.58 288.162 20.0733 288.428 20.74C288.708 21.4067 288.848 22.26 288.848 23.3V23.88H285.728ZM299.781 29.24C298.727 29.24 297.801 29.02 297.001 28.58C296.201 28.1267 295.567 27.5067 295.101 26.72C294.647 25.9333 294.421 25.0267 294.421 24C294.421 22.9733 294.641 22.0667 295.081 21.28C295.534 20.4933 296.161 19.88 296.961 19.44C297.774 18.9867 298.694 18.76 299.721 18.76C300.774 18.76 301.701 18.9867 302.501 19.44C303.314 19.88 303.941 20.4933 304.381 21.28C304.834 22.0667 305.061 22.9733 305.061 24C305.061 25.0267 304.834 25.9333 304.381 26.72C303.941 27.5067 303.321 28.1267 302.521 28.58C301.721 29.02 300.807 29.24 299.781 29.24ZM299.781 26.36C300.181 26.36 300.534 26.26 300.841 26.06C301.161 25.86 301.407 25.5867 301.581 25.24C301.767 24.88 301.861 24.4667 301.861 24C301.861 23.5333 301.767 23.1267 301.581 22.78C301.407 22.42 301.161 22.14 300.841 21.94C300.521 21.74 300.154 21.64 299.741 21.64C299.327 21.64 298.961 21.74 298.641 21.94C298.321 22.14 298.067 22.42 297.881 22.78C297.707 23.1267 297.621 23.5333 297.621 24C297.621 24.4667 297.707 24.88 297.881 25.24C298.067 25.5867 298.321 25.86 298.641 26.06C298.974 26.26 299.354 26.36 299.781 26.36ZM312.811 29L312.631 27.16V19H315.751V29H312.811ZM306.191 24.12V19H309.311V24.12H306.191ZM309.311 24.12C309.311 24.64 309.371 25.06 309.491 25.38C309.611 25.7 309.785 25.9333 310.011 26.08C310.238 26.2267 310.505 26.3067 310.811 26.32C311.411 26.32 311.865 26.1533 312.171 25.82C312.478 25.4733 312.631 24.96 312.631 24.28H313.571C313.571 25.3333 313.411 26.2333 313.091 26.98C312.771 27.7133 312.331 28.2733 311.771 28.66C311.225 29.0467 310.585 29.24 309.851 29.24C309.051 29.24 308.378 29.08 307.831 28.76C307.285 28.4267 306.871 27.9267 306.591 27.26C306.325 26.5933 306.191 25.74 306.191 24.7V24.12H309.311ZM321.846 29.24C320.659 29.24 319.773 28.96 319.186 28.4C318.613 27.8267 318.326 27.0133 318.326 25.96V15.88H321.446V25.18C321.446 25.58 321.519 25.8733 321.666 26.06C321.813 26.2467 322.039 26.34 322.346 26.34C322.466 26.34 322.606 26.3133 322.766 26.26C322.926 26.1933 323.073 26.1133 323.206 26.02L324.286 28.3C323.966 28.5667 323.579 28.7933 323.126 28.98C322.686 29.1533 322.259 29.24 321.846 29.24ZM316.766 21.62V19H323.726V21.62H316.766ZM326.577 29V18.08C326.577 16.9867 326.864 16.1267 327.437 15.5C328.011 14.8733 328.891 14.56 330.077 14.56C330.517 14.56 330.977 14.64 331.457 14.8C331.937 14.9467 332.351 15.12 332.697 15.32L331.537 17.52C331.377 17.4133 331.217 17.34 331.057 17.3C330.897 17.2467 330.751 17.22 330.617 17.22C330.297 17.22 330.064 17.3333 329.917 17.56C329.771 17.7733 329.697 18.1333 329.697 18.64V29H326.577ZM324.997 21.46V19H331.957V21.46H324.997ZM333.593 29V19H336.713V29H333.593ZM335.153 17.72C334.687 17.72 334.273 17.5467 333.913 17.2C333.567 16.84 333.393 16.4267 333.393 15.96C333.393 15.4667 333.567 15.0533 333.913 14.72C334.273 14.3733 334.687 14.2 335.153 14.2C335.633 14.2 336.047 14.3733 336.393 14.72C336.74 15.0533 336.913 15.4667 336.913 15.96C336.913 16.4267 336.74 16.84 336.393 17.2C336.047 17.5467 335.633 17.72 335.153 17.72ZM342.991 29.24C341.804 29.24 340.917 28.96 340.331 28.4C339.757 27.8267 339.471 27.0133 339.471 25.96V15.88H342.591V25.18C342.591 25.58 342.664 25.8733 342.811 26.06C342.957 26.2467 343.184 26.34 343.491 26.34C343.611 26.34 343.751 26.3133 343.911 26.26C344.071 26.1933 344.217 26.1133 344.351 26.02L345.431 28.3C345.111 28.5667 344.724 28.7933 344.271 28.98C343.831 29.1533 343.404 29.24 342.991 29.24ZM337.911 21.62V19H344.871V21.62H337.911ZM350.482 29.24C349.829 29.24 349.215 29.1467 348.642 28.96C348.082 28.76 347.595 28.4867 347.182 28.14C346.769 27.78 346.462 27.3467 346.262 26.84L348.822 25.76C348.995 26.1067 349.235 26.3667 349.542 26.54C349.849 26.7 350.162 26.78 350.482 26.78C350.815 26.78 351.075 26.7267 351.262 26.62C351.449 26.5 351.542 26.34 351.542 26.14C351.542 25.9267 351.442 25.76 351.242 25.64C351.055 25.52 350.782 25.4133 350.422 25.32L349.562 25.1C348.629 24.86 347.909 24.4667 347.402 23.92C346.909 23.36 346.662 22.7133 346.662 21.98C346.662 20.9533 347.015 20.16 347.722 19.6C348.429 19.04 349.409 18.76 350.662 18.76C351.369 18.76 351.989 18.8533 352.522 19.04C353.069 19.2267 353.522 19.4933 353.882 19.84C354.255 20.1733 354.522 20.5667 354.682 21.02L352.202 22.04C352.109 21.7733 351.915 21.5733 351.622 21.44C351.342 21.2933 351.029 21.22 350.682 21.22C350.389 21.22 350.162 21.2867 350.002 21.42C349.842 21.54 349.762 21.7067 349.762 21.92C349.762 22.08 349.855 22.22 350.042 22.34C350.242 22.4467 350.529 22.5467 350.902 22.64L351.962 22.9C352.589 23.06 353.115 23.3067 353.542 23.64C353.969 23.96 354.289 24.34 354.502 24.78C354.715 25.2067 354.822 25.6667 354.822 26.16C354.822 26.7867 354.635 27.3333 354.262 27.8C353.902 28.2533 353.395 28.6067 352.742 28.86C352.089 29.1133 351.335 29.24 350.482 29.24ZM359.562 19.96L360.842 15H364.002L361.882 19.96H359.562ZM355.222 19.96L356.502 15H359.662L357.542 19.96H355.222Z" fill="#38A5F9" fill-opacity="0.7"/>
<path d="M137.998 14.96L136.758 19.68H134.038L135.998 14.96H137.998ZM141.918 14.96L140.678 19.68H137.958L139.898 14.96H141.918ZM147.888 29.24C146.848 29.24 145.922 29.02 145.108 28.58C144.295 28.1267 143.662 27.5067 143.208 26.72C142.755 25.92 142.528 25.0133 142.528 24C142.528 22.9733 142.755 22.0667 143.208 21.28C143.662 20.4933 144.288 19.88 145.088 19.44C145.888 18.9867 146.808 18.76 147.848 18.76C148.848 18.76 149.762 19.0067 150.588 19.5C151.415 19.9933 152.015 20.7067 152.388 21.64L149.908 22.52C149.722 22.1333 149.428 21.8267 149.028 21.6C148.642 21.36 148.208 21.24 147.728 21.24C147.235 21.24 146.802 21.36 146.428 21.6C146.055 21.8267 145.762 22.1467 145.548 22.56C145.335 22.9733 145.228 23.4533 145.228 24C145.228 24.5467 145.335 25.0267 145.548 25.44C145.762 25.84 146.062 26.16 146.448 26.4C146.835 26.64 147.275 26.76 147.768 26.76C148.248 26.76 148.682 26.6333 149.068 26.38C149.468 26.1267 149.762 25.7933 149.948 25.38L152.448 26.26C152.062 27.2067 151.455 27.94 150.628 28.46C149.815 28.98 148.902 29.24 147.888 29.24ZM155.287 33.24C154.927 33.24 154.527 33.1667 154.087 33.02C153.661 32.8867 153.281 32.7267 152.947 32.54L153.927 30.4C154.154 30.52 154.361 30.6133 154.547 30.68C154.747 30.76 154.921 30.8 155.067 30.8C155.347 30.8 155.594 30.72 155.807 30.56C156.021 30.4133 156.194 30.1933 156.327 29.9L157.507 27.12L160.687 19H163.587L159.047 29.86C158.767 30.5267 158.474 31.1133 158.167 31.62C157.861 32.14 157.481 32.54 157.027 32.82C156.587 33.1 156.007 33.24 155.287 33.24ZM156.807 29L152.227 19H155.127L158.467 27.12L159.327 29H156.807ZM164.561 29V15H167.201V27.14L167.061 29H164.561ZM170.221 29.24C169.381 29.24 168.667 29.0267 168.081 28.6C167.507 28.1733 167.067 27.5667 166.761 26.78C166.454 25.9933 166.301 25.0667 166.301 24C166.301 22.92 166.454 21.9933 166.761 21.22C167.067 20.4333 167.507 19.8267 168.081 19.4C168.667 18.9733 169.381 18.76 170.221 18.76C171.141 18.76 171.934 18.9733 172.601 19.4C173.281 19.8267 173.807 20.4333 174.181 21.22C174.554 21.9933 174.741 22.92 174.741 24C174.741 25.0667 174.554 25.9933 174.181 26.78C173.807 27.5667 173.281 28.1733 172.601 28.6C171.934 29.0267 171.141 29.24 170.221 29.24ZM169.541 26.82C170.021 26.82 170.441 26.7 170.801 26.46C171.174 26.22 171.467 25.8867 171.681 25.46C171.894 25.0333 172.001 24.5467 172.001 24C172.001 23.4533 171.894 22.9667 171.681 22.54C171.481 22.1133 171.194 21.7867 170.821 21.56C170.461 21.32 170.041 21.2 169.561 21.2C169.107 21.2 168.701 21.32 168.341 21.56C167.981 21.8 167.701 22.1333 167.501 22.56C167.301 22.9733 167.201 23.4533 167.201 24C167.201 24.5467 167.301 25.0333 167.501 25.46C167.701 25.8867 167.974 26.22 168.321 26.46C168.681 26.7 169.087 26.82 169.541 26.82ZM180.745 29.24C179.758 29.24 178.885 29.02 178.125 28.58C177.365 28.1267 176.765 27.5067 176.325 26.72C175.898 25.9333 175.685 25.0267 175.685 24C175.685 22.9733 175.905 22.0667 176.345 21.28C176.798 20.4933 177.411 19.88 178.185 19.44C178.971 18.9867 179.871 18.76 180.885 18.76C181.765 18.76 182.571 18.9933 183.305 19.46C184.051 19.9133 184.645 20.5867 185.085 21.48C185.538 22.36 185.765 23.4333 185.765 24.7H178.185L178.425 24.46C178.425 24.9533 178.545 25.3867 178.785 25.76C179.038 26.12 179.358 26.4 179.745 26.6C180.145 26.7867 180.571 26.88 181.025 26.88C181.571 26.88 182.018 26.7667 182.365 26.54C182.711 26.3 182.978 25.9933 183.165 25.62L185.525 26.54C185.245 27.1 184.878 27.5867 184.425 28C183.985 28.4 183.458 28.7067 182.845 28.92C182.231 29.1333 181.531 29.24 180.745 29.24ZM178.565 22.98L178.325 22.74H183.145L182.925 22.98C182.925 22.5 182.811 22.12 182.585 21.84C182.358 21.5467 182.078 21.3333 181.745 21.2C181.425 21.0667 181.111 21 180.805 21C180.498 21 180.171 21.0667 179.825 21.2C179.478 21.3333 179.178 21.5467 178.925 21.84C178.685 22.12 178.565 22.5 178.565 22.98ZM188.909 23.74C188.909 22.66 189.116 21.7667 189.529 21.06C189.956 20.3533 190.496 19.8267 191.149 19.48C191.816 19.1333 192.509 18.96 193.229 18.96V21.52C192.616 21.52 192.036 21.5933 191.489 21.74C190.956 21.8867 190.522 22.1267 190.189 22.46C189.856 22.7933 189.689 23.22 189.689 23.74H188.909ZM187.049 29V19H189.689V29H187.049ZM194.477 33V19H196.957L197.117 20.84V33H194.477ZM200.137 29.24C199.297 29.24 198.584 29.0267 197.997 28.6C197.424 28.1733 196.984 27.5667 196.677 26.78C196.37 25.9933 196.217 25.0667 196.217 24C196.217 22.92 196.37 21.9933 196.677 21.22C196.984 20.4333 197.424 19.8267 197.997 19.4C198.584 18.9733 199.297 18.76 200.137 18.76C201.057 18.76 201.85 18.9733 202.517 19.4C203.197 19.8267 203.724 20.4333 204.097 21.22C204.47 21.9933 204.657 22.92 204.657 24C204.657 25.0667 204.47 25.9933 204.097 26.78C203.724 27.5667 203.197 28.1733 202.517 28.6C201.85 29.0267 201.057 29.24 200.137 29.24ZM199.457 26.82C199.937 26.82 200.357 26.7 200.717 26.46C201.09 26.22 201.384 25.8867 201.597 25.46C201.81 25.0333 201.917 24.5467 201.917 24C201.917 23.4533 201.81 22.9667 201.597 22.54C201.397 22.1133 201.11 21.7867 200.737 21.56C200.377 21.32 199.957 21.2 199.477 21.2C199.024 21.2 198.617 21.32 198.257 21.56C197.897 21.8 197.617 22.1333 197.417 22.56C197.217 22.9733 197.117 23.4533 197.117 24C197.117 24.5467 197.217 25.0333 197.417 25.46C197.617 25.8867 197.89 26.22 198.237 26.46C198.597 26.7 199.004 26.82 199.457 26.82ZM212.739 29L212.579 27.16V19H215.219V29H212.739ZM205.959 24.12V19H208.599V24.12H205.959ZM208.599 24.12C208.599 24.7867 208.672 25.3133 208.819 25.7C208.979 26.0733 209.199 26.3467 209.479 26.52C209.772 26.68 210.099 26.76 210.459 26.76C211.152 26.7733 211.679 26.5667 212.039 26.14C212.399 25.7 212.579 25.0667 212.579 24.24H213.479C213.479 25.3067 213.319 26.2133 212.999 26.96C212.679 27.6933 212.239 28.26 211.679 28.66C211.119 29.0467 210.459 29.24 209.699 29.24C208.899 29.24 208.219 29.08 207.659 28.76C207.099 28.44 206.672 27.9467 206.379 27.28C206.099 26.6 205.959 25.7267 205.959 24.66V24.12H208.599ZM217.256 29V19H219.736L219.896 20.84V29H217.256ZM223.876 29V23.88H226.516V29H223.876ZM223.876 23.88C223.876 23.2 223.796 22.6733 223.636 22.3C223.489 21.9267 223.276 21.66 222.996 21.5C222.716 21.3267 222.389 21.24 222.016 21.24C221.336 21.2267 220.809 21.4333 220.436 21.86C220.076 22.2867 219.896 22.92 219.896 23.76H219.016C219.016 22.6933 219.169 21.7933 219.476 21.06C219.796 20.3133 220.236 19.7467 220.796 19.36C221.369 18.96 222.036 18.76 222.796 18.76C223.583 18.76 224.256 18.92 224.816 19.24C225.376 19.56 225.803 20.06 226.096 20.74C226.389 21.4067 226.529 22.2733 226.516 23.34V23.88H223.876ZM230.893 26.46L229.313 24.64L234.433 19H237.573L230.893 26.46ZM228.373 29V15H231.013V29H228.373ZM234.773 29L231.453 24.16L233.173 22.34L237.873 29H234.773ZM243.4 29V19H245.88L246.04 20.84V29H243.4ZM250.02 29V23.88H252.66V29H250.02ZM250.02 23.88C250.02 23.2 249.94 22.6733 249.78 22.3C249.634 21.9267 249.42 21.66 249.14 21.5C248.86 21.3267 248.534 21.24 248.16 21.24C247.48 21.2267 246.954 21.4333 246.58 21.86C246.22 22.2867 246.04 22.92 246.04 23.76H245.16C245.16 22.6933 245.314 21.7933 245.62 21.06C245.94 20.3133 246.38 19.7467 246.94 19.36C247.514 18.96 248.18 18.76 248.94 18.76C249.727 18.76 250.4 18.92 250.96 19.24C251.52 19.56 251.947 20.06 252.24 20.74C252.534 21.4067 252.674 22.2733 252.66 23.34V23.88H250.02ZM259.038 29.24C258.051 29.24 257.178 29.02 256.418 28.58C255.658 28.1267 255.058 27.5067 254.618 26.72C254.191 25.9333 253.978 25.0267 253.978 24C253.978 22.9733 254.198 22.0667 254.638 21.28C255.091 20.4933 255.704 19.88 256.478 19.44C257.264 18.9867 258.164 18.76 259.178 18.76C260.058 18.76 260.864 18.9933 261.598 19.46C262.344 19.9133 262.938 20.5867 263.378 21.48C263.831 22.36 264.058 23.4333 264.058 24.7H256.478L256.718 24.46C256.718 24.9533 256.838 25.3867 257.078 25.76C257.331 26.12 257.651 26.4 258.038 26.6C258.438 26.7867 258.864 26.88 259.318 26.88C259.864 26.88 260.311 26.7667 260.658 26.54C261.004 26.3 261.271 25.9933 261.458 25.62L263.818 26.54C263.538 27.1 263.171 27.5867 262.718 28C262.278 28.4 261.751 28.7067 261.138 28.92C260.524 29.1333 259.824 29.24 259.038 29.24ZM256.858 22.98L256.618 22.74H261.438L261.218 22.98C261.218 22.5 261.104 22.12 260.878 21.84C260.651 21.5467 260.371 21.3333 260.038 21.2C259.718 21.0667 259.404 21 259.098 21C258.791 21 258.464 21.0667 258.118 21.2C257.771 21.3333 257.471 21.5467 257.218 21.84C256.978 22.12 256.858 22.5 256.858 22.98ZM270.042 29.24C269.029 29.24 268.122 29.02 267.322 28.58C266.535 28.1267 265.915 27.5067 265.462 26.72C265.022 25.9333 264.802 25.0267 264.802 24C264.802 22.9733 265.022 22.0667 265.462 21.28C265.902 20.4933 266.515 19.88 267.302 19.44C268.089 18.9867 268.989 18.76 270.002 18.76C271.029 18.76 271.935 18.9867 272.722 19.44C273.509 19.88 274.122 20.4933 274.562 21.28C275.002 22.0667 275.222 22.9733 275.222 24C275.222 25.0267 275.002 25.9333 274.562 26.72C274.122 27.5067 273.509 28.1267 272.722 28.58C271.949 29.02 271.055 29.24 270.042 29.24ZM270.042 26.8C270.535 26.8 270.969 26.68 271.342 26.44C271.715 26.2 272.002 25.8733 272.202 25.46C272.415 25.0333 272.522 24.5467 272.522 24C272.522 23.4533 272.415 22.9733 272.202 22.56C271.989 22.1333 271.689 21.8 271.302 21.56C270.929 21.32 270.495 21.2 270.002 21.2C269.522 21.2 269.089 21.32 268.702 21.56C268.329 21.8 268.035 22.1333 267.822 22.56C267.609 22.9733 267.502 23.4533 267.502 24C267.502 24.5467 267.609 25.0333 267.822 25.46C268.035 25.8733 268.335 26.2 268.722 26.44C269.109 26.68 269.549 26.8 270.042 26.8ZM276.713 29V19H279.193L279.353 20.84V29H276.713ZM283.333 29V23.88H285.973V29H283.333ZM283.333 23.88C283.333 23.2 283.253 22.6733 283.093 22.3C282.946 21.9267 282.733 21.66 282.453 21.5C282.173 21.3267 281.846 21.24 281.473 21.24C280.793 21.2267 280.266 21.4333 279.893 21.86C279.533 22.2867 279.353 22.92 279.353 23.76H278.473C278.473 22.6933 278.626 21.7933 278.933 21.06C279.253 20.3133 279.693 19.7467 280.253 19.36C280.826 18.96 281.493 18.76 282.253 18.76C283.04 18.76 283.713 18.92 284.273 19.24C284.833 19.56 285.26 20.06 285.553 20.74C285.846 21.4067 285.986 22.2733 285.973 23.34V23.88H283.333ZM297.046 29.24C296.032 29.24 295.126 29.02 294.326 28.58C293.539 28.1267 292.919 27.5067 292.466 26.72C292.026 25.9333 291.806 25.0267 291.806 24C291.806 22.9733 292.026 22.0667 292.466 21.28C292.906 20.4933 293.519 19.88 294.306 19.44C295.092 18.9867 295.992 18.76 297.006 18.76C298.032 18.76 298.939 18.9867 299.726 19.44C300.512 19.88 301.126 20.4933 301.566 21.28C302.006 22.0667 302.226 22.9733 302.226 24C302.226 25.0267 302.006 25.9333 301.566 26.72C301.126 27.5067 300.512 28.1267 299.726 28.58C298.952 29.02 298.059 29.24 297.046 29.24ZM297.046 26.8C297.539 26.8 297.972 26.68 298.346 26.44C298.719 26.2 299.006 25.8733 299.206 25.46C299.419 25.0333 299.526 24.5467 299.526 24C299.526 23.4533 299.419 22.9733 299.206 22.56C298.992 22.1333 298.692 21.8 298.306 21.56C297.932 21.32 297.499 21.2 297.006 21.2C296.526 21.2 296.092 21.32 295.706 21.56C295.332 21.8 295.039 22.1333 294.826 22.56C294.612 22.9733 294.506 23.4533 294.506 24C294.506 24.5467 294.612 25.0333 294.826 25.46C295.039 25.8733 295.339 26.2 295.726 26.44C296.112 26.68 296.552 26.8 297.046 26.8ZM310.317 29L310.157 27.16V19H312.797V29H310.317ZM303.537 24.12V19H306.177V24.12H303.537ZM306.177 24.12C306.177 24.7867 306.25 25.3133 306.397 25.7C306.557 26.0733 306.777 26.3467 307.057 26.52C307.35 26.68 307.677 26.76 308.037 26.76C308.73 26.7733 309.257 26.5667 309.617 26.14C309.977 25.7 310.157 25.0667 310.157 24.24H311.057C311.057 25.3067 310.897 26.2133 310.577 26.96C310.257 27.6933 309.817 28.26 309.257 28.66C308.697 29.0467 308.037 29.24 307.277 29.24C306.477 29.24 305.797 29.08 305.237 28.76C304.677 28.44 304.25 27.9467 303.957 27.28C303.677 26.6 303.537 25.7267 303.537 24.66V24.12H306.177ZM318.954 29.24C317.847 29.24 317.007 28.9667 316.434 28.42C315.874 27.8733 315.594 27.0933 315.594 26.08V15.88H318.234V25.5C318.234 25.9267 318.327 26.2533 318.514 26.48C318.701 26.6933 318.974 26.8 319.334 26.8C319.467 26.8 319.614 26.7733 319.774 26.72C319.934 26.6533 320.101 26.56 320.274 26.44L321.194 28.42C320.874 28.66 320.514 28.8533 320.114 29C319.727 29.16 319.341 29.24 318.954 29.24ZM313.974 21.24V19H320.734V21.24H313.974ZM323.631 29V18C323.631 16.9333 323.904 16.1067 324.451 15.52C324.998 14.92 325.831 14.62 326.951 14.62C327.338 14.62 327.744 14.6867 328.171 14.82C328.611 14.9533 329.011 15.1133 329.371 15.3L328.391 17.2C328.178 17.0933 327.984 17.0133 327.811 16.96C327.638 16.9067 327.478 16.88 327.331 16.88C326.971 16.88 326.704 17.0067 326.531 17.26C326.358 17.5 326.271 17.8933 326.271 18.44V29H323.631ZM321.971 21.12V19H328.731V21.12H321.971ZM330.393 29V19H333.033V29H330.393ZM331.713 17.38C331.313 17.38 330.959 17.2333 330.653 16.94C330.346 16.6333 330.193 16.2733 330.193 15.86C330.193 15.4467 330.346 15.0933 330.653 14.8C330.959 14.4933 331.313 14.34 331.713 14.34C332.126 14.34 332.479 14.4933 332.773 14.8C333.079 15.0933 333.233 15.4467 333.233 15.86C333.233 16.2733 333.079 16.6333 332.773 16.94C332.479 17.2333 332.126 17.38 331.713 17.38ZM339.337 29.24C338.23 29.24 337.39 28.9667 336.817 28.42C336.257 27.8733 335.977 27.0933 335.977 26.08V15.88H338.617V25.5C338.617 25.9267 338.71 26.2533 338.897 26.48C339.084 26.6933 339.357 26.8 339.717 26.8C339.85 26.8 339.997 26.7733 340.157 26.72C340.317 26.6533 340.484 26.56 340.657 26.44L341.577 28.42C341.257 28.66 340.897 28.8533 340.497 29C340.11 29.16 339.724 29.24 339.337 29.24ZM334.357 21.24V19H341.117V21.24H334.357ZM346.754 29.24C346.114 29.24 345.514 29.1467 344.954 28.96C344.394 28.76 343.9 28.48 343.474 28.12C343.047 27.7467 342.714 27.2933 342.474 26.76L344.734 25.72C344.934 26.04 345.207 26.32 345.554 26.56C345.9 26.7867 346.3 26.9 346.754 26.9C347.194 26.9 347.534 26.84 347.774 26.72C348.014 26.5867 348.134 26.4 348.134 26.16C348.134 25.92 348.034 25.7467 347.834 25.64C347.647 25.52 347.387 25.42 347.054 25.34L346.134 25.1C345.174 24.8467 344.414 24.4467 343.854 23.9C343.307 23.34 343.034 22.7 343.034 21.98C343.034 20.9533 343.36 20.16 344.014 19.6C344.68 19.04 345.62 18.76 346.834 18.76C347.46 18.76 348.04 18.8533 348.574 19.04C349.12 19.2267 349.587 19.4867 349.974 19.82C350.36 20.1533 350.627 20.54 350.774 20.98L348.594 21.98C348.5 21.7133 348.274 21.5 347.914 21.34C347.554 21.1667 347.194 21.08 346.834 21.08C346.474 21.08 346.194 21.16 345.994 21.32C345.807 21.4667 345.714 21.6733 345.714 21.94C345.714 22.1133 345.807 22.26 345.994 22.38C346.18 22.4867 346.447 22.58 346.794 22.66L348.094 22.98C348.747 23.14 349.267 23.4 349.654 23.76C350.054 24.1067 350.34 24.5 350.514 24.94C350.7 25.3667 350.794 25.7867 350.794 26.2C350.794 26.8 350.614 27.3333 350.254 27.8C349.907 28.2533 349.427 28.6067 348.814 28.86C348.214 29.1133 347.527 29.24 346.754 29.24ZM355.12 19.72L356.34 15H359.08L357.12 19.72H355.12ZM351.2 19.72L352.42 15H355.16L353.2 19.72H351.2Z" fill="white"/>
<path d="M61.5142 16H19.0685V32.8246H61.5142V16Z" fill="#7DA6E5"/>
<path d="M71.7601 16H66.881V32.8246H71.7601V16Z" fill="#7DA6E5"/>
<path d="M81.6577 16H76.7785V32.8246H81.6577V16Z" fill="#7DA6E5"/>
<path d="M91.5532 16H86.6741V32.8246H91.5532V16Z" fill="#7DA6E5"/>
<path d="M101.451 16H96.5717V32.8246H101.451V16Z" fill="#7DA6E5"/>
<path d="M111.348 16H106.469V32.8246H111.348V16Z" fill="#7DA6E5"/>
<path d="M338.85 57.0664L315.655 82.5734H336.154L359.349 57.0664H338.85Z" stroke="#E93571" stroke-width="1.2196" stroke-miterlimit="10"/>
<path d="M311.511 57.0664L288.316 82.5734H308.814L332.01 57.0664H311.511Z" stroke="#E93571" stroke-width="1.2196" stroke-miterlimit="10"/>
<path d="M174.812 56.7168L151.617 82.2238H172.116L195.311 56.7168H174.812Z" stroke="#E93571" stroke-width="1.2196" stroke-miterlimit="10"/>
<path d="M202.152 57.0664L178.957 82.5734H199.456L222.651 57.0664H202.152Z" stroke="#E93571" stroke-width="1.2196" stroke-miterlimit="10"/>
<path d="M147.473 56.7168L124.277 82.2238H144.778L167.971 56.7168H147.473Z" stroke="#E93571" stroke-width="1.2196" stroke-miterlimit="10"/>
<path d="M120.133 56.7168L96.9375 82.2238H117.436L140.632 56.7168H120.133Z" stroke="#E93571" stroke-width="1.2196" stroke-miterlimit="10"/>
<path d="M284.171 56.334L260.976 81.8409H281.475L304.67 56.334H284.171Z" stroke="#E93571" stroke-width="1.2196" stroke-miterlimit="10"/>
<path d="M256.831 56.334L233.636 81.8409H254.137L277.33 56.334H256.831Z" stroke="#E93571" stroke-width="1.2196" stroke-miterlimit="10"/>
<path d="M229.492 56.334L206.296 81.8409H226.795L249.99 56.334H229.492Z" stroke="#E93571" stroke-width="1.2196" stroke-miterlimit="10"/>
<path d="M92.7931 56.7168L69.5979 82.2238H90.0968L113.292 56.7168H92.7931Z" stroke="#E93571" stroke-width="1.2196" stroke-miterlimit="10"/>
<path d="M65.4534 56.7168L42.2581 82.2238H62.7587L85.9523 56.7168H65.4534Z" stroke="#E93571" stroke-width="1.2196" stroke-miterlimit="10"/>
<path d="M38.1952 56.7168L15 82.2238H35.5006L58.6941 56.7168H38.1952Z" stroke="#E93571" stroke-width="1.2196" stroke-miterlimit="10"/>
<path d="M362.127 61.5332L342.995 82.5752H362.127V61.5332Z" stroke="#E93571" stroke-width="1.2196" stroke-miterlimit="10"/>
<path d="M365 47.5344L353.989 38.7344H18.9193V47.5344H365Z" fill="white"/>
</svg>
