<svg width="604" height="604" viewBox="0 0 604 604" fill="none" xmlns="http://www.w3.org/2000/svg">
<g clip-path="url(#clip0_1154_5460)">
<path d="M521.606 324.399C521.601 324.395 521.596 324.31 521.59 324.147C521.587 323.962 521.582 323.729 521.575 323.432C521.567 322.777 521.557 321.858 521.543 320.675C521.526 318.245 521.502 314.735 521.472 310.283C521.438 301.347 521.391 288.638 521.333 273.4L521.605 273.672C506.775 273.684 489.281 273.698 470.613 273.714C470.538 273.781 471.204 273.122 470.922 273.409V273.422V273.45V273.504V273.613V273.831V274.269V275.142V276.883C470.922 278.04 470.922 279.194 470.922 280.341C470.921 282.636 470.921 284.91 470.92 287.159C470.917 291.658 470.914 296.06 470.911 300.342C470.9 308.903 470.889 316.983 470.88 324.398L470.608 324.126C485.847 324.183 498.557 324.232 507.492 324.265C511.943 324.296 515.453 324.32 517.883 324.337C519.066 324.35 519.985 324.361 520.639 324.368C520.934 324.374 521.168 324.379 521.352 324.384C521.517 324.389 521.601 324.395 521.606 324.399C521.611 324.404 521.537 324.409 521.385 324.415C521.207 324.419 520.984 324.425 520.7 324.431C520.057 324.438 519.156 324.449 517.997 324.462C515.581 324.479 512.092 324.503 507.667 324.533C498.69 324.567 485.921 324.614 470.609 324.672L470.337 324.674V324.401C470.328 316.987 470.317 308.907 470.306 300.345C470.304 296.062 470.301 291.66 470.298 287.162C470.296 284.912 470.296 282.639 470.295 280.344C470.295 279.196 470.295 278.044 470.295 276.885V275.144V274.271V273.834V273.615V273.506V273.452V273.424V273.411C470.015 273.688 470.677 273.017 470.614 273.087C489.282 273.103 506.777 273.117 521.606 273.129H521.879L521.878 273.401C521.821 288.71 521.773 301.48 521.739 310.458C521.709 314.883 521.685 318.371 521.668 320.789C521.654 321.948 521.644 322.851 521.636 323.492C521.63 323.776 521.625 324 521.621 324.177C521.617 324.329 521.611 324.404 521.606 324.399Z" fill="#E0E0E0"/>
<path d="M521.772 297.806C521.772 297.98 510.202 298.12 495.935 298.12C481.662 298.12 470.096 297.979 470.096 297.806C470.096 297.634 481.662 297.492 495.935 297.492C510.202 297.491 521.772 297.632 521.772 297.806Z" fill="#E0E0E0"/>
<path d="M496.343 274.293C496.517 274.293 496.657 285.678 496.657 299.719C496.657 313.764 496.516 325.147 496.343 325.147C496.169 325.147 496.029 313.764 496.029 299.719C496.029 285.677 496.171 274.293 496.343 274.293Z" fill="#E0E0E0"/>
<path d="M496.076 272.644C496.071 272.665 495.922 272.651 495.642 272.604C495.361 272.562 494.95 272.476 494.427 272.342C493.382 272.071 491.878 271.605 490.132 270.758C488.386 269.923 486.396 268.703 484.462 267.007C483.517 266.134 482.499 265.263 481.699 264.023C481.318 263.404 481.058 262.625 481.139 261.828C481.187 261.037 481.676 260.204 482.466 259.852C483.255 259.492 484.103 259.603 484.814 259.823C485.535 260.049 486.189 260.397 486.775 260.803C487.935 261.589 488.981 262.451 489.906 263.342C491.762 265.125 493.145 267.005 494.124 268.677C495.1 270.353 495.692 271.813 496.037 272.836C496.216 273.346 496.323 273.751 496.391 274.028C496.459 274.305 496.485 274.452 496.464 274.458C496.339 274.506 495.751 272.16 493.743 268.909C492.733 267.295 491.343 265.483 489.508 263.765C488.593 262.905 487.564 262.075 486.43 261.315C485.878 260.937 485.273 260.623 484.63 260.424C483.995 260.225 483.294 260.163 482.733 260.425C482.166 260.683 481.812 261.256 481.763 261.89C481.698 262.525 481.895 263.156 482.23 263.709C482.922 264.809 483.943 265.724 484.847 266.575C486.716 268.256 488.639 269.49 490.332 270.361C493.731 272.106 496.114 272.517 496.076 272.644Z" fill="#E0E0E0"/>
<path d="M496.007 272.916C495.969 272.91 496.012 272.296 496.184 271.199C496.355 270.102 496.656 268.52 497.164 266.597C497.675 264.676 498.402 262.414 499.417 259.984C499.923 258.769 500.501 257.512 501.157 256.237C501.501 255.595 501.892 254.91 502.603 254.436C503.302 253.925 504.466 254.043 505.028 254.769C506.111 256.193 505.818 257.886 505.648 259.268C505.44 260.703 505.066 262.058 504.574 263.294C503.605 265.775 502.23 267.778 500.878 269.252C499.531 270.739 498.214 271.709 497.269 272.296C496.805 272.605 496.413 272.792 496.152 272.925C495.89 273.056 495.747 273.115 495.736 273.096C495.641 272.968 497.963 271.935 500.544 268.956C501.823 267.478 503.122 265.503 504.032 263.086C504.494 261.883 504.845 260.567 505.037 259.179C505.12 258.491 505.225 257.76 505.184 257.08C505.134 256.396 504.959 255.673 504.55 255.179C504.151 254.689 503.452 254.614 502.937 254.962C502.406 255.307 502.02 255.919 501.701 256.519C501.047 257.776 500.464 259.013 499.949 260.209C498.916 262.601 498.152 264.824 497.591 266.715C497.032 268.607 496.668 270.164 496.424 271.243C496.18 272.323 496.056 272.923 496.007 272.916Z" fill="#E0E0E0"/>
<path d="M355.536 421.424L362.337 472.993H311.914L319.26 421.424H355.536Z" fill="#E0E0E0"/>
<path d="M323.355 428.909C323.46 428.863 323.884 431.033 325.872 433.816C326.87 435.183 328.312 436.657 330.274 437.731C332.223 438.818 334.676 439.428 337.266 439.427C339.854 439.451 342.318 438.928 344.286 437.877C346.274 436.85 347.678 435.32 348.627 433.927C350.508 431.072 350.785 428.865 350.896 428.909C350.938 428.914 350.907 429.457 350.657 430.398C350.404 431.335 349.934 432.684 348.999 434.171C348.068 435.641 346.635 437.278 344.563 438.387C342.511 439.52 339.932 440.083 337.259 440.056C334.584 440.059 332.016 439.405 329.993 438.238C327.955 437.086 326.488 435.513 325.509 434.073C324.523 432.624 323.983 431.304 323.68 430.383C323.379 429.455 323.314 428.916 323.355 428.909Z" fill="white"/>
<path d="M274.956 55.7374C274.937 55.77 275.442 55.2216 276.621 55.369C277.202 55.4354 277.843 55.7712 278.576 56.1312C279.323 56.4972 280.176 56.9164 281.134 57.3851C285.007 59.307 290.554 62.0589 297.392 65.4533C300.823 67.1663 304.577 69.0411 308.606 71.0524C309.614 71.5562 310.638 72.0683 311.679 72.589C312.2 72.8499 312.724 73.1121 313.253 73.3766C313.757 73.6448 314.365 73.8731 314.837 74.3539C315.803 75.2647 316.082 76.7953 315.558 78.0322C315.306 78.6532 314.862 79.2112 314.279 79.5797C313.701 79.9578 312.972 80.0786 312.333 80.0967C302.204 80.4652 291.074 80.8698 279.392 81.2938C267.704 81.7009 256.573 82.0887 246.441 82.4427C245.175 82.4861 243.925 82.5284 242.692 82.5695C241.342 82.6371 240.015 81.8012 239.516 80.5835C238.965 79.3985 239.196 77.9066 240.082 76.9849C240.517 76.4993 241.073 76.2287 241.54 75.9315C242.03 75.6332 242.514 75.3372 242.995 75.0437C246.84 72.7001 250.423 70.5161 253.698 68.5205C260.227 64.563 265.521 61.3534 269.218 59.1125C271.032 58.029 272.453 57.1797 273.454 56.5818C273.92 56.3112 274.287 56.0986 274.565 55.9367C274.818 55.7966 274.95 55.7277 274.956 55.7374C274.962 55.7471 274.841 55.8328 274.601 55.9935C274.331 56.1687 273.975 56.3994 273.523 56.6917C272.536 57.3138 271.136 58.1957 269.348 59.3227C265.676 61.6047 260.418 64.8711 253.932 68.901C250.669 70.9171 247.099 73.1229 243.269 75.4894C242.789 75.7854 242.306 76.0837 241.819 76.3845C241.326 76.6974 240.82 76.9547 240.481 77.3497C239.749 78.1168 239.556 79.3574 240.025 80.3613C240.459 81.3844 241.533 82.0549 242.675 82.0041C243.908 81.9582 245.158 81.9111 246.424 81.864C256.555 81.4956 267.686 81.0909 279.372 80.6669C291.056 80.2598 302.185 79.872 312.315 79.5193C312.935 79.4988 313.486 79.4045 313.976 79.0965C314.454 78.7969 314.824 78.3379 315.036 77.8184C315.478 76.7771 315.248 75.5063 314.454 74.7537C314.082 74.3611 313.543 74.1497 313.01 73.8671C312.483 73.6001 311.959 73.3355 311.44 73.0722C310.401 72.5467 309.379 72.0297 308.374 71.5199C304.357 69.4844 300.615 67.5867 297.195 65.852C290.393 62.3826 284.877 59.5692 281.026 57.605C280.079 57.1157 279.234 56.6796 278.495 56.2991C277.762 55.9162 277.156 55.5767 276.602 55.4946C275.484 55.3098 274.961 55.8014 274.956 55.7374Z" fill="#E0E0E0"/>
<path d="M275.918 55.393C275.829 55.3894 275.804 53.9108 275.835 51.5238L275.839 51.2641L276.103 51.3087C277.14 51.4827 278.448 51.2399 279.588 50.4607C280.725 49.6973 281.648 48.3359 281.655 46.7498C281.69 45.131 280.935 43.5993 279.854 42.7162C278.774 41.8054 277.42 41.5638 276.353 41.6278C274.139 41.7849 273.122 42.9711 273.061 42.8467C273.037 42.825 273.244 42.5278 273.763 42.1412C274.282 41.7643 275.145 41.3138 276.316 41.1845C277.461 41.0565 278.971 41.2618 280.22 42.2669C281.461 43.2429 282.321 44.9353 282.283 46.7655C282.271 47.6521 282.007 48.5134 281.577 49.2334C281.135 49.9461 280.552 50.5272 279.912 50.9439C278.628 51.7847 277.163 52.0046 276.021 51.7557L276.289 51.5407C276.143 53.9229 276.008 55.3954 275.918 55.393Z" fill="#E0E0E0"/>
<path d="M142.325 236.796C142.325 236.796 142.293 236.598 142.263 236.213C142.235 235.801 142.195 235.233 142.146 234.503C142.122 234.125 142.096 233.706 142.067 233.245C142.018 232.783 141.917 232.284 141.835 231.741C141.661 230.655 141.496 229.396 141.079 228.027C140.441 225.248 139.135 221.964 137.081 218.485C135.009 215.021 132.023 211.402 127.959 208.332C123.907 205.29 118.795 202.703 112.895 201.659C111.417 201.45 109.921 201.146 108.373 201.138C107.602 201.112 106.824 201.037 106.041 201.05C105.258 201.091 104.469 201.132 103.675 201.174C103.278 201.201 102.877 201.199 102.48 201.251L101.288 201.434C100.492 201.566 99.6834 201.66 98.8825 201.826C97.3048 202.256 95.6704 202.576 94.1169 203.226C92.5139 203.739 91.0063 204.532 89.4565 205.276C88.7015 205.685 87.9791 206.163 87.2313 206.606C86.4703 207.03 85.7745 207.559 85.0751 208.092C83.623 209.09 82.3522 210.336 81.0222 211.537C79.8202 212.867 78.5579 214.169 77.5226 215.678C75.3966 218.63 73.5399 221.911 72.4164 225.52C71.2519 229.105 70.625 232.914 70.573 236.789C70.6237 240.665 71.2495 244.475 72.414 248.062C73.5362 251.672 75.3941 254.952 77.5202 257.907C78.5567 259.417 79.819 260.719 81.021 262.049C82.351 263.251 83.6218 264.499 85.0738 265.496C85.7721 266.03 86.4691 266.558 87.2301 266.983C87.9767 267.426 88.7003 267.903 89.4553 268.313C91.0051 269.057 92.5127 269.85 94.1157 270.363C95.6692 271.013 97.3036 271.333 98.8825 271.764C99.6822 271.93 100.492 272.024 101.288 272.156L102.48 272.339C102.877 272.391 103.278 272.389 103.675 272.417C104.469 272.458 105.258 272.499 106.041 272.54C106.824 272.552 107.602 272.477 108.373 272.45C109.921 272.443 111.417 272.139 112.895 271.93C118.796 270.885 123.909 268.297 127.959 265.255C132.023 262.185 135.009 258.566 137.079 255.101C139.134 251.622 140.439 248.339 141.077 245.559C141.493 244.19 141.659 242.932 141.833 241.846C141.915 241.302 142.015 240.803 142.065 240.343C142.094 239.883 142.12 239.462 142.143 239.084C142.194 238.355 142.233 237.787 142.261 237.375C142.293 236.993 142.325 236.796 142.325 236.796C142.325 236.796 142.337 236.994 142.327 237.38C142.314 237.793 142.296 238.363 142.271 239.096C142.257 239.477 142.24 239.898 142.223 240.362C142.183 240.826 142.093 241.329 142.02 241.876C141.866 242.97 141.718 244.24 141.317 245.623C140.711 248.43 139.43 251.755 137.384 255.285C135.321 258.8 132.327 262.481 128.231 265.613C124.148 268.715 118.976 271.363 112.993 272.447C111.494 272.665 109.977 272.978 108.405 272.992C107.622 273.021 106.834 273.099 106.039 273.089C105.244 273.051 104.443 273.012 103.636 272.972C103.234 272.946 102.825 272.948 102.423 272.896L101.212 272.714C100.403 272.582 99.5807 272.489 98.7677 272.322C97.1635 271.891 95.5013 271.567 93.9212 270.911C92.2904 270.392 90.7563 269.591 89.1786 268.837C88.4103 268.423 87.6735 267.94 86.9136 267.49C86.1393 267.059 85.4302 266.524 84.7187 265.983C83.2401 264.97 81.9463 263.706 80.5922 262.484C79.3672 261.134 78.0819 259.81 77.0261 258.276C74.8602 255.274 72.9685 251.935 71.8233 248.264C70.6358 244.614 69.998 240.737 69.9473 236.793C69.9992 232.85 70.6382 228.974 71.8257 225.326C72.9721 221.656 74.8626 218.319 77.0286 215.318C78.0844 213.784 79.3697 212.461 80.5946 211.111C81.9475 209.89 83.2425 208.626 84.7199 207.613C85.4314 207.072 86.1405 206.537 86.9148 206.106C87.6747 205.656 88.4115 205.173 89.1798 204.759C90.7563 204.005 92.2904 203.204 93.9212 202.685C95.5013 202.029 97.1635 201.705 98.7677 201.274C99.5807 201.107 100.403 201.014 101.212 200.882L102.423 200.7C102.827 200.648 103.234 200.65 103.636 200.624C104.443 200.584 105.244 200.545 106.039 200.507C106.834 200.497 107.622 200.574 108.404 200.605C109.976 200.619 111.492 200.931 112.992 201.149C118.975 202.232 124.145 204.88 128.23 207.982C132.327 211.113 135.321 214.794 137.384 218.309C139.43 221.84 140.711 225.164 141.318 227.972C141.719 229.355 141.867 230.625 142.021 231.719C142.094 232.266 142.184 232.769 142.224 233.233C142.242 233.696 142.258 234.118 142.273 234.499C142.297 235.232 142.315 235.802 142.328 236.215C142.337 236.598 142.325 236.796 142.325 236.796Z" fill="#E0E0E0"/>
<path d="M106.293 214.458C106.119 214.458 105.979 211.392 105.979 207.611C105.979 203.828 106.12 200.764 106.293 200.764C106.467 200.764 106.607 203.828 106.607 207.611C106.608 211.392 106.467 214.458 106.293 214.458Z" fill="#E0E0E0"/>
<path d="M86.0621 236.797C86.0621 236.97 82.5976 237.111 78.3261 237.111C74.0522 237.111 70.5889 236.969 70.5889 236.797C70.5889 236.623 74.0522 236.482 78.3261 236.482C82.5976 236.481 86.0621 236.623 86.0621 236.797Z" fill="#E0E0E0"/>
<path d="M142.172 236.797C142.172 236.97 138.906 237.111 134.879 237.111C130.85 237.111 127.585 236.969 127.585 236.797C127.585 236.623 130.85 236.482 134.879 236.482C138.906 236.481 142.172 236.623 142.172 236.797Z" fill="#E0E0E0"/>
<path d="M106.293 272.829C106.119 272.829 105.979 269.605 105.979 265.629C105.979 261.653 106.12 258.43 106.293 258.43C106.467 258.43 106.607 261.653 106.607 265.629C106.608 269.605 106.467 272.829 106.293 272.829Z" fill="#E0E0E0"/>
<path d="M492.326 383.126C492.326 383.126 492.286 382.76 492.239 382.047C492.196 381.318 492.132 380.262 492.048 378.884C492.008 378.187 491.964 377.41 491.915 376.553C491.827 375.699 491.647 374.775 491.499 373.768C491.34 372.761 491.17 371.679 490.989 370.522C490.92 369.938 490.78 369.35 490.61 368.75C490.453 368.146 490.289 367.525 490.123 366.886C488.956 361.734 486.552 355.644 482.755 349.187C478.928 342.758 473.402 336.039 465.871 330.335C464.925 329.63 463.968 328.917 463.001 328.195C461.992 327.533 460.93 326.926 459.879 326.279C459.351 325.959 458.821 325.637 458.287 325.314C457.756 324.985 457.222 324.656 456.642 324.404C455.505 323.858 454.356 323.306 453.195 322.749C452.613 322.474 452.036 322.181 451.443 321.917C450.831 321.694 450.218 321.47 449.602 321.245C448.368 320.796 447.123 320.342 445.867 319.883C444.598 319.462 443.269 319.192 441.956 318.834C440.629 318.533 439.324 318.066 437.94 317.923C435.196 317.533 432.423 316.966 429.548 316.949C428.116 316.9 426.675 316.76 425.222 316.782C423.769 316.856 422.304 316.931 420.831 317.007C420.095 317.058 419.351 317.053 418.614 317.15C417.878 317.264 417.141 317.376 416.401 317.489C414.924 317.733 413.422 317.906 411.937 318.213C409.008 319.009 405.975 319.603 403.09 320.808C402.359 321.076 401.625 321.345 400.889 321.615C400.523 321.754 400.15 321.877 399.787 322.028L398.724 322.541C397.304 323.226 395.875 323.916 394.438 324.609C393.037 325.369 391.694 326.253 390.307 327.076C389.628 327.511 388.903 327.881 388.257 328.371L386.304 329.834C383.606 331.685 381.248 333.999 378.778 336.228C377.659 337.46 376.535 338.698 375.405 339.941L374.557 340.875L373.795 341.884L372.276 343.916L370.751 345.957L369.415 348.139L368.081 350.335L367.412 351.437C367.211 351.816 367.035 352.21 366.844 352.596C366.096 354.15 365.345 355.709 364.591 357.274C363.993 358.905 363.393 360.543 362.791 362.185C360.628 368.843 359.463 375.914 359.368 383.11C359.462 390.309 360.624 397.383 362.786 404.044C363.388 405.688 363.988 407.326 364.586 408.958C365.34 410.524 366.091 412.083 366.839 413.637L367.406 414.797L368.075 415.899L369.409 418.096L370.745 420.279L372.27 422.321L373.789 424.354L374.55 425.363L375.398 426.296C376.527 427.541 377.652 428.779 378.771 430.011C381.241 432.241 383.6 434.557 386.296 436.407L388.25 437.87C388.896 438.361 389.621 438.732 390.301 439.165C391.688 439.988 393.032 440.873 394.433 441.633C395.871 442.327 397.3 443.016 398.721 443.701L399.785 444.215C400.147 444.366 400.521 444.49 400.888 444.628C401.623 444.897 402.358 445.167 403.089 445.435C405.974 446.639 409.008 447.233 411.937 448.03C413.422 448.336 414.925 448.509 416.402 448.753C417.143 448.867 417.881 448.98 418.615 449.093C419.352 449.189 420.096 449.184 420.833 449.235C422.308 449.311 423.772 449.386 425.225 449.461C426.679 449.483 428.121 449.343 429.551 449.293C432.426 449.276 435.2 448.71 437.943 448.319L438.969 448.164C439.307 448.097 439.638 447.998 439.971 447.917C440.637 447.747 441.3 447.577 441.96 447.407C443.273 447.05 444.602 446.779 445.87 446.359C447.128 445.9 448.372 445.446 449.605 444.996C450.223 444.772 450.836 444.548 451.446 444.325C452.033 444.046 452.618 443.769 453.199 443.492C454.36 442.935 455.509 442.383 456.645 441.837C457.225 441.586 457.759 441.255 458.291 440.928C458.825 440.604 459.355 440.283 459.883 439.963C460.934 439.315 461.996 438.709 463.004 438.047C463.972 437.325 464.929 436.612 465.875 435.906C473.404 430.201 478.929 423.482 482.756 417.053C486.552 410.596 488.956 404.508 490.123 399.356C490.289 398.717 490.451 398.094 490.61 397.492C490.781 396.891 490.919 396.303 490.989 395.72C491.171 394.562 491.34 393.48 491.499 392.475C491.646 391.469 491.827 390.543 491.915 389.69C491.964 388.834 492.008 388.057 492.048 387.36C492.132 385.981 492.196 384.926 492.239 384.196C492.286 383.492 492.326 383.126 492.326 383.126C492.326 383.126 492.33 383.492 492.303 384.206C492.273 384.937 492.231 385.995 492.174 387.377C492.144 388.075 492.109 388.856 492.071 389.715C491.993 390.571 491.822 391.5 491.684 392.51C491.534 393.521 491.373 394.608 491.2 395.77C491.135 396.356 491.001 396.947 490.834 397.551C490.681 398.157 490.523 398.782 490.36 399.424C489.225 404.604 486.845 410.734 483.058 417.242C479.24 423.722 473.707 430.503 466.144 436.268C465.195 436.981 464.233 437.702 463.26 438.432C462.248 439.102 461.179 439.715 460.123 440.371C459.592 440.695 459.059 441.02 458.522 441.347C457.988 441.678 457.45 442.012 456.867 442.267C455.723 442.821 454.567 443.379 453.4 443.943C452.815 444.222 452.227 444.503 451.636 444.785C451.021 445.011 450.404 445.238 449.783 445.466C448.541 445.923 447.287 446.383 446.022 446.847C444.744 447.273 443.407 447.55 442.084 447.912C441.42 448.084 440.752 448.257 440.081 448.429C439.746 448.512 439.412 448.612 439.072 448.679L438.037 448.839C435.272 449.239 432.477 449.814 429.58 449.837C428.138 449.89 426.685 450.032 425.219 450.013C423.754 449.941 422.278 449.867 420.791 449.793C420.049 449.742 419.298 449.749 418.555 449.652C417.813 449.54 417.069 449.426 416.322 449.314C414.833 449.07 413.317 448.897 411.819 448.59C408.863 447.793 405.802 447.196 402.889 445.986C402.151 445.716 401.411 445.446 400.668 445.174C400.298 445.035 399.921 444.91 399.555 444.758L398.481 444.242C397.048 443.553 395.605 442.858 394.154 442.161C392.74 441.396 391.383 440.506 389.982 439.676C389.296 439.238 388.565 438.864 387.911 438.37L385.939 436.897C383.216 435.03 380.831 432.698 378.339 430.448C377.209 429.205 376.073 427.957 374.933 426.703L374.076 425.761L373.307 424.744L371.773 422.694L370.232 420.635L368.883 418.432L367.535 416.216L366.86 415.103L366.287 413.931C365.531 412.363 364.772 410.789 364.011 409.209C363.407 407.563 362.801 405.909 362.192 404.249C360.007 397.527 358.833 390.384 358.738 383.119C358.834 375.856 360.01 368.716 362.197 361.996C362.806 360.337 363.412 358.685 364.016 357.038C364.777 355.458 365.536 353.884 366.292 352.317C366.484 351.927 366.663 351.53 366.866 351.147L367.541 350.035L368.888 347.819L370.238 345.618L371.779 343.558L373.313 341.508L374.084 340.491L374.94 339.549C376.08 338.295 377.216 337.046 378.347 335.804C380.84 333.555 383.223 331.223 385.946 329.357L387.919 327.884C388.572 327.39 389.303 327.017 389.988 326.58C391.388 325.751 392.745 324.861 394.159 324.096C395.61 323.398 397.052 322.704 398.486 322.015L399.56 321.499C399.926 321.347 400.303 321.222 400.673 321.083C401.416 320.811 402.156 320.541 402.894 320.271C405.806 319.061 408.867 318.464 411.823 317.667C413.321 317.359 414.837 317.187 416.326 316.943C417.073 316.83 417.817 316.718 418.558 316.605C419.301 316.509 420.052 316.515 420.794 316.464C422.282 316.39 423.758 316.316 425.222 316.244C426.687 316.225 428.14 316.367 429.583 316.42C432.479 316.443 435.275 317.018 438.039 317.418C439.433 317.566 440.748 318.038 442.085 318.345C443.408 318.708 444.745 318.985 446.024 319.41C447.29 319.875 448.542 320.335 449.784 320.791C450.405 321.019 451.022 321.246 451.637 321.472C452.234 321.74 452.816 322.035 453.401 322.314C454.568 322.878 455.724 323.438 456.868 323.99C457.451 324.245 457.989 324.578 458.523 324.91C459.059 325.238 459.593 325.563 460.125 325.886C461.18 326.541 462.248 327.155 463.262 327.824C464.234 328.554 465.196 329.275 466.145 329.986C473.708 335.752 479.242 342.531 483.062 349.012C486.85 355.521 489.23 361.652 490.364 366.831C490.527 367.474 490.686 368.099 490.839 368.705C491.006 369.309 491.141 369.9 491.205 370.486C491.378 371.648 491.539 372.735 491.688 373.746C491.827 374.757 491.998 375.685 492.076 376.541C492.114 377.4 492.149 378.181 492.179 378.879C492.236 380.261 492.278 381.319 492.308 382.05C492.329 382.76 492.326 383.126 492.326 383.126Z" fill="#263238"/>
<path d="M425.688 336.283C425.514 336.283 425.374 331.852 425.374 326.385C425.374 320.918 425.515 316.488 425.688 316.488C425.862 316.488 426.002 320.919 426.002 326.385C426.003 331.852 425.862 336.283 425.688 336.283Z" fill="#263238"/>
<path d="M388.273 383.127C388.273 383.301 381.865 383.441 373.965 383.441C366.061 383.441 359.656 383.299 359.656 383.127C359.656 382.954 366.061 382.812 373.965 382.812C381.865 382.812 388.273 382.953 388.273 383.127Z" fill="#263238"/>
<path d="M492.042 383.127C492.042 383.301 486.003 383.441 478.555 383.441C471.104 383.441 465.066 383.299 465.066 383.127C465.066 382.954 471.104 382.812 478.555 382.812C486.002 382.812 492.042 382.953 492.042 383.127Z" fill="#263238"/>
<path d="M425.688 449.765C425.514 449.765 425.374 444.947 425.374 439.005C425.374 433.06 425.515 428.244 425.688 428.244C425.862 428.244 426.002 433.062 426.002 439.005C426.003 444.946 425.862 449.765 425.688 449.765Z" fill="#263238"/>
<path d="M420.199 346.554L416.644 353.229C415.7 355.002 415.909 357.167 417.175 358.727L421.171 363.646L430.037 363.542L434.175 358.796C435.554 357.215 435.798 354.942 434.788 353.105L431.126 346.449C430.643 345.57 429.717 345.029 428.714 345.041L422.564 345.114C421.572 345.125 420.665 345.677 420.199 346.554Z" fill="#C9AD9D"/>
<path d="M426.501 421.212L414.114 406.756L421.173 363.645L430.038 363.541L437.262 406.225L426.501 421.212Z" fill="#C9AD9D"/>
<path d="M429.925 363.737C429.92 363.911 428.006 364.087 425.652 364.132C423.296 364.175 421.378 364.07 421.367 363.897C421.355 363.725 423.269 363.547 425.64 363.502C428.011 363.458 429.93 363.563 429.925 363.737Z" fill="#263238"/>
<path d="M431.892 348.361C431.965 348.407 431.48 349.328 430.615 350.768C429.752 352.208 428.502 354.163 427.053 356.276C425.602 358.389 424.225 360.258 423.192 361.582C422.159 362.906 421.473 363.69 421.406 363.638C421.334 363.584 421.894 362.709 422.832 361.32C423.919 359.735 425.161 357.921 426.533 355.92C427.908 353.921 429.152 352.11 430.241 350.525C431.2 349.151 431.817 348.314 431.892 348.361Z" fill="#263238"/>
<path d="M433.583 385.022C433.679 385.167 429.821 387.898 424.967 391.122C420.112 394.347 416.099 396.843 416.003 396.698C415.907 396.553 419.763 393.823 424.619 390.598C429.473 387.374 433.487 384.877 433.583 385.022Z" fill="#FAFAFA"/>
<path d="M431.303 372.964C431.401 373.115 428.367 375.235 424.682 377.922C420.993 380.604 418.044 382.84 417.931 382.701C417.823 382.572 420.606 380.107 424.313 377.414C428.014 374.716 431.214 372.823 431.303 372.964Z" fill="#FAFAFA"/>
<path d="M429.624 363.626C429.713 363.776 427.676 365.152 425.076 366.701C422.475 368.251 420.294 369.384 420.205 369.235C420.116 369.085 422.152 367.709 424.753 366.161C427.355 364.612 429.536 363.478 429.624 363.626Z" fill="#FAFAFA"/>
<path d="M425.893 356.916C425.759 357.039 424.183 355.498 422.071 353.809C419.967 352.11 418.122 350.902 418.214 350.745C418.293 350.6 420.316 351.584 422.465 353.319C424.62 355.045 426.018 356.809 425.893 356.916Z" fill="#FAFAFA"/>
<path d="M430.157 349.919C430.05 350.055 428.611 349.106 426.944 347.798C425.276 346.489 424.011 345.318 424.119 345.181C424.226 345.045 425.665 345.994 427.332 347.302C428.999 348.611 430.264 349.782 430.157 349.919Z" fill="#FAFAFA"/>
<path d="M434.197 358.752C434.1 358.895 432.637 358.075 430.93 356.92C429.222 355.764 427.917 354.711 428.015 354.567C428.113 354.423 429.576 355.244 431.283 356.4C432.991 357.555 434.295 358.608 434.197 358.752Z" fill="#FAFAFA"/>
<path d="M435.747 398.355C435.85 398.495 431.991 401.469 427.133 404.998C422.272 408.526 418.25 411.272 418.148 411.132C418.045 410.992 421.902 408.018 426.763 404.489C431.623 400.96 435.645 398.215 435.747 398.355Z" fill="#FAFAFA"/>
<path d="M603.858 321.498C603.858 321.498 603.827 321.216 603.791 320.668C603.757 320.106 603.708 319.293 603.644 318.232C603.613 317.695 603.579 317.097 603.541 316.437C603.474 315.78 603.335 315.068 603.221 314.293C603.099 313.518 602.968 312.684 602.828 311.793C602.775 311.344 602.667 310.891 602.536 310.429C602.415 309.964 602.29 309.486 602.161 308.994C601.263 305.027 599.412 300.338 596.488 295.367C593.542 290.416 589.287 285.243 583.488 280.851C582.76 280.308 582.023 279.759 581.278 279.203C580.502 278.693 579.684 278.226 578.875 277.728C578.468 277.481 578.06 277.234 577.649 276.985C577.24 276.732 576.829 276.479 576.382 276.284C575.507 275.864 574.622 275.439 573.728 275.01C573.28 274.798 572.836 274.573 572.379 274.369C571.908 274.198 571.436 274.025 570.961 273.852C570.012 273.506 569.053 273.156 568.085 272.803C567.109 272.479 566.086 272.271 565.075 271.996C564.053 271.764 563.048 271.404 561.982 271.294C559.87 270.994 557.734 270.558 555.521 270.545C554.418 270.506 553.309 270.399 552.19 270.415C551.071 270.473 549.944 270.531 548.809 270.589C548.242 270.628 547.669 270.625 547.102 270.699C546.536 270.786 545.968 270.873 545.398 270.96C544.261 271.148 543.104 271.281 541.961 271.517C539.706 272.13 537.37 272.588 535.149 273.515C534.586 273.722 534.021 273.929 533.455 274.137C533.173 274.244 532.885 274.339 532.606 274.455L531.788 274.85C530.694 275.377 529.594 275.909 528.488 276.442C527.409 277.027 526.374 277.708 525.307 278.342C524.784 278.677 524.226 278.961 523.728 279.339L522.224 280.465C520.147 281.89 518.332 283.672 516.43 285.388C515.568 286.337 514.702 287.29 513.833 288.247L513.18 288.966L512.593 289.743L511.424 291.308L510.249 292.879L509.22 294.559L508.194 296.25L507.678 297.098C507.524 297.391 507.388 297.694 507.241 297.991C506.665 299.187 506.087 300.388 505.506 301.593C505.046 302.848 504.584 304.11 504.121 305.375C502.455 310.5 501.558 315.945 501.485 321.486C501.557 327.029 502.452 332.475 504.117 337.604C504.58 338.87 505.042 340.131 505.503 341.388C506.083 342.593 506.662 343.794 507.237 344.99L507.674 345.884L508.189 346.732L509.216 348.424L510.244 350.105L511.419 351.677L512.588 353.242L513.174 354.019L513.827 354.738C514.697 355.696 515.563 356.649 516.424 357.598C518.326 359.315 520.143 361.098 522.219 362.523L523.723 363.649C524.22 364.027 524.778 364.312 525.302 364.646C526.37 365.28 527.405 365.961 528.484 366.546C529.591 367.08 530.691 367.611 531.785 368.139L532.604 368.534C532.883 368.65 533.171 368.746 533.454 368.852C534.02 369.06 534.586 369.267 535.148 369.473C537.369 370.401 539.706 370.858 541.961 371.471C543.104 371.708 544.262 371.841 545.399 372.029C545.969 372.116 546.538 372.203 547.103 372.29C547.67 372.364 548.243 372.361 548.811 372.4C549.946 372.458 551.074 372.516 552.193 372.574C553.312 372.59 554.422 372.482 555.523 372.444C557.737 372.431 559.873 371.995 561.985 371.695L562.775 371.575C563.035 371.523 563.29 371.447 563.547 371.385C564.059 371.254 564.57 371.123 565.077 370.992C566.089 370.717 567.112 370.509 568.088 370.185C569.057 369.832 570.015 369.482 570.964 369.136C571.439 368.963 571.912 368.791 572.382 368.619C572.834 368.404 573.284 368.191 573.731 367.978C574.625 367.549 575.51 367.124 576.385 366.704C576.831 366.51 577.242 366.255 577.652 366.003C578.063 365.754 578.471 365.507 578.878 365.26C579.687 364.762 580.504 364.295 581.281 363.785C582.026 363.23 582.763 362.68 583.491 362.137C589.288 357.744 593.543 352.571 596.489 347.62C599.412 342.649 601.263 337.961 602.161 333.994C602.29 333.502 602.414 333.023 602.536 332.559C602.668 332.097 602.774 331.644 602.828 331.195C602.969 330.304 603.099 329.47 603.221 328.696C603.334 327.922 603.474 327.209 603.541 326.552C603.579 325.893 603.613 325.295 603.644 324.758C603.708 323.696 603.757 322.884 603.791 322.322C603.827 321.78 603.858 321.498 603.858 321.498C603.858 321.498 603.861 321.78 603.84 322.33C603.817 322.892 603.784 323.707 603.741 324.771C603.717 325.309 603.69 325.91 603.661 326.571C603.601 327.23 603.47 327.946 603.363 328.723C603.248 329.502 603.124 330.339 602.991 331.234C602.941 331.685 602.837 332.14 602.709 332.605C602.591 333.072 602.469 333.552 602.343 334.047C601.47 338.036 599.638 342.755 596.722 347.766C593.782 352.756 589.522 357.976 583.698 362.416C582.967 362.965 582.227 363.52 581.478 364.082C580.699 364.598 579.876 365.069 579.063 365.574C578.653 365.824 578.243 366.074 577.829 366.326C577.418 366.581 577.004 366.838 576.555 367.035C575.674 367.461 574.784 367.89 573.886 368.325C573.436 368.54 572.983 368.756 572.528 368.973C572.054 369.147 571.579 369.322 571.101 369.498C570.145 369.849 569.179 370.204 568.205 370.561C567.221 370.889 566.192 371.102 565.173 371.381C564.662 371.513 564.147 371.646 563.631 371.779C563.373 371.842 563.116 371.92 562.854 371.972L562.057 372.095C559.928 372.402 557.776 372.845 555.546 372.863C554.435 372.904 553.316 373.014 552.188 372.999C551.06 372.943 549.923 372.886 548.778 372.829C548.207 372.79 547.629 372.795 547.057 372.721C546.485 372.634 545.912 372.547 545.338 372.46C544.191 372.272 543.024 372.139 541.87 371.903C539.594 371.289 537.237 370.83 534.995 369.898C534.426 369.69 533.856 369.482 533.284 369.273C533 369.166 532.709 369.07 532.428 368.953L531.601 368.555C530.497 368.024 529.386 367.49 528.269 366.953C527.18 366.364 526.135 365.679 525.057 365.04C524.528 364.702 523.965 364.415 523.462 364.034L521.943 362.899C519.847 361.462 518.011 359.666 516.092 357.934C515.221 356.977 514.347 356.017 513.469 355.051L512.81 354.326L512.217 353.542L511.036 351.964L509.85 350.378L508.811 348.683L507.773 346.976L507.253 346.119L506.812 345.217C506.23 344.01 505.646 342.798 505.06 341.581C504.595 340.313 504.128 339.04 503.659 337.762C501.977 332.586 501.073 327.086 501 321.493C501.073 315.901 501.979 310.403 503.663 305.229C504.132 303.952 504.599 302.679 505.064 301.411C505.65 300.195 506.234 298.983 506.816 297.777C506.964 297.476 507.102 297.17 507.258 296.875L507.778 296.02L508.815 294.313L509.855 292.618L511.041 291.032L512.222 289.454L512.815 288.671L513.475 287.945C514.353 286.98 515.227 286.018 516.098 285.062C518.017 283.33 519.853 281.535 521.949 280.098L523.468 278.964C523.971 278.584 524.534 278.296 525.061 277.959C526.139 277.321 527.184 276.636 528.273 276.047C529.39 275.51 530.5 274.976 531.605 274.445L532.431 274.047C532.713 273.93 533.003 273.834 533.288 273.727C533.86 273.518 534.43 273.31 534.999 273.102C537.24 272.17 539.597 271.711 541.873 271.097C543.026 270.86 544.194 270.728 545.34 270.54C545.915 270.452 546.488 270.366 547.059 270.279C547.631 270.205 548.209 270.21 548.781 270.171C549.926 270.114 551.063 270.057 552.19 270.001C553.318 269.986 554.437 270.096 555.548 270.137C557.778 270.155 559.93 270.598 562.058 270.905C563.132 271.019 564.145 271.383 565.174 271.619C566.193 271.899 567.222 272.112 568.206 272.439C569.181 272.797 570.146 273.152 571.102 273.502C571.58 273.678 572.055 273.853 572.529 274.027C572.988 274.233 573.436 274.46 573.887 274.675C574.785 275.11 575.675 275.54 576.556 275.965C577.005 276.162 577.419 276.418 577.83 276.674C578.243 276.926 578.654 277.176 579.064 277.426C579.877 277.93 580.699 278.402 581.479 278.917C582.228 279.479 582.968 280.035 583.699 280.582C589.523 285.022 593.784 290.242 596.725 295.232C599.641 300.243 601.474 304.963 602.347 308.952C602.473 309.447 602.595 309.928 602.713 310.394C602.841 310.859 602.945 311.314 602.995 311.765C603.128 312.66 603.251 313.497 603.367 314.276C603.474 315.054 603.605 315.769 603.665 316.428C603.694 317.089 603.721 317.69 603.744 318.228C603.788 319.292 603.821 320.107 603.844 320.669C603.86 321.216 603.858 321.498 603.858 321.498Z" fill="#263238"/>
<path d="M552.549 285.428C552.415 285.428 552.308 282.017 552.308 277.808C552.308 273.598 552.416 270.188 552.549 270.188C552.683 270.188 552.791 273.599 552.791 277.808C552.792 282.017 552.683 285.428 552.549 285.428Z" fill="#263238"/>
<path d="M523.741 321.5C523.741 321.634 518.808 321.741 512.725 321.741C506.639 321.741 501.708 321.633 501.708 321.5C501.708 321.367 506.639 321.258 512.725 321.258C518.808 321.258 523.741 321.366 523.741 321.5Z" fill="#263238"/>
<path d="M603.64 321.5C603.64 321.634 598.99 321.741 593.255 321.741C587.518 321.741 582.869 321.633 582.869 321.5C582.869 321.367 587.518 321.258 593.255 321.258C598.989 321.258 603.64 321.366 603.64 321.5Z" fill="#263238"/>
<path d="M552.549 372.808C552.415 372.808 552.308 369.099 552.308 364.524C552.308 359.947 552.416 356.238 552.549 356.238C552.683 356.238 552.791 359.948 552.791 364.524C552.792 369.098 552.683 372.808 552.549 372.808Z" fill="#263238"/>
<path d="M252.588 147.454C252.588 147.454 252.549 147.126 252.507 146.484C252.467 145.825 252.408 144.878 252.331 143.64C252.295 143.013 252.255 142.314 252.211 141.545C252.131 140.778 251.968 139.946 251.835 139.042C251.692 138.137 251.539 137.165 251.375 136.125C251.251 135.076 250.864 134.012 250.596 132.856C249.545 128.226 247.382 122.752 243.968 116.95C240.527 111.172 235.56 105.135 228.79 100.009C227.939 99.3761 227.079 98.7346 226.21 98.0859C225.304 97.4916 224.348 96.9468 223.405 96.3645C222.441 95.8161 221.529 95.1493 220.495 94.6806C219.473 94.1901 218.44 93.6949 217.397 93.1935C216.874 92.9459 216.35 92.697 215.822 92.4458C215.274 92.2453 214.722 92.0447 214.167 91.843C213.059 91.4395 211.94 91.0312 210.81 90.6193C209.67 90.2424 208.476 89.9996 207.296 89.6783C206.104 89.4077 204.93 88.9873 203.686 88.8604C201.221 88.5101 198.728 88.0016 196.145 87.9871C194.86 87.9424 193.563 87.8167 192.258 87.8373C190.952 87.9049 189.636 87.9726 188.311 88.0402C187.649 88.0861 186.981 88.0813 186.319 88.1695C185.658 88.2709 184.996 88.3724 184.331 88.4751C183.003 88.6949 181.654 88.8496 180.319 89.1262C177.687 89.8413 174.96 90.3753 172.369 91.4576C171.712 91.698 171.052 91.9408 170.392 92.1824C170.062 92.3069 169.727 92.418 169.401 92.5533L168.443 93.016C167.166 93.632 165.883 94.2517 164.592 94.8739C163.333 95.5564 162.126 96.3513 160.88 97.0905C160.27 97.4807 159.619 97.8141 159.038 98.2551L157.282 99.5694C154.859 101.233 152.739 103.313 150.52 105.316C149.515 106.424 148.505 107.535 147.49 108.652L146.728 109.492L146.043 110.398L144.678 112.224L143.307 114.058L142.106 116.019L140.908 117.993L140.306 118.982C140.126 119.324 139.967 119.677 139.797 120.024C139.125 121.42 138.45 122.821 137.773 124.228C137.236 125.694 136.697 127.165 136.156 128.642C134.212 134.624 133.165 140.98 133.079 147.446C133.163 153.914 134.208 160.271 136.151 166.256C136.692 167.733 137.231 169.205 137.768 170.671C138.446 172.078 139.12 173.48 139.793 174.876L140.301 175.919L140.903 176.909L142.101 178.884L143.301 180.846L144.672 182.68L146.037 184.506L146.722 185.413L147.484 186.253C148.499 187.37 149.509 188.483 150.515 189.591C152.734 191.595 154.854 193.675 157.279 195.338L159.034 196.653C159.615 197.094 160.266 197.426 160.876 197.817C162.123 198.557 163.33 199.351 164.59 200.035C165.881 200.658 167.165 201.278 168.442 201.894L169.397 202.356C169.724 202.492 170.058 202.602 170.388 202.727C171.05 202.969 171.708 203.211 172.365 203.451C174.958 204.534 177.684 205.068 180.316 205.784C181.651 206.059 183.001 206.215 184.328 206.435C184.994 206.538 185.657 206.639 186.317 206.741C186.979 206.828 187.648 206.824 188.309 206.87C189.634 206.938 190.949 207.006 192.255 207.073C193.561 207.092 194.857 206.967 196.143 206.922C198.726 206.907 201.219 206.398 203.684 206.047C204.928 205.919 206.101 205.499 207.294 205.228C208.474 204.907 209.667 204.664 210.808 204.286C211.937 203.874 213.057 203.466 214.165 203.062C214.719 202.861 215.271 202.659 215.82 202.46C216.348 202.209 216.872 201.959 217.395 201.712C218.437 201.212 219.47 200.715 220.492 200.225C221.525 199.755 222.438 199.089 223.402 198.541C224.347 197.959 225.301 197.415 226.207 196.819C227.077 196.171 227.937 195.53 228.787 194.896C235.556 189.771 240.523 183.733 243.964 177.955C247.377 172.153 249.539 166.681 250.589 162.051C250.739 161.476 250.885 160.918 251.028 160.375C251.181 159.835 251.307 159.306 251.369 158.783C251.533 157.743 251.686 156.771 251.829 155.866C251.963 154.961 252.125 154.13 252.205 153.363C252.249 152.593 252.289 151.895 252.325 151.268C252.401 150.031 252.459 149.083 252.501 148.424C252.549 147.783 252.588 147.454 252.588 147.454C252.588 147.454 252.592 147.783 252.571 148.424C252.544 149.085 252.507 150.035 252.458 151.275C252.43 151.904 252.4 152.605 252.368 153.377C252.298 154.148 252.145 154.983 252.021 155.891C251.887 156.8 251.742 157.778 251.589 158.823C251.531 159.35 251.41 159.881 251.26 160.425C251.122 160.971 250.98 161.533 250.834 162.11C249.815 166.768 247.677 172.281 244.273 178.135C240.84 183.964 235.865 190.063 229.064 195.25C228.21 195.892 227.345 196.54 226.471 197.196C225.56 197.799 224.599 198.351 223.65 198.939C222.681 199.495 221.762 200.169 220.722 200.645C219.692 201.143 218.654 201.645 217.604 202.153C217.077 202.404 216.549 202.656 216.018 202.91C215.464 203.113 214.909 203.317 214.351 203.523C213.234 203.933 212.106 204.348 210.968 204.766C209.819 205.15 208.616 205.397 207.426 205.725C206.224 206 205.041 206.427 203.787 206.558C201.299 206.918 198.786 207.435 196.18 207.457C194.883 207.505 193.576 207.633 192.258 207.617C190.94 207.551 189.612 207.486 188.275 207.42C187.607 207.375 186.932 207.38 186.263 207.293C185.597 207.191 184.927 207.09 184.256 206.988C182.916 206.769 181.552 206.614 180.204 206.337C177.545 205.621 174.791 205.083 172.172 203.995C171.508 203.752 170.842 203.509 170.174 203.265C169.842 203.14 169.502 203.029 169.173 202.891L168.206 202.427C166.916 201.806 165.619 201.183 164.314 200.555C163.042 199.866 161.821 199.066 160.561 198.32C159.945 197.926 159.286 197.59 158.698 197.146L156.924 195.82C154.474 194.141 152.33 192.044 150.088 190.02C149.07 188.902 148.05 187.779 147.023 186.65L146.252 185.804L145.56 184.888L144.179 183.043L142.794 181.19L141.58 179.209L140.367 177.215L139.759 176.215L139.244 175.161C138.564 173.751 137.882 172.334 137.197 170.913C136.653 169.432 136.109 167.943 135.56 166.451C133.593 160.404 132.538 153.979 132.453 147.444C132.539 140.911 133.598 134.488 135.565 128.443C136.112 126.951 136.658 125.464 137.202 123.983C137.887 122.562 138.569 121.147 139.248 119.736C139.421 119.385 139.582 119.028 139.764 118.682L140.372 117.682L141.583 115.688L142.798 113.708L144.184 111.855L145.564 110.011L146.256 109.097L147.026 108.25C148.052 107.122 149.074 106 150.09 104.882C152.333 102.859 154.476 100.762 156.926 99.0837L158.701 97.7586C159.288 97.314 159.946 96.9782 160.562 96.5844C161.822 95.8391 163.042 95.0382 164.314 94.3508C165.619 93.7226 166.916 93.0993 168.206 92.4784L169.173 92.0145C169.501 91.878 169.841 91.7657 170.173 91.64C170.841 91.396 171.507 91.1532 172.171 90.9104C174.79 89.822 177.544 89.2857 180.202 88.5681C181.55 88.2915 182.912 88.1368 184.252 87.917C184.924 87.8155 185.593 87.7141 186.26 87.6126C186.928 87.5256 187.603 87.5304 188.271 87.4857C189.608 87.4193 190.936 87.3541 192.254 87.2888C193.572 87.2707 194.879 87.4 196.176 87.4483C198.782 87.47 201.296 87.9871 203.783 88.347C205.037 88.4799 206.221 88.9039 207.423 89.1806C208.613 89.5067 209.816 89.7568 210.965 90.1397C212.103 90.5577 213.231 90.972 214.347 91.3827C214.905 91.5881 215.461 91.7923 216.014 91.9952C216.546 92.2489 217.075 92.5014 217.6 92.7526C218.65 93.26 219.69 93.7625 220.718 94.2602C221.758 94.7362 222.677 95.4102 223.646 95.9659C224.596 96.5554 225.556 97.1075 226.467 97.709C227.342 98.365 228.206 99.0137 229.061 99.6551C235.862 104.842 240.837 110.94 244.27 116.77C247.676 122.624 249.814 128.137 250.832 132.797C251.093 133.96 251.473 135.03 251.587 136.084C251.742 137.128 251.886 138.107 252.02 139.015C252.144 139.925 252.298 140.76 252.366 141.529C252.4 142.301 252.43 143.003 252.457 143.631C252.505 144.872 252.544 145.821 252.569 146.482C252.592 147.126 252.588 147.454 252.588 147.454Z" fill="#263238"/>
<path d="M192.675 110.313C192.501 110.313 192.361 105.215 192.361 98.9284C192.361 92.6395 192.503 87.543 192.675 87.543C192.848 87.543 192.989 92.6395 192.989 98.9284C192.991 105.216 192.849 110.313 192.675 110.313Z" fill="#263238"/>
<path d="M159.037 147.455C159.037 147.629 153.277 147.769 146.173 147.769C139.066 147.769 133.308 147.627 133.308 147.455C133.308 147.282 139.066 147.141 146.173 147.141C153.277 147.141 159.037 147.282 159.037 147.455Z" fill="#263238"/>
<path d="M252.333 147.455C252.333 147.629 246.903 147.769 240.207 147.769C233.509 147.769 228.08 147.627 228.08 147.455C228.08 147.282 233.509 147.141 240.207 147.141C246.903 147.141 252.333 147.282 252.333 147.455Z" fill="#263238"/>
<path d="M192.675 207.367C192.501 207.367 192.361 202.007 192.361 195.397C192.361 188.784 192.503 183.426 192.675 183.426C192.848 183.426 192.989 188.784 192.989 195.397C192.991 202.007 192.849 207.367 192.675 207.367Z" fill="#263238"/>
<path d="M211.083 132.543H174.027V169.598H211.083V132.543Z" fill="#C9AD9D"/>
<path d="M185.361 132.845C185.483 132.977 182.893 135.532 179.797 138.772C176.694 142.006 174.252 144.703 174.115 144.588C173.985 144.481 176.223 141.589 179.343 138.337C182.456 135.081 185.25 132.72 185.361 132.845Z" fill="#FAFAFA"/>
<path d="M193.583 133.138C193.618 133.165 193.397 133.525 192.969 134.155C192.541 134.787 191.897 135.682 191.08 136.774C189.45 138.958 187.11 141.912 184.387 145.058C181.662 148.203 179.073 150.942 177.145 152.869C176.181 153.833 175.387 154.598 174.823 155.112C174.26 155.626 173.935 155.897 173.904 155.866C173.84 155.802 174.981 154.562 176.822 152.561C178.665 150.559 181.193 147.782 183.91 144.646C186.624 141.509 189.011 138.609 190.728 136.5C192.448 134.391 193.511 133.084 193.583 133.138Z" fill="#FAFAFA"/>
<path d="M202.899 133.136C202.934 133.162 202.586 133.685 201.926 134.611C201.269 135.537 200.291 136.858 199.057 138.472C196.593 141.699 193.084 146.081 189.031 150.77C184.974 155.46 181.145 159.564 178.306 162.47C176.888 163.923 175.722 165.081 174.901 165.865C174.081 166.651 173.612 167.071 173.582 167.04C173.55 167.009 173.96 166.531 174.726 165.694C175.575 164.773 176.669 163.587 177.984 162.163C180.737 159.184 184.506 155.038 188.555 150.358C192.601 145.677 196.157 141.349 198.708 138.196C199.928 136.69 200.944 135.436 201.732 134.462C202.451 133.583 202.865 133.109 202.899 133.136Z" fill="#FAFAFA"/>
<path d="M210.638 139.793C210.768 139.907 205.07 146.54 197.911 154.605C190.75 162.672 184.842 169.117 184.711 169.001C184.582 168.886 190.279 162.254 197.44 154.187C204.598 146.122 210.508 139.677 210.638 139.793Z" fill="#FAFAFA"/>
<path d="M211.36 150.572C211.431 150.615 210.831 151.779 209.748 153.597C208.666 155.413 207.089 157.877 205.224 160.511C203.357 163.145 201.554 165.448 200.198 167.072C198.841 168.695 197.942 169.647 197.878 169.594C197.808 169.536 198.586 168.485 199.849 166.796C201.112 165.108 202.851 162.771 204.711 160.148C206.569 157.524 208.197 155.11 209.373 153.359C210.548 151.607 211.282 150.525 211.36 150.572Z" fill="#FAFAFA"/>
<path d="M211.204 150.275C211.204 150.449 202.797 150.589 192.43 150.589C182.059 150.589 173.655 150.448 173.655 150.275C173.655 150.101 182.059 149.961 192.43 149.961C202.797 149.96 211.204 150.101 211.204 150.275Z" fill="#263238"/>
<path d="M192.727 133.189C192.901 133.189 193.041 141.462 193.041 151.665C193.041 161.871 192.9 170.141 192.727 170.141C192.553 170.141 192.413 161.87 192.413 151.665C192.413 141.462 192.553 133.189 192.727 133.189Z" fill="#263238"/>
<path d="M192.533 131.992C192.525 132.026 192.089 131.992 191.325 131.805C190.561 131.618 189.462 131.287 188.186 130.677C186.909 130.075 185.455 129.191 184.04 127.956C183.348 127.318 182.609 126.691 182.013 125.772C181.729 125.313 181.533 124.726 181.593 124.126C181.628 123.53 182.002 122.887 182.606 122.62C183.21 122.346 183.847 122.433 184.374 122.595C184.909 122.763 185.391 123.02 185.822 123.319C186.668 123.894 187.431 124.523 188.105 125.175C189.457 126.48 190.46 127.855 191.166 129.077C191.872 130.303 192.295 131.371 192.536 132.119C192.78 132.868 192.848 133.299 192.815 133.309C192.702 133.35 192.255 131.654 190.787 129.308C190.049 128.143 189.038 126.836 187.708 125.596C187.045 124.975 186.299 124.377 185.478 123.828C184.716 123.314 183.667 122.851 182.875 123.189C182.068 123.546 182.048 124.72 182.545 125.456C183.034 126.236 183.776 126.906 184.427 127.522C185.776 128.743 187.164 129.64 188.387 130.278C190.84 131.556 192.565 131.876 192.533 131.992Z" fill="#263238"/>
<path d="M192.483 132.189C192.444 132.183 192.464 131.735 192.579 130.935C192.692 130.136 192.902 128.982 193.265 127.581C193.629 126.181 194.153 124.533 194.887 122.762C195.254 121.877 195.672 120.961 196.148 120.032C196.402 119.56 196.687 119.052 197.228 118.69C197.761 118.296 198.672 118.388 199.102 118.948C199.921 120.032 199.692 121.277 199.57 122.285C199.418 123.333 199.142 124.325 198.78 125.226C198.069 127.037 197.059 128.498 196.066 129.567C195.077 130.647 194.111 131.347 193.417 131.766C192.723 132.19 192.299 132.349 192.285 132.32C192.205 132.206 193.878 131.437 195.733 129.272C196.652 128.198 197.586 126.767 198.238 125.019C198.57 124.149 198.821 123.198 198.959 122.197C199.02 121.701 199.094 121.167 199.064 120.689C199.03 120.203 198.901 119.691 198.623 119.358C198.356 119.035 197.912 118.986 197.563 119.217C197.202 119.449 196.922 119.883 196.693 120.315C196.218 121.224 195.793 122.122 195.417 122.988C194.665 124.72 194.104 126.332 193.69 127.7C192.872 130.445 192.585 132.206 192.483 132.189Z" fill="#263238"/>
<path d="M509.726 167.038C509.715 167.038 509.701 166.886 509.683 166.586C509.667 166.277 509.645 165.831 509.616 165.246C509.534 164.064 509.569 162.298 509.352 159.995C509.055 155.389 508.268 148.589 506.148 140.079C505.013 135.849 503.636 131.162 501.593 126.234C499.591 121.298 497.127 116.034 493.891 110.717C487.495 100.072 478.334 88.9383 465.86 79.447C459.65 74.6887 452.591 70.4209 444.816 66.8959C437.045 63.3758 428.555 60.5491 419.501 58.9255C410.465 57.2633 400.9 56.6122 391.133 57.3793C386.243 57.6716 381.328 58.4689 376.394 59.4474C371.471 60.5032 366.561 61.9165 361.693 63.6476C342.295 70.6806 323.865 83.8043 310.587 102.002C307.226 106.507 304.284 111.376 301.628 116.431C300.274 118.95 299.12 121.577 297.938 124.205C296.878 126.883 295.782 129.559 294.908 132.327C293.105 137.838 291.615 143.512 290.722 149.331C289.805 155.144 289.324 161.061 289.284 167.021C289.324 172.984 289.803 178.903 290.717 184.717C291.611 190.538 293.099 196.215 294.9 201.728C295.775 204.498 296.871 207.175 297.93 209.854C299.113 212.48 300.265 215.11 301.619 217.629C304.276 222.687 307.217 227.555 310.58 232.063C323.859 250.267 342.291 263.394 361.693 270.427C366.561 272.158 371.472 273.571 376.397 274.627C381.332 275.606 386.248 276.404 391.138 276.695C400.906 277.462 410.472 276.81 419.509 275.148C428.563 273.523 437.054 270.696 444.825 267.175C452.601 263.65 459.66 259.381 465.869 254.623C478.341 245.132 487.501 233.996 493.897 223.352C497.133 218.036 499.597 212.773 501.598 207.836C503.64 202.908 505.016 198.221 506.152 193.992C508.272 185.483 509.057 178.683 509.354 174.078C509.57 171.777 509.537 170.011 509.619 168.828C509.648 168.244 509.669 167.798 509.685 167.488C509.701 167.19 509.715 167.038 509.726 167.038C509.737 167.038 509.744 167.19 509.747 167.49C509.747 167.8 509.746 168.245 509.744 168.831C509.704 170.016 509.781 171.785 509.604 174.094C509.388 178.714 508.679 185.546 506.623 194.112C505.519 198.37 504.171 203.089 502.151 208.058C500.172 213.035 497.725 218.344 494.497 223.712C488.12 234.459 478.943 245.716 466.405 255.331C460.162 260.149 453.059 264.479 445.225 268.059C437.396 271.635 428.834 274.511 419.698 276.173C410.578 277.874 400.922 278.553 391.056 277.798C386.116 277.512 381.149 276.717 376.16 275.736C371.183 274.678 366.218 273.259 361.296 271.517C341.677 264.439 323.025 251.188 309.585 232.793C306.182 228.238 303.203 223.316 300.514 218.203C299.143 215.655 297.976 212.997 296.779 210.341C295.705 207.633 294.596 204.924 293.71 202.123C291.886 196.547 290.38 190.805 289.475 184.919C288.547 179.038 288.064 173.051 288.024 167.022C288.065 160.994 288.552 155.01 289.48 149.132C290.385 143.246 291.894 137.507 293.718 131.933C294.603 129.133 295.713 126.426 296.787 123.719C297.983 121.063 299.153 118.406 300.522 115.86C303.211 110.749 306.19 105.829 309.593 101.274C323.032 82.8838 341.68 69.6381 361.297 62.5604C366.219 60.8185 371.183 59.3979 376.159 58.3409C381.146 57.36 386.113 56.5639 391.052 56.2788C400.918 55.5238 410.572 56.2027 419.692 57.9024C428.828 59.5646 437.389 62.4396 445.218 66.0153C453.052 69.5946 460.155 73.9229 466.398 78.7416C478.937 88.3548 488.115 99.6122 494.493 110.359C497.722 115.727 500.17 121.037 502.148 126.013C504.169 130.982 505.518 135.702 506.622 139.962C508.678 148.529 509.387 155.36 509.603 159.982C509.779 162.292 509.703 164.061 509.743 165.246C509.744 165.832 509.744 166.278 509.746 166.589C509.744 166.887 509.737 167.038 509.726 167.038Z" fill="#263238"/>
<path d="M399.191 98.5114C398.843 98.5114 398.562 89.1071 398.562 77.5079C398.562 65.905 398.843 56.502 399.191 56.502C399.539 56.502 399.82 65.905 399.82 77.5079C399.819 89.1071 399.538 98.5114 399.191 98.5114Z" fill="#263238"/>
<path d="M337.126 167.038C337.126 167.385 326.499 167.667 313.392 167.667C300.282 167.667 289.656 167.385 289.656 167.038C289.656 166.691 300.282 166.408 313.392 166.408C326.498 166.408 337.126 166.691 337.126 167.038Z" fill="#263238"/>
<path d="M509.256 167.038C509.256 167.385 499.238 167.667 486.883 167.667C474.524 167.667 464.509 167.385 464.509 167.038C464.509 166.691 474.524 166.408 486.883 166.408C499.238 166.408 509.256 166.691 509.256 167.038Z" fill="#263238"/>
<path d="M399.191 277.574C398.843 277.574 398.562 267.685 398.562 255.489C398.562 243.29 398.843 233.402 399.191 233.402C399.539 233.402 399.82 243.29 399.82 255.489C399.819 267.685 399.538 277.574 399.191 277.574Z" fill="#263238"/>
<path d="M365.456 116.525C365.456 116.525 372.214 107.93 383.647 109.749V122.223C383.647 122.223 393.262 122.223 398.72 130.798C398.72 130.798 407.035 121.444 413.013 121.963V109.428C413.013 109.428 423.148 108.914 429.383 119.829L418.989 128.458L412.793 147.951C412.793 147.951 422.367 164.84 423.406 195.504L423.146 224.089H372.994L372.793 204.039C372.749 199.56 372.984 195.091 373.515 190.643C374.979 178.367 378.623 154.603 385.468 147.948L378.1 129.166L365.456 116.525Z" fill="#FFB6C1"/>
<path d="M412.794 147.952C412.795 148.126 406.678 148.309 399.131 148.363C391.583 148.416 385.464 148.318 385.463 148.144C385.462 147.97 391.578 147.786 399.127 147.733C406.673 147.68 412.793 147.778 412.794 147.952Z" fill="#263238"/>
<path d="M395.752 136C395.791 136.057 395.149 136.606 393.877 137.045C392.624 137.487 390.688 137.735 388.692 137.137C386.696 136.537 385.217 135.263 384.414 134.204C383.595 133.136 383.361 132.324 383.426 132.299C383.518 132.252 383.891 132.976 384.754 133.917C385.603 134.854 387.024 135.977 388.872 136.534C390.72 137.088 392.525 136.933 393.75 136.618C394.992 136.31 395.702 135.91 395.752 136Z" fill="#263238"/>
<path d="M415.011 131.106C415.069 131.099 415.121 132.068 414.393 133.384C413.692 134.684 412.09 136.206 409.873 136.82C407.661 137.421 405.568 137.081 404.188 136.669C402.788 136.248 402.01 135.786 402.04 135.719C402.077 135.627 402.912 135.94 404.296 136.238C405.668 136.53 407.653 136.773 409.705 136.213C411.745 135.648 413.266 134.305 414.014 133.151C414.787 131.99 414.9 131.082 415.011 131.106Z" fill="#263238"/>
<path d="M421.168 171.428C421.193 171.492 420.513 171.727 419.41 172.38C418.299 173.022 416.83 174.161 415.114 175.7C413.381 177.198 411.403 179.214 408.558 180.558C407.141 181.216 405.497 181.608 403.796 181.606C402.096 181.623 400.354 181.328 398.637 180.853C395.198 179.878 392.179 178.364 389.292 177.447C386.422 176.483 383.674 176.154 381.433 176.576C379.182 176.944 377.538 177.902 376.587 178.734C375.637 179.584 375.28 180.22 375.226 180.182C375.208 180.171 375.29 180.012 375.469 179.718C375.649 179.425 375.957 179.018 376.422 178.554C377.351 177.639 379.031 176.577 381.354 176.138C383.666 175.642 386.545 175.943 389.47 176.895C392.417 177.801 395.452 179.3 398.806 180.247C402.138 181.202 405.604 181.33 408.32 180.029C411.046 178.78 413.049 176.826 414.823 175.364C416.583 173.861 418.123 172.752 419.29 172.167C419.874 171.874 420.335 171.67 420.665 171.57C420.988 171.456 421.16 171.408 421.168 171.428Z" fill="#FAFAFA"/>
<path d="M414.915 154.655C414.906 154.717 414.398 154.594 413.503 154.703C412.605 154.791 411.371 155.285 410.016 156.183C408.646 157.054 407.161 158.374 405.191 159.412C403.239 160.448 400.885 161.218 398.342 161.477C395.799 161.744 393.33 161.457 391.216 160.811C389.097 160.168 387.322 159.217 385.959 158.263C384.589 157.311 383.628 156.353 383.009 155.666C382.389 154.975 382.116 154.536 382.141 154.517C382.234 154.425 383.475 156.098 386.207 157.893C387.57 158.779 389.317 159.661 391.379 160.254C393.436 160.849 395.817 161.109 398.278 160.851C400.737 160.599 403.019 159.872 404.924 158.896C406.833 157.931 408.343 156.654 409.779 155.805C411.196 154.933 412.53 154.471 413.482 154.458C413.952 154.429 414.32 154.478 414.558 154.535C414.797 154.594 414.919 154.634 414.915 154.655Z" fill="#FAFAFA"/>
<path d="M414.109 141.67C414.122 141.682 414.061 141.782 413.901 141.932C413.743 142.083 413.471 142.277 413.073 142.421C412.29 142.728 410.98 142.741 409.61 142.15C408.238 141.593 406.783 140.656 404.913 140.474C403.063 140.234 400.985 140.556 398.877 141.13C396.762 141.697 394.784 142.45 392.896 142.898C391.016 143.354 389.256 143.554 387.78 143.445C386.302 143.363 385.146 142.945 384.417 142.574C384.047 142.391 383.783 142.213 383.613 142.078C383.44 141.949 383.355 141.874 383.367 141.856C383.418 141.722 384.917 142.934 387.801 143.002C389.223 143.05 390.92 142.812 392.754 142.336C394.59 141.87 396.554 141.103 398.711 140.523C400.857 139.94 403.026 139.615 404.988 139.9C406.983 140.132 408.511 141.172 409.781 141.741C411.064 142.352 412.247 142.398 412.997 142.188C413.758 141.985 414.067 141.619 414.109 141.67Z" fill="#FAFAFA"/>
<path d="M419.818 127.954C419.773 128.006 419.351 127.518 418.355 127.019C417.376 126.511 415.765 126.089 413.789 126.298C411.807 126.473 409.593 127.432 407.306 128.773C405.01 130.08 402.53 131.81 399.448 132.612C397.921 133.015 396.314 133.069 394.847 132.739C393.379 132.415 392.075 131.815 390.868 131.231C388.475 130.023 386.344 128.924 384.344 128.784C382.367 128.56 380.761 129.048 379.858 129.673C378.955 130.311 378.664 130.901 378.604 130.857C378.586 130.846 378.656 130.706 378.812 130.446C378.973 130.191 379.263 129.842 379.713 129.475C380.621 128.75 382.314 128.164 384.382 128.342C385.409 128.424 386.534 128.661 387.656 129.12C388.778 129.559 389.917 130.139 391.119 130.709C392.32 131.273 393.593 131.841 394.975 132.137C396.354 132.437 397.836 132.386 399.293 132.003C402.227 131.243 404.68 129.568 407.019 128.269C409.342 126.942 411.667 125.98 413.748 125.854C415.814 125.692 417.489 126.208 418.47 126.803C418.968 127.093 419.309 127.387 419.523 127.597C419.733 127.817 419.833 127.939 419.818 127.954Z" fill="#FAFAFA"/>
<path d="M426.375 115.924C426.32 116.111 423.422 115.19 419.726 115.096C416.031 114.968 413.083 115.711 413.04 115.521C412.98 115.38 415.936 114.339 419.746 114.468C423.554 114.567 426.444 115.786 426.375 115.924Z" fill="#FAFAFA"/>
<path d="M366.913 118.464C366.881 118.455 366.907 118.191 367.191 117.829C367.47 117.471 368.039 117.062 368.848 116.91C369.653 116.748 370.609 116.883 371.597 116.994C372.593 117.102 373.694 117.165 374.849 117.159C379.496 117.156 383.111 115.858 383.163 116.048C383.19 116.12 382.327 116.544 380.835 116.963C379.351 117.389 377.224 117.78 374.852 117.788C373.668 117.795 372.541 117.712 371.525 117.571C370.509 117.422 369.637 117.258 368.915 117.349C368.2 117.43 367.667 117.73 367.369 117.998C367.065 118.268 366.959 118.486 366.913 118.464Z" fill="#FAFAFA"/>
<path d="M423.159 195.058C423.13 195.126 422.445 194.702 421.07 194.482C419.703 194.274 417.632 194.479 415.376 195.548C414.245 196.065 413.071 196.775 411.903 197.661C410.73 198.548 409.539 199.591 408.238 200.644C406.937 201.695 405.518 202.776 403.856 203.604C402.209 204.454 400.265 204.924 398.29 204.869C394.303 204.722 390.881 202.997 387.919 201.518C384.983 199.986 382.326 198.599 380.06 197.418C377.901 196.266 376.122 195.316 374.788 194.604C374.226 194.29 373.758 194.028 373.369 193.811C373.047 193.623 372.883 193.515 372.894 193.495C372.904 193.476 373.087 193.546 373.427 193.697C373.83 193.886 374.316 194.113 374.899 194.386C376.257 195.052 378.067 195.943 380.263 197.021C382.546 198.169 385.223 199.514 388.181 201.001C391.141 202.45 394.516 204.108 398.306 204.24C400.184 204.29 402 203.859 403.584 203.052C405.181 202.268 406.577 201.223 407.877 200.192C409.178 199.16 410.386 198.128 411.592 197.243C412.803 196.355 414.019 195.648 415.196 195.143C417.541 194.094 419.711 193.95 421.114 194.242C421.817 194.39 422.339 194.592 422.672 194.764C423.002 194.939 423.17 195.039 423.159 195.058Z" fill="#FAFAFA"/>
<path d="M423.388 213.754C423.375 213.823 422.649 213.576 421.313 213.615C419.981 213.634 418.059 214.062 415.927 215.15C413.77 216.19 411.516 217.992 408.684 219.555C407.267 220.322 405.658 220.995 403.888 221.251C402.125 221.519 400.267 221.412 398.434 221.064C394.749 220.358 391.521 218.859 388.52 217.836C385.529 216.774 382.71 216.172 380.324 216.31C377.936 216.395 376.083 217.096 374.93 217.753C373.776 218.428 373.261 218.985 373.217 218.938C373.201 218.922 373.323 218.781 373.574 218.522C373.827 218.269 374.232 217.924 374.802 217.544C375.944 216.802 377.84 216.011 380.298 215.866C382.756 215.664 385.678 216.245 388.706 217.288C391.752 218.295 394.966 219.762 398.549 220.445C400.332 220.784 402.117 220.889 403.797 220.641C405.478 220.407 407.018 219.777 408.41 219.043C411.189 217.547 413.498 215.764 415.73 214.749C417.934 213.688 419.94 213.311 421.31 213.369C421.996 213.385 422.521 213.486 422.868 213.572C423.216 213.672 423.393 213.734 423.388 213.754Z" fill="#FAFAFA"/>
<path d="M330.971 339.688C330.961 339.688 330.946 339.546 330.928 339.267C330.913 338.977 330.892 338.564 330.864 338.021C330.787 336.92 330.817 335.276 330.614 333.133C330.334 328.846 329.6 322.517 327.624 314.597C326.566 310.661 325.283 306.3 323.38 301.713C321.516 297.119 319.222 292.22 316.208 287.274C310.255 277.369 301.727 267.008 290.118 258.179C284.339 253.752 277.77 249.781 270.534 246.502C263.302 243.228 255.401 240.599 246.977 239.088C238.568 237.543 229.667 236.938 220.58 237.651C216.03 237.923 211.457 238.666 206.865 239.577C202.284 240.559 197.716 241.876 193.186 243.485C175.136 250.03 157.988 262.241 145.635 279.174C142.508 283.367 139.77 287.896 137.299 292.6C136.039 294.943 134.966 297.388 133.867 299.832C132.881 302.323 131.86 304.814 131.046 307.39C129.37 312.518 127.983 317.797 127.152 323.213C126.299 328.621 125.852 334.126 125.813 339.672C125.851 345.22 126.295 350.727 127.147 356.137C127.978 361.554 129.362 366.835 131.039 371.964C131.853 374.541 132.873 377.032 133.858 379.525C134.959 381.969 136.032 384.415 137.292 386.76C139.763 391.465 142.499 395.996 145.628 400.19C157.982 417.128 175.133 429.344 193.186 435.889C197.716 437.499 202.284 438.815 206.866 439.798C211.458 440.709 216.033 441.452 220.583 441.724C229.672 442.438 238.573 441.832 246.983 440.286C255.409 438.775 263.309 436.145 270.541 432.87C277.777 429.591 284.345 425.619 290.125 421.191C301.733 412.36 310.26 402 316.212 392.095C319.225 387.149 321.519 382.25 323.383 377.657C325.284 373.072 326.567 368.711 327.625 364.774C329.6 356.856 330.335 350.527 330.614 346.241C330.817 344.099 330.787 342.455 330.864 341.355C330.892 340.811 330.912 340.398 330.928 340.108C330.946 339.829 330.961 339.688 330.971 339.688C330.982 339.688 330.99 339.829 330.993 340.108C330.993 340.398 330.993 340.812 330.993 341.357C330.958 342.46 331.029 344.108 330.868 346.257C330.669 350.558 330.012 356.918 328.1 364.894C327.074 368.858 325.819 373.253 323.94 377.88C322.099 382.514 319.82 387.458 316.816 392.455C310.88 402.463 302.338 412.946 290.664 421.899C284.852 426.387 278.239 430.419 270.945 433.753C263.654 437.084 255.683 439.763 247.175 441.312C238.684 442.895 229.692 443.53 220.505 442.828C215.905 442.562 211.279 441.822 206.634 440.908C201.999 439.924 197.376 438.601 192.792 436.98C174.522 430.39 157.152 418.052 144.636 400.921C141.468 396.679 138.693 392.095 136.189 387.333C134.912 384.961 133.825 382.486 132.71 380.012C131.709 377.489 130.677 374.967 129.852 372.359C128.152 367.167 126.751 361.821 125.907 356.337C125.044 350.86 124.593 345.285 124.556 339.671C124.593 334.058 125.047 328.485 125.911 323.01C126.753 317.529 128.158 312.184 129.858 306.994C130.683 304.386 131.715 301.866 132.717 299.345C133.831 296.871 134.919 294.397 136.195 292.026C138.699 287.266 141.474 282.684 144.642 278.443C157.157 261.319 174.523 248.984 192.791 242.394C197.374 240.773 201.997 239.45 206.631 238.466C211.274 237.552 215.9 236.812 220.5 236.546C229.685 235.844 238.678 236.476 247.168 238.06C255.674 239.608 263.646 242.287 270.936 245.616C278.23 248.95 284.844 252.981 290.657 257.467C302.331 266.42 310.875 276.903 316.811 286.91C319.817 291.909 322.094 296.853 323.936 301.487C325.816 306.114 327.071 310.51 328.098 314.474C330.01 322.451 330.667 328.811 330.865 333.114C331.028 335.264 330.956 336.912 330.991 338.014C330.991 338.559 330.991 338.974 330.991 339.264C330.99 339.546 330.982 339.688 330.971 339.688Z" fill="#263238"/>
<path d="M228.079 275.899C227.731 275.899 227.449 267.145 227.449 256.348C227.449 245.547 227.731 236.795 228.079 236.795C228.427 236.795 228.708 245.548 228.708 256.348C228.708 267.145 228.427 275.899 228.079 275.899Z" fill="#263238"/>
<path d="M170.306 339.688C170.306 340.036 160.414 340.317 148.214 340.317C136.01 340.317 126.12 340.036 126.12 339.688C126.12 339.34 136.01 339.059 148.214 339.059C160.414 339.059 170.306 339.34 170.306 339.688Z" fill="#263238"/>
<path d="M330.533 339.688C330.533 340.036 321.208 340.317 309.707 340.317C298.203 340.317 288.88 340.036 288.88 339.688C288.88 339.34 298.203 339.059 309.707 339.059C321.208 339.059 330.533 339.34 330.533 339.688Z" fill="#263238"/>
<path d="M228.079 442.581C227.731 442.581 227.449 433.376 227.449 422.023C227.449 410.667 227.731 401.463 228.079 401.463C228.427 401.463 228.708 410.665 228.708 422.023C228.708 433.376 228.427 442.581 228.079 442.581Z" fill="#263238"/>
<path d="M167.121 303.273L214.053 289.787C214.053 289.787 212.434 303.273 228.079 303.273C243.724 303.273 244.263 289.787 244.263 289.787L289.037 303.273V330.245H264.223L263.683 389.586H193.553V329.167H170.896L167.121 303.273Z" fill="#FFB6C1"/>
<path d="M264.075 346.532C264.075 346.532 263.884 346.601 263.503 346.706C263.123 346.818 262.54 346.936 261.768 346.994C260.241 347.124 257.835 346.882 255.28 345.357C252.726 343.875 250.155 341.088 248.493 337.229C247.675 335.3 247.064 333.111 246.868 330.736C246.691 328.369 246.778 325.806 247.665 323.271C248.137 322.033 248.844 320.775 250.029 319.926C251.2 319.069 252.919 318.931 254.251 319.676C255.588 320.401 256.523 321.679 257.156 323.051C257.791 324.443 258.061 325.999 258.114 327.554C258.359 333.8 254.565 340.585 248.109 343.57C246.496 344.283 244.741 344.733 242.933 344.848C241.123 344.942 239.289 344.68 237.526 344.148C233.988 343.092 230.769 340.801 228.477 337.733C226.181 334.684 224.923 330.64 225.591 326.676C225.934 324.723 226.889 322.743 228.584 321.516C230.213 320.298 232.534 319.738 234.515 320.642C235.488 321.074 236.306 321.814 236.876 322.686C237.449 323.562 237.79 324.549 237.998 325.542C238.408 327.534 238.257 329.591 237.79 331.505C236.863 335.345 234.919 338.869 232.236 341.597C229.584 344.357 226.126 346.235 222.514 346.961C218.902 347.685 215.167 347.338 211.901 346.022C208.612 344.73 205.914 342.315 204.195 339.465C202.459 336.619 201.616 333.352 201.768 330.221C201.855 328.659 202.147 327.126 202.728 325.719C203.307 324.324 204.203 323.02 205.484 322.222C206.763 321.409 208.348 321.286 209.713 321.642C211.088 321.999 212.31 322.755 213.223 323.747C215.12 325.761 215.432 328.593 215.028 330.913C214.616 333.283 213.551 335.347 212.27 337.003C209.675 340.351 206.322 342.127 203.536 342.996C200.707 343.866 198.369 343.85 196.838 343.697C196.067 343.621 195.487 343.513 195.103 343.412C194.717 343.325 194.523 343.266 194.523 343.266C194.523 343.266 194.728 343.284 195.117 343.349C195.503 343.429 196.083 343.516 196.849 343.57C198.371 343.682 200.683 343.657 203.461 342.763C206.2 341.87 209.478 340.086 211.989 336.791C213.229 335.161 214.25 333.139 214.633 330.846C215.01 328.602 214.678 325.912 212.898 324.05C212.037 323.122 210.879 322.417 209.6 322.093C208.326 321.771 206.896 321.893 205.741 322.633C204.58 323.363 203.74 324.577 203.194 325.912C202.645 327.255 202.367 328.741 202.288 330.245C202.152 333.265 202.978 336.428 204.666 339.175C206.34 341.928 208.937 344.242 212.117 345.484C215.274 346.748 218.897 347.078 222.393 346.371C225.887 345.66 229.221 343.847 231.794 341.165C234.395 338.516 236.282 335.085 237.179 331.358C237.631 329.498 237.766 327.552 237.381 325.668C237.025 323.81 236.009 321.972 234.257 321.215C232.54 320.421 230.448 320.902 228.955 322.019C227.418 323.13 226.532 324.939 226.204 326.786C225.57 330.536 226.761 334.429 228.971 337.366C231.177 340.325 234.29 342.549 237.7 343.571C239.398 344.088 241.162 344.343 242.899 344.256C244.632 344.149 246.316 343.721 247.869 343.04C254.094 340.189 257.814 333.596 257.589 327.571C257.544 326.064 257.287 324.571 256.693 323.256C256.101 321.949 255.213 320.751 254.019 320.101C252.837 319.438 251.347 319.549 250.291 320.305C249.223 321.059 248.534 322.24 248.078 323.424C247.214 325.838 247.1 328.389 247.265 330.699C247.441 333.03 248.026 335.185 248.815 337.088C250.42 340.896 252.916 343.657 255.404 345.144C257.894 346.675 260.247 346.953 261.758 346.864C263.291 346.776 264.064 346.481 264.075 346.532Z" fill="#FAFAFA"/>
<path d="M123.71 443.206C123.71 443.206 143.683 443.741 145.287 433.576C146.893 423.412 147.842 410.85 147.842 410.85H152.242C152.242 410.85 150.935 432.579 149.388 437.412C147.842 442.246 139.402 446.484 135.478 446.986C131.555 447.486 120.855 446.986 120.855 446.986L123.71 443.206Z" fill="#C9AD9D"/>
<path d="M147.805 407.388L196.166 379.563C196.166 379.563 204.056 379.553 207.377 387.917C208.353 390.376 208.683 392.535 208.627 394.391C208.496 398.806 205.415 402.594 201.226 403.992L152.369 420.29L147.805 407.388Z" fill="#C9AD9D"/>
<path d="M137.943 398.945L182.778 371.539C185.328 370.072 188.352 369.977 191.016 371.549C193.215 372.846 195.397 375.327 196.302 380.036C198.411 391.022 193.792 393.417 193.792 393.417L142.88 411.207L137.943 398.945Z" fill="#C9AD9D"/>
<path d="M153.3 412.241C154.56 415.804 154.143 419.407 152.368 420.29C150.594 421.172 148.134 418.999 146.874 415.437C145.615 411.874 146.031 408.271 147.806 407.388C149.579 406.506 152.039 408.679 153.3 412.241Z" fill="#263238"/>
<path d="M144.312 403C145.571 406.562 145.155 410.165 143.38 411.048C141.606 411.93 139.146 409.757 137.886 406.195C136.626 402.632 137.043 399.029 138.818 398.146C140.592 397.263 143.052 399.437 144.312 403Z" fill="#263238"/>
<path d="M200.638 404.218C200.528 404.171 201.248 402.814 201.701 400.437C202.164 398.088 202.214 394.629 200.844 391.212C199.468 387.795 197.038 385.332 195.077 383.957C193.104 382.555 191.646 382.073 191.693 381.963C191.706 381.927 192.079 382.011 192.726 382.252C193.374 382.491 194.285 382.917 195.328 383.589C197.406 384.905 199.992 387.414 201.428 390.976C202.855 394.54 202.725 398.141 202.135 400.528C201.847 401.734 201.486 402.673 201.182 403.294C200.883 403.916 200.671 404.235 200.638 404.218Z" fill="#263238"/>
<path d="M180.519 373.639C180.484 373.592 181.282 373.084 182.744 373.1C184.185 373.099 186.189 373.778 187.801 375.292C189.399 376.807 190.316 378.579 190.907 379.837C191.492 381.11 191.768 381.929 191.694 381.964C191.612 382.004 191.19 381.248 190.512 380.041C189.828 378.848 188.873 377.173 187.372 375.753C185.871 374.344 184.051 373.654 182.72 373.544C181.375 373.415 180.551 373.747 180.519 373.639Z" fill="#263238"/>
<path d="M186.705 387.486C186.791 387.637 184.193 389.271 180.905 391.136C177.616 393.003 174.88 394.392 174.794 394.241C174.708 394.09 177.304 392.456 180.595 390.589C183.883 388.725 186.619 387.335 186.705 387.486Z" fill="#FAFAFA"/>
<path d="M191.213 384.851C191.302 384.999 190.999 385.346 190.537 385.625C190.073 385.904 189.625 386.009 189.535 385.861C189.446 385.712 189.749 385.365 190.212 385.086C190.676 384.807 191.124 384.702 191.213 384.851Z" fill="#FAFAFA"/>
<path d="M175.546 378.266C175.624 378.428 172.684 379.978 169.127 381.996C165.565 384.009 162.724 385.731 162.625 385.58C162.531 385.441 165.232 383.474 168.818 381.448C172.398 379.417 175.476 378.114 175.546 378.266Z" fill="#FAFAFA"/>
<path d="M179.9 375.102C180.003 375.242 179.611 375.706 179.023 376.139C178.436 376.571 177.876 376.809 177.773 376.669C177.67 376.529 178.063 376.065 178.65 375.633C179.238 375.2 179.798 374.963 179.9 375.102Z" fill="#FAFAFA"/>
<path d="M196.166 379.563C196.178 379.581 196.023 379.702 195.721 379.912C195.353 380.158 194.911 380.456 194.379 380.811C193.21 381.586 191.488 382.659 189.355 383.976C185.083 386.6 179.118 390.117 172.483 393.916C165.845 397.718 159.795 401.086 155.396 403.487C153.256 404.636 151.491 405.584 150.167 406.296C149.598 406.586 149.124 406.828 148.729 407.029C148.396 407.191 148.216 407.266 148.206 407.247C148.195 407.227 148.354 407.115 148.667 406.918C149.046 406.689 149.501 406.413 150.048 406.082C151.348 405.327 153.079 404.32 155.178 403.1C159.609 400.563 165.575 397.147 172.17 393.372C178.75 389.577 184.704 386.145 189.127 383.595C191.224 382.372 192.952 381.362 194.25 380.604C194.805 380.288 195.268 380.026 195.652 379.806C195.978 379.629 196.155 379.545 196.166 379.563Z" fill="#263238"/>
<path d="M95.6885 382.948L92.1152 455.33L123.104 458.249L124.817 440.683C124.817 440.683 135.747 443.384 139.067 433.27C141.188 426.81 143.075 376.213 143.075 376.213L95.6885 382.948Z" fill="#F8C7AF"/>
<path d="M149.758 383.677C147.116 389.972 137.138 395.361 137.138 395.361L135.483 411.384C134.169 411.174 131.032 411.345 131.032 411.345C131.83 403.827 122.147 405.293 121.161 410.421C120.213 415.351 125.829 418.642 125.829 418.642C121.954 424.589 120.382 427.726 114.882 433.298C108.929 439.33 105.728 439.818 99.5839 439.637L92.8131 439.324C92.8131 439.324 90.4031 433.54 88.6358 419.877C87.7854 413.305 82.655 404.694 84.1155 394.008C88.265 363.643 121.863 369.035 121.863 369.035C134.475 359.265 155.972 368.871 149.758 383.677Z" fill="#263238"/>
<path d="M143.075 513.423L148.874 520.822L169.708 490.18C168.951 489.253 168.174 488.471 159.18 476.846C149.861 464.799 140.909 452.507 125.886 450.008C115.374 448.26 103.937 446.895 95.1298 446.991C87.813 447.072 80.2388 450.148 73.5864 454.955C60.5351 464.388 53.7329 480.252 55.1402 496.293L61.6417 551.72L56.0088 604H145.628L143.075 513.423Z" fill="#FFB6C1"/>
<path d="M156.667 473.597C156.667 473.607 156.565 473.616 156.365 473.621C156.129 473.623 155.839 473.626 155.481 473.63C154.654 473.639 153.518 473.65 152.083 473.664C150.609 473.694 148.805 473.756 146.723 473.959C144.645 474.163 142.28 474.512 139.772 475.267C138.533 475.672 137.236 476.139 136.013 476.861C134.789 477.57 133.625 478.495 132.557 479.598C130.393 481.788 128.61 484.594 126.458 487.365C125.374 488.749 124.163 490.103 122.74 491.299C121.325 492.493 119.658 493.514 117.77 494.042C115.882 494.568 113.829 494.532 111.889 494.102C109.933 493.701 108.05 493.004 106.145 492.373C104.243 491.75 102.342 491.169 100.424 491.039C98.5119 490.873 96.6117 491.203 94.8504 491.804C91.3122 493.047 88.3562 495.3 85.7735 497.591C83.1884 499.914 80.8738 502.31 78.4518 504.288C76.031 506.249 73.5642 507.909 70.9501 508.647C68.3384 509.338 65.8524 509.147 63.7988 508.655C61.727 508.174 60.0854 507.282 58.8894 506.401C57.6718 505.525 56.9724 504.576 56.5024 503.958C56.32 503.649 56.1714 503.397 56.0494 503.193C55.9504 503.019 55.9057 502.928 55.9154 502.922C56.006 502.84 56.6317 504.48 59.0332 506.203C60.2267 507.035 61.8466 507.876 63.8785 508.313C65.891 508.763 68.3239 508.911 70.8305 508.218C73.313 507.493 75.7531 505.836 78.1184 503.886C80.4957 501.915 82.7873 499.515 85.3845 497.16C87.9878 494.832 90.9824 492.52 94.6463 491.221C96.4703 490.593 98.4635 490.244 100.469 490.414C102.479 490.551 104.424 491.15 106.342 491.776C108.258 492.411 110.122 493.1 112.014 493.489C113.896 493.908 115.824 493.936 117.602 493.448C119.382 492.955 120.979 491.99 122.353 490.837C123.734 489.685 124.927 488.364 126.001 487.007C128.14 484.281 129.955 481.458 132.184 479.232C133.285 478.112 134.493 477.164 135.771 476.439C137.043 475.705 138.373 475.239 139.642 474.841C142.203 474.099 144.595 473.78 146.691 473.607C148.789 473.437 150.601 473.412 152.079 473.419C153.558 473.424 154.706 473.469 155.482 473.504C155.84 473.525 156.13 473.542 156.365 473.557C156.566 473.572 156.669 473.586 156.667 473.597Z" fill="#FAFAFA"/>
<path d="M165.786 485.27C165.795 485.384 163.806 485.078 160.397 485.943C158.7 486.36 156.662 487.064 154.463 488.22C152.279 489.386 149.876 490.946 147.689 493.174C145.416 495.338 143.665 498.313 142.363 501.765C141.675 503.475 141.013 505.279 140.148 507.07C139.285 508.86 138.172 510.629 136.654 512.123C135.159 513.614 133.13 514.781 130.883 515.01C128.646 515.3 126.398 514.862 124.18 514.47C121.968 514.089 119.68 513.64 117.44 514.051C115.197 514.415 113.195 515.799 111.78 517.662C110.339 519.519 109.384 521.698 108.722 523.906C108.055 526.126 107.595 528.386 106.974 530.578C106.359 532.765 105.563 534.91 104.315 536.759C103.086 538.613 101.45 540.11 99.6864 541.27C96.1131 543.541 91.9165 544.383 88.2031 543.73C84.4631 543.085 81.4311 541.23 78.6756 539.769C75.9262 538.257 73.3556 537.028 70.9094 536.582C68.4813 536.081 66.3033 536.166 64.6169 536.578C62.9257 537.007 61.7781 537.8 61.1318 538.441C60.4699 539.077 60.2464 539.525 60.2041 539.494C60.1944 539.488 60.2572 539.384 60.3877 539.185C60.5182 538.984 60.7066 538.681 61.0424 538.351C61.6706 537.67 62.8303 536.817 64.5553 536.341C66.2743 535.883 68.497 535.761 70.977 536.237C73.48 536.66 76.1231 537.891 78.8858 539.378C81.6594 540.82 84.677 542.62 88.2889 543.216C91.8718 543.823 95.9295 542.99 99.3723 540.783C101.071 539.656 102.641 538.209 103.815 536.426C105.005 534.652 105.778 532.57 106.381 530.41C106.99 528.246 107.448 525.984 108.123 523.725C108.8 521.466 109.776 519.219 111.284 517.273C112.759 515.324 114.922 513.819 117.33 513.434C119.729 513.003 122.074 513.48 124.29 513.863C126.506 514.261 128.7 514.684 130.808 514.413C132.921 514.203 134.807 513.129 136.249 511.708C139.204 508.826 140.482 504.965 141.878 501.569C142.584 499.856 143.299 498.195 144.242 496.73C145.157 495.25 146.234 493.963 147.373 492.859C151.953 488.415 156.93 486.478 160.34 485.704C161.198 485.483 161.983 485.411 162.653 485.302C163.332 485.254 163.906 485.209 164.37 485.199C164.805 485.215 165.153 485.227 165.427 485.237C165.665 485.249 165.786 485.26 165.786 485.27Z" fill="#FAFAFA"/>
<path d="M58.2105 583.559C58.1996 583.556 58.225 583.453 58.2842 583.253C58.3578 583.018 58.4484 582.728 58.5608 582.37C58.8652 581.619 59.2989 580.484 60.1819 579.201C61.0432 577.917 62.3201 576.452 64.1744 575.232C65.0876 574.607 66.1506 574.063 67.3321 573.638C68.5087 573.198 69.8133 572.892 71.2037 572.768C73.993 572.518 77.0239 572.884 80.2202 573.442C83.419 574.004 86.7809 574.836 90.3566 575.426C93.9202 576.031 97.7543 576.28 101.598 575.474C103.508 575.076 105.408 574.427 107.151 573.435C108.902 572.459 110.431 571.051 111.562 569.347C112.686 567.631 113.33 565.663 113.704 563.682C114.08 561.696 114.222 559.689 114.375 557.717C114.67 553.803 115.014 549.803 116.981 546.572C117.93 544.96 119.285 543.679 120.722 542.684C122.175 541.7 123.712 540.968 125.217 540.351C128.23 539.123 131.137 538.28 133.581 537.067C136.025 535.858 138.023 534.342 139.448 532.716C140.875 531.089 141.746 529.401 142.226 527.956C143.178 525.042 142.955 523.273 143.077 523.291C143.088 523.291 143.094 523.397 143.095 523.605C143.093 523.85 143.089 524.155 143.085 524.531C143.042 525.34 142.92 526.548 142.459 528.033C142.006 529.514 141.149 531.259 139.714 532.947C138.28 534.632 136.257 536.207 133.781 537.465C131.296 538.728 128.388 539.596 125.416 540.833C123.934 541.453 122.436 542.181 121.036 543.14C119.654 544.111 118.374 545.335 117.477 546.873C115.616 549.951 115.273 553.846 114.99 557.764C114.84 559.738 114.703 561.764 114.318 563.8C113.939 565.83 113.272 567.886 112.088 569.694C110.9 571.488 109.286 572.965 107.464 573.98C105.649 575.012 103.686 575.675 101.723 576.081C97.7821 576.9 93.8501 576.627 90.2623 576.001C86.6564 575.39 83.3006 574.538 80.1272 573.958C76.9647 573.381 73.9507 572.998 71.2436 573.214C69.8894 573.319 68.6162 573.603 67.4662 574.017C66.3101 574.417 65.2676 574.932 64.3676 575.529C62.5399 576.692 61.2631 578.102 60.3837 579.344C58.6357 581.866 58.3071 583.605 58.2105 583.559Z" fill="#FAFAFA"/>
<path d="M168.764 413.695L164.126 415.567C164.126 415.567 164.894 419.839 165.586 429.323C165.912 433.787 164.273 438.231 161.02 441.304C145.329 456.121 104.489 450.016 96.997 448.42C90.2624 446.985 92.7304 442.873 92.7304 442.873L92.8113 441.223C87.1869 441.425 87.6036 447.96 87.6036 447.96C88.7186 449.324 90.5813 450.506 93.0167 451.542C97.9779 453.655 103.3 454.778 108.686 455.048C116.909 455.457 132.141 455.91 144.423 454.528C161.578 452.599 167.637 442.001 169.522 437.209C170.046 435.874 170.364 434.477 170.458 433.045C171.24 421.238 168.764 413.695 168.764 413.695Z" fill="#263238"/>
<path d="M192.663 494.751L178.219 429.937L183.903 409.771L183.56 409.885C183.558 408.363 183.512 401.576 183.285 401.019C183.039 400.417 182.466 399.897 181.816 399.932C181.212 399.964 180.715 400.469 180.504 401.036C180.292 401.603 180.309 402.226 180.332 402.831C180.432 405.56 180.283 408.232 180.402 410.939L180.245 410.991C180.082 409.074 179.703 404.265 179.688 401.001C179.685 400.279 179.688 399.534 179.423 398.875C179.157 398.215 178.544 397.659 177.859 397.721C177.222 397.779 176.703 398.358 176.486 398.994C176.27 399.632 176.294 400.322 176.324 400.992C176.467 404.143 176.779 408.059 176.691 411.34C175.93 407.707 175.354 404.027 174.992 400.318C174.92 399.588 174.852 398.837 174.543 398.19C174.235 397.542 173.624 397.014 172.972 397.089C172.336 397.162 171.839 397.786 171.644 398.467C171.45 399.149 171.498 399.882 171.548 400.595C171.851 404.925 172.155 409.256 172.458 413.587L172.344 413.625C171.746 409.767 170.889 405.949 169.768 402.209C169.634 401.759 169.489 401.299 169.198 400.932C168.906 400.565 168.431 400.305 167.972 400.401C167.511 400.498 167.178 400.932 167.059 401.388C166.939 401.845 166.991 402.327 167.043 402.797C167.49 406.879 167.802 410.975 167.989 415.077L167.93 415.097L165.318 421.942C164.802 421.237 163.394 419.11 163.394 419.11L163.998 416.804C164.515 412.925 163.739 411.374 163.394 410.855C163.049 410.338 159.859 418.786 159.259 419.722C158.658 420.658 162.489 429.222 162.341 429.743L164.021 449.046L171.665 495.877L168.542 491.888L152.908 514.969L159.195 520.817C165.784 527.624 175.759 529.247 184.603 523.286C195.421 515.75 194.734 504.85 192.663 494.751Z" fill="#F8C7AF"/>
<path d="M132.966 572.624C132.879 572.623 132.805 571.546 132.746 569.602C132.699 567.579 132.634 564.785 132.554 561.368C132.408 554.417 132.155 544.819 131.651 534.229C131.143 523.635 130.478 514.056 129.961 507.124C129.715 503.714 129.513 500.928 129.367 498.911C129.24 496.969 129.211 495.891 129.297 495.881C129.384 495.871 129.577 496.932 129.854 498.86C130.134 500.787 130.476 503.583 130.847 507.044C131.592 513.966 132.398 523.554 132.908 534.17C133.413 544.782 133.525 554.402 133.443 561.363C133.403 564.843 133.331 567.659 133.235 569.605C133.145 571.551 133.053 572.625 132.966 572.624Z" fill="#263238"/>
<path d="M133.318 589.762C132.972 589.8 132.415 587.366 132.072 584.326C131.73 581.284 131.733 578.787 132.078 578.749C132.424 578.71 132.981 581.143 133.322 584.185C133.664 587.226 133.662 589.723 133.318 589.762Z" fill="#263238"/>
<path d="M127.487 455.005C127.496 455.14 126.297 455.056 124.365 455.753C122.461 456.441 119.87 458.21 118.075 461.422C117.184 463.007 116.468 464.908 116.191 467.02C115.95 469.131 116.11 471.464 116.644 473.822C117.186 476.186 118.095 478.592 119.273 480.979C119.855 482.176 120.514 483.365 121.213 484.555C121.561 485.134 121.923 485.786 122.301 486.298C122.689 486.818 123.153 487.394 123.595 487.942C130.821 496.813 137.375 504.864 141.921 510.842C144.199 513.83 146.001 516.278 147.178 518.024C148.366 519.76 148.935 520.78 148.873 520.822C148.79 520.876 148.089 519.953 146.783 518.314C145.49 516.665 143.585 514.304 141.221 511.393C136.418 505.544 129.861 497.557 122.613 488.731C122.158 488.164 121.726 487.633 121.271 487.019C120.817 486.39 120.503 485.805 120.133 485.19C119.424 483.975 118.757 482.755 118.165 481.522C116.969 479.062 116.046 476.557 115.512 474.074C114.985 471.588 114.85 469.152 115.157 466.882C115.5 464.619 116.313 462.622 117.308 460.972C118.304 459.317 119.524 458.026 120.736 457.09C121.955 456.151 123.183 455.609 124.205 455.291C124.723 455.145 125.184 455.024 125.598 454.993C126.006 454.937 126.351 454.895 126.635 454.919C127.2 454.932 127.489 454.961 127.487 455.005Z" fill="#263238"/>
<path d="M532.915 333V329.064H522.451V324.936L532.243 310.6H537.779V324.68H541.363V329.064H537.779V333H532.915ZM527.603 324.68H532.915V316.904L527.603 324.68ZM552.463 333.384C550.628 333.384 548.996 332.893 547.567 331.912C546.137 330.909 545.017 329.544 544.207 327.816C543.417 326.067 543.023 324.061 543.023 321.8C543.023 319.539 543.417 317.544 544.207 315.816C545.017 314.067 546.127 312.701 547.535 311.72C548.964 310.717 550.596 310.216 552.431 310.216C554.287 310.216 555.929 310.717 557.359 311.72C558.788 312.701 559.908 314.067 560.719 315.816C561.551 317.544 561.967 319.539 561.967 321.8C561.967 324.061 561.561 326.067 560.751 327.816C559.94 329.544 558.82 330.909 557.391 331.912C555.961 332.893 554.319 333.384 552.463 333.384ZM552.495 328.712C553.348 328.712 554.105 328.413 554.767 327.816C555.449 327.219 555.983 326.408 556.367 325.384C556.751 324.339 556.943 323.144 556.943 321.8C556.943 320.435 556.751 319.229 556.367 318.184C555.983 317.139 555.449 316.317 554.767 315.72C554.084 315.123 553.305 314.824 552.431 314.824C551.577 314.824 550.82 315.123 550.159 315.72C549.497 316.317 548.975 317.139 548.591 318.184C548.228 319.229 548.047 320.435 548.047 321.8C548.047 323.144 548.228 324.339 548.591 325.384C548.975 326.429 549.497 327.251 550.159 327.848C550.841 328.424 551.62 328.712 552.495 328.712ZM573.728 333V329.064H563.264V324.936L573.056 310.6H578.592V324.68H582.176V329.064H578.592V333H573.728ZM568.416 324.68H573.728V316.904L568.416 324.68Z" fill="#624737"/>
</g>
<defs>
<clipPath id="clip0_1154_5460">
<rect width="604" height="604" fill="white"/>
</clipPath>
</defs>
</svg>
