<svg width="23" height="32" viewBox="0 0 23 32" fill="none" xmlns="http://www.w3.org/2000/svg">
<path d="M16.9548 14.1365C16.2608 12.9343 15.8693 12.0077 15.7803 11.3566C15.6913 10.7055 15.8156 9.86695 16.1533 8.8409C16.4533 7.95532 16.6493 7.22377 16.7413 6.64626C16.8333 6.06875 16.7337 5.52769 16.4424 5.0231C16.091 4.41461 15.5957 4.02783 14.9562 3.86276C14.3167 3.69768 13.6333 3.82507 12.9061 4.24493C12.1492 4.68192 11.707 5.24399 11.5793 5.93113C11.4516 6.61827 11.4433 7.24642 11.5542 7.81559L8.69574 8.15991C8.45902 7.03014 8.55485 5.87657 8.98323 4.69921C9.41162 3.52184 10.2565 2.569 11.518 1.84068C13.0764 0.940986 14.5254 0.683181 15.8652 1.06726C17.205 1.45135 18.2262 2.25187 18.9288 3.46884C19.3572 4.21089 19.564 4.93746 19.549 5.64854C19.5341 6.35962 19.3781 7.24616 19.081 8.30816C18.7565 9.42554 18.6213 10.211 18.6754 10.6646C18.7295 11.1182 19.0094 11.7828 19.5149 12.6584L16.9548 14.1365ZM21.2861 18.7595C20.7964 19.0423 20.2764 19.1099 19.7263 18.9625C19.1762 18.8151 18.7597 18.4965 18.477 18.0068C18.1942 17.517 18.1265 16.9971 18.2739 16.447C18.4214 15.8968 18.7399 15.4804 19.2297 15.1976C19.7194 14.9149 20.2394 14.8472 20.7895 14.9946C21.3396 15.142 21.7561 15.4606 22.0388 15.9503C22.3216 16.4401 22.3893 16.96 22.2419 17.5102C22.0945 18.0603 21.7759 18.4767 21.2861 18.7595Z" fill="#D5BFB3"/>
<path d="M6.59042 25.8691C6.34938 24.5021 6.2984 23.4975 6.43747 22.8552C6.57654 22.2129 6.98018 21.4675 7.6484 20.6188C8.23321 19.8892 8.66761 19.2688 8.9516 18.7576C9.23559 18.2464 9.327 17.7039 9.22582 17.1301C9.10381 16.4381 8.77058 15.9053 8.22613 15.5314C7.68167 15.1576 6.99597 15.0436 6.16901 15.1894C5.3083 15.3412 4.70046 15.7181 4.34548 16.3201C3.9905 16.9221 3.7678 17.5095 3.67738 18.0823L0.873535 17.4282C1.03749 16.2856 1.52209 15.2344 2.32732 14.2746C3.13254 13.3147 4.25242 12.7083 5.68693 12.4554C7.45898 12.1429 8.90881 12.3963 10.0364 13.2154C11.164 14.0346 11.8499 15.1361 12.0939 16.52C12.2427 17.3638 12.1885 18.1173 11.9312 18.7804C11.674 19.4435 11.2242 20.2232 10.5818 21.1195C9.89472 22.0585 9.49903 22.7504 9.39473 23.1951C9.29043 23.6398 9.32607 24.3601 9.50164 25.3558L6.59042 25.8691ZM9.07935 31.6947C8.52242 31.7929 8.01069 31.6787 7.54416 31.352C7.07762 31.0254 6.79526 30.5836 6.69706 30.0266C6.59885 29.4697 6.71309 28.958 7.03976 28.4914C7.36643 28.0249 7.80823 27.7425 8.36516 27.6443C8.92208 27.5461 9.43382 27.6604 9.90035 27.987C10.3669 28.3137 10.6492 28.7555 10.7474 29.3124C10.8457 29.8694 10.7314 30.3811 10.4047 30.8476C10.0781 31.3142 9.63628 31.5965 9.07935 31.6947Z" fill="#221812"/>
</svg>
