<svg width="18" height="16" viewBox="0 0 18 16" fill="none" xmlns="http://www.w3.org/2000/svg">
<path d="M9.13224 12.1375C10.7597 12.1375 12.0789 10.8182 12.0789 9.19083C12.0789 7.56342 10.7597 6.24414 9.13224 6.24414C7.50483 6.24414 6.18555 7.56342 6.18555 9.19083C6.18555 10.8182 7.50483 12.1375 9.13224 12.1375Z" fill="white"/>
<path d="M15.8675 5.80733V12.5426C15.8675 12.7205 15.8318 12.8889 15.7812 13.0499C15.616 13.5677 15.2098 13.9739 14.692 14.1391C14.531 14.1907 14.3626 14.2254 14.1848 14.2254H5.97508L7.65891 15.9092H14.1837C14.6489 15.9092 15.0919 15.8145 15.495 15.6451C15.8981 15.4746 16.2611 15.2283 16.5653 14.9231C16.7179 14.7705 16.8557 14.6043 16.9768 14.4243C17.2188 14.0665 17.3935 13.6582 17.483 13.2204C17.5282 13.0015 17.5514 12.7741 17.5514 12.5416V7.0702L16.9199 5.07066L15.7812 5.30008C15.8318 5.46109 15.8675 5.62948 15.8675 5.80733Z" fill="white"/>
<path d="M2.39696 5.80733C2.39696 5.62948 2.43274 5.46109 2.48325 5.30008C2.64848 4.7823 3.0547 4.37608 3.57248 4.21085C3.73455 4.15929 3.90293 4.12351 4.08078 4.12351H14.1837C14.3616 4.12351 14.53 4.15929 14.691 4.2098L14.7099 2.96588L12.9209 2.43968L11.237 0.755859H7.02747L5.34365 2.43968H4.08078C2.22121 2.43968 0.713135 3.94776 0.713135 5.80733V9.17498L2.39696 10.8588V5.80733Z" fill="white"/>
<path d="M14.1837 2.43968H12.9209L14.692 4.21085C14.8215 4.2519 14.9435 4.30873 15.0572 4.37818C15.2845 4.5171 15.475 4.70758 15.6139 4.9349C15.6834 5.04856 15.7402 5.17063 15.7812 5.30008L17.5514 7.0702V5.80733C17.5514 3.94776 16.0433 2.43968 14.1837 2.43968Z" fill="white"/>
<path d="M4.08078 15.9103H8.27876L6.59494 14.2264H4.08078C3.15257 14.2264 2.39696 13.4708 2.39696 12.5426V10.0285L0.713135 8.34464V12.5426C0.713135 14.4022 2.22121 15.9103 4.08078 15.9103Z" fill="white"/>
</svg>
