<svg width="287" height="62" viewBox="0 0 287 62" fill="none" xmlns="http://www.w3.org/2000/svg">
<g filter="url(#filter0_dd_2_21)">
<rect x="3" y="3" width="281" height="54" rx="10" fill="white"/>
<rect width="24" height="24" transform="translate(18 18)" fill="white"/>
<path fill-rule="evenodd" clip-rule="evenodd" d="M41.04 30.2614C41.04 29.4459 40.9668 28.6618 40.8309 27.9091H30V32.3575H36.1891C35.9225 33.795 35.1123 35.013 33.8943 35.8284V38.7139H37.6109C39.7855 36.7118 41.04 33.7636 41.04 30.2614Z" fill="#4285F4"/>
<path fill-rule="evenodd" clip-rule="evenodd" d="M29.9999 41.4998C33.1049 41.4998 35.7081 40.4701 37.6108 38.7137L33.8942 35.8282C32.8645 36.5182 31.5472 36.926 29.9999 36.926C27.0047 36.926 24.4695 34.903 23.5651 32.1848H19.7231V35.1644C21.6154 38.9228 25.5045 41.4998 29.9999 41.4998Z" fill="#34A853"/>
<path fill-rule="evenodd" clip-rule="evenodd" d="M23.5652 32.1851C23.3352 31.4951 23.2045 30.758 23.2045 30.0001C23.2045 29.2421 23.3352 28.5051 23.5652 27.8151V24.8355H19.7232C18.9443 26.388 18.5 28.1444 18.5 30.0001C18.5 31.8557 18.9443 33.6121 19.7232 35.1646L23.5652 32.1851Z" fill="#FBBC05"/>
<path fill-rule="evenodd" clip-rule="evenodd" d="M29.9999 23.0739C31.6883 23.0739 33.2042 23.6541 34.3961 24.7936L37.6945 21.4952C35.7029 19.6395 33.0997 18.5 29.9999 18.5C25.5045 18.5 21.6154 21.077 19.7231 24.8355L23.5651 27.815C24.4695 25.0968 27.0047 23.0739 29.9999 23.0739Z" fill="#EA4335"/>
<path d="M65.9258 32.3379C65.9258 32.0449 65.8802 31.7845 65.7891 31.5566C65.7044 31.3288 65.5514 31.1204 65.3301 30.9316C65.1087 30.7428 64.7962 30.5605 64.3926 30.3848C63.9954 30.2025 63.4876 30.0169 62.8691 29.8281C62.1921 29.6198 61.5671 29.3887 60.9941 29.1348C60.4277 28.8743 59.9329 28.5749 59.5098 28.2363C59.0866 27.8913 58.7578 27.4974 58.5234 27.0547C58.2891 26.6055 58.1719 26.0879 58.1719 25.502C58.1719 24.9225 58.2923 24.3952 58.5332 23.9199C58.7806 23.4447 59.1289 23.0345 59.5781 22.6895C60.0339 22.3379 60.571 22.0677 61.1895 21.8789C61.8079 21.6836 62.4915 21.5859 63.2402 21.5859C64.2949 21.5859 65.2031 21.7812 65.9648 22.1719C66.7331 22.5625 67.3223 23.0866 67.7324 23.7441C68.1491 24.4017 68.3574 25.1276 68.3574 25.9219H65.9258C65.9258 25.4531 65.8249 25.0397 65.623 24.6816C65.4277 24.3171 65.1283 24.0306 64.7246 23.8223C64.3275 23.6139 63.8229 23.5098 63.2109 23.5098C62.6315 23.5098 62.1497 23.5977 61.7656 23.7734C61.3815 23.9492 61.0951 24.1868 60.9062 24.4863C60.7174 24.7858 60.623 25.1243 60.623 25.502C60.623 25.7689 60.6849 26.013 60.8086 26.2344C60.9323 26.4492 61.1211 26.651 61.375 26.8398C61.6289 27.0221 61.9479 27.1947 62.332 27.3574C62.7161 27.5202 63.1686 27.6764 63.6895 27.8262C64.4772 28.0605 65.1641 28.321 65.75 28.6074C66.3359 28.8874 66.8242 29.2064 67.2148 29.5645C67.6055 29.9225 67.8984 30.3294 68.0938 30.7852C68.2891 31.2344 68.3867 31.7454 68.3867 32.3184C68.3867 32.9173 68.2663 33.4577 68.0254 33.9395C67.7845 34.4147 67.4395 34.8216 66.9902 35.1602C66.5475 35.4922 66.0137 35.7493 65.3887 35.9316C64.7702 36.1074 64.0801 36.1953 63.3184 36.1953C62.6348 36.1953 61.9609 36.1042 61.2969 35.9219C60.6393 35.7396 60.0404 35.4629 59.5 35.0918C58.9596 34.7142 58.5299 34.2454 58.2109 33.6855C57.8919 33.1191 57.7324 32.4583 57.7324 31.7031H60.1836C60.1836 32.1654 60.2617 32.5592 60.418 32.8848C60.5807 33.2103 60.8053 33.4772 61.0918 33.6855C61.3783 33.8874 61.7103 34.0371 62.0879 34.1348C62.472 34.2324 62.8822 34.2812 63.3184 34.2812C63.8913 34.2812 64.3698 34.1999 64.7539 34.0371C65.1445 33.8743 65.4375 33.6465 65.6328 33.3535C65.8281 33.0605 65.9258 32.722 65.9258 32.3379ZM72.8398 25.4336V36H70.4766V25.4336H72.8398ZM70.3203 22.6602C70.3203 22.3021 70.4375 22.0059 70.6719 21.7715C70.9128 21.5306 71.2448 21.4102 71.668 21.4102C72.0846 21.4102 72.4134 21.5306 72.6543 21.7715C72.8952 22.0059 73.0156 22.3021 73.0156 22.6602C73.0156 23.0117 72.8952 23.3047 72.6543 23.5391C72.4134 23.7734 72.0846 23.8906 71.668 23.8906C71.2448 23.8906 70.9128 23.7734 70.6719 23.5391C70.4375 23.3047 70.3203 23.0117 70.3203 22.6602ZM82.1855 25.4336H84.3242V35.707C84.3242 36.6576 84.1224 37.4648 83.7188 38.1289C83.3151 38.793 82.752 39.2975 82.0293 39.6426C81.3066 39.9941 80.4701 40.1699 79.5195 40.1699C79.1159 40.1699 78.6667 40.1113 78.1719 39.9941C77.6836 39.877 77.2083 39.6882 76.7461 39.4277C76.2904 39.1738 75.9095 38.8385 75.6035 38.4219L76.707 37.0352C77.0846 37.4844 77.5013 37.8132 77.957 38.0215C78.4128 38.2298 78.8913 38.334 79.3926 38.334C79.9329 38.334 80.3919 38.2331 80.7695 38.0312C81.1536 37.8359 81.4499 37.5462 81.6582 37.1621C81.8665 36.778 81.9707 36.3092 81.9707 35.7559V27.8262L82.1855 25.4336ZM75.0078 30.834V30.6289C75.0078 29.8281 75.1055 29.099 75.3008 28.4414C75.4961 27.7773 75.776 27.2077 76.1406 26.7324C76.5052 26.2507 76.9479 25.8828 77.4688 25.6289C77.9896 25.3685 78.5788 25.2383 79.2363 25.2383C79.9199 25.2383 80.5026 25.362 80.9844 25.6094C81.4727 25.8568 81.8796 26.2116 82.2051 26.6738C82.5306 27.1296 82.7845 27.6764 82.9668 28.3145C83.1556 28.946 83.2956 29.6491 83.3867 30.4238V31.0781C83.3021 31.8333 83.1589 32.5234 82.957 33.1484C82.7552 33.7734 82.4883 34.3138 82.1562 34.7695C81.8242 35.2253 81.4141 35.5768 80.9258 35.8242C80.444 36.0716 79.8743 36.1953 79.2168 36.1953C78.5723 36.1953 77.9896 36.0618 77.4688 35.7949C76.9544 35.528 76.5117 35.1536 76.1406 34.6719C75.776 34.1901 75.4961 33.6237 75.3008 32.9727C75.1055 32.3151 75.0078 31.6022 75.0078 30.834ZM77.3613 30.6289V30.834C77.3613 31.3158 77.4069 31.765 77.498 32.1816C77.5957 32.5983 77.7422 32.9661 77.9375 33.2852C78.1393 33.5977 78.3932 33.8451 78.6992 34.0273C79.0117 34.2031 79.3796 34.291 79.8027 34.291C80.3561 34.291 80.8086 34.1738 81.1602 33.9395C81.5182 33.7051 81.7917 33.3893 81.9805 32.9922C82.1758 32.5885 82.3125 32.1393 82.3906 31.6445V29.877C82.3516 29.4928 82.2702 29.1348 82.1465 28.8027C82.0293 28.4707 81.8698 28.181 81.668 27.9336C81.4661 27.6797 81.2122 27.4844 80.9062 27.3477C80.6003 27.2044 80.2389 27.1328 79.8223 27.1328C79.3991 27.1328 79.0312 27.224 78.7188 27.4062C78.4062 27.5885 78.1491 27.8392 77.9473 28.1582C77.752 28.4772 77.6055 28.8483 77.5078 29.2715C77.4102 29.6947 77.3613 30.1471 77.3613 30.6289ZM89.0996 27.6895V36H86.7461V25.4336H88.9629L89.0996 27.6895ZM88.6797 30.3262L87.918 30.3164C87.9245 29.5677 88.0286 28.8809 88.2305 28.2559C88.4388 27.6309 88.7253 27.0938 89.0898 26.6445C89.4609 26.1953 89.9036 25.8503 90.418 25.6094C90.9323 25.362 91.5052 25.2383 92.1367 25.2383C92.6445 25.2383 93.1035 25.3099 93.5137 25.4531C93.9303 25.5898 94.2852 25.8145 94.5781 26.127C94.8776 26.4395 95.1055 26.8464 95.2617 27.3477C95.418 27.8424 95.4961 28.4512 95.4961 29.1738V36H93.1328V29.1641C93.1328 28.6562 93.0579 28.2559 92.9082 27.9629C92.765 27.6634 92.5534 27.4518 92.2734 27.3281C92 27.1979 91.6582 27.1328 91.248 27.1328C90.8444 27.1328 90.4831 27.2174 90.1641 27.3867C89.8451 27.556 89.5749 27.7871 89.3535 28.0801C89.1387 28.373 88.9727 28.7116 88.8555 29.0957C88.7383 29.4798 88.6797 29.89 88.6797 30.3262ZM111.092 21.7812H113.533V31.2832C113.533 32.3639 113.299 33.2689 112.83 33.998C112.361 34.7272 111.723 35.2773 110.916 35.6484C110.115 36.013 109.22 36.1953 108.23 36.1953C107.208 36.1953 106.297 36.013 105.496 35.6484C104.695 35.2773 104.064 34.7272 103.602 33.998C103.146 33.2689 102.918 32.3639 102.918 31.2832V21.7812H105.359V31.2832C105.359 31.9668 105.477 32.5299 105.711 32.9727C105.945 33.4089 106.277 33.7311 106.707 33.9395C107.137 34.1478 107.645 34.252 108.23 34.252C108.816 34.252 109.321 34.1478 109.744 33.9395C110.174 33.7311 110.506 33.4089 110.74 32.9727C110.975 32.5299 111.092 31.9668 111.092 31.2832V21.7812ZM118.328 27.4648V40.0625H115.975V25.4336H118.143L118.328 27.4648ZM125.213 30.6191V30.8242C125.213 31.5924 125.122 32.3053 124.939 32.9629C124.764 33.6139 124.5 34.1836 124.148 34.6719C123.803 35.1536 123.377 35.528 122.869 35.7949C122.361 36.0618 121.775 36.1953 121.111 36.1953C120.454 36.1953 119.878 36.0749 119.383 35.834C118.895 35.5866 118.481 35.2383 118.143 34.7891C117.804 34.3398 117.531 33.8125 117.322 33.207C117.12 32.5951 116.977 31.9245 116.893 31.1953V30.4043C116.977 29.6296 117.12 28.9264 117.322 28.2949C117.531 27.6634 117.804 27.1198 118.143 26.6641C118.481 26.2083 118.895 25.8568 119.383 25.6094C119.871 25.362 120.441 25.2383 121.092 25.2383C121.756 25.2383 122.345 25.3685 122.859 25.6289C123.374 25.8828 123.807 26.2474 124.158 26.7227C124.51 27.1914 124.773 27.7578 124.949 28.4219C125.125 29.0794 125.213 29.8118 125.213 30.6191ZM122.859 30.8242V30.6191C122.859 30.1309 122.814 29.6784 122.723 29.2617C122.632 28.8385 122.488 28.4674 122.293 28.1484C122.098 27.8294 121.847 27.582 121.541 27.4062C121.242 27.224 120.88 27.1328 120.457 27.1328C120.04 27.1328 119.682 27.2044 119.383 27.3477C119.083 27.4844 118.833 27.6764 118.631 27.9238C118.429 28.1712 118.273 28.4609 118.162 28.793C118.051 29.1185 117.973 29.4733 117.928 29.8574V31.752C118.006 32.2207 118.139 32.6504 118.328 33.041C118.517 33.4316 118.784 33.7441 119.129 33.9785C119.48 34.2064 119.93 34.3203 120.477 34.3203C120.9 34.3203 121.261 34.2292 121.561 34.0469C121.86 33.8646 122.104 33.6139 122.293 33.2949C122.488 32.9694 122.632 32.5951 122.723 32.1719C122.814 31.7487 122.859 31.2995 122.859 30.8242ZM135.066 33.6562L137.508 25.4336H139.012L138.602 27.8945L136.141 36H134.793L135.066 33.6562ZM133.631 25.4336L135.535 33.6953L135.691 36H134.188L131.326 25.4336H133.631ZM141.297 33.5977L143.143 25.4336H145.438L142.586 36H141.082L141.297 33.5977ZM139.266 25.4336L141.678 33.5586L141.98 36H140.633L138.143 27.8848L137.732 25.4336H139.266ZM149.559 25.4336V36H147.195V25.4336H149.559ZM147.039 22.6602C147.039 22.3021 147.156 22.0059 147.391 21.7715C147.632 21.5306 147.964 21.4102 148.387 21.4102C148.803 21.4102 149.132 21.5306 149.373 21.7715C149.614 22.0059 149.734 22.3021 149.734 22.6602C149.734 23.0117 149.614 23.3047 149.373 23.5391C149.132 23.7734 148.803 23.8906 148.387 23.8906C147.964 23.8906 147.632 23.7734 147.391 23.5391C147.156 23.3047 147.039 23.0117 147.039 22.6602ZM156.98 25.4336V27.1523H151.023V25.4336H156.98ZM152.742 22.8457H155.096V33.0801C155.096 33.4056 155.141 33.6562 155.232 33.832C155.33 34.0013 155.464 34.1152 155.633 34.1738C155.802 34.2324 156.001 34.2617 156.229 34.2617C156.391 34.2617 156.548 34.252 156.697 34.2324C156.847 34.2129 156.967 34.1934 157.059 34.1738L157.068 35.9707C156.873 36.0293 156.645 36.0814 156.385 36.127C156.131 36.1725 155.838 36.1953 155.506 36.1953C154.965 36.1953 154.487 36.1009 154.07 35.9121C153.654 35.7168 153.328 35.401 153.094 34.9648C152.859 34.5286 152.742 33.9492 152.742 33.2266V22.8457ZM161.121 21V36H158.777V21H161.121ZM160.711 30.3262L159.949 30.3164C159.956 29.5872 160.057 28.9134 160.252 28.2949C160.454 27.6764 160.734 27.1393 161.092 26.6836C161.456 26.2214 161.893 25.8665 162.4 25.6191C162.908 25.3652 163.471 25.2383 164.09 25.2383C164.611 25.2383 165.079 25.3099 165.496 25.4531C165.919 25.5964 166.284 25.8275 166.59 26.1465C166.896 26.459 167.127 26.8691 167.283 27.377C167.446 27.8783 167.527 28.4902 167.527 29.2129V36H165.164V29.1934C165.164 28.6855 165.089 28.2819 164.939 27.9824C164.796 27.6829 164.585 27.4681 164.305 27.3379C164.025 27.2012 163.683 27.1328 163.279 27.1328C162.856 27.1328 162.482 27.2174 162.156 27.3867C161.837 27.556 161.57 27.7871 161.355 28.0801C161.141 28.373 160.978 28.7116 160.867 29.0957C160.763 29.4798 160.711 29.89 160.711 30.3262ZM186.043 28.7344V34.1641C185.841 34.431 185.525 34.724 185.096 35.043C184.673 35.3555 184.109 35.6257 183.406 35.8535C182.703 36.0814 181.827 36.1953 180.779 36.1953C179.887 36.1953 179.07 36.0456 178.328 35.7461C177.586 35.4401 176.945 34.9941 176.404 34.4082C175.87 33.8223 175.457 33.1094 175.164 32.2695C174.871 31.4232 174.725 30.4596 174.725 29.3789V28.3926C174.725 27.3184 174.858 26.3613 175.125 25.5215C175.398 24.6751 175.789 23.959 176.297 23.373C176.805 22.7871 177.417 22.3444 178.133 22.0449C178.855 21.7389 179.673 21.5859 180.584 21.5859C181.749 21.5859 182.713 21.7812 183.475 22.1719C184.243 22.556 184.835 23.0898 185.252 23.7734C185.669 24.457 185.932 25.2383 186.043 26.1172H183.641C183.562 25.6224 183.41 25.1797 183.182 24.7891C182.96 24.3984 182.641 24.0924 182.225 23.8711C181.814 23.6432 181.281 23.5293 180.623 23.5293C180.057 23.5293 179.559 23.6367 179.129 23.8516C178.699 24.0664 178.341 24.3822 178.055 24.7988C177.775 25.2155 177.563 25.7233 177.42 26.3223C177.277 26.9212 177.205 27.6048 177.205 28.373V29.3789C177.205 30.1602 177.286 30.8535 177.449 31.459C177.618 32.0645 177.859 32.5755 178.172 32.9922C178.491 33.4089 178.878 33.7246 179.334 33.9395C179.79 34.1478 180.304 34.252 180.877 34.252C181.437 34.252 181.896 34.2064 182.254 34.1152C182.612 34.0176 182.895 33.9036 183.104 33.7734C183.318 33.6367 183.484 33.5065 183.602 33.3828V30.5605H180.643V28.7344H186.043ZM188.074 30.834V30.6094C188.074 29.8477 188.185 29.1413 188.406 28.4902C188.628 27.8327 188.947 27.263 189.363 26.7812C189.786 26.293 190.301 25.9154 190.906 25.6484C191.518 25.375 192.208 25.2383 192.977 25.2383C193.751 25.2383 194.441 25.375 195.047 25.6484C195.659 25.9154 196.176 26.293 196.6 26.7812C197.023 27.263 197.345 27.8327 197.566 28.4902C197.788 29.1413 197.898 29.8477 197.898 30.6094V30.834C197.898 31.5957 197.788 32.3021 197.566 32.9531C197.345 33.6042 197.023 34.1738 196.6 34.6621C196.176 35.1439 195.662 35.5215 195.057 35.7949C194.451 36.0618 193.764 36.1953 192.996 36.1953C192.221 36.1953 191.528 36.0618 190.916 35.7949C190.311 35.5215 189.796 35.1439 189.373 34.6621C188.95 34.1738 188.628 33.6042 188.406 32.9531C188.185 32.3021 188.074 31.5957 188.074 30.834ZM190.428 30.6094V30.834C190.428 31.3092 190.477 31.7585 190.574 32.1816C190.672 32.6048 190.825 32.9759 191.033 33.2949C191.242 33.6139 191.508 33.8646 191.834 34.0469C192.16 34.2292 192.547 34.3203 192.996 34.3203C193.432 34.3203 193.81 34.2292 194.129 34.0469C194.454 33.8646 194.721 33.6139 194.93 33.2949C195.138 32.9759 195.291 32.6048 195.389 32.1816C195.493 31.7585 195.545 31.3092 195.545 30.834V30.6094C195.545 30.1406 195.493 29.6979 195.389 29.2812C195.291 28.8581 195.135 28.4837 194.92 28.1582C194.712 27.8327 194.445 27.5788 194.119 27.3965C193.8 27.2077 193.419 27.1133 192.977 27.1133C192.534 27.1133 192.15 27.2077 191.824 27.3965C191.505 27.5788 191.242 27.8327 191.033 28.1582C190.825 28.4837 190.672 28.8581 190.574 29.2812C190.477 29.6979 190.428 30.1406 190.428 30.6094ZM199.422 30.834V30.6094C199.422 29.8477 199.533 29.1413 199.754 28.4902C199.975 27.8327 200.294 27.263 200.711 26.7812C201.134 26.293 201.648 25.9154 202.254 25.6484C202.866 25.375 203.556 25.2383 204.324 25.2383C205.099 25.2383 205.789 25.375 206.395 25.6484C207.007 25.9154 207.524 26.293 207.947 26.7812C208.37 27.263 208.693 27.8327 208.914 28.4902C209.135 29.1413 209.246 29.8477 209.246 30.6094V30.834C209.246 31.5957 209.135 32.3021 208.914 32.9531C208.693 33.6042 208.37 34.1738 207.947 34.6621C207.524 35.1439 207.01 35.5215 206.404 35.7949C205.799 36.0618 205.112 36.1953 204.344 36.1953C203.569 36.1953 202.876 36.0618 202.264 35.7949C201.658 35.5215 201.144 35.1439 200.721 34.6621C200.298 34.1738 199.975 33.6042 199.754 32.9531C199.533 32.3021 199.422 31.5957 199.422 30.834ZM201.775 30.6094V30.834C201.775 31.3092 201.824 31.7585 201.922 32.1816C202.02 32.6048 202.173 32.9759 202.381 33.2949C202.589 33.6139 202.856 33.8646 203.182 34.0469C203.507 34.2292 203.895 34.3203 204.344 34.3203C204.78 34.3203 205.158 34.2292 205.477 34.0469C205.802 33.8646 206.069 33.6139 206.277 33.2949C206.486 32.9759 206.639 32.6048 206.736 32.1816C206.84 31.7585 206.893 31.3092 206.893 30.834V30.6094C206.893 30.1406 206.84 29.6979 206.736 29.2812C206.639 28.8581 206.482 28.4837 206.268 28.1582C206.059 27.8327 205.792 27.5788 205.467 27.3965C205.148 27.2077 204.767 27.1133 204.324 27.1133C203.882 27.1133 203.497 27.2077 203.172 27.3965C202.853 27.5788 202.589 27.8327 202.381 28.1582C202.173 28.4837 202.02 28.8581 201.922 29.2812C201.824 29.6979 201.775 30.1406 201.775 30.6094ZM217.986 25.4336H220.125V35.707C220.125 36.6576 219.923 37.4648 219.52 38.1289C219.116 38.793 218.553 39.2975 217.83 39.6426C217.107 39.9941 216.271 40.1699 215.32 40.1699C214.917 40.1699 214.467 40.1113 213.973 39.9941C213.484 39.877 213.009 39.6882 212.547 39.4277C212.091 39.1738 211.71 38.8385 211.404 38.4219L212.508 37.0352C212.885 37.4844 213.302 37.8132 213.758 38.0215C214.214 38.2298 214.692 38.334 215.193 38.334C215.734 38.334 216.193 38.2331 216.57 38.0312C216.954 37.8359 217.251 37.5462 217.459 37.1621C217.667 36.778 217.771 36.3092 217.771 35.7559V27.8262L217.986 25.4336ZM210.809 30.834V30.6289C210.809 29.8281 210.906 29.099 211.102 28.4414C211.297 27.7773 211.577 27.2077 211.941 26.7324C212.306 26.2507 212.749 25.8828 213.27 25.6289C213.79 25.3685 214.38 25.2383 215.037 25.2383C215.721 25.2383 216.303 25.362 216.785 25.6094C217.273 25.8568 217.68 26.2116 218.006 26.6738C218.331 27.1296 218.585 27.6764 218.768 28.3145C218.956 28.946 219.096 29.6491 219.188 30.4238V31.0781C219.103 31.8333 218.96 32.5234 218.758 33.1484C218.556 33.7734 218.289 34.3138 217.957 34.7695C217.625 35.2253 217.215 35.5768 216.727 35.8242C216.245 36.0716 215.675 36.1953 215.018 36.1953C214.373 36.1953 213.79 36.0618 213.27 35.7949C212.755 35.528 212.312 35.1536 211.941 34.6719C211.577 34.1901 211.297 33.6237 211.102 32.9727C210.906 32.3151 210.809 31.6022 210.809 30.834ZM213.162 30.6289V30.834C213.162 31.3158 213.208 31.765 213.299 32.1816C213.396 32.5983 213.543 32.9661 213.738 33.2852C213.94 33.5977 214.194 33.8451 214.5 34.0273C214.812 34.2031 215.18 34.291 215.604 34.291C216.157 34.291 216.609 34.1738 216.961 33.9395C217.319 33.7051 217.592 33.3893 217.781 32.9922C217.977 32.5885 218.113 32.1393 218.191 31.6445V29.877C218.152 29.4928 218.071 29.1348 217.947 28.8027C217.83 28.4707 217.671 28.181 217.469 27.9336C217.267 27.6797 217.013 27.4844 216.707 27.3477C216.401 27.2044 216.04 27.1328 215.623 27.1328C215.2 27.1328 214.832 27.224 214.52 27.4062C214.207 27.5885 213.95 27.8392 213.748 28.1582C213.553 28.4772 213.406 28.8483 213.309 29.2715C213.211 29.6947 213.162 30.1471 213.162 30.6289ZM225.086 21V36H222.723V21H225.086ZM232.322 36.1953C231.541 36.1953 230.835 36.0684 230.203 35.8145C229.578 35.554 229.044 35.1927 228.602 34.7305C228.165 34.2682 227.83 33.7246 227.596 33.0996C227.361 32.4746 227.244 31.8008 227.244 31.0781V30.6875C227.244 29.8607 227.365 29.112 227.605 28.4414C227.846 27.7708 228.182 27.1979 228.611 26.7227C229.041 26.2409 229.549 25.873 230.135 25.6191C230.721 25.3652 231.355 25.2383 232.039 25.2383C232.794 25.2383 233.455 25.3652 234.021 25.6191C234.588 25.873 235.057 26.2311 235.428 26.6934C235.805 27.1491 236.085 27.6927 236.268 28.3242C236.456 28.9557 236.551 29.6523 236.551 30.4141V31.4199H228.387V29.7305H234.227V29.5449C234.214 29.1217 234.129 28.7246 233.973 28.3535C233.823 27.9824 233.592 27.6829 233.279 27.4551C232.967 27.2272 232.55 27.1133 232.029 27.1133C231.639 27.1133 231.29 27.1979 230.984 27.3672C230.685 27.5299 230.434 27.7676 230.232 28.0801C230.031 28.3926 229.874 28.7702 229.764 29.2129C229.66 29.6491 229.607 30.1406 229.607 30.6875V31.0781C229.607 31.5404 229.669 31.9701 229.793 32.3672C229.923 32.7578 230.112 33.0996 230.359 33.3926C230.607 33.6855 230.906 33.9167 231.258 34.0859C231.609 34.2487 232.01 34.3301 232.459 34.3301C233.025 34.3301 233.53 34.2161 233.973 33.9883C234.415 33.7604 234.799 33.4382 235.125 33.0215L236.365 34.2227C236.137 34.5547 235.841 34.8737 235.477 35.1797C235.112 35.4792 234.666 35.7233 234.139 35.9121C233.618 36.1009 233.012 36.1953 232.322 36.1953Z" fill="black" fill-opacity="0.54"/>
</g>
<defs>
<filter id="filter0_dd_2_21" x="0" y="0" width="287" height="62" filterUnits="userSpaceOnUse" color-interpolation-filters="sRGB">
<feFlood flood-opacity="0" result="BackgroundImageFix"/>
<feColorMatrix in="SourceAlpha" type="matrix" values="0 0 0 0 0 0 0 0 0 0 0 0 0 0 0 0 0 0 127 0" result="hardAlpha"/>
<feOffset dy="2"/>
<feGaussianBlur stdDeviation="1.5"/>
<feColorMatrix type="matrix" values="0 0 0 0 0 0 0 0 0 0 0 0 0 0 0 0 0 0 0.168 0"/>
<feBlend mode="normal" in2="BackgroundImageFix" result="effect1_dropShadow_2_21"/>
<feColorMatrix in="SourceAlpha" type="matrix" values="0 0 0 0 0 0 0 0 0 0 0 0 0 0 0 0 0 0 127 0" result="hardAlpha"/>
<feOffset/>
<feGaussianBlur stdDeviation="1.5"/>
<feColorMatrix type="matrix" values="0 0 0 0 0 0 0 0 0 0 0 0 0 0 0 0 0 0 0.084 0"/>
<feBlend mode="normal" in2="effect1_dropShadow_2_21" result="effect2_dropShadow_2_21"/>
<feBlend mode="normal" in="SourceGraphic" in2="effect2_dropShadow_2_21" result="shape"/>
</filter>
</defs>
</svg>
