<svg width="896" height="560" viewBox="0 0 896 560" fill="none" xmlns="http://www.w3.org/2000/svg">
<path d="M584.535 195.569C583.662 195.569 582.954 194.862 582.954 193.988V125.43C582.954 124.557 583.662 123.85 584.535 123.85C585.408 123.85 586.116 124.557 586.116 125.43V193.988C586.116 194.862 585.408 195.569 584.535 195.569Z" fill="#EDE4DE"/>
<path d="M859.659 478.438H23.553C23.0308 478.438 22.6035 478.011 22.6035 477.488V477.164C22.6035 476.642 23.0308 476.215 23.553 476.215H859.659C860.181 476.215 860.609 476.642 860.609 477.164V477.488C860.609 478.011 860.181 478.438 859.659 478.438Z" fill="#221812"/>
<path d="M302.071 378.246C301.306 378.246 300.52 378.018 299.873 377.573C298.932 376.924 298.236 375.709 299.105 374.242C300.345 372.148 300.611 369.611 300.613 369.586L301.076 369.616C301.065 369.723 300.802 372.247 299.523 374.405C298.882 375.487 299.125 376.564 300.174 377.286C301.162 377.966 302.518 378.063 303.473 377.521L303.739 377.829C303.246 378.109 302.665 378.246 302.071 378.246Z" fill="#FFB6C1"/>
<path opacity="0.3" d="M641.049 216.847V458.78C641.049 463.023 639.507 466.904 636.957 469.893C633.816 473.58 629.13 475.919 623.906 475.919H240.805C231.755 475.919 224.308 469.174 223.413 460.531C223.368 460.1 223.34 459.664 223.33 459.222C223.327 459.074 223.323 458.928 223.323 458.78V399.672C223.323 399.212 223.344 398.756 223.378 398.303C226.582 394.612 231.354 392.27 236.686 392.27H471.628C482.541 392.27 491.571 384.346 493.056 374.041C493.198 373.063 493.271 372.065 493.271 371.042V315.866C493.271 313.516 492.859 311.26 492.103 309.162C489.29 301.353 481.694 295.755 472.769 295.755H389.154C371.101 295.755 355.316 308.285 346.753 324.512C344.272 329.198 342.399 334.198 341.259 339.292C339.776 340.418 337.924 341.082 335.92 341.082H261.075C253.058 341.082 246.555 334.706 246.555 326.845V217.528C246.555 216.215 246.665 214.922 246.883 213.668C251.213 207.728 258.304 203.857 266.317 203.857H621.967C629.711 203.857 636.563 207.579 640.772 213.298C640.955 214.452 641.049 215.641 641.049 216.847Z" fill="#F8F4F2"/>
<path d="M641.049 216.846V458.779C641.049 463.022 639.508 466.903 636.957 469.892C633.816 473.579 629.131 475.918 623.906 475.918H240.47C231.589 475.918 224.291 469.173 223.413 460.53C223.368 460.098 223.34 459.663 223.33 459.221C223.327 459.072 223.323 458.927 223.323 458.778V399.67C223.323 399.211 223.344 398.754 223.378 398.302C224.073 389.469 231.458 382.527 240.47 382.527H470.875C477.817 382.527 483.979 379.192 487.852 374.04C490.523 370.495 492.103 366.082 492.103 361.299V306.12C492.103 302.333 491.056 298.788 489.231 295.761C485.72 289.917 479.314 286.009 471.995 286.009H389.99C368.873 286.009 350.918 303.847 344.373 324.511C343.426 327.504 342.714 330.558 342.268 333.627C341.933 335.946 340.713 337.947 338.982 339.291C337.53 340.417 335.713 341.081 333.75 341.081H260.346C252.485 341.081 246.109 334.705 246.109 326.844V217.526C246.109 216.213 246.216 214.921 246.427 213.667C248.265 202.571 257.907 194.111 269.524 194.111H618.314C626.072 194.111 632.925 198.002 637.026 203.932C638.923 206.679 640.233 209.859 640.772 213.297C640.956 214.451 641.049 215.64 641.049 216.846Z" fill="#F4EFEB"/>
<path d="M307.437 340.916H299.314V369.603H307.437V340.916Z" fill="#221812"/>
<path d="M316.951 347.809H307.437V352.914H316.951V347.809Z" fill="#221812"/>
<path d="M315.982 350.361C315.982 347.711 318.131 345.562 320.781 345.562C323.431 345.562 325.579 347.711 325.579 350.361C325.579 353.011 323.431 355.159 320.781 355.159C318.131 355.159 315.982 353.011 315.982 350.361Z" fill="#221812"/>
<path d="M300.475 360.195H295.138V364.401H300.475V360.195Z" fill="#221812"/>
<path d="M326.97 185.902H314.593V193.947H326.97V185.902Z" fill="#221812"/>
<path d="M598.938 188.832H571.563C568.868 188.832 566.726 186.569 566.881 183.877L567.327 176.198L567.33 176.126L567.631 170.949L568.464 156.522L568.73 151.978L569.366 140.951L569.601 136.922C569.743 134.444 571.795 132.506 574.276 132.506H595.746C596.506 132.506 597.225 132.686 597.861 133.01C599.291 133.736 600.304 135.174 600.424 136.874L600.646 140.108L601.278 149.418L601.378 150.886L602.418 166.212L603.251 178.472L603.618 183.828C603.801 186.537 601.651 188.832 598.938 188.832Z" fill="#FFB6C1"/>
<g opacity="0.3">
<path d="M321.168 321.045H302.989V193.948H303.762V320.271H320.395V193.803H321.168V321.045Z" fill="#F8F4F2"/>
</g>
<path d="M653.605 298.189H641.05V229.746H653.605C656.325 229.746 658.531 231.952 658.531 234.672V293.263C658.531 295.984 656.325 298.189 653.605 298.189Z" fill="#FF9FAE"/>
<path d="M331.263 380.996H273.4V382.362H331.263V380.996Z" fill="#F8F4F2"/>
<path d="M303.375 240.98L297.806 234.482V193.947H303.375V240.98Z" fill="#221812"/>
<g opacity="0.3">
<path d="M303.762 320.656H302.989V340.916H303.762V320.656Z" fill="#F8F4F2"/>
</g>
<g opacity="0.3">
<path d="M641.05 458.225H223.324V458.998H641.05V458.225Z" fill="#F8F4F2"/>
</g>
<path d="M342.402 214.37C342.402 212.661 343.788 211.275 345.497 211.275C347.206 211.275 348.591 212.661 348.591 214.37C348.591 216.079 347.206 217.464 345.497 217.464C343.788 217.464 342.402 216.079 342.402 214.37Z" fill="#221812"/>
<path d="M354.547 214.37C354.547 212.661 355.932 211.275 357.641 211.275C359.35 211.275 360.735 212.661 360.735 214.37C360.735 216.079 359.35 217.464 357.641 217.464C355.932 217.464 354.547 216.079 354.547 214.37Z" fill="#221812"/>
<path d="M366.692 214.37C366.692 212.661 368.078 211.275 369.787 211.275C371.496 211.275 372.881 212.661 372.881 214.37C372.881 216.079 371.496 217.464 369.787 217.464C368.078 217.464 366.692 216.079 366.692 214.37Z" fill="#221812"/>
<path d="M321.826 177.934H319.814V188.763H321.826V177.934Z" fill="#221812"/>
<path d="M303.686 380.995H303.497L302.863 369.604H304.35L303.686 380.995Z" fill="#221812"/>
<path d="M306.022 380.995H305.833L305.199 369.604H306.686L306.022 380.995Z" fill="#221812"/>
<path d="M306.816 380.994H302.554C301.747 380.994 301.091 380.28 301.091 379.401C301.091 379.138 301.287 378.924 301.53 378.924C301.772 378.924 301.969 379.138 301.969 379.401C301.969 379.753 302.232 380.038 302.554 380.038H306.816C307.139 380.038 307.401 379.753 307.401 379.401C307.401 379.138 307.597 378.924 307.84 378.924C308.082 378.924 308.279 379.138 308.279 379.401C308.279 380.28 307.622 380.994 306.816 380.994Z" fill="#624737"/>
<path d="M582.126 391.029H568.74C565.469 391.029 562.793 388.353 562.793 385.082C562.793 381.811 565.469 379.135 568.74 379.135H582.126C585.398 379.135 588.074 381.811 588.074 385.082C588.074 388.353 585.397 391.029 582.126 391.029Z" fill="#FFB6C1"/>
<path d="M609.123 391.416H568.595C565.182 391.416 562.406 388.64 562.406 385.227V384.937C562.406 381.525 565.182 378.748 568.595 378.748H609.123C612.535 378.748 615.311 381.525 615.311 384.937V385.227C615.311 388.64 612.535 391.416 609.123 391.416ZM568.595 379.522C565.609 379.522 563.179 381.951 563.179 384.937V385.228C563.179 388.214 565.609 390.643 568.595 390.643H609.122C612.108 390.643 614.538 388.214 614.538 385.228V384.937C614.538 381.951 612.108 379.522 609.122 379.522H568.595Z" fill="#FF9FAE"/>
<path d="M568.055 371.001C567.151 371.001 566.412 370.262 566.412 369.358V363.947C566.412 363.044 567.151 362.305 568.055 362.305C568.958 362.305 569.697 363.044 569.697 363.947V369.358C569.697 370.262 568.958 371.001 568.055 371.001Z" fill="#221812"/>
<path d="M589.891 371.001C588.988 371.001 588.249 370.262 588.249 369.358V363.947C588.249 363.044 588.988 362.305 589.891 362.305C590.795 362.305 591.534 363.044 591.534 363.947V369.358C591.534 370.262 590.795 371.001 589.891 371.001Z" fill="#221812"/>
<path d="M611.728 371.001C610.824 371.001 610.085 370.262 610.085 369.358V363.947C610.085 363.044 610.824 362.305 611.728 362.305C612.631 362.305 613.37 363.044 613.37 363.947V369.358C613.37 370.262 612.631 371.001 611.728 371.001Z" fill="#221812"/>
<path opacity="0.3" d="M568.465 156.521C568.465 156.521 582.998 158.204 601.276 149.418L601.842 157.743C601.842 157.743 593.11 168.55 567.63 170.947L568.465 156.521Z" fill="#FF9FAE"/>
<path opacity="0.5" d="M603.251 178.472C603.251 178.472 598.593 184.097 588.696 188.831H571.563C568.868 188.831 566.726 186.568 566.881 183.876L567.327 176.198L567.33 176.125C567.33 176.125 584.142 174.999 602.418 166.211L603.251 178.472Z" fill="#FF9FAE"/>
<path opacity="0.5" d="M600.647 140.107C597.564 142.948 588.185 149.925 568.73 151.977L569.366 140.951C575.908 141.303 586.682 140.38 597.861 133.01C599.292 133.736 600.304 135.173 600.425 136.873L600.647 140.107Z" fill="#FF9FAE"/>
<path d="M303.497 194.07L303.256 193.822L319.741 177.764L319.806 177.761C377.271 174.934 431.6 160.225 432.142 160.076L432.233 160.409C431.69 160.558 377.367 175.266 319.889 178.102L303.497 194.07Z" fill="#FFB6C1"/>
<path d="M466.333 231.822C466.799 232.357 466.859 232.955 466.628 233.593C466.628 233.596 466.626 233.599 466.623 233.602C466.196 234.782 464.785 236.101 463.145 237.418C462.935 237.587 462.749 237.741 462.587 237.883C462.544 237.92 462.501 237.958 462.461 237.995C462.428 238.024 462.397 238.054 462.365 238.082C460.836 239.492 461.411 239.815 458.664 242.675C455.532 245.934 453.376 245.992 452.762 245.695C452.243 245.442 453.298 243.714 454.466 241.771C454.523 241.678 454.578 241.583 454.637 241.488C454.792 241.23 454.946 240.968 455.101 240.708C456.471 238.37 456.119 237.273 455.794 233.793C455.531 230.966 451.396 217.997 451.396 217.997L457.398 216.963C457.398 216.963 459.205 227.29 461.197 228.88C462.262 229.728 463.454 229.738 464.477 230.367C464.55 230.411 464.621 230.456 464.69 230.502C465.272 230.888 465.865 231.285 466.333 231.822Z" fill="#F8C7AF"/>
<path d="M466.332 231.822C466.799 232.357 466.858 232.954 466.627 233.593C466.627 233.596 466.625 233.599 466.623 233.602C466.1 234.781 464.723 236.093 463.139 237.406C462.932 237.577 462.749 237.735 462.586 237.883C462.544 237.92 462.501 237.958 462.461 237.995C462.428 238.024 462.396 238.054 462.364 238.082C460.835 239.492 461.411 239.815 458.664 242.675C455.532 245.934 453.375 245.992 452.762 245.695C452.243 245.442 453.297 243.714 454.466 241.771C455.075 241.548 457.908 240.397 460.049 237.657C461.934 235.251 463.192 232.158 464.476 230.367C464.549 230.411 464.62 230.456 464.69 230.502C465.271 230.887 465.864 231.285 466.332 231.822Z" fill="#221812"/>
<path d="M417.934 228.073C417.563 229.926 414.922 229.617 411.972 228.896C409.021 228.175 409.722 229.032 405.523 228.567C401.324 228.102 400.051 226.536 399.923 225.912C399.809 225.358 401.884 225.162 404.109 224.906C404.389 224.875 404.67 224.84 404.952 224.805C407.464 224.49 409.305 222.869 411.587 221.537C413.749 220.276 416.975 215.137 416.975 215.137L422.734 215.593C422.734 215.593 419.712 220.183 418.543 222.179C417.856 223.352 417.892 224.905 417.978 226.103C418.022 226.754 418.065 227.42 417.934 228.073Z" fill="#F8C7AF"/>
<path d="M411.972 228.896C409.021 228.175 409.722 229.032 405.523 228.567C401.324 228.102 400.051 226.536 399.923 225.912C399.809 225.358 401.884 225.162 404.109 224.906L404.13 224.949C404.13 224.949 406.649 226.735 410.144 226.818C412.993 226.888 416.011 226.071 417.978 226.103C418.023 226.755 418.065 227.421 417.934 228.073C417.563 229.926 414.922 229.617 411.972 228.896Z" fill="#221812"/>
<path d="M440.003 191.249L445.387 205.736L452.415 224.651C452.415 224.651 454.323 224.835 456.149 224.309C457.831 223.823 459.76 222.552 459.76 222.552C459.76 222.552 457.809 202.242 454.168 190.584C453.235 187.591 452.189 185.171 451.035 183.808C445.392 177.138 440.003 191.249 440.003 191.249Z" fill="#FF9FAE"/>
<path d="M445.477 168.243C449.004 167.105 459.063 168.566 469.168 170.544L471.284 167.054L493.11 165.35C493.11 165.35 500.313 181.322 496.37 191.499C495.79 192.995 494.638 193.954 492.676 193.985C492.675 193.986 492.358 193.985 492.357 193.985C492.357 193.985 479.366 193.978 475.148 193.978C464.293 193.978 452.176 186.516 450.608 186.203C448.042 185.69 447.016 190.821 444.45 196.209C441.884 201.597 420.332 220.071 420.332 220.071C420.332 220.071 417.02 220.103 415.651 219.59C414.18 219.038 413.642 218.322 413.642 218.322C413.642 218.322 437.523 170.808 445.477 168.243Z" fill="#FFB6C1"/>
<path d="M467.367 134.742C473.948 140.692 490.003 151.247 490.096 151.21C490.096 151.21 495.235 154.667 498.936 153.297C505.105 151.013 510.215 142.155 502.397 131.65C498.498 126.411 495.133 124.576 496.293 117.943C497.55 110.756 494.76 101.491 486.455 100.673C485.76 100.605 481.574 99.8208 478.516 100.608C470.722 102.613 456.407 130.454 467.367 134.742Z" fill="#221812"/>
<path d="M477.059 130.824C477.021 130.837 480.704 133.173 483.477 132.654C486.086 132.167 488.611 128.778 488.577 128.768C487.514 128.465 486.737 127.172 487.283 120.793L486.787 120.849L478.44 121.802C478.44 121.802 478.415 124.402 478.221 126.838C478.059 128.882 477.545 130.644 477.059 130.824Z" fill="#F8C7AF"/>
<path d="M478.44 121.803C478.44 121.803 478.415 124.403 478.221 126.838C482.827 127.085 485.6 123.092 486.787 120.85L478.44 121.803Z" fill="#FFB6C1"/>
<path d="M476.715 123.982C476.715 123.982 487.575 125.053 488.138 118.28C488.701 111.507 490.481 107.083 483.572 106.113C476.662 105.143 475.098 107.615 474.361 109.831C473.623 112.046 473.905 123.529 476.715 123.982Z" fill="#F8C7AF"/>
<path d="M477.879 105.045C477.879 105.045 479.246 113.32 485.431 115.283C489.943 116.715 491.987 115.771 491.987 115.771C491.987 115.771 489.814 112.89 489.043 108.887C488.815 107.707 487.976 106.736 486.834 106.36C483.628 105.305 479.743 102.421 477.879 105.045Z" fill="#221812"/>
<path d="M479.925 106.809C479.925 106.809 477.879 107.265 476.065 109.906C475.074 111.349 473.926 114.987 474.122 116.598C474.122 116.598 472.221 108.94 474.993 106.091C477.931 103.07 479.925 106.809 479.925 106.809Z" fill="#221812"/>
<path d="M496.843 153.243C496.65 154.066 496.484 154.822 496.349 155.52C496.128 156.647 495.976 157.618 495.869 158.475C495.537 161.146 495.637 162.729 495.413 164.46C495.288 165.428 495.06 166.443 494.601 167.718C494.151 168.959 482.351 170.065 475.636 169.619C473.505 169.481 471.88 169.18 471.303 168.683C468.908 166.602 469.147 171.178 468.818 149.286C468.66 138.609 477.879 129.099 477.879 129.099C477.879 129.099 478.615 133.66 487.758 128.231C488.083 128.041 491.684 133.373 495.15 139.939C498.969 147.192 497.922 148.727 496.843 153.243Z" fill="#EDE4DE"/>
<path d="M445.387 205.736L452.415 224.651C452.415 224.651 454.323 224.835 456.149 224.309C457.831 223.823 459.76 222.552 459.76 222.552C459.76 222.552 457.809 202.242 454.168 190.584L445.387 205.736Z" fill="#FFB6C1"/>
<path d="M477.879 129.096C477.879 129.096 468.471 130.691 467.366 134.741C466.262 138.792 458.629 161.446 458.629 161.446C458.629 161.446 464.543 163.464 466.753 161.255C468.962 159.045 474.44 140.756 474.44 140.756L477.879 129.096Z" fill="#EDE4DE"/>
<path d="M439.527 156.241L437.298 155.357C437.298 155.357 435.958 155.059 435.234 155.287C434.509 155.514 432.698 155.491 432.69 155.788C432.682 156.085 434.755 157.009 434.755 157.009L434.82 156.984C434.032 158.768 430.092 159.787 429.902 160.442C429.671 161.235 431.504 161.646 432.503 161.893C433.502 162.141 435.948 162.116 437.154 160.844C438.036 159.914 439.527 158.636 439.527 158.636L439.527 156.241Z" fill="#F8C7AF"/>
<path d="M479.222 119.989C479.222 119.989 478.767 121.102 477.565 121.102C476.362 121.102 476.037 120.922 475.81 120.668C475.582 120.413 475.356 119.922 475.356 119.922C475.356 119.922 477.349 119.529 479.222 119.989Z" fill="white"/>
<path d="M461.252 153.618L438.475 155.357C438.475 155.357 437.999 157.565 439.467 160.071C439.467 160.071 460.016 164.088 465.378 162.036C470.74 159.984 470.136 150.309 470.136 150.309L461.252 153.618Z" fill="#EDE4DE"/>
<path d="M475.452 154.013L473.939 152.154C473.939 152.154 472.915 151.24 472.171 151.085C471.428 150.929 469.859 150.025 469.707 150.279C469.555 150.534 470.912 152.354 470.912 152.354L470.981 152.364C469.423 153.536 465.487 152.501 465.001 152.979C464.413 153.559 465.812 154.812 466.562 155.516C467.313 156.22 469.46 157.393 471.133 156.872C472.357 156.491 474.283 156.104 474.283 156.104L475.452 154.013Z" fill="#F8C7AF"/>
<path d="M495.869 158.473C495.537 161.144 495.638 162.727 495.413 164.458C486.871 164.486 475.45 157.861 475.45 157.861L495.869 158.473Z" fill="#EDE4DE"/>
<path d="M475.45 152.259C475.45 152.259 488.757 151.863 491.001 144.299C493.465 135.989 496.225 147.716 496.225 147.716L494.756 155.201H480.156L475.45 152.259Z" fill="#EDE4DE"/>
<path d="M487.76 128.232C487.76 128.232 496.398 128.798 498.558 132.167C500.718 135.536 503.396 152.641 502.273 158.516C501.15 164.39 473.486 157.393 473.486 157.393L474.369 152.296C474.369 152.296 490.334 152.388 491.244 150.309C492.453 147.544 487.76 128.232 487.76 128.232Z" fill="#EDE4DE"/>
<path d="M499.314 155.914C488.7 155.914 478.327 155.13 469.993 152.949C469.901 152.925 469.846 152.83 469.87 152.738C469.894 152.646 469.989 152.591 470.081 152.614C479.576 155.099 498.022 157.291 531.979 153.623C552.293 151.429 568.746 148.126 568.909 148.093C569.002 148.075 569.094 148.135 569.113 148.228C569.132 148.322 569.072 148.413 568.978 148.432C568.814 148.465 552.346 151.771 532.016 153.967C522.311 155.015 510.674 155.914 499.314 155.914Z" fill="#FFB6C1"/>
<path d="M443.813 159.198C440.626 159.198 437.123 159.036 433.31 158.643C433.215 158.633 433.146 158.548 433.156 158.453C433.166 158.358 433.253 158.289 433.346 158.299C454.742 160.507 466.377 155.411 466.492 155.359C466.578 155.32 466.681 155.358 466.72 155.446C466.759 155.533 466.72 155.635 466.633 155.674C466.538 155.717 458.589 159.198 443.813 159.198Z" fill="#FFB6C1"/>
<path d="M594.545 334.348C611.685 331.566 623.324 315.417 620.542 298.277C617.761 281.138 601.612 269.498 584.472 272.28C567.333 275.061 555.693 291.211 558.475 308.35C561.257 325.49 577.406 337.129 594.545 334.348Z" fill="#221812"/>
<path d="M565.812 303.816C565.812 290.736 576.416 280.133 589.496 280.133C602.576 280.133 613.18 290.736 613.18 303.816C613.18 316.896 602.576 327.5 589.496 327.5C576.416 327.5 565.812 316.896 565.812 303.816Z" fill="white"/>
<path d="M603.32 241.35C605.111 230.894 598.086 220.966 587.63 219.175C577.174 217.384 567.246 224.409 565.455 234.865C563.665 245.321 570.689 255.249 581.145 257.039C591.602 258.83 601.53 251.806 603.32 241.35Z" fill="#221812"/>
<path d="M569.948 238.39C569.948 230.398 576.427 223.92 584.419 223.92C592.41 223.92 598.889 230.399 598.889 238.39C598.889 246.382 592.41 252.86 584.419 252.86C576.427 252.86 569.948 246.382 569.948 238.39Z" fill="white"/>
<path d="M523.03 296.873C523.03 296.873 534.314 299.959 540.16 298.509C546.005 297.059 557.249 290.879 557.249 290.879L559.02 293.974C559.02 293.974 549.821 307.677 541.32 309.234C532.818 310.79 523.03 296.873 523.03 296.873Z" fill="#FF9FAE"/>
<path d="M575.642 334.853C575.642 334.853 581.487 337.181 583.459 336.561C585.43 335.941 588.829 334.037 589.44 332.474C590.052 330.911 585.43 332.882 583.866 332.474C582.303 332.066 580.604 331.59 577.545 332.474C574.486 333.358 575.642 334.853 575.642 334.853Z" fill="#F8C7AF"/>
<path d="M522.508 469.279C522.508 469.279 522.949 476.389 524.269 478.061H544.586C544.458 477.352 543.882 475.602 541.342 475.158C538.132 474.6 532.758 472.344 530.815 468.101C528.769 463.638 522.508 469.279 522.508 469.279Z" fill="#624737"/>
<path d="M486.455 468.288C486.455 468.288 485.115 477.139 486.854 477.299C487.085 477.32 495.223 477.306 497.436 477.637C501.049 478.178 507.076 477.706 507.076 477.706C507.831 477.737 508.325 476.92 507.941 476.27C507.519 475.556 506.715 474.794 505.181 474.499C501.982 473.883 496.65 471.533 494.78 467.257C492.813 462.759 486.455 468.288 486.455 468.288Z" fill="#624737"/>
<path d="M532.061 374.657C532.061 374.657 526.952 392.532 512.311 423.574C497.67 454.616 496.54 468.762 496.54 468.762L486.454 468.287C486.454 468.287 487.402 431.339 494.318 415.674C501.234 400.009 502.643 357.143 502.643 357.143L532.061 374.657Z" fill="#EDE4DE"/>
<path d="M540.263 359.277C540.263 359.277 540.67 386.957 535.881 420.943C531.092 454.928 532.715 469.355 532.715 469.355L521.245 469.736C521.245 469.736 514.39 435.737 516.355 418.727C518.321 401.716 506.969 360.356 506.969 360.356L540.263 359.277Z" fill="#EDE4DE"/>
<path d="M517.63 294.503L523.04 298.51L530.858 296.864C530.75 296.151 530.234 293.195 529.764 290.519C529.736 290.361 529.707 290.203 529.681 290.049C529.278 287.771 528.93 285.815 528.93 285.815L521.628 282.176L518.905 280.818C518.912 280.867 519.116 283.346 519.144 283.708C519.655 290.136 517.63 294.503 517.63 294.503Z" fill="#F8C7AF"/>
<path d="M541.313 360.19C541.807 365.13 502.283 370.974 502.132 362.691C502.001 355.403 506.341 315.295 507.687 309.557C510.064 299.402 512.201 293.602 516.729 292.269C518.401 291.783 524.563 293.382 529.017 294.675C529.327 294.761 529.637 294.867 529.934 294.993C531.036 295.433 532.035 296.074 532.883 296.873C534.082 297.999 534.984 299.43 535.469 301.054C536.154 303.366 536.945 306.327 537.585 309.594C538.164 312.526 538.626 315.7 538.785 318.868C538.821 319.525 538.841 320.182 538.846 320.834C538.87 323.257 539.082 326.389 539.38 329.868C539.567 332.062 539.792 334.395 540.024 336.773C540.094 337.454 540.163 338.139 540.228 338.828C540.278 339.306 541.036 354.975 541.256 359.171C541.26 359.233 541.26 359.286 541.264 359.339C541.264 359.347 541.264 359.351 541.268 359.359C541.268 359.416 541.273 359.477 541.277 359.534C541.297 359.909 541.309 360.137 541.313 360.19Z" fill="#FFB6C1"/>
<path d="M519.693 283.821C521.297 286.89 527.272 289.543 529.764 290.519C529.736 290.361 529.708 290.203 529.681 290.049C529.278 287.771 528.931 285.815 528.931 285.815L521.628 282.175C520.014 282.15 519.032 282.558 519.693 283.821Z" fill="#FFB6C1"/>
<path d="M532.479 285.388C532.479 285.388 519.305 289.498 516.872 281.255C514.439 273.011 511.1 267.989 519.408 265.017C527.717 262.044 530.287 264.705 531.769 267.259C533.25 269.813 535.843 284.107 532.479 285.388Z" fill="#F8C7AF"/>
<path d="M531.251 266.464C531.251 266.464 530.411 276.057 528.427 275.641C526.443 275.224 524.643 274.916 524.934 277.807C525.224 280.699 527.975 284.038 521.861 284.55C515.747 285.061 506.957 269.294 508.637 266.308C513.484 257.694 538.255 255.956 531.251 266.464Z" fill="#624737"/>
<path d="M557.249 290.88C557.249 290.88 559.688 286.097 561.612 284.639C563.536 283.181 568.572 283.663 568.757 284.051C569.329 285.254 564.639 287.001 564.079 288.08C563.517 289.159 565.747 289.101 563.993 290.958C562.512 292.527 559.02 293.975 559.02 293.975L557.249 290.88Z" fill="#F8C7AF"/>
<path d="M562.127 289.054C562.159 289.055 563.717 288.872 565.238 288.707C566.357 288.585 567.453 288.088 567.912 288.066C568.995 288.013 568.233 289.733 565.888 290.59C563.903 291.314 563.34 292.49 561.466 292.807C559.201 293.191 562.127 289.054 562.127 289.054Z" fill="#F8C7AF"/>
<path d="M530.311 292.48C530.14 292.408 519.675 289.32 518.538 289.696C517.401 290.071 516.729 292.27 516.729 292.27L532.884 296.872C532.884 296.872 532.497 293.401 530.311 292.48Z" fill="#FF9FAE"/>
<path d="M577.545 332.474C577.545 332.474 579.414 330.893 581.045 330.536C582.677 330.18 584.104 328.701 584.104 329.415C584.104 330.128 582.881 331.862 582.881 332.474C582.881 333.086 577.545 332.474 577.545 332.474Z" fill="#F8C7AF"/>
<path d="M539.38 329.868C530.986 326.683 524.624 314.305 524.624 314.305L538.784 318.868C538.821 319.525 538.841 320.182 538.846 320.834C538.87 323.257 539.082 326.389 539.38 329.868Z" fill="#FF9FAE"/>
<path d="M577.803 333.825C577.809 333.802 577.815 333.78 577.821 333.757C578.195 332.321 577.496 330.822 576.159 330.178C570.885 327.638 557.225 321.051 555.701 320.234C554.092 319.371 538.102 303.996 533.318 299.381C532.49 298.581 531.288 298.306 530.193 298.664L516.945 302.994C514.494 303.796 514.024 307.059 516.151 308.517C525.896 315.197 546.282 329.094 549.946 330.967C556.407 334.269 569.481 335.996 574.306 336.541C575.67 336.695 576.979 335.94 577.513 334.676C577.624 334.414 577.724 334.129 577.803 333.825Z" fill="#FFB6C1"/>
<path d="M168.51 355.025C168.51 355.025 152.349 356.554 143.676 381.876C135.003 407.199 137.532 454.421 131.123 459.155C124.715 463.888 90.1586 451.799 87.3942 459.571C84.6297 467.344 87.3942 468.265 79.7919 464.579C72.1896 460.893 59.2886 459.622 62.0533 465.787C64.8178 471.951 47.7703 467.818 48.2309 476.22H135.225C135.225 476.22 176.413 471.951 174.983 453.522C173.554 435.092 159.022 392.136 167.769 375.886C176.515 359.636 187.952 351.201 187.952 351.201L168.51 355.025Z" fill="#FF9FAE"/>
<path d="M156.328 470.027L152.672 471.388C152.672 471.388 136.793 449.365 134.838 429.988C134.489 426.529 134.605 423.177 135.36 420.082C135.36 420.082 135.205 419.195 134.933 417.628C134.808 416.897 134.653 416.016 134.477 415.007C133.96 412.05 133.25 408.002 132.438 403.394C130.57 392.789 128.149 379.232 126.269 369.266L127.254 368.95L137.912 365.511L140.115 358.515L148.051 356.426C148.051 356.426 149.824 359.894 151.409 376.277C151.702 378.426 151.967 380.796 152.167 383.366C152.785 391.21 152.83 400.94 151.412 412.064C151.048 414.912 150.588 417.852 150.018 420.872C149.6 423.087 149.538 426.104 149.714 429.57C150.514 445.41 156.328 470.027 156.328 470.027Z" fill="#EDE4DE"/>
<path d="M152.167 383.366L134.933 417.628C134.808 416.897 134.653 416.016 134.477 415.007C133.96 412.05 133.25 408.002 132.438 403.394C130.57 392.789 128.149 379.232 126.269 369.266L127.254 368.95L137.912 365.511L140.115 358.515L148.051 356.426C148.051 356.426 149.824 359.894 151.409 376.277C151.702 378.426 151.967 380.796 152.167 383.366Z" fill="#EDE4DE"/>
<path d="M144.585 360.823L144.186 357.402C137.502 359.178 119.644 352.441 119.644 352.441C119.644 352.441 113.169 358.133 114.019 371.777C114.434 378.436 115.192 406.734 115.983 415.107C116.269 418.143 116.52 420.302 116.622 421.165C116.624 421.169 116.624 421.171 116.624 421.173C116.656 421.436 116.564 421.685 116.43 421.914C115.264 423.892 114.3 425.952 113.508 428.059C105.738 448.765 114.705 474.264 114.705 474.264L117.032 473.326C117.032 473.326 122.135 444.949 126.281 432.413C126.985 430.286 127.659 428.615 128.278 427.617C130.08 424.707 131.753 419.953 133.272 414.299C136.142 403.609 138.452 389.702 139.989 378.969C140.201 378.979 144.585 360.823 144.585 360.823Z" fill="#EDE4DE"/>
<path d="M192.567 349.453L192.069 352.801C192.069 352.801 191.848 352.801 191.461 352.773C190.243 352.69 187.283 352.524 183.935 352.164C178.9 351.666 172.924 350.781 170.545 349.315C166.92 347.101 160.972 340.323 157.099 333.544C156.988 333.378 156.905 333.213 156.822 333.047C154.802 329.45 153.391 325.881 153.281 323.031C153.198 321.288 153.391 319.794 153.751 318.494C154.222 316.779 154.996 315.423 155.799 314.399C155.909 314.233 156.02 314.067 156.186 313.929C157.514 312.352 158.814 311.688 158.814 311.688C159.478 311.411 160.198 311.743 160.945 312.546V312.573C161.553 313.21 162.217 314.178 162.854 315.395C162.881 315.423 162.909 315.451 162.909 315.478C163.048 315.727 163.186 316.004 163.352 316.308C163.407 316.364 163.435 316.447 163.462 316.502C163.767 317.138 164.071 317.802 164.376 318.494C167.778 325.908 171.403 337.141 174.419 340.489C175.719 341.928 181.667 344.75 186.398 346.852C189.8 348.347 192.567 349.453 192.567 349.453Z" fill="#F8C7AF"/>
<path d="M157.354 319.327C155.256 320.3 152.722 320.963 149.656 321.13C138.165 321.759 135.556 311.686 135.082 305C136.739 304.4 138.189 304.457 139.025 304.502C139.84 304.547 140.69 304.63 141.392 304.717C142.797 303.983 145.323 300.416 146.782 294.449L147.278 294.679L155.569 298.577C155.569 298.577 154.689 301.275 154.038 303.857C153.531 305.878 153.167 307.83 153.471 308.376C154.125 308.642 154.516 308.809 154.516 308.809C154.516 308.809 154.516 308.812 154.519 308.818C154.602 309.03 156.405 313.623 157.354 319.327Z" fill="#F8C7AF"/>
<path d="M160.229 326.866C160.142 327.095 160.047 327.319 159.942 327.549C157.032 333.817 151.645 359.781 151.645 359.781C152.412 364.449 116.562 358.865 116.469 354.615C115.207 350.108 120.949 342.867 124.188 339.234C124.594 338.778 124.958 338.288 125.274 337.772C126.074 336.476 126.582 335.014 126.743 333.486C127.379 327.46 127.137 321.814 127.19 318.38L127.191 318.38C127.823 317.911 128.435 317.478 129.005 317.067C129.877 316.431 130.647 315.837 131.214 315.234C131.838 314.577 132.229 313.906 132.273 313.148C132.306 312.575 132.288 311.987 132.229 311.399C132.202 311.121 132.166 310.844 132.124 310.566C131.676 307.65 130.459 305.005 130.459 305.005C133.542 303.758 139.025 304.501 139.025 304.501C139.025 304.501 139.019 304.805 139.016 305.304C138.998 307.306 139.016 312.449 139.658 313.422C140.461 314.634 155.149 319.944 155.925 318.299C156.689 316.682 154.596 309.103 154.519 308.817C154.516 308.811 154.516 308.808 154.516 308.808C159.435 310.739 161.193 312.36 161.193 312.36C158.229 314.282 162.521 320.786 160.229 326.866Z" fill="#FFB6C1"/>
<path d="M150.335 272.706C150.316 272.208 149.931 266.839 141.754 266.559C141.754 266.559 145.775 267.038 146.469 268.806C146.469 268.806 143.732 266.621 141.502 267.324C139.272 268.026 137.962 271.933 137.949 273.218C137.936 274.502 139.175 278.644 140.59 278.996C141.126 279.13 141.743 279.094 142.304 278.998C141.927 279.586 141.558 280.235 141.206 280.959C137.943 287.657 141.308 294.203 144.07 293.48C145.842 293.016 146.343 296.039 146.343 296.039L163.554 282.105C163.555 282.106 157.233 269.024 150.335 272.706Z" fill="#624737"/>
<path d="M155.57 298.578C155.57 298.578 154.688 301.273 154.039 303.858C149.192 302.505 147.721 297.411 147.277 294.68L155.57 298.578Z" fill="#FFB6C1"/>
<path d="M156.59 301.433C156.59 301.433 144.995 298.749 146.777 291.554C148.56 284.359 148.263 279.166 155.742 280.575C163.221 281.985 163.973 285.085 163.963 287.631C163.952 290.178 159.652 301.945 156.59 301.433Z" fill="#F8C7AF"/>
<path d="M164.615 283.545C163.369 280.937 161.901 281.077 160.984 281.539C155.536 276.498 150.192 280.616 150.192 280.616C148.135 285.585 143.677 287.615 143.677 287.615C143.677 287.615 145.458 289.44 150.621 289.399C152.198 289.387 153.783 288.663 155.226 287.665C152.443 290.468 149.18 292.174 149.18 292.174C155.643 290.938 159.977 283.455 160.421 282.661C160.968 283.469 162.016 285.19 162.104 286.644C162.224 288.619 161.544 292.454 162.675 292.599C162.675 292.599 166.484 287.456 164.615 283.545Z" fill="#624737"/>
<path d="M161.194 312.359C161.194 312.359 163.986 317.23 164.403 318.483C164.403 318.483 160.783 318.344 159.321 321.129C159.321 321.129 158.97 313.016 161.194 312.359Z" fill="#FFB6C1"/>
<path d="M141.992 351.057C134.921 350.982 128.934 343.64 125.274 337.772C126.074 336.477 126.582 335.014 126.743 333.486C127.379 327.461 127.137 321.814 127.19 318.38L127.191 318.38C127.824 317.911 128.435 317.479 129.005 317.067C129.877 316.431 130.647 315.837 131.214 315.234C137.005 325.021 151.579 351.159 141.992 351.057Z" fill="#FF9FAE"/>
<path d="M128.233 476.166H109.82C109.82 476.166 109.379 473.359 110.34 471.23C111.262 469.187 112.705 468.259 112.36 465.787C113.53 466.992 115.437 468.341 118.099 467.983C118.425 468.512 120.204 471.341 121.294 472.124C122.497 472.989 127.862 472.681 128.233 476.166Z" fill="#221812"/>
<path d="M167.769 476.166H149.355C149.355 476.166 148.667 473.229 149.876 471.231C150.946 469.463 150.536 468.455 149.743 466.992C150.577 467.334 151.656 467.644 152.844 467.576C153.762 467.524 154.732 467.107 155.583 466.613C156.375 467.517 159.768 471.363 160.829 472.125C162.033 472.989 167.398 472.681 167.769 476.166Z" fill="#221812"/>
<path d="M170.216 356.022L169.475 358.88C169.475 358.88 160.28 356.951 158.26 356.509H158.232C154.774 355.678 150.901 354.683 147.636 353.576C145.34 352.773 143.348 351.916 141.992 351.058C141.854 350.975 141.743 350.892 141.605 350.782C138.368 348.43 134.522 341.513 131.534 334.099C131.119 333.075 130.732 332.051 130.344 331.055C128.961 327.348 127.854 323.696 127.191 320.542C126.776 318.661 126.499 316.945 126.444 315.534C126.416 315.036 126.388 314.566 126.416 314.123C126.471 306.1 130.455 304.993 130.455 304.993C130.538 304.965 130.621 304.938 130.732 304.911C131.423 304.8 132.143 305.27 132.89 306.183C133.83 307.317 134.826 309.171 135.85 311.412C137.427 314.981 139.087 319.601 140.636 324.194C141.494 326.711 142.324 329.229 143.154 331.553C143.625 332.964 144.095 334.292 144.538 335.51C145.395 337.834 146.17 339.715 146.862 340.905C147.304 341.68 148.577 342.758 150.264 343.976C153.197 346.106 170.216 356.022 170.216 356.022Z" fill="#F8C7AF"/>
<path d="M135.841 311.423C130.515 309.954 126.406 314.113 126.406 314.113C126.473 306.103 130.461 305.006 130.461 305.006C132.065 304.342 133.924 307.12 135.841 311.423Z" fill="#FFB6C1"/>
<path d="M345.857 380.838C346.014 381.279 280.134 414.693 280.134 414.693C280.134 414.693 287.733 418.409 298.393 415.941C309.052 413.473 349.943 389.949 349.943 389.949L345.857 380.838Z" fill="#221812"/>
<path d="M279.568 380.994C279.568 380.994 257.714 416.193 199.384 351.842C197.321 349.566 194.178 348.604 191.2 349.355L168.51 355.024C168.51 355.024 170.467 354.867 171.516 355.944C171.958 356.397 172.37 357.105 172.708 358.047C177.391 371.108 194.914 414.867 223.323 426.963C256.842 441.236 292.375 432.991 318.953 380.994H279.568Z" fill="#FFB6C1"/>
<path d="M428.9 395.154C428.848 395.247 428.793 395.344 428.738 395.441C427.445 397.687 424.48 403.192 421.215 409.215C419.67 412.072 418.053 415.048 416.519 417.847C413.875 422.678 411.47 426.98 410.067 429.253C408.64 431.565 407.589 433.19 407.164 433.839C407.16 433.843 407.161 433.843 407.161 433.843C407.033 434.043 407.005 434.278 407.022 434.513C407.171 436.552 407.129 438.577 406.929 440.571C404.959 460.167 391.745 470.669 391.745 470.669L387.816 471.249C387.816 471.249 393.376 450.651 395.014 439.005C395.291 437.032 395.412 435.432 395.315 434.389C395.025 431.355 395.564 426.901 396.583 421.786C398.397 412.698 401.725 401.543 404.618 392.614C404.801 392.044 410.326 372.057 410.326 372.057C414.964 376.11 431.879 377.783 431.879 377.783C431.879 377.783 434.747 384.756 428.9 395.154Z" fill="#FFB6C1"/>
<path d="M379.57 476.22H395.968C395.968 476.22 396.361 473.721 395.505 471.825C394.684 470.005 393.515 469.948 395.356 467.096C394.314 468.169 390.964 468.612 388.593 468.293C388.303 468.765 386.721 471.924 385.75 472.621C384.679 473.391 379.9 473.117 379.57 476.22Z" fill="#221812"/>
<path d="M428.9 395.154C428.849 395.247 428.793 395.344 428.738 395.44C427.445 397.686 420.456 410.596 417.19 416.62C420.974 401.052 418.342 385.484 418.342 385.484L428.9 395.154Z" fill="#FF9FAE"/>
<path d="M365.61 318.255C365.61 318.255 364.961 311.18 372.866 311.18C372.866 311.18 370.471 311.829 369.231 313.129C369.231 313.129 374.274 310.169 379.761 314.717C385.248 319.266 381.838 330.674 383.507 332.84C385.176 335.006 391.674 335.439 390.88 342.443C390.086 349.446 370.257 358.218 371.53 364.012C371.53 364.012 363.76 352.589 369.316 347.376C369.316 347.376 366.608 349.927 366.332 352.96C366.332 352.96 365.597 347.039 369.364 345.146C372.698 343.47 375.429 337.341 375.14 336.246C374.851 335.15 365.61 318.255 365.61 318.255Z" fill="#624737"/>
<path d="M376.768 347.967C376.768 347.967 365.52 376.349 363.096 375.298C360.672 374.246 346.388 369.71 346.388 369.71L345.448 373.186C345.448 373.186 359.041 383.661 366.036 384.12C373.03 384.578 382.504 363.97 382.504 363.97L376.768 347.967Z" fill="#F8C7AF"/>
<path d="M354.647 401.183C361.514 397.472 370.119 400.039 373.831 406.905C377.542 413.771 374.975 422.378 368.108 426.089C361.242 429.8 352.636 427.233 348.925 420.366C345.214 413.5 347.78 404.894 354.647 401.183ZM365.491 421.246C369.687 418.978 371.256 413.719 368.988 409.523C366.72 405.327 361.461 403.758 357.265 406.026C353.068 408.294 351.5 413.553 353.768 417.749C356.036 421.945 361.295 423.514 365.491 421.246Z" fill="#221812"/>
<path d="M342.939 375.435C344.765 367.846 352.425 363.158 360.013 364.984C367.602 366.81 372.29 374.47 370.464 382.058C368.639 389.647 360.979 394.336 353.39 392.51C345.802 390.684 341.113 383.024 342.939 375.435ZM348.292 376.723C347.176 381.361 350.041 386.041 354.678 387.157C359.316 388.273 363.996 385.408 365.113 380.77C366.228 376.133 363.363 371.452 358.726 370.336C354.088 369.221 349.407 372.086 348.292 376.723Z" fill="#221812"/>
<path d="M367.846 317.26C367.739 316.829 377.212 321.541 377.692 322.074C382.135 327.002 380.868 333.433 378.326 333.495C376.696 333.534 377.012 336.244 377.012 336.244L358.849 328.561C358.849 328.561 361.035 315.809 367.846 317.26Z" fill="#624737"/>
<path d="M373.949 348.559C373.949 348.559 371.53 351.064 371.53 358.561C371.53 358.561 374.863 363.822 383.507 365.154C383.507 365.154 376.075 348.554 373.949 348.559Z" fill="#EDE4DE"/>
<path d="M416.117 379.004L416.062 375.937C422.172 376.707 437.131 368.635 437.131 368.635C437.131 368.635 443.523 372.887 444.399 385.029C444.826 390.956 447.528 416.021 447.827 423.505C447.936 426.218 447.972 428.154 447.985 428.927C447.983 428.931 447.983 428.933 447.984 428.934C447.987 429.17 448.098 429.379 448.244 429.566C449.508 431.173 450.605 432.875 451.555 434.641C460.879 451.989 456.003 475.562 456.003 475.562L453.838 475.012C453.838 475.012 445.953 450.575 440.801 440.005C439.926 438.212 439.132 436.818 438.467 436.01C436.53 433.657 434.487 429.66 432.473 424.851C428.666 415.758 416.117 379.004 416.117 379.004Z" fill="#FFB6C1"/>
<path d="M442.962 476.219H459.36C459.36 476.219 459.753 473.72 458.896 471.824C458.076 470.005 456.791 469.178 457.098 466.977C456.056 468.05 454.358 469.251 451.987 468.932C451.697 469.403 450.112 471.923 449.142 472.62C448.07 473.391 443.292 473.116 442.962 476.219Z" fill="#221812"/>
<path d="M384.614 368.675C386.816 369.051 384.254 370.802 387.283 371.131C391.595 371.602 396.047 371.924 398.379 372.853C399.23 373.193 399.799 373.611 399.976 374.147C400.987 377.187 405.442 381.877 405.442 381.877C433.995 380.577 437.13 368.634 437.13 368.634C418.599 350.636 401.559 340.022 388.549 338.617C386.322 338.377 383.507 339.79 381.501 340.683C376.944 342.711 373.949 348.558 373.949 348.558C373.949 348.558 376.244 367.248 384.614 368.675Z" fill="#EDE4DE"/>
<path d="M387.284 371.13C391.596 371.601 396.048 371.923 398.38 372.853C399.333 358.612 392.613 347.9 392.613 347.9C392.613 347.9 388.229 365.741 387.284 371.13Z" fill="#EDE4DE"/>
<path d="M383.564 345.49C383.564 345.49 394.407 344.897 396.334 351.705C398.26 358.512 392.719 385.686 391.525 388.49C389.351 393.596 378.766 408.169 378.766 408.169L374.874 406.984C374.874 406.984 381.931 384.721 383.507 382.518C385.98 379.06 380.318 348.451 383.564 345.49Z" fill="#F8C7AF"/>
<path d="M374.874 406.984C374.874 406.984 374.674 408.71 373.944 409.601C373.215 410.492 371.093 412.649 371.056 413.911C371.056 413.911 371.163 414.472 371.618 414.369C372.073 414.267 373.653 412.702 374.464 412.814C374.464 412.814 374.032 415.345 373.603 416.057C373.173 416.769 373.515 419.791 373.772 420.406C374.03 421.021 377.193 417.104 378.494 415.356C379.795 413.607 378.515 406.51 378.515 406.51L374.874 406.984Z" fill="#F8C7AF"/>
<path d="M398.472 360.81C398.444 360.969 388.211 362.692 381.811 359.444C381.811 359.444 376.464 342.694 384.105 343.495C391.746 344.296 396.271 346.703 396.463 350.361C396.656 354.019 398.472 360.81 398.472 360.81Z" fill="#EDE4DE"/>
<path d="M347.043 368.405C347.043 368.405 344.231 367.823 343.194 369.291C342.158 370.76 342.849 375.166 344.75 374.993C346.65 374.82 346.831 372.056 347.043 371.019C347.255 369.982 347.043 368.405 347.043 368.405Z" fill="#F8C7AF"/>
<path d="M381.501 340.683C381.501 340.683 378.486 351.932 373.949 348.559C374.077 348.016 373.286 346.437 372.353 344.834C371.16 342.785 369.74 340.69 369.74 340.69L375.877 335.314L376.244 334.992C378.124 338.275 379.967 339.563 381.501 340.683Z" fill="#F8C7AF"/>
<path d="M369.741 340.692C369.741 340.692 371.16 342.781 372.352 344.833C376.167 342.482 376.171 337.759 375.877 335.312L369.741 340.692Z" fill="#FFB6C1"/>
<path d="M369.571 343.386C369.571 343.386 378.833 338.232 375.535 332.514C372.236 326.795 371.211 322.278 365.157 325.327C359.104 328.376 359.224 331.215 359.861 333.392C360.497 335.568 367.076 344.579 369.571 343.386Z" fill="#F8C7AF"/>
<path d="M358.297 330.055C358.721 327.517 360.011 327.274 360.91 327.444C364.33 321.787 369.919 323.995 369.919 323.995C372.903 327.74 377.218 328.379 377.218 328.379C377.218 328.379 376.144 330.379 371.715 331.617C370.363 331.995 368.827 331.766 367.347 331.268C370.419 332.981 373.632 333.637 373.632 333.637C367.796 334.171 362.244 328.836 361.668 328.265C361.399 329.092 360.927 330.823 361.209 332.088C361.593 333.808 363.12 336.923 362.188 337.326C362.188 337.326 357.66 333.863 358.297 330.055Z" fill="#624737"/>
<path d="M350.126 412.607C350.165 412.141 277.919 396.74 277.919 396.74C277.919 396.74 284.311 391.199 295.247 390.851C306.183 390.502 351.74 402.752 351.74 402.752L350.126 412.607Z" fill="#221812"/>
<path d="M321.151 398.143C322.024 398.132 322.74 398.83 322.751 399.703C322.762 400.576 322.063 401.292 321.191 401.303C320.318 401.314 319.602 400.615 319.591 399.743C319.58 398.87 320.279 398.154 321.151 398.143Z" fill="#FFB6C1"/>
<path d="M168.441 354.984C168.441 354.984 173.123 356.81 174.029 357.52C174.936 358.23 176.677 360.551 176.99 361.775C176.99 361.775 176.973 362.276 176.507 362.276C176.04 362.275 174.991 360.482 174.224 360.769C174.224 360.769 175.2 363.143 175.774 363.744C176.349 364.345 176.676 367.369 176.559 368.025C176.442 368.682 172.499 365.552 170.848 364.129C169.968 363.372 169.994 361.534 169.721 359.457C169.483 357.635 164.454 356.582 164.454 356.582L168.441 354.984Z" fill="#F8C7AF"/>
<path d="M754.992 312.835C754.992 312.835 752.492 315.931 748.911 319.375C744.865 323.265 739.432 327.601 734.666 328.41C733.38 328.635 732.145 328.596 730.999 328.229C728.614 327.462 726.18 325.856 723.881 323.896C717.332 318.309 711.894 309.861 711.894 309.861L715.3 306.002C715.3 306.002 722.922 311.662 727.69 314.701C729.586 315.904 731.032 316.694 731.369 316.549C732.554 316.043 753.055 302.219 753.055 302.219L754.992 312.835Z" fill="#F8C7AF"/>
<path d="M754.992 312.835C754.992 312.835 752.492 315.93 748.911 319.375C743.606 323.104 737.987 326.656 734.666 328.41C733.265 329.153 732.273 329.574 731.888 329.55C729.37 329.402 723.964 325.996 723.964 325.996C723.872 325.278 723.848 324.577 723.881 323.896C724.124 318.712 727.578 314.825 727.69 314.701C729.586 315.904 731.032 316.694 731.369 316.549C732.554 316.043 753.055 302.219 753.055 302.219L754.992 312.835Z" fill="#EDE4DE"/>
<path d="M718.57 362.482C719.271 366.774 719.75 369.896 719.75 369.896C714.482 372.192 708.457 373.132 702.583 373.317C700.623 373.381 698.676 373.358 696.78 373.273C693.825 373.143 690.992 372.861 688.409 372.513C680.799 371.49 675.362 369.896 675.362 369.896C675.362 361.944 677.483 355.5 679.899 350.185C682.622 344.18 685.723 339.604 686.572 335.89C687.637 331.236 685.37 320.388 683.73 313.621C682.897 310.193 682.226 307.813 682.226 307.813C676.505 299.424 679.251 294.505 679.251 294.505C679.251 294.505 681.917 293.395 685.251 292.378C685.267 292.373 685.285 292.366 685.302 292.362C686.447 292.014 687.667 291.677 688.884 291.4C690.148 291.114 691.414 290.891 692.58 290.788C695.838 290.504 696.01 283.105 696.01 283.105C696.01 283.105 697.336 282.512 700.524 282.606C702.51 282.665 704.477 283.105 704.477 283.105C704.477 283.105 704.477 288.956 707.215 290.174C708.624 290.802 711.303 291.947 713.928 293.058C713.928 293.058 713.928 293.058 713.928 293.06C714.015 293.097 714.104 293.134 714.191 293.17L715.057 293.537C715.437 293.697 715.812 293.857 716.179 294.01C716.362 294.088 716.541 294.164 716.72 294.24L717.588 294.606C719.548 295.433 720.97 296.028 720.97 296.028C722.191 299.189 717.918 306.288 717.918 306.288C718.066 306.75 718.165 307.286 718.215 307.884C718.222 307.971 718.229 308.061 718.236 308.15C718.389 310.458 717.947 313.632 717.288 317.093C716.122 323.2 714.281 330.201 713.843 334.91C713.69 336.561 713.708 337.932 713.992 338.883C714.001 338.926 714.015 338.968 714.029 339.009C714.21 339.554 714.411 340.293 714.626 341.184C715.829 346.131 717.473 355.745 718.57 362.482Z" fill="#EDE4DE"/>
<path d="M724.014 474.798L703.762 461.633C702.38 460.734 701.554 459.19 701.574 457.542L702.796 355.587C702.796 354.702 700.77 353.793 699.885 353.793C699 353.793 696.364 354.166 696.364 355.051L698.723 458.211C698.749 459.362 698.177 460.446 697.211 461.074L676.099 474.798C675.505 475.184 675.778 476.107 676.486 476.107L698.029 466.661C699.321 466.095 700.792 466.095 702.084 466.661L723.627 476.107C724.335 476.106 724.609 475.184 724.014 474.798Z" fill="#EDE4DE"/>
<path d="M767.786 298.506C767.786 298.506 762.074 305.283 754.799 302.448C754.799 302.448 753.234 298.662 753.212 295.873C753.209 295.529 753.205 295.197 753.2 294.88C753.161 291.738 753.055 289.975 753.055 289.975C753.055 289.975 753.057 289.974 753.062 289.973C753.393 289.835 764.183 285.405 764.174 285.774C763.989 294.271 767.786 298.506 767.786 298.506Z" fill="#F8C7AF"/>
<path d="M763.09 287.8C762.05 289.729 758.48 293.502 753.2 294.88C753.161 291.738 753.055 289.975 753.055 289.975C753.055 289.975 753.057 289.974 753.062 289.974C753.361 289.894 763.4 287.232 763.09 287.8Z" fill="#FFB6C1"/>
<path d="M718.57 362.484C715.27 362.848 709.239 363.254 702.714 362.404C700.67 362.137 698.576 361.749 696.502 361.198C690.083 359.486 683.866 356.21 679.899 350.185C682.622 344.181 685.723 339.605 686.573 335.89C687.636 331.237 685.37 320.39 683.729 313.621L685.252 292.38V292.377L685.302 292.362L688.884 291.402C688.884 291.402 687.669 304.995 706.926 305.795C712.986 306.047 716.393 306.873 718.214 307.886C718.908 315.617 712.331 333.914 714.029 339.009C715.217 342.575 717.275 354.534 718.57 362.484Z" fill="#FFB6C1"/>
<path d="M750.796 289.649C750.796 289.649 762.93 292.502 764.59 284.918C766.25 277.334 768.934 272.595 761.257 270.453C753.58 268.311 751.436 270.874 750.267 273.27C749.097 275.667 747.682 288.711 750.796 289.649Z" fill="#F8C7AF"/>
<path d="M764.174 286.983C764.34 287.089 766.951 287.891 771.895 278.041C772.672 276.495 773.2 273.15 771.391 270.194C769.582 267.238 763.166 264.915 757.836 263.903C752.506 262.892 751.226 265.891 749.971 268.905C748.653 272.07 744.848 274.675 744.848 274.675C749.444 277.242 754.98 273.57 756.898 274.174C758.816 274.778 759.494 277.801 759.637 278.769C759.781 279.738 760.002 280.543 762.414 279.678C764.826 278.813 763.505 283.096 763.119 283.915C763.119 283.915 762.791 286.097 764.174 286.983Z" fill="#221812"/>
<path d="M795.432 476.109H802.78C804.32 476.109 806.031 474.567 806.46 471.743C806.888 468.918 810.054 467.378 810.74 465.066C811.425 462.755 807.914 459.501 807.914 459.501L807.327 458.747L806.717 457.961L800.897 459.33C800.897 459.33 800.753 460.716 800.663 462.481C800.601 463.756 800.567 465.229 800.64 466.521C800.811 469.604 799.776 472.922 797.039 473.521C794.299 474.121 795.432 476.109 795.432 476.109Z" fill="#624737"/>
<path d="M744.283 476.108H763.759C763.946 476.071 764.087 476.031 764.173 475.988C765.473 475.336 765.066 470.358 764.91 468.82C764.88 468.535 764.858 468.368 764.858 468.368C764.858 468.368 758.01 462.891 757.067 467.085C757.038 467.216 757.003 467.344 756.967 467.471V467.473C755.778 471.397 750.463 473.18 747.394 473.676C745.048 474.058 744.44 475.424 744.283 476.108Z" fill="#624737"/>
<path d="M748.209 363.796C748.209 363.796 749.249 376.772 750.472 392.371C752.133 413.56 754.131 439.588 754.329 444.518C754.67 453.08 756.042 466.776 756.042 466.776C756.042 466.776 759.293 470.03 765.801 468.658C765.801 468.658 771.599 449.107 773.256 428.422C773.281 428.083 773.307 427.741 773.332 427.4C774.873 406.341 777.27 361.998 777.27 361.998L748.209 363.796Z" fill="#FFB6C1"/>
<path d="M748.209 363.796C748.209 363.796 749.249 376.772 750.472 392.371L773.256 428.422C773.281 428.083 773.307 427.741 773.332 427.4C774.873 406.341 777.27 361.998 777.27 361.998L748.209 363.796Z" fill="#FF9FAE"/>
<path d="M752.959 365.338C752.959 365.338 771.706 412.334 784.033 434.419C796.36 456.505 800.212 462.669 800.212 462.669C800.212 462.669 807.274 459.844 807.916 457.918C807.916 457.918 803.202 415.281 794.947 404.887C790.283 399.013 784.803 381.388 784.547 375.225C784.29 369.062 782.877 356.863 782.877 356.863L752.959 365.338Z" fill="#FFB6C1"/>
<path d="M782.273 364.92C777.14 367.954 772.297 370.202 766.672 371.389C760.007 372.838 751.864 372.219 749.136 372.562C748.843 372.598 748.573 372.518 748.337 372.358C748.138 372.234 747.063 364.011 746.041 353.605C745.997 353.205 745.946 352.764 745.937 352.361L745.92 352.216C745.81 351.131 745.701 350.032 745.6 348.919C745.461 347.355 745.33 345.77 745.206 344.174C745.111 342.936 745.019 341.691 744.931 340.447C744.913 340.175 744.892 339.902 744.874 339.633C744.557 335.044 744.323 330.525 744.252 326.508C744.24 325.841 744.234 325.19 744.231 324.55V324.464C744.217 321.807 744.288 319.422 744.462 317.456C744.507 316.952 744.557 316.481 744.619 316.034C745.416 310.003 748.334 305.758 751.077 302.571L753.741 299.239C756.315 299.465 758.56 299.846 761.071 298.235C763.794 296.49 765.004 294.137 765.555 294.445C769.767 296.91 774.878 303.682 777.164 311.911C778.394 316.342 779.309 321.327 779.881 326.579C780.1 328.593 780.269 330.643 780.384 332.72C780.98 343.863 782.727 353.383 783.737 358.919C784.028 360.51 784.259 361.778 784.383 362.655C784.507 363.451 782.955 364.518 782.273 364.92Z" fill="#EDE4DE"/>
<path d="M762.918 312.836C762.918 312.836 760.549 332.99 745.205 344.175C745.11 342.937 745.018 341.693 744.93 340.449C744.912 340.176 744.891 339.904 744.873 339.634C744.556 335.046 744.322 330.526 744.251 326.509C744.239 325.843 744.234 325.191 744.23 324.551V324.465C744.245 322.092 744.319 319.945 744.461 318.114C749.159 315.235 755.249 313.221 762.918 312.836Z" fill="#EDE4DE"/>
<path d="M713.929 293.059C713.929 293.059 713.498 320.503 697.367 330.507C681.236 340.51 692.693 399.579 688.001 421.363C683.31 443.146 730.111 425.374 732.48 400.789C734.85 376.203 712.042 338.312 712.239 333.61C712.437 328.908 718.198 298.859 717.589 294.605L713.929 293.059Z" fill="#FF9FAE"/>
<path d="M742.601 336.672C740.482 337.974 738.797 338.913 737.86 339.255C735.279 340.195 731.126 340.708 726.637 340.966C716.796 341.537 705.348 340.9 705.348 340.9C703.62 342.141 700.579 341.927 698.011 340.48C695.446 339.032 696.002 339.658 694.158 338.67C693.235 338.176 693.324 337.479 693.644 336.904C693.987 336.285 694.594 335.848 695.281 335.671C698.711 334.78 700.203 335.041 701.683 335.489C701.366 335.043 701.211 334.606 701.282 334.337C701.383 333.965 703.88 335.449 704.983 336.127C708.688 336.652 717.415 334.071 723.926 331.87C727.848 330.547 730.966 329.362 731.699 329.078C732.295 328.847 734.183 326.941 736.522 324.402C737.951 328.635 739.952 333.268 742.601 336.672Z" fill="#F8C7AF"/>
<path d="M764.659 321.782C756.969 327.205 742.666 337.358 738.934 339.426C736.532 340.758 733.418 343.355 728.863 344.376C722.346 339.946 723.926 331.87 723.926 331.87C727.849 330.547 730.967 329.362 731.699 329.077C733.654 328.323 749.565 309.494 749.565 309.494C749.565 309.494 755.629 301.706 761.084 302.988C765.824 304.106 767.874 307.617 768.717 311.032C769.717 315.103 768.084 319.366 764.659 321.782Z" fill="#EDE4DE"/>
<path d="M620.167 476.638H592.792C590.097 476.638 587.954 474.375 588.11 471.683L588.555 464.005L588.559 463.932L588.859 458.756L589.692 444.329L589.958 439.785L590.594 428.758L590.829 424.729C590.971 422.251 593.024 420.312 595.505 420.312H616.974C617.735 420.312 618.453 420.492 619.089 420.817C620.52 421.543 621.533 422.98 621.653 424.68L621.874 427.915L622.507 437.224L622.607 438.693L623.647 454.018L624.48 466.279L624.846 471.635C625.029 474.344 622.88 476.638 620.167 476.638Z" fill="#EDE4DE"/>
<path opacity="0.5" d="M589.693 444.329C589.693 444.329 604.227 446.012 622.505 437.227L623.071 445.552C623.071 445.552 614.339 456.359 588.858 458.756L589.693 444.329Z" fill="#EDE4DE"/>
<path opacity="0.5" d="M624.48 466.278C624.48 466.278 619.821 471.904 609.925 476.638H592.792C590.097 476.638 587.954 474.374 588.11 471.683L588.555 464.004L588.559 463.932C588.559 463.932 605.37 462.805 623.647 454.018L624.48 466.278Z" fill="#EDE4DE"/>
<path opacity="0.5" d="M621.875 427.914C618.792 430.755 609.414 437.731 589.959 439.784L590.595 428.757C597.136 429.11 607.911 428.187 619.09 420.816C620.52 421.542 621.533 422.98 621.654 424.68L621.875 427.914Z" fill="#EDE4DE"/>
<path d="M281.971 324.384C280.862 324.384 279.742 324.192 278.611 323.808C277.481 323.424 276.467 322.869 275.571 322.144C274.697 321.419 274.078 320.523 273.715 319.456L278.579 318.304C278.899 318.859 279.326 319.275 279.859 319.552C280.414 319.808 281.001 319.936 281.619 319.936C282.558 319.936 283.315 319.659 283.891 319.104C284.489 318.528 284.787 317.76 284.787 316.8C284.787 315.925 284.499 315.189 283.923 314.592C283.369 313.973 282.601 313.664 281.619 313.664C281.022 313.664 280.489 313.803 280.019 314.08C279.571 314.357 279.241 314.688 279.027 315.072L274.387 314.048L275.859 301.6H288.851V306.272H280.211L279.571 310.848C280.126 310.528 280.755 310.283 281.459 310.112C282.163 309.92 282.931 309.824 283.763 309.824C284.915 309.845 285.971 310.144 286.931 310.72C287.913 311.296 288.691 312.085 289.267 313.088C289.843 314.069 290.131 315.211 290.131 316.512C290.131 318.069 289.779 319.445 289.075 320.64C288.371 321.813 287.411 322.731 286.195 323.392C284.979 324.053 283.571 324.384 281.971 324.384ZM301.369 324.384C299.534 324.384 297.902 323.893 296.473 322.912C295.043 321.909 293.923 320.544 293.113 318.816C292.323 317.067 291.929 315.061 291.929 312.8C291.929 310.539 292.323 308.544 293.113 306.816C293.923 305.067 295.033 303.701 296.441 302.72C297.87 301.717 299.502 301.216 301.337 301.216C303.193 301.216 304.835 301.717 306.265 302.72C307.694 303.701 308.814 305.067 309.625 306.816C310.457 308.544 310.873 310.539 310.873 312.8C310.873 315.061 310.467 317.067 309.657 318.816C308.846 320.544 307.726 321.909 306.297 322.912C304.867 323.893 303.225 324.384 301.369 324.384ZM301.401 319.712C302.254 319.712 303.011 319.413 303.673 318.816C304.355 318.219 304.889 317.408 305.273 316.384C305.657 315.339 305.849 314.144 305.849 312.8C305.849 311.435 305.657 310.229 305.273 309.184C304.889 308.139 304.355 307.317 303.673 306.72C302.99 306.123 302.211 305.824 301.337 305.824C300.483 305.824 299.726 306.123 299.065 306.72C298.403 307.317 297.881 308.139 297.497 309.184C297.134 310.229 296.953 311.435 296.953 312.8C296.953 314.144 297.134 315.339 297.497 316.384C297.881 317.429 298.403 318.251 299.065 318.848C299.747 319.424 300.526 319.712 301.401 319.712ZM321.994 324.384C320.159 324.384 318.527 323.893 317.098 322.912C315.668 321.909 314.548 320.544 313.738 318.816C312.948 317.067 312.554 315.061 312.554 312.8C312.554 310.539 312.948 308.544 313.738 306.816C314.548 305.067 315.658 303.701 317.066 302.72C318.495 301.717 320.127 301.216 321.962 301.216C323.818 301.216 325.46 301.717 326.89 302.72C328.319 303.701 329.439 305.067 330.25 306.816C331.082 308.544 331.498 310.539 331.498 312.8C331.498 315.061 331.092 317.067 330.282 318.816C329.471 320.544 328.351 321.909 326.922 322.912C325.492 323.893 323.85 324.384 321.994 324.384ZM322.026 319.712C322.879 319.712 323.636 319.413 324.298 318.816C324.98 318.219 325.514 317.408 325.898 316.384C326.282 315.339 326.474 314.144 326.474 312.8C326.474 311.435 326.282 310.229 325.898 309.184C325.514 308.139 324.98 307.317 324.298 306.72C323.615 306.123 322.836 305.824 321.962 305.824C321.108 305.824 320.351 306.123 319.69 306.72C319.028 307.317 318.506 308.139 318.122 309.184C317.759 310.229 317.578 311.435 317.578 312.8C317.578 314.144 317.759 315.339 318.122 316.384C318.506 317.429 319.028 318.251 319.69 318.848C320.372 319.424 321.151 319.712 322.026 319.712Z" fill="#624737"/>
</svg>
