<svg width="224" height="145" viewBox="0 0 224 145" fill="none" xmlns="http://www.w3.org/2000/svg">
<path d="M74.713 25.8626C74.713 27.3532 73.397 28.5611 71.773 28.5611C70.149 28.5611 68.833 27.3532 68.833 25.8626C68.833 24.372 70.149 23.1641 71.773 23.1641C73.397 23.1641 74.713 24.372 74.713 25.8626Z" fill="#DB6C5A"/>
<path d="M62.7788 26.156C63.0058 26.6681 62.2508 42.3518 62.2508 42.3518L55.5488 61.6343L65.0238 61.951L67.0608 42.1067L66.5788 25.7393L62.7788 26.156Z" fill="#C0B8FC"/>
<path d="M223.526 42.2299V117.89C223.526 132.767 210.383 144.83 194.175 144.83H111.745V100.736C109.12 100.985 106.69 102.267 105.25 104.334C101.211 110.132 93.987 113.879 85.824 113.459C75.01 112.908 66.169 104.855 65.492 94.9367C64.713 83.4018 74.6631 73.8257 87.0601 73.8257C94.6901 73.8257 101.371 77.4559 105.216 82.9356C106.672 85.0191 109.095 86.3243 111.745 86.5813V42.2299H159.819C159.607 44.7559 158.159 47.0955 155.813 48.487C149.843 52.008 145.889 58.1485 145.889 65.1436C145.889 76.5233 156.322 85.6635 168.889 84.9402C179.694 84.3188 188.467 76.2039 189.069 66.2781C189.518 58.7929 185.444 52.1548 179.119 48.4476C176.799 47.0873 175.385 44.7476 175.181 42.229L223.526 42.2299Z" fill="#8CBA80"/>
<path d="M65.528 94.9367C66.205 104.854 75.046 112.907 85.86 113.459C94.024 113.879 101.247 110.132 105.286 104.334C106.726 102.267 109.156 100.984 111.781 100.736V144.83H29.351C13.143 144.83 0 132.767 0 117.89V42.2299H48.286C47.947 39.9214 46.576 37.7993 44.407 36.5244C38.081 32.8171 34.008 26.1865 34.457 18.7022C35.058 8.77633 43.831 0.661458 54.637 0.0400606C67.204 -0.682302 77.637 8.45875 77.637 19.8293C77.637 26.8326 73.683 32.9732 67.713 36.4941C65.537 37.7846 64.131 39.8985 63.775 42.2308H111.781V86.5822C109.13 86.3252 106.708 85.02 105.252 82.9364C101.407 77.4568 94.726 73.8275 87.096 73.8275C74.7 73.8266 64.749 83.4018 65.528 94.9367Z" fill="#FFB6C1"/>
</svg>
